<svg width="21" height="30" viewBox="0 0 21 30" fill="none" xmlns="http://www.w3.org/2000/svg">
<path d="M10.6101 14.2585C9.65885 14.2585 8.74651 13.8806 8.07384 13.208C7.40117 12.5353 7.02327 11.623 7.02327 10.6717C7.02327 9.72037 7.40117 8.80803 8.07384 8.13536C8.74651 7.46269 9.65885 7.08479 10.6101 7.08479C11.5614 7.08479 12.4738 7.46269 13.1464 8.13536C13.8191 8.80803 14.197 9.72037 14.197 10.6717C14.197 11.1427 14.1042 11.6091 13.924 12.0443C13.7437 12.4795 13.4795 12.8749 13.1464 13.208C12.8134 13.541 12.418 13.8053 11.9828 13.9855C11.5476 14.1658 11.0812 14.2585 10.6101 14.2585ZM10.6101 0.628418C7.94651 0.628418 5.39197 1.68654 3.50849 3.57002C1.62502 5.45349 0.566895 8.00803 0.566895 10.6717C0.566895 18.2041 10.6101 29.3234 10.6101 29.3234C10.6101 29.3234 20.6534 18.2041 20.6534 10.6717C20.6534 8.00803 19.5953 5.45349 17.7118 3.57002C15.8283 1.68654 13.2738 0.628418 10.6101 0.628418Z" fill="white"/>
</svg>
