<svg width="256" height="88" viewBox="0 0 256 88" fill="none" xmlns="http://www.w3.org/2000/svg">
<path d="M0.759376 79.4321C0.759376 83.9676 4.43615 87.6444 8.97168 87.6444C13.5072 87.6444 17.184 83.9676 17.184 79.4321C17.184 74.8965 13.5072 71.2198 8.97168 71.2198C4.43615 71.2198 0.759376 74.8965 0.759376 79.4321ZM239.362 8.6178C239.362 13.1533 243.039 16.8301 247.574 16.8301C252.11 16.8301 255.786 13.1533 255.786 8.6178C255.786 4.08227 252.11 0.405494 247.574 0.405494C243.039 0.405494 239.362 4.08227 239.362 8.6178ZM9.40979 80.9082L248.012 10.094L247.136 7.14163L8.53357 77.9559L9.40979 80.9082Z" fill="#F4F3F3"/>
</svg>
