<svg width="285" height="28" viewBox="0 0 285 28" fill="none" xmlns="http://www.w3.org/2000/svg">
<path d="M0.0942144 18.9486C0.0942144 23.4841 3.77099 27.1609 8.30652 27.1609C12.842 27.1609 16.5188 23.4841 16.5188 18.9486C16.5188 14.4131 12.842 10.7363 8.30652 10.7363C3.77099 10.7363 0.0942144 14.4131 0.0942144 18.9486ZM268.362 8.82898C268.362 13.3645 272.038 17.0413 276.574 17.0413C281.109 17.0413 284.786 13.3645 284.786 8.82898C284.786 4.29345 281.109 0.616675 276.574 0.616675C272.038 0.616675 268.362 4.29345 268.362 8.82898ZM8.36456 20.4873L276.632 10.3677L276.516 7.29027L8.24848 17.4099L8.36456 20.4873Z" fill="#F4F3F3"/>
</svg>
