<svg width="310" height="43" viewBox="0 0 310 43" fill="none" xmlns="http://www.w3.org/2000/svg">
<path d="M0.473243 34.5804C0.473243 39.1159 4.15002 42.7927 8.68555 42.7927C13.2211 42.7927 16.8979 39.1159 16.8979 34.5804C16.8979 30.0449 13.2211 26.3681 8.68555 26.3681C4.15002 26.3681 0.473243 30.0449 0.473243 34.5804ZM293.362 8.32581C293.362 12.8613 297.039 16.5381 301.574 16.5381C306.11 16.5381 309.786 12.8613 309.786 8.32581C309.786 3.79028 306.11 0.113502 301.574 0.113502C297.039 0.113502 293.362 3.79028 293.362 8.32581ZM8.82302 36.1141L301.712 9.85946L301.437 6.79215L8.54807 33.0467L8.82302 36.1141Z" fill="#F4F3F3"/>
</svg>
