<svg width="311" height="85" viewBox="0 0 311 85" fill="none" xmlns="http://www.w3.org/2000/svg">
<path d="M0.787696 8.23193C0.787696 12.7675 4.46447 16.4442 9 16.4442C13.5355 16.4442 17.2123 12.7675 17.2123 8.23193C17.2123 3.6964 13.5355 0.0196295 9 0.0196295C4.46447 0.0196295 0.787696 3.6964 0.787696 8.23193ZM294.362 76.1698C294.362 80.7053 298.039 84.3821 302.574 84.3821C307.11 84.3821 310.786 80.7053 310.786 76.1698C310.786 71.6343 307.11 67.9575 302.574 67.9575C298.039 67.9575 294.362 71.6343 294.362 76.1698ZM8.65284 9.7321L302.227 77.67L302.921 74.6697L9.34716 6.73177L8.65284 9.7321Z" fill="#F4F3F3"/>
</svg>
