<svg width="220" height="96" viewBox="0 0 220 96" fill="none" xmlns="http://www.w3.org/2000/svg">
<path d="M0.238281 87.7893C0.238281 92.2075 3.82 95.7893 8.23828 95.7893C12.6566 95.7893 16.2383 92.2075 16.2383 87.7893C16.2383 83.371 12.6566 79.7893 8.23828 79.7893C3.82 79.7893 0.238281 83.371 0.238281 87.7893ZM203.536 8.83527C203.536 13.2535 207.117 16.8353 211.536 16.8353C215.954 16.8353 219.536 13.2535 219.536 8.83527C219.536 4.41699 215.954 0.835266 211.536 0.835266C207.117 0.835266 203.536 4.41699 203.536 8.83527ZM8.78132 89.1875L212.079 10.2335L210.993 7.43701L7.69525 86.391L8.78132 89.1875Z" fill="#F4F3F3"/>
</svg>
