<svg width="444" height="157" viewBox="0 0 444 157" fill="none" xmlns="http://www.w3.org/2000/svg">
<path d="M0.84375 148.041C0.84375 152.459 4.42547 156.041 8.84375 156.041C13.262 156.041 16.8438 152.459 16.8438 148.041C16.8438 143.623 13.262 140.041 8.84375 140.041C4.42547 140.041 0.84375 143.623 0.84375 148.041ZM427.535 8.92084C427.535 13.3391 431.117 16.9208 435.535 16.9208C439.954 16.9208 443.535 13.3391 443.535 8.92084C443.535 4.50256 439.954 0.920837 435.535 0.920837C431.117 0.920837 427.535 4.50256 427.535 8.92084ZM9.30873 149.467L436 10.347L435.07 7.49472L8.37877 146.615L9.30873 149.467Z" fill="#F4F3F3"/>
</svg>
