<svg width="510" height="108" viewBox="0 0 510 108" fill="none" xmlns="http://www.w3.org/2000/svg">
<path d="M0.287109 99.1173C0.287109 103.536 3.86883 107.117 8.28711 107.117C12.7054 107.117 16.2871 103.536 16.2871 99.1173C16.2871 94.699 12.7054 91.1173 8.28711 91.1173C3.86883 91.1173 0.287109 94.699 0.287109 99.1173ZM493.537 8.39624C493.537 12.8145 497.119 16.3962 501.537 16.3962C505.955 16.3962 509.537 12.8145 509.537 8.39624C509.537 3.97796 505.955 0.39624 501.537 0.39624C497.119 0.39624 493.537 3.97796 493.537 8.39624ZM8.55845 100.593L501.808 9.8715L501.266 6.92099L8.01577 97.642L8.55845 100.593Z" fill="#F4F3F3"/>
</svg>
