<svg width="7" height="11" viewBox="0 0 7 11" fill="none" xmlns="http://www.w3.org/2000/svg">
<path d="M6.1 5.49988C6.10007 5.56704 6.08662 5.6335 6.06048 5.69544C6.03435 5.75733 5.99609 5.81343 5.94798 5.86056L6.1 5.49988ZM6.1 5.49988L6 5.49998L6.1 5.49988ZM1.78133 9.95147L5.94788 5.86066L5.94788 5.1393L1.78135 1.04852C1.5797 0.850403 1.25374 0.850601 1.05207 1.04847C0.849296 1.24743 0.849329 1.57063 1.05205 1.76966L4.85144 5.49998L1.05207 9.23028C1.05206 9.23029 1.05206 9.23029 1.05205 9.2303C0.849267 9.42929 0.849479 9.75245 1.05203 9.95144C1.25365 10.1495 1.57963 10.1495 1.78133 9.95147Z" fill="#0E6131" stroke="#0E6131" stroke-width="0.2"/>
</svg>
