<svg width="21" height="21" viewBox="0 0 21 21" fill="none" xmlns="http://www.w3.org/2000/svg">
<g clip-path="url(#clip0_9_196)">
<path d="M20.2774 11.0554L17.5298 4.63249C17.5841 4.48709 17.6154 4.33034 17.6154 4.16637C17.6153 3.8127 17.4748 3.47354 17.2247 3.22349C16.9745 2.97344 16.6353 2.83297 16.2817 2.83297C16.0703 2.8329 15.8619 2.88326 15.6739 2.97988C15.4859 3.07649 15.3236 3.21656 15.2006 3.38846H12.1254C11.972 3.02642 11.7154 2.71758 11.3875 2.50048C11.0597 2.28339 10.6752 2.16765 10.282 2.16772C9.8888 2.1678 9.50433 2.28368 9.17658 2.5009C8.84883 2.71811 8.59231 3.02705 8.43904 3.38915H5.36387C5.19914 3.16039 4.96612 2.98973 4.69831 2.90171C4.4305 2.81369 4.14167 2.81284 3.87335 2.89928C3.60502 2.98572 3.371 3.15499 3.20492 3.38278C3.03885 3.61057 2.94926 3.88515 2.94903 4.16706C2.94903 4.33102 2.98031 4.48743 3.03462 4.63318L0.287039 11.0554H0.282227C0.282227 13.1413 2.0735 14.8332 4.28243 14.8332C6.49205 14.8332 8.2823 13.1413 8.2823 11.0554H8.27748L5.66362 4.94462H8.43904C8.59169 5.30449 8.84603 5.61199 9.17089 5.82943V15.7222H5.17102V16.6111C5.17102 17.8335 7.05511 20.5 8.27748 20.5H12.2825C13.5049 20.5 15.3934 17.8335 15.3934 16.6111V15.7222H11.3932V5.82908C11.7179 5.61162 11.9722 5.30428 12.1251 4.94462H14.9001L12.2825 11.0554L12.2808 11.0589L12.2825 11.0596C12.2849 13.1437 14.0748 14.8332 16.2824 14.8332C18.492 14.8332 20.2822 13.1413 20.2822 11.0554H20.2774ZM7.06886 11.0554H1.49566L3.8964 5.44271C4.14805 5.51868 4.41654 5.51856 4.66812 5.44237L7.06886 11.0554ZM13.4908 11.0554L15.8953 5.44271C16.1472 5.51929 16.4162 5.51929 16.6681 5.44271L19.0691 11.0554H13.4908Z" fill="#CECECE"/>
</g>
<defs>
<clipPath id="clip0_9_196">
<rect width="20" height="20" fill="white" transform="translate(0.282227 0.5)"/>
</clipPath>
</defs>
</svg>
