<svg width="392" height="33" viewBox="0 0 392 33" fill="none" xmlns="http://www.w3.org/2000/svg">
<path d="M0.628906 24.2882C0.628906 28.7065 4.21063 32.2882 8.62891 32.2882C13.0472 32.2882 16.6289 28.7065 16.6289 24.2882C16.6289 19.8699 13.0472 16.2882 8.62891 16.2882C4.21063 16.2882 0.628906 19.8699 0.628906 24.2882ZM375.419 8.11475C375.419 12.533 379.001 16.1147 383.419 16.1147C387.837 16.1147 391.419 12.533 391.419 8.11475C391.419 3.69647 387.837 0.114746 383.419 0.114746C379.001 0.114746 375.419 3.69647 375.419 8.11475ZM8.69358 25.7868L383.484 9.61335L383.354 6.61614L8.56424 22.7896L8.69358 25.7868Z" fill="white"/>
</svg>
