<svg width="350" height="51" viewBox="0 0 350 51" fill="none" xmlns="http://www.w3.org/2000/svg">
<path d="M0.0585938 8.65796C0.0585938 13.0762 3.64032 16.658 8.05859 16.658C12.4769 16.658 16.0586 13.0762 16.0586 8.65796C16.0586 4.23968 12.4769 0.657959 8.05859 0.657959C3.64032 0.657959 0.0585938 4.23968 0.0585938 8.65796ZM333.87 42.2561C333.87 46.6743 337.452 50.2561 341.87 50.2561C346.289 50.2561 349.87 46.6743 349.87 42.2561C349.87 37.8378 346.289 34.2561 341.87 34.2561C337.452 34.2561 333.87 37.8378 333.87 42.2561ZM7.90838 10.1504L341.72 43.7485L342.021 40.7636L8.20881 7.1655L7.90838 10.1504Z" fill="white"/>
</svg>
