<svg width="475" height="110" viewBox="0 0 475 110" fill="none" xmlns="http://www.w3.org/2000/svg">
<path d="M0.0195312 101.586C0.0195312 106.004 3.60125 109.586 8.01953 109.586C12.4378 109.586 16.0195 106.004 16.0195 101.586C16.0195 97.1678 12.4378 93.5861 8.01953 93.5861C3.60125 93.5861 0.0195312 97.1678 0.0195312 101.586ZM458.063 8.29346C458.063 12.7117 461.645 16.2935 466.063 16.2935C470.482 16.2935 474.063 12.7117 474.063 8.29346C474.063 3.87518 470.482 0.293457 466.063 0.293457C461.645 0.293457 458.063 3.87518 458.063 8.29346ZM8.3189 103.056L466.363 9.76328L465.764 6.82363L7.72016 100.116L8.3189 103.056Z" fill="white"/>
</svg>
