<svg width="27" height="19" viewBox="0 0 27 19" fill="none" xmlns="http://www.w3.org/2000/svg">
<path fill-rule="evenodd" clip-rule="evenodd" d="M8.28116 11.4525C8.13594 11.4525 7.99621 11.3722 7.92693 11.2334C7.82943 11.038 7.9088 10.8005 8.10429 10.703L23.7726 2.88551C23.917 2.81342 23.976 2.63716 23.9039 2.49276L23.4164 1.51562C23.3815 1.44558 23.3214 1.3934 23.2472 1.36861C23.173 1.34382 23.0936 1.34938 23.0235 1.38426L7.56301 9.09828C7.36753 9.19578 7.1301 9.11647 7.03252 8.92099C6.93502 8.72558 7.01433 8.48807 7.20981 8.3905L22.6705 0.676418C22.9296 0.547194 23.2235 0.526595 23.498 0.618329C23.7726 0.710131 23.995 0.903349 24.1243 1.16248L24.6117 2.13949C24.8785 2.67403 24.6606 3.32626 24.1258 3.59322L8.45749 11.4107C8.40077 11.439 8.34049 11.4525 8.28116 11.4525Z" fill="#D1FB9A"/>
<path fill-rule="evenodd" clip-rule="evenodd" d="M21.7975 4.71552C21.7217 4.71552 21.6452 4.69382 21.5776 4.6485L19.2151 3.06507C19.0336 2.94346 18.9851 2.69779 19.1067 2.51638C19.2283 2.3349 19.474 2.28643 19.6555 2.40803L22.018 3.99147C22.1994 4.11307 22.248 4.35875 22.1264 4.54022C22.0501 4.654 21.925 4.71552 21.7975 4.71552Z" fill="#D1FB9A"/>
<path fill-rule="evenodd" clip-rule="evenodd" d="M18.3741 6.42358C18.2983 6.42358 18.2218 6.40188 18.1542 6.35656L15.7917 4.77313C15.6103 4.65152 15.5617 4.40585 15.6833 4.22444C15.8049 4.04303 16.0505 3.99449 16.2321 4.11609L18.5946 5.69953C18.776 5.82113 18.8246 6.06681 18.703 6.24828C18.6267 6.36206 18.5015 6.42358 18.3741 6.42358Z" fill="#D1FB9A"/>
<path fill-rule="evenodd" clip-rule="evenodd" d="M14.9506 8.13171C14.8749 8.13171 14.7984 8.11001 14.7307 8.06469L12.3682 6.48126C12.1867 6.35965 12.1382 6.11398 12.2598 5.93257C12.3814 5.75109 12.6271 5.70262 12.8085 5.82422L15.1711 7.40766C15.3525 7.52926 15.401 7.77494 15.2794 7.95641C15.2032 8.07019 15.0781 8.13171 14.9506 8.13171Z" fill="#D1FB9A"/>
<path fill-rule="evenodd" clip-rule="evenodd" d="M11.4462 9.88014C11.3704 9.88014 11.294 9.85845 11.2263 9.81313L8.86377 8.22969C8.68229 8.10809 8.63381 7.86241 8.75542 7.68101C8.87702 7.49953 9.12269 7.45105 9.3041 7.57265L11.6667 9.15609C11.8481 9.27769 11.8966 9.52337 11.775 9.70478C11.6988 9.81862 11.5737 9.88014 11.4462 9.88014Z" fill="#D1FB9A"/>
<path fill-rule="evenodd" clip-rule="evenodd" d="M8.28082 16.3951C8.0624 16.3951 7.88532 16.218 7.88532 15.9996V10.6082C7.88532 9.50929 6.99126 8.61523 5.89231 8.61523C5.35989 8.61523 4.85948 8.82253 4.4832 9.19894C4.11421 9.5678 3.90698 10.0578 3.8995 10.5789L3.89936 15.9996C3.89936 16.218 3.72228 16.3951 3.50386 16.3951C3.28545 16.3951 3.10837 16.218 3.10837 15.9996L3.1085 10.5763C3.1085 10.5746 3.1085 10.5729 3.10857 10.5712C3.11812 9.84169 3.40767 9.15575 3.92388 8.63975C4.44949 8.11393 5.14862 7.82431 5.89231 7.82431C7.42741 7.82431 8.67632 9.07322 8.67632 10.6083V15.9997C8.67632 16.218 8.49923 16.3951 8.28082 16.3951Z" fill="#D1FB9A"/>
<path fill-rule="evenodd" clip-rule="evenodd" d="M8.87338 18.104C8.65496 18.104 8.47788 17.9269 8.47788 17.7085V16.3951H3.3068V17.7085C3.3068 17.9269 3.12972 18.104 2.9113 18.104C2.69289 18.104 2.5158 17.9269 2.5158 17.7085V15.9996C2.5158 15.7812 2.69289 15.6041 2.9113 15.6041H8.87338C9.0918 15.6041 9.26888 15.7812 9.26888 15.9996V17.7085C9.26888 17.9269 9.0918 18.104 8.87338 18.104Z" fill="#D1FB9A"/>
<path fill-rule="evenodd" clip-rule="evenodd" d="M5.89237 11.9678C5.24969 11.9678 4.72689 11.4449 4.72689 10.8023C4.72689 10.1596 5.24976 9.6368 5.89237 9.6368C6.53499 9.6368 7.05786 10.1597 7.05786 10.8023C7.05779 11.4449 6.53499 11.9678 5.89237 11.9678ZM5.89237 10.4277C5.68584 10.4277 5.51789 10.5957 5.51789 10.8022C5.51789 11.0088 5.6859 11.1767 5.89237 11.1767C6.09891 11.1767 6.26686 11.0087 6.26686 10.8022C6.26686 10.5957 6.09884 10.4277 5.89237 10.4277Z" fill="#D1FB9A"/>
<path fill-rule="evenodd" clip-rule="evenodd" d="M23.965 18.104C23.7465 18.104 23.5695 17.9269 23.5695 17.7085V10.6719H22.2191V17.7085C22.2191 17.9269 22.042 18.104 21.8236 18.104C21.6051 18.104 21.4281 17.9269 21.4281 17.7085V10.2764C21.4281 10.058 21.6051 9.8809 21.8236 9.8809H23.965C24.1834 9.8809 24.3605 10.058 24.3605 10.2764V17.7085C24.3605 17.9269 24.1834 18.104 23.965 18.104Z" fill="#D1FB9A"/>
<path fill-rule="evenodd" clip-rule="evenodd" d="M25.8813 18.104H1.36034C1.14193 18.104 0.964844 17.9269 0.964844 17.7085C0.964844 17.4901 1.14193 17.313 1.36034 17.313H25.8813C26.0997 17.313 26.2768 17.4901 26.2768 17.7085C26.2768 17.9269 26.0997 18.104 25.8813 18.104Z" fill="#D1FB9A"/>
</svg>
