<svg width="19" height="16" viewBox="0 0 19 16" fill="none" xmlns="http://www.w3.org/2000/svg">
<path fill-rule="evenodd" clip-rule="evenodd" d="M1.16708 0.871767C1.06668 0.921517 0.994829 0.993772 0.946519 1.09356L0.908203 1.17269L0.908604 8.32952L0.909006 15.4863L0.946209 15.5684C0.990598 15.6663 1.03807 15.7204 1.13617 15.7848L1.20911 15.8327L1.35501 15.8328L1.5009 15.8328L1.55562 15.7976C1.647 15.7387 1.71196 15.6724 1.75334 15.5957L1.7927 15.5228L1.79791 14.6245L1.80313 13.7263L3.33893 13.7309L4.87474 13.7356L4.88386 14.6292L4.89298 15.5228L4.92384 15.5866C4.96421 15.6702 5.02201 15.7316 5.11182 15.7866L5.18477 15.8312L5.3229 15.832L5.46102 15.8328L5.54856 15.7781L5.6361 15.7234L5.68829 15.6505L5.74049 15.5775L5.75898 15.4793L5.77747 15.381V8.5538V1.72653H7.27299H8.7685L8.76387 3.59892L8.75922 5.47131L8.63156 5.51112C8.05428 5.6911 7.58476 6.15589 7.3938 6.73635C7.33053 6.9287 7.30956 7.07631 7.31014 7.32528L7.31065 7.53501L7.33522 7.67275C7.42155 8.15665 7.71674 8.6022 8.14456 8.89437C8.3448 9.03113 8.49485 9.09398 8.8504 9.19001L8.92335 9.20972L9.1969 9.21035L9.47046 9.21097L9.65308 9.16253C9.877 9.10317 10.079 9.01163 10.2779 8.87947L10.4289 8.77917L10.5664 8.63296C10.8486 8.33295 11.0046 8.02529 11.0755 7.62887L11.1076 7.44916L11.0975 7.25501C11.074 6.80285 10.9251 6.42058 10.641 6.08291L10.535 5.95689L10.3743 5.8341C10.1494 5.66231 9.98184 5.57295 9.75313 5.50282L9.65283 5.47206L9.64818 3.59931L9.64354 1.72653H11.3305H13.0175V3.6018V5.47709L12.9258 5.49827C12.8753 5.50992 12.7974 5.53614 12.7526 5.55655C12.7078 5.57694 12.6512 5.60121 12.6268 5.6105C12.6024 5.61978 12.51 5.67449 12.4215 5.73206L12.2607 5.83676L12.1138 5.98377C11.6794 6.41852 11.4985 6.96381 11.5779 7.59931L11.5972 7.75385L11.6535 7.91661C11.873 8.5513 12.3305 8.97673 12.9902 9.1597L13.1726 9.21027L13.4461 9.21098L13.7197 9.21168L13.9112 9.16076C14.3054 9.05591 14.6479 8.84557 14.8803 8.56539C15.0748 8.331 15.1377 8.22613 15.2351 7.97444L15.2979 7.81206L15.3248 7.64618C15.3588 7.43695 15.3589 7.23678 15.3254 7.01419C15.2928 6.79821 15.2637 6.7086 15.1507 6.47726L15.0617 6.29489L14.945 6.14779C14.779 5.93865 14.453 5.67487 14.2785 5.60854C14.2523 5.59857 14.2046 5.57794 14.1725 5.56272C14.1404 5.54747 14.0664 5.52084 14.0081 5.50354L13.902 5.47206L13.8974 3.59931L13.8928 1.72653H15.3883H16.8838V2.47246V3.21839L16.6421 3.22474L16.4005 3.23108L16.2929 3.28557L16.1854 3.34009L16.1252 3.43147L16.0649 3.52287L16.0531 3.61451L16.0413 3.70617L16.0618 3.78244C16.0731 3.8244 16.1089 3.89394 16.1412 3.937L16.2002 4.01527L16.299 4.06542L16.3979 4.11558H16.6408H16.8838V4.87241V5.62924H16.6625H16.4412L16.3752 5.64903C16.3389 5.6599 16.277 5.69068 16.2378 5.71742L16.1664 5.76602L16.1102 5.85721L16.054 5.94839L16.0547 6.07997L16.0555 6.21157L16.1277 6.31523L16.1999 6.41889L16.2911 6.46632L16.3823 6.51374L16.633 6.52005L16.8838 6.52636V7.27973V8.03309L16.6239 8.03937L16.364 8.04564L16.2828 8.09123L16.2016 8.13683L16.142 8.2151C16.1092 8.25816 16.0731 8.32782 16.0617 8.36993L16.0411 8.44647L16.052 8.52567C16.0732 8.68069 16.1825 8.83273 16.3114 8.88658L16.372 8.9119H16.6279H16.8838V9.66873V10.4256L16.6786 10.4258L16.4735 10.426L16.383 10.4534C16.2588 10.4911 16.1812 10.5473 16.1174 10.6459L16.0633 10.7294L16.0518 10.8128L16.0404 10.8962L16.0628 10.9895L16.0852 11.0828L16.179 11.1811L16.2728 11.2794L16.3458 11.2992L16.4187 11.319L16.6513 11.3191L16.8838 11.3192V12.076V12.8328H16.6678H16.4519L16.3661 12.8587C16.2523 12.8929 16.17 12.9583 16.1065 13.0647L16.0544 13.152L16.0542 13.2796L16.054 13.4073L16.1046 13.4933C16.1662 13.5982 16.2522 13.6664 16.3661 13.7006L16.4519 13.7265H16.6672H16.8825L16.8877 14.6246L16.8929 15.5228L16.9323 15.5957C16.9736 15.6724 17.0386 15.7387 17.13 15.7976L17.1847 15.8328L17.3306 15.8328L17.4765 15.8327L17.5494 15.7848C17.6475 15.7204 17.695 15.6663 17.7394 15.5684L17.7766 15.4863L17.777 14.6064L17.7774 13.7265H17.9929H18.2085L18.3032 13.6983L18.398 13.6702L18.4644 13.6118L18.5309 13.5535L18.5734 13.4621L18.6159 13.3708L18.6161 13.2799L18.6163 13.189L18.5671 13.0917C18.54 13.0381 18.4908 12.9707 18.4579 12.9417L18.398 12.8891L18.3032 12.861L18.2085 12.8328H17.9929H17.7774V12.076V11.3192L18.019 11.3184L18.2607 11.3176L18.3275 11.2937C18.418 11.2614 18.4917 11.1986 18.5546 11.1003L18.6072 11.0183L18.606 10.8815L18.6048 10.7447L18.5555 10.6604L18.5063 10.576L18.4354 10.5269C18.3964 10.4999 18.3255 10.466 18.2778 10.4517L18.191 10.4256H17.9842H17.7774V9.67001V8.91447L18.0584 8.90861L18.3393 8.90278L18.4185 8.84541L18.4978 8.78801L18.5512 8.7012L18.6046 8.6144L18.6128 8.51648L18.6209 8.41855L18.589 8.33504C18.5714 8.2891 18.5315 8.22237 18.5002 8.18672L18.4433 8.12193L18.352 8.0794L18.2607 8.03689L18.019 8.03671L17.7774 8.03652V7.27969V6.52285H17.9882H18.1989L18.2754 6.5034C18.3174 6.49271 18.3845 6.46165 18.4244 6.4344L18.4969 6.38487L18.5521 6.29564L18.6072 6.20641L18.6068 6.0774L18.6064 5.94839L18.5545 5.86105C18.4939 5.75913 18.417 5.69568 18.3073 5.65696L18.2287 5.62924H18.0031H17.7774V4.87241V4.11558L18.019 4.11539L18.2607 4.11521L18.352 4.0727L18.4433 4.03017L18.5002 3.96538C18.5315 3.92972 18.5716 3.8627 18.5892 3.81643L18.6214 3.73229L18.6112 3.63355L18.601 3.53482L18.5388 3.43765L18.4767 3.3405L18.3687 3.28579L18.2607 3.23108L18.019 3.22474L17.7774 3.21839V2.20183V1.18524L17.722 1.07436L17.6666 0.963481L17.572 0.90277L17.4773 0.842041L9.36145 0.837463L1.24559 0.832886L1.16708 0.871767ZM4.88386 2.47425V3.22196H3.34284H1.80181V2.47425V1.72653H3.34284H4.88386V2.47425ZM4.8795 4.87697L4.88426 5.62924H3.34304H1.80181V4.8723V4.11537L3.33828 4.12003L4.87474 4.12469L4.8795 4.87697ZM9.34898 6.32252L9.4828 6.33988L9.59518 6.38941C9.8933 6.52081 10.1026 6.76925 10.1832 7.08738L10.2131 7.2051L10.2053 7.37005L10.1975 7.53501L10.1543 7.65355C10.0975 7.8096 9.9974 7.95622 9.87058 8.06928L9.76759 8.16106L9.62928 8.22763L9.49096 8.29421L9.34849 8.31498L9.20602 8.33574L9.05557 8.31413L8.90511 8.29251L8.75245 8.21725L8.59981 8.14201L8.48801 8.02859L8.37624 7.91517L8.30836 7.7798L8.24048 7.64443L8.20881 7.47429L8.17713 7.30416L8.20886 7.14603L8.24059 6.9879L8.29875 6.86936L8.35689 6.75082L8.49662 6.60943L8.63637 6.46803L8.77687 6.404L8.91737 6.33997L9.0389 6.32431C9.20469 6.30292 9.19831 6.30295 9.34898 6.32252ZM13.5977 6.32291L13.7484 6.3418L13.8801 6.40431L14.0118 6.46685L14.1173 6.56084C14.1753 6.61254 14.254 6.70105 14.2922 6.75753L14.3616 6.86024L14.4131 7.01525L14.4646 7.17027L14.4634 7.3344L14.4622 7.49853L14.4163 7.629C14.2775 8.02381 13.9442 8.28772 13.5413 8.32177L13.4086 8.33298L13.2787 8.31106L13.1488 8.28914L13.0374 8.23645C12.7566 8.10369 12.5692 7.88508 12.4895 7.59734L12.4522 7.46279V7.31616V7.16954L12.4895 7.03498C12.5388 6.85717 12.5985 6.75926 12.7528 6.60337L12.8808 6.47414L13.0232 6.40711L13.1657 6.34007L13.2877 6.32435C13.3547 6.3157 13.4181 6.30759 13.4284 6.30631C13.4387 6.30505 13.5149 6.31251 13.5977 6.32291ZM4.8795 7.27513L4.87474 8.0274L3.33828 8.03207L1.80181 8.03672V7.2798V6.52285H3.34304H4.88426L4.8795 7.27513ZM4.8795 9.67329L4.88426 10.4256H3.34304H1.80181V9.66862V8.9117L3.33828 8.91635L4.87474 8.92102L4.8795 9.67329ZM4.8795 12.0715L4.87474 12.8237L3.33828 12.8284L1.80181 12.833V12.0761V11.3192H3.34304H4.88426L4.8795 12.0715Z" fill="#D1FB9A"/>
</svg>
