<svg width="19" height="21" viewBox="0 0 19 21" fill="none" xmlns="http://www.w3.org/2000/svg">
<path fill-rule="evenodd" clip-rule="evenodd" d="M18.7457 20.4509H0.254908C0.147232 20.4509 0.0605469 20.3638 0.0605469 20.2565V0.743434C0.0605469 0.636146 0.147232 0.549072 0.254908 0.549072H18.7457C18.8533 0.549072 18.94 0.636146 18.94 0.743434V20.2565C18.94 20.3638 18.853 20.4509 18.7457 20.4509ZM0.44927 20.0622H18.5513V0.937795H0.44927V20.0622Z" fill="#D1FB9A"/>
<path fill-rule="evenodd" clip-rule="evenodd" d="M18.7457 1.9994H0.254908C0.147232 1.9994 0.0605469 1.91232 0.0605469 1.80504C0.0605469 1.69775 0.147232 1.61067 0.254908 1.61067H18.7457C18.8533 1.61067 18.94 1.69775 18.94 1.80504C18.94 1.91232 18.8533 1.9994 18.7457 1.9994Z" fill="#D1FB9A"/>
<path fill-rule="evenodd" clip-rule="evenodd" d="M18.7457 3.32494H0.254908C0.147232 3.32494 0.0605469 3.23787 0.0605469 3.13058C0.0605469 3.02329 0.147232 2.93622 0.254908 2.93622H18.7457C18.8533 2.93622 18.94 3.02329 18.94 3.13058C18.94 3.23787 18.8533 3.32494 18.7457 3.32494Z" fill="#D1FB9A"/>
<path fill-rule="evenodd" clip-rule="evenodd" d="M14.3951 20.4509H1.54625C1.43896 20.4509 1.35188 20.3638 1.35188 20.2565V4.89033C1.35188 4.78304 1.43896 4.69597 1.54625 4.69597H14.3951C14.5024 4.69597 14.5891 4.78304 14.5891 4.89033V20.2565C14.5894 20.3638 14.5024 20.4509 14.3951 20.4509ZM1.74061 20.0622H14.2007V5.08469H1.74061V20.0622Z" fill="#D1FB9A"/>
<path fill-rule="evenodd" clip-rule="evenodd" d="M13.0898 19.1456H2.85158C2.74429 19.1456 2.65721 19.0585 2.65721 18.9512V6.19566C2.65721 6.08837 2.74429 6.0013 2.85158 6.0013H13.0898C13.197 6.0013 13.2841 6.08837 13.2841 6.19566V18.9512C13.2841 19.0585 13.197 19.1456 13.0898 19.1456ZM3.04594 18.7568H12.8954V6.39002H3.04594V18.7568Z" fill="#D1FB9A"/>
<path fill-rule="evenodd" clip-rule="evenodd" d="M8.61633 19.1456H7.325C7.21771 19.1456 7.13064 19.0585 7.13064 18.9512V6.19566C7.13064 6.08837 7.21771 6.0013 7.325 6.0013H8.61633C8.72401 6.0013 8.81069 6.08837 8.81069 6.19566V18.9512C8.81069 19.0585 8.72401 19.1456 8.61633 19.1456ZM7.51936 18.7568H8.42197V6.39002H7.51936V18.7568Z" fill="#D1FB9A"/>
<path fill-rule="evenodd" clip-rule="evenodd" d="M5.0739 13.9235C4.96662 13.9235 4.87954 13.8364 4.87954 13.7291V11.4178C4.87954 11.3105 4.96662 11.2234 5.0739 11.2234C5.18158 11.2234 5.26827 11.3105 5.26827 11.4178V13.7291C5.26827 13.8364 5.18158 13.9235 5.0739 13.9235Z" fill="#D1FB9A"/>
<path fill-rule="evenodd" clip-rule="evenodd" d="M6.05971 12.4281C6.01617 12.4281 5.97224 12.4133 5.93609 12.3833L5.0739 11.67L4.21211 12.3833C4.1297 12.4518 4.00686 12.4401 3.93844 12.3577C3.87003 12.2749 3.88169 12.1524 3.96449 12.0836L4.95029 11.2681C5.0222 11.2086 5.12599 11.2086 5.19791 11.2681L6.18371 12.0836C6.2665 12.1524 6.27817 12.2749 6.20975 12.3577C6.17127 12.4039 6.11568 12.4281 6.05971 12.4281Z" fill="#D1FB9A"/>
<path fill-rule="evenodd" clip-rule="evenodd" d="M10.8674 13.9235C10.7601 13.9235 10.6731 13.8364 10.6731 13.7291V11.4178C10.6731 11.3101 10.7601 11.2234 10.8674 11.2234C10.9747 11.2234 11.0618 11.3101 11.0618 11.4178V13.7291C11.0618 13.8364 10.9747 13.9235 10.8674 13.9235Z" fill="#D1FB9A"/>
<path fill-rule="evenodd" clip-rule="evenodd" d="M10.8674 13.9235C10.8235 13.9235 10.7796 13.9087 10.7434 13.8788L9.75762 13.0628C9.67483 12.9944 9.66355 12.872 9.73197 12.7892C9.80038 12.7068 9.92283 12.6951 10.0056 12.7635L10.8674 13.4768L11.7292 12.7635C11.812 12.6951 11.9345 12.7068 12.0029 12.7892C12.0713 12.872 12.06 12.9944 11.9772 13.0628L10.9914 13.8788C10.9553 13.9087 10.9114 13.9235 10.8674 13.9235Z" fill="#D1FB9A"/>
<path fill-rule="evenodd" clip-rule="evenodd" d="M17.4295 11.9775C17.4295 11.9775 17.4291 11.9775 17.4287 11.9775H15.4318C15.3611 11.9775 15.2958 11.939 15.2615 11.8768C15.2273 11.815 15.2297 11.7392 15.2674 11.6794L16.287 10.0646C16.3228 10.0083 16.385 9.97404 16.4514 9.97404H16.4534C16.5206 9.97482 16.5828 10.0102 16.6178 10.0677L17.5869 11.6689C17.6102 11.7011 17.6238 11.7404 17.6238 11.7832C17.6238 11.8904 17.5367 11.9775 17.4295 11.9775ZM15.7844 11.5888H17.0839L16.4479 10.5381L15.7844 11.5888Z" fill="#D1FB9A"/>
<path fill-rule="evenodd" clip-rule="evenodd" d="M16.4514 15.1728C16.385 15.1728 16.3228 15.1386 16.287 15.0822L15.2674 13.4675C15.2297 13.4076 15.2273 13.3318 15.2615 13.27C15.2958 13.2078 15.3611 13.1693 15.4318 13.1693H17.4287C17.499 13.1693 17.5636 13.2071 17.5982 13.2685C17.6324 13.3295 17.6312 13.4045 17.5951 13.4644L16.6178 15.0791C16.5828 15.1367 16.5206 15.172 16.4534 15.1728C16.4526 15.1728 16.4522 15.1728 16.4514 15.1728ZM15.7844 13.5581L16.4479 14.6088L17.0839 13.5581H15.7844Z" fill="#D1FB9A"/>
</svg>
