<svg width="22" height="19" viewBox="0 0 22 19" fill="none" xmlns="http://www.w3.org/2000/svg">
<path d="M10.9898 18.0699C10.8625 18.0699 10.7593 17.9668 10.7593 17.8395V10.4627C10.7593 10.4047 10.7103 10.3557 10.6523 10.3557H2.88977C2.83178 10.3557 2.78274 10.4047 2.78274 10.4627V17.8395C2.78274 17.9668 2.67953 18.0699 2.55227 18.0699C2.425 18.0699 2.3218 17.9668 2.3218 17.8395V10.4627C2.3218 10.1495 2.57656 9.89474 2.88977 9.89474H10.6523C10.9655 9.89474 11.2203 10.1495 11.2203 10.4627V17.8395C11.2203 17.9668 11.1171 18.0699 10.9898 18.0699Z" fill="#D1FB9A"/>
<path d="M10.0014 10.3557C9.87414 10.3557 9.77093 10.2525 9.77093 10.1252V5.34136H3.77113V10.1252C3.77113 10.2525 3.66792 10.3557 3.54066 10.3557C3.41339 10.3557 3.31019 10.2525 3.31019 10.1252V5.11089C3.31019 4.98362 3.41339 4.88042 3.54066 4.88042H10.0014C10.1287 4.88042 10.2319 4.98362 10.2319 5.11089V10.1252C10.2319 10.2525 10.1287 10.3557 10.0014 10.3557Z" fill="#D1FB9A"/>
<path d="M3.54047 5.3414C3.49548 5.3414 3.45004 5.32827 3.41012 5.30084C3.30526 5.22875 3.27861 5.08526 3.3507 4.98039L6.09287 0.990004C6.26494 0.739576 6.51214 0.595947 6.77101 0.595947C7.02987 0.595947 7.27707 0.739576 7.44914 0.990004L10.1913 4.98039C10.2634 5.0853 10.2368 5.22875 10.1319 5.30084C10.027 5.37293 9.88349 5.34638 9.81145 5.24142L7.06928 1.25103C6.98322 1.12584 6.8773 1.05689 6.77101 1.05689C6.66471 1.05689 6.55879 1.12584 6.47273 1.25103L3.73056 5.24142C3.68594 5.30642 3.61381 5.3414 3.54047 5.3414Z" fill="#D1FB9A"/>
<path d="M8.67551 10.3557C8.54825 10.3557 8.44504 10.2525 8.44504 10.1252V7.90699C8.44504 6.98396 7.69408 6.23299 6.77105 6.23299C5.84802 6.23299 5.09706 6.98396 5.09706 7.90699V10.1252C5.09706 10.2525 4.99386 10.3557 4.86659 10.3557C4.73933 10.3557 4.63612 10.2525 4.63612 10.1252V7.90699C4.63612 6.72979 5.59386 5.77206 6.77105 5.77206C7.94829 5.77206 8.90598 6.72979 8.90598 7.90699V10.1252C8.90598 10.2525 8.80278 10.3557 8.67551 10.3557Z" fill="#D1FB9A"/>
<path d="M8.67551 18.0699C8.54825 18.0699 8.44504 17.9668 8.44504 17.8395V10.3557H5.09706V17.8395C5.09706 17.9668 4.99386 18.0699 4.86659 18.0699C4.73933 18.0699 4.63612 17.9668 4.63612 17.8395V10.1252C4.63612 9.99789 4.73933 9.89474 4.86659 9.89474H8.67551C8.80278 9.89474 8.90598 9.99789 8.90598 10.1252V17.8395C8.90598 17.9668 8.80278 18.0699 8.67551 18.0699Z" fill="#D1FB9A"/>
<path d="M15.082 18.0496C14.9894 18.0496 14.9021 17.9934 14.8669 17.9018L11.9686 10.3655H10.0014C9.87414 10.3655 9.77093 10.2624 9.77093 10.1351V8.59222C9.77093 8.46495 9.87414 8.36175 10.0014 8.36175H13.0715C13.1669 8.36175 13.2524 8.42047 13.2866 8.50948L16.1849 16.0458H18.92C19.0473 16.0458 19.1505 16.1489 19.1505 16.2762V17.8191C19.1505 17.9465 19.0473 18.0496 18.92 18.0496C18.7927 18.0496 18.6895 17.9465 18.6895 17.8191V16.5067H16.0267C15.9313 16.5067 15.8458 16.448 15.8115 16.359L12.9132 8.82269H10.2319V9.9046H12.127C12.2223 9.9046 12.3078 9.96332 12.3421 10.0523L15.2971 17.7364C15.3428 17.8551 15.2835 17.9885 15.1647 18.0342C15.1375 18.0446 15.1096 18.0496 15.082 18.0496Z" fill="#D1FB9A"/>
<path d="M20.9555 18.0699H1.04297C0.915704 18.0699 0.8125 17.9668 0.8125 17.8395C0.8125 17.7122 0.915704 17.609 1.04297 17.609H20.9555C21.0828 17.609 21.186 17.7122 21.186 17.8395C21.186 17.9668 21.0828 18.0699 20.9555 18.0699Z" fill="#D1FB9A"/>
<path d="M8.67551 12.0431H4.86659C4.73933 12.0431 4.63612 11.94 4.63612 11.8127C4.63612 11.6853 4.73933 11.5822 4.86659 11.5822H8.67551C8.80278 11.5822 8.90598 11.6853 8.90598 11.8127C8.90598 11.94 8.80278 12.0431 8.67551 12.0431Z" fill="#D1FB9A"/>
<path d="M8.67551 14.2128H4.86659C4.73933 14.2128 4.63612 14.1096 4.63612 13.9823C4.63612 13.855 4.73933 13.7518 4.86659 13.7518H8.67551C8.80278 13.7518 8.90598 13.855 8.90598 13.9823C8.90598 14.1096 8.80278 14.2128 8.67551 14.2128Z" fill="#D1FB9A"/>
<path d="M8.67551 16.3824H4.86659C4.73933 16.3824 4.63612 16.2793 4.63612 16.152C4.63612 16.0247 4.73933 15.9215 4.86659 15.9215H8.67551C8.80278 15.9215 8.90598 16.0247 8.90598 16.152C8.90598 16.2793 8.80278 16.3824 8.67551 16.3824Z" fill="#D1FB9A"/>
<path d="M6.77105 4.56951C6.16542 4.56951 5.67268 4.07682 5.67268 3.47119C5.67268 2.86556 6.16538 2.37287 6.77105 2.37287C7.37668 2.37287 7.86938 2.86556 7.86938 3.47119C7.86938 4.07682 7.37668 4.56951 6.77105 4.56951ZM6.77105 2.8338C6.41959 2.8338 6.13362 3.11972 6.13362 3.47119C6.13362 3.82265 6.41959 4.10858 6.77105 4.10858C7.12252 4.10858 7.40844 3.82265 7.40844 3.47119C7.40844 3.11972 7.12252 2.8338 6.77105 2.8338Z" fill="#D1FB9A"/>
<path d="M17.4321 6.94413H12.8102C12.07 6.94413 11.4679 6.34196 11.4679 5.60179C11.4679 4.88858 12.027 4.30351 12.73 4.26184C12.8386 3.62998 13.3905 3.14761 14.0529 3.14761C14.1334 3.14761 14.2127 3.15457 14.2905 3.16849C14.3902 2.21481 15.1989 1.46892 16.1785 1.46892C17.2252 1.46892 18.0768 2.32046 18.0768 3.36716C18.0768 3.70406 17.988 4.03077 17.8222 4.31729C18.3727 4.48479 18.7744 4.99726 18.7744 5.60183C18.7744 6.34196 18.1722 6.94413 17.4321 6.94413ZM12.8102 4.72038C12.3242 4.72038 11.9288 5.11577 11.9288 5.60179C11.9288 6.0878 12.3242 6.48319 12.8102 6.48319H17.4321C17.9181 6.48319 18.3135 6.0878 18.3135 5.60179C18.3135 5.11577 17.9181 4.72038 17.4321 4.72038L17.4161 4.72056C17.3232 4.72208 17.2397 4.66921 17.2016 4.58532C17.1636 4.50143 17.1792 4.40298 17.2412 4.3349C17.4828 4.06986 17.6158 3.72613 17.6158 3.36711C17.6158 2.57457 16.9711 1.92981 16.1785 1.92981C15.3859 1.92981 14.7411 2.57457 14.7411 3.36711C14.7411 3.39785 14.7422 3.43007 14.7444 3.46289C14.7498 3.54388 14.7121 3.62169 14.6454 3.66783C14.5786 3.71392 14.4925 3.72153 14.4187 3.68774C14.3036 3.63515 14.1805 3.6085 14.0528 3.6085C13.5669 3.6085 13.1715 4.0039 13.1715 4.48991C13.1726 4.55638 13.145 4.62201 13.0957 4.66663C13.0464 4.71125 12.9802 4.73412 12.9142 4.72651C12.8796 4.72245 12.8446 4.72038 12.8102 4.72038Z" fill="#D1FB9A"/>
</svg>
