<svg width="21" height="21" viewBox="0 0 21 21" fill="none" xmlns="http://www.w3.org/2000/svg">
<path d="M7.51953 19.2412H3.51953C2.9891 19.2412 2.48039 19.0305 2.10532 18.6554C1.73024 18.2804 1.51953 17.7716 1.51953 17.2412V3.24121C1.51953 2.71078 1.73024 2.20207 2.10532 1.827C2.48039 1.45192 2.9891 1.24121 3.51953 1.24121H17.5195C18.05 1.24121 18.5587 1.45192 18.9337 1.827C19.3088 2.20207 19.5195 2.71078 19.5195 3.24121V17.2412C19.5195 17.7716 19.3088 18.2804 18.9337 18.6554C18.5587 19.0305 18.05 19.2412 17.5195 19.2412H12.5195M7.51953 1.24121V8.24121M19.5195 8.24121H12.5195M1.51953 13.2412H10.5195" stroke="#D1FB9A" stroke-width="2" stroke-linecap="round" stroke-linejoin="round"/>
</svg>
