<svg width="24" height="21" viewBox="0 0 24 21" fill="none" xmlns="http://www.w3.org/2000/svg">
<path d="M23.0577 0.342346H7.79267C5.72504 0.342346 4.04263 2.73675 4.04263 5.68011C4.04263 5.68216 4.04379 5.68391 4.04383 5.68601C4.04552 8.52003 5.60944 10.8374 7.57323 11.0007V13.8272H4.53826V11.6595C4.53826 11.0162 4.01495 10.4928 3.37165 10.4928H1.4469L1.4469 9.92506C1.4469 9.78013 1.32932 9.66255 1.18439 9.66255C1.03946 9.66255 0.921875 9.78013 0.921875 9.92506L0.921875 20.3951C0.921875 20.5401 1.03946 20.6577 1.18439 20.6577C1.32932 20.6577 1.4469 20.5401 1.4469 20.3951L1.4469 20.1016H3.37165C4.01495 20.1016 4.53826 19.5783 4.53826 18.935V16.7443H7.57323V17.1945C7.57323 17.8377 8.09655 18.3611 8.73984 18.3611H10.2794C10.9223 18.3611 11.4456 17.8377 11.4456 17.1945V11.0165H17.7743C19.8416 11.0165 21.5237 8.62313 21.5237 5.68148C21.5237 4.88774 21.4016 4.11742 21.1733 3.41833C23.4631 2.40442 23.3265 0.655615 23.3189 0.579221C23.3062 0.450964 23.1747 0.342346 23.0577 0.342346ZM19.8245 1.54792L19.823 1.54912C19.8214 1.55044 19.8193 1.55066 19.8177 1.55202C19.8162 1.55322 19.8157 1.55501 19.8143 1.55621C19.0895 2.11388 18.6135 2.75358 18.3421 3.19307C18.1014 3.58205 17.6889 3.81414 17.2387 3.81414H15.7231C15.3068 3.81414 14.8997 3.95907 14.577 4.22158C14.5373 4.25389 13.4086 5.17123 13.4613 5.12842C13.2316 5.31505 12.9428 5.41759 12.6475 5.41759H4.57764C4.65233 3.36704 5.76139 0.867708 7.79301 0.867708C8.26876 0.867694 18.1268 0.867439 20.9628 0.867365C20.5594 1.04956 20.1793 1.27652 19.8245 1.54792ZM16.7884 4.33917H17.2387C17.7206 4.33917 18.1705 4.15007 18.507 3.82009C18.7666 4.22937 18.9953 4.86864 18.9953 5.67806C18.9953 7.13931 18.2604 8.10904 17.7743 8.10904C17.2883 8.10904 16.5534 7.13931 16.5534 5.67806C16.5534 5.19909 16.6371 4.74209 16.7884 4.33917ZM4.01324 18.935C4.01324 19.2887 3.72543 19.5766 3.37165 19.5766H1.4469V11.0179H3.37165C3.72543 11.0179 4.01324 11.3057 4.01324 11.6595V18.935ZM4.53826 16.2193V14.3523H7.57323V16.2193H4.53826ZM10.9206 17.1945C10.9206 17.5482 10.6328 17.836 10.2794 17.836H8.73984C8.38606 17.836 8.09825 17.5482 8.09825 17.1945C8.09825 15.0053 8.09825 13.1613 8.09825 11.0179H10.9206V17.1945ZM16.1531 10.4915H7.79301C6.07433 10.4915 4.66931 8.47307 4.57755 5.94262H12.6475C13.0628 5.94262 13.4695 5.79804 13.7922 5.53586L14.036 5.3377C14.031 5.45238 14.0253 5.56719 14.0253 5.68148C14.0253 7.4591 14.6953 9.49146 16.1531 10.4915ZM17.7743 10.4915C15.9965 10.4915 14.5503 8.33361 14.5503 5.68148C14.5503 5.40892 14.5685 5.14064 14.5995 4.87979L14.9085 4.62869C15.1379 4.44206 15.4271 4.33917 15.7231 4.33917H16.2291C16.0979 4.75328 16.0283 5.20857 16.0283 5.67806C16.0283 7.25279 16.8442 8.63406 17.7743 8.63406C18.7044 8.63406 19.5203 7.25279 19.5203 5.67806C19.5203 4.79216 19.2688 3.95391 18.8437 3.38316C19.0713 3.02947 19.4283 2.56409 19.9399 2.13058C20.6128 3.04639 20.9986 4.32063 20.9986 5.68148C20.9986 8.33361 19.5521 10.4915 17.7743 10.4915ZM20.9896 2.92684C20.8179 2.51893 20.6037 2.14712 20.3578 1.81334C21.0668 1.32446 21.8802 1.01824 22.783 0.900613C22.7207 1.35753 22.4082 2.28752 20.9896 2.92684Z" fill="#D1FB9A"/>
<path d="M14.2864 1.67781H11.6856C11.5407 1.67781 11.4231 1.79539 11.4231 1.94032C11.4231 2.08525 11.5407 2.20284 11.6856 2.20284H14.2864C14.4314 2.20284 14.549 2.08525 14.549 1.94032C14.549 1.79539 14.4314 1.67781 14.2864 1.67781Z" fill="#D1FB9A"/>
<path d="M10.5118 1.67781H10.3901C10.2452 1.67781 10.1276 1.79539 10.1276 1.94032C10.1276 2.08525 10.2452 2.20284 10.3901 2.20284H10.5118C10.6567 2.20284 10.7743 2.08525 10.7743 1.94032C10.7743 1.79539 10.6567 1.67781 10.5118 1.67781Z" fill="#D1FB9A"/>
</svg>
