<svg width="19" height="19" viewBox="0 0 19 19" fill="none" xmlns="http://www.w3.org/2000/svg">
<path d="M13.5289 11.0025H12.3268V7.69695C12.3268 7.61725 12.2952 7.54082 12.2388 7.48446C12.1825 7.42811 12.106 7.39645 12.0263 7.39645H11.1248V4.99241C11.1248 3.71723 10.6183 2.49427 9.71657 1.59258C8.81488 0.690891 7.59193 0.184326 6.31674 0.184326C5.04156 0.184326 3.81861 0.690891 2.91692 1.59258C2.01523 2.49427 1.50866 3.71723 1.50866 4.99241V7.39645H0.607146C0.527447 7.39645 0.451012 7.42811 0.394657 7.48446C0.338301 7.54082 0.306641 7.61725 0.306641 7.69695V17.3131C0.306641 17.3928 0.338301 17.4693 0.394657 17.5256C0.451012 17.582 0.527447 17.6136 0.607146 17.6136H9.32179C9.32179 17.9324 9.44843 18.2382 9.67386 18.4636C9.89928 18.689 10.205 18.8156 10.5238 18.8156H13.5289C13.8477 18.8156 14.1534 18.689 14.3788 18.4636C14.6042 18.2382 14.7309 17.9324 14.7309 17.6136V12.2045C14.7309 11.8857 14.6042 11.58 14.3788 11.3546C14.1534 11.1292 13.8477 11.0025 13.5289 11.0025ZM9.32179 7.39645V6.49493H10.5238V7.39645H9.32179ZM8.72078 7.39645H3.9127V4.99241C3.9127 4.35482 4.16598 3.74334 4.61683 3.29249C5.06767 2.84165 5.67915 2.58837 6.31674 2.58837C6.95433 2.58837 7.56581 2.84165 8.01666 3.29249C8.4675 3.74334 8.72078 4.35482 8.72078 4.99241V7.39645ZM6.31674 0.785336C7.43216 0.78653 8.50155 1.23016 9.29027 2.01888C10.079 2.8076 10.5226 3.87699 10.5238 4.99241V5.89392H9.32179V4.99241C9.32179 4.19542 9.00519 3.43107 8.44163 2.86752C7.87808 2.30396 7.11373 1.98736 6.31674 1.98736C5.51975 1.98736 4.75541 2.30396 4.19185 2.86752C3.62829 3.43107 3.31169 4.19542 3.31169 4.99241V5.89392H2.10967V4.99241C2.11086 3.87699 2.55449 2.8076 3.34321 2.01888C4.13193 1.23016 5.20132 0.78653 6.31674 0.785336ZM2.10967 6.49493H3.31169V7.39645H2.10967V6.49493ZM0.907651 17.0126V7.99746H11.7258V11.0025H11.1248V8.89897C11.1248 8.81927 11.0932 8.74284 11.0368 8.68648C10.9805 8.63013 10.904 8.59847 10.8243 8.59847H1.80917C1.72947 8.59847 1.65303 8.63013 1.59668 8.68648C1.54032 8.74284 1.50866 8.81927 1.50866 8.89897V16.1111C1.50866 16.1908 1.54032 16.2672 1.59668 16.3236C1.65303 16.3799 1.72947 16.4116 1.80917 16.4116H9.32179V17.0126H0.907651ZM9.32179 12.2045V15.8106H2.10967V9.19948H10.5238V11.0025C10.205 11.0025 9.89928 11.1292 9.67386 11.3546C9.44843 11.58 9.32179 11.8857 9.32179 12.2045ZM14.1299 17.6136C14.1299 17.773 14.0666 17.9259 13.9538 18.0386C13.8411 18.1513 13.6883 18.2146 13.5289 18.2146H10.5238C10.3644 18.2146 10.2115 18.1513 10.0988 18.0386C9.98612 17.9259 9.9228 17.773 9.9228 17.6136V12.2045C9.9228 12.0451 9.98612 11.8923 10.0988 11.7796C10.2115 11.6668 10.3644 11.6035 10.5238 11.6035H13.5289C13.6883 11.6035 13.8411 11.6668 13.9538 11.7796C14.0666 11.8923 14.1299 12.0451 14.1299 12.2045V17.6136Z" fill="#D1FB9A"/>
<path d="M13.0201 13.7822L12.6225 14.2329C12.7599 14.354 12.8571 14.5141 12.9013 14.6918C12.9454 14.8696 12.9344 15.0565 12.8697 15.2278C12.8049 15.3991 12.6896 15.5467 12.5389 15.6508C12.3883 15.7549 12.2095 15.8107 12.0263 15.8107C11.8432 15.8107 11.6644 15.7549 11.5138 15.6508C11.3631 15.5467 11.2478 15.3991 11.183 15.2278C11.1183 15.0565 11.1073 14.8696 11.1514 14.6918C11.1956 14.5141 11.2928 14.354 11.4301 14.2329L11.0326 13.7822C10.8037 13.984 10.6416 14.2508 10.5681 14.547C10.4945 14.8432 10.5129 15.1548 10.6208 15.4403C10.7287 15.7258 10.921 15.9717 11.1721 16.1452C11.4232 16.3187 11.7211 16.4117 12.0263 16.4117C12.3315 16.4117 12.6295 16.3187 12.8806 16.1452C13.1317 15.9717 13.3239 15.7258 13.4318 15.4403C13.5397 15.1548 13.5581 14.8432 13.4846 14.547C13.411 14.2508 13.249 13.984 13.0201 13.7822Z" fill="#D1FB9A"/>
<path d="M11.7258 13.4066H12.3268V14.6086H11.7258V13.4066Z" fill="#D1FB9A"/>
<path d="M6.31674 9.80049C5.8387 9.80097 5.38036 9.99108 5.04233 10.3291C4.7043 10.6671 4.51419 11.1255 4.51371 11.6035C4.51338 11.8562 4.56679 12.1061 4.67041 12.3366C4.77403 12.5671 4.92548 12.773 5.11472 12.9405V14.0076C5.11472 14.3264 5.24136 14.6321 5.46679 14.8575C5.69221 15.0829 5.99795 15.2096 6.31674 15.2096C6.63554 15.2096 6.94128 15.0829 7.1667 14.8575C7.39212 14.6321 7.51876 14.3264 7.51876 14.0076V12.9405C7.708 12.773 7.85945 12.5671 7.96307 12.3366C8.06669 12.1061 8.12011 11.8562 8.11977 11.6035C8.1193 11.1255 7.92918 10.6671 7.59115 10.3291C7.25312 9.99108 6.79479 9.80097 6.31674 9.80049ZM7.03795 12.5591C7.00063 12.5871 6.97034 12.6234 6.94948 12.6651C6.92862 12.7069 6.91775 12.7529 6.91775 12.7995V14.0076C6.91775 14.167 6.85443 14.3198 6.74172 14.4325C6.62901 14.5453 6.47614 14.6086 6.31674 14.6086C6.15734 14.6086 6.00448 14.5453 5.89176 14.4325C5.77905 14.3198 5.71573 14.167 5.71573 14.0076V12.7989C5.71573 12.7523 5.70487 12.7063 5.68401 12.6645C5.66314 12.6228 5.63285 12.5865 5.59553 12.5585C5.44652 12.4478 5.32544 12.3038 5.24196 12.138C5.15848 11.9722 5.11491 11.7892 5.11472 11.6035C5.11472 11.2847 5.24136 10.979 5.46679 10.7536C5.69221 10.5281 5.99795 10.4015 6.31674 10.4015C6.63554 10.4015 6.94128 10.5281 7.1667 10.7536C7.39212 10.979 7.51876 11.2847 7.51876 11.6035C7.51867 11.7893 7.47515 11.9724 7.39166 12.1383C7.30818 12.3043 7.18705 12.4484 7.03795 12.5591Z" fill="#D1FB9A"/>
<path d="M15.6324 9.49998C15.4541 9.49998 15.2798 9.55286 15.1315 9.65192C14.9833 9.75098 14.8677 9.89178 14.7995 10.0565C14.7313 10.2212 14.7134 10.4025 14.7482 10.5774C14.783 10.7523 14.8689 10.9129 14.9949 11.039C15.121 11.165 15.2816 11.2509 15.4565 11.2857C15.6314 11.3205 15.8127 11.3026 15.9774 11.2344C16.1421 11.1662 16.2829 11.0506 16.382 10.9024C16.481 10.7541 16.5339 10.5798 16.5339 10.4015C16.5339 10.1624 16.4389 9.9331 16.2699 9.76403C16.1008 9.59497 15.8715 9.49998 15.6324 9.49998ZM15.6324 10.702C15.573 10.702 15.5149 10.6844 15.4654 10.6514C15.416 10.6183 15.3775 10.5714 15.3548 10.5165C15.332 10.4616 15.3261 10.4012 15.3377 10.3429C15.3493 10.2846 15.3779 10.231 15.4199 10.189C15.4619 10.147 15.5155 10.1184 15.5738 10.1068C15.6321 10.0952 15.6925 10.1011 15.7474 10.1239C15.8023 10.1466 15.8492 10.1851 15.8823 10.2345C15.9153 10.284 15.9329 10.3421 15.9329 10.4015C15.9329 10.4812 15.9012 10.5576 15.8449 10.614C15.7885 10.6703 15.7121 10.702 15.6324 10.702Z" fill="#D1FB9A"/>
<path d="M15.6324 8.29796V8.89897C16.0307 8.89945 16.4126 9.05791 16.6943 9.33958C16.976 9.62125 17.1344 10.0032 17.1349 10.4015H17.7359C17.7353 9.8438 17.5135 9.30913 17.1191 8.91478C16.7248 8.52043 16.1901 8.2986 15.6324 8.29796Z" fill="#D1FB9A"/>
<path d="M15.6324 7.09594V7.69695C16.3494 7.69775 17.0369 7.98295 17.5439 8.48997C18.051 8.997 18.3362 9.68445 18.3369 10.4015H18.938C18.9369 9.52513 18.5883 8.68495 17.9686 8.06526C17.349 7.44557 16.5088 7.09698 15.6324 7.09594Z" fill="#D1FB9A"/>
</svg>
