<svg width="19" height="19" viewBox="0 0 19 19" fill="none" xmlns="http://www.w3.org/2000/svg">
<mask id="path-1-inside-1_17_2625" fill="white">
<path d="M18.7185 6.57478H18.7136L11.1682 3.25172V2.21572H11.4665C11.6081 2.21646 11.7457 2.16919 11.857 2.08163C11.9682 1.99406 12.0465 1.87137 12.079 1.73359C12.1116 1.59581 12.0964 1.45107 12.0361 1.32299C11.9758 1.19492 11.8738 1.09107 11.7469 1.02841L9.90139 0.115256C9.81416 0.0723569 9.71825 0.0500488 9.62104 0.0500488C9.52384 0.0500488 9.42792 0.0723569 9.34069 0.115256L7.4952 1.02841C7.36826 1.09107 7.2663 1.19492 7.20597 1.32299C7.14565 1.45107 7.13052 1.59581 7.16305 1.73359C7.19558 1.87137 7.27386 1.99406 7.3851 2.08163C7.49635 2.16919 7.63399 2.21646 7.77555 2.21572H8.07385V3.25172L0.527892 6.57199H0.522941C0.467608 6.59628 0.420599 6.63625 0.387715 6.68695C0.354832 6.73765 0.337513 6.79687 0.337897 6.8573V7.78561C0.337897 7.94975 0.4031 8.10716 0.519162 8.22322C0.635223 8.33928 0.792637 8.40449 0.956773 8.40449H1.26621V16.4499H0.956773C0.792637 16.4499 0.635223 16.5151 0.519162 16.6311C0.4031 16.7472 0.337897 16.9046 0.337897 17.0688V17.9971C0.337897 18.1612 0.4031 18.3186 0.519162 18.4347C0.635223 18.5507 0.792637 18.6159 0.956773 18.6159H18.2853C18.4495 18.6159 18.6069 18.5507 18.7229 18.4347C18.839 18.3186 18.9042 18.1612 18.9042 17.9971V17.0688C18.9042 16.9046 18.839 16.7472 18.7229 16.6311C18.6069 16.5151 18.4495 16.4499 18.2853 16.4499H17.9759V8.40449H18.2853C18.4495 8.40449 18.6069 8.33928 18.7229 8.22322C18.839 8.10716 18.9042 7.94975 18.9042 7.78561V6.8573C18.904 6.79727 18.8863 6.7386 18.8534 6.68844C18.8204 6.63828 18.7735 6.59879 18.7185 6.57478ZM10.7938 3.76291L17.1234 6.54786H2.11871L8.44827 3.76291H10.7938ZM7.76968 1.58323L9.6263 0.670078L11.4715 1.58323L11.4665 1.59685L7.76968 1.58323ZM10.5494 2.21572V3.14404H8.69273V2.21572H10.5494ZM1.88509 8.40449H2.50396V16.4499H1.88509V8.40449ZM15.1909 16.4499V12.7366H16.1192V16.4499H15.1909ZM13.6437 12.7366H14.5721V16.4499H13.6437V12.7366ZM16.1192 12.1177H13.6437V8.40449H16.1192V12.1177ZM13.0249 16.4499H12.406V8.40449H13.0249V16.4499ZM11.7871 16.4499H7.45498V8.40449H11.7871V16.4499ZM6.8361 16.4499H6.21722V8.40449H6.8361V16.4499ZM3.12284 12.7366H4.05116V16.4499H3.12284V12.7366ZM4.67003 12.7366H5.59835V16.4499H4.67003V12.7366ZM5.59835 12.1177H3.12284V8.40449H5.59835V12.1177ZM18.2853 17.9971H0.956773V17.0688H18.2853V17.9971ZM17.357 16.4499H16.7381V8.40449H17.357V16.4499ZM0.956773 7.78561V7.16673H18.2853V7.78561H0.956773Z"/>
</mask>
<path d="M18.7185 6.57478H18.7136L11.1682 3.25172V2.21572H11.4665C11.6081 2.21646 11.7457 2.16919 11.857 2.08163C11.9682 1.99406 12.0465 1.87137 12.079 1.73359C12.1116 1.59581 12.0964 1.45107 12.0361 1.32299C11.9758 1.19492 11.8738 1.09107 11.7469 1.02841L9.90139 0.115256C9.81416 0.0723569 9.71825 0.0500488 9.62104 0.0500488C9.52384 0.0500488 9.42792 0.0723569 9.34069 0.115256L7.4952 1.02841C7.36826 1.09107 7.2663 1.19492 7.20597 1.32299C7.14565 1.45107 7.13052 1.59581 7.16305 1.73359C7.19558 1.87137 7.27386 1.99406 7.3851 2.08163C7.49635 2.16919 7.63399 2.21646 7.77555 2.21572H8.07385V3.25172L0.527892 6.57199H0.522941C0.467608 6.59628 0.420599 6.63625 0.387715 6.68695C0.354832 6.73765 0.337513 6.79687 0.337897 6.8573V7.78561C0.337897 7.94975 0.4031 8.10716 0.519162 8.22322C0.635223 8.33928 0.792637 8.40449 0.956773 8.40449H1.26621V16.4499H0.956773C0.792637 16.4499 0.635223 16.5151 0.519162 16.6311C0.4031 16.7472 0.337897 16.9046 0.337897 17.0688V17.9971C0.337897 18.1612 0.4031 18.3186 0.519162 18.4347C0.635223 18.5507 0.792637 18.6159 0.956773 18.6159H18.2853C18.4495 18.6159 18.6069 18.5507 18.7229 18.4347C18.839 18.3186 18.9042 18.1612 18.9042 17.9971V17.0688C18.9042 16.9046 18.839 16.7472 18.7229 16.6311C18.6069 16.5151 18.4495 16.4499 18.2853 16.4499H17.9759V8.40449H18.2853C18.4495 8.40449 18.6069 8.33928 18.7229 8.22322C18.839 8.10716 18.9042 7.94975 18.9042 7.78561V6.8573C18.904 6.79727 18.8863 6.7386 18.8534 6.68844C18.8204 6.63828 18.7735 6.59879 18.7185 6.57478ZM10.7938 3.76291L17.1234 6.54786H2.11871L8.44827 3.76291H10.7938ZM7.76968 1.58323L9.6263 0.670078L11.4715 1.58323L11.4665 1.59685L7.76968 1.58323ZM10.5494 2.21572V3.14404H8.69273V2.21572H10.5494ZM1.88509 8.40449H2.50396V16.4499H1.88509V8.40449ZM15.1909 16.4499V12.7366H16.1192V16.4499H15.1909ZM13.6437 12.7366H14.5721V16.4499H13.6437V12.7366ZM16.1192 12.1177H13.6437V8.40449H16.1192V12.1177ZM13.0249 16.4499H12.406V8.40449H13.0249V16.4499ZM11.7871 16.4499H7.45498V8.40449H11.7871V16.4499ZM6.8361 16.4499H6.21722V8.40449H6.8361V16.4499ZM3.12284 12.7366H4.05116V16.4499H3.12284V12.7366ZM4.67003 12.7366H5.59835V16.4499H4.67003V12.7366ZM5.59835 12.1177H3.12284V8.40449H5.59835V12.1177ZM18.2853 17.9971H0.956773V17.0688H18.2853V17.9971ZM17.357 16.4499H16.7381V8.40449H17.357V16.4499ZM0.956773 7.78561V7.16673H18.2853V7.78561H0.956773Z" stroke="#D1FB9A" stroke-width="0.893882" mask="url(#path-1-inside-1_17_2625)"/>
</svg>
