<svg width="21" height="22" viewBox="0 0 21 22" fill="none" xmlns="http://www.w3.org/2000/svg">
<path d="M0.121094 3.69812C0.121094 2.17539 1.35551 0.940979 2.87824 0.940979H5.63538C6.01608 0.940979 6.32467 1.24958 6.32467 1.63027C6.32467 2.01095 6.01608 2.31955 5.63538 2.31955H2.87824C2.11687 2.31955 1.49967 2.93676 1.49967 3.69812V6.45527C1.49967 6.83596 1.19106 7.14456 0.81038 7.14456C0.429698 7.14456 0.121094 6.83596 0.121094 6.45527V3.69812Z" fill="#D1FB9A"/>
<path d="M14.5961 1.63027C14.5961 1.24958 14.9047 0.940979 15.2854 0.940979H18.0425C19.5653 0.940979 20.7997 2.17539 20.7997 3.69812V6.45527C20.7997 6.83596 20.4911 7.14456 20.1104 7.14456C19.7297 7.14456 19.4211 6.83596 19.4211 6.45527V3.69812C19.4211 2.93676 18.8039 2.31955 18.0425 2.31955H15.2854C14.9047 2.31955 14.5961 2.01095 14.5961 1.63027Z" fill="#D1FB9A"/>
<path d="M0.81038 15.416C1.19106 15.416 1.49967 15.7246 1.49967 16.1053V18.8624C1.49967 19.6238 2.11687 20.241 2.87824 20.241H5.63538C6.01608 20.241 6.32467 20.5496 6.32467 20.9303C6.32467 21.311 6.01608 21.6196 5.63538 21.6196H2.87824C1.35551 21.6196 0.121094 20.3852 0.121094 18.8624V16.1053C0.121094 15.7246 0.429698 15.416 0.81038 15.416Z" fill="#D1FB9A"/>
<path d="M20.1104 15.416C20.4911 15.416 20.7997 15.7246 20.7997 16.1053V18.8624C20.7997 20.3852 19.5653 21.6196 18.0425 21.6196H15.2854C14.9047 21.6196 14.5961 21.311 14.5961 20.9303C14.5961 20.5496 14.9047 20.241 15.2854 20.241H18.0425C18.8039 20.241 19.4211 19.6238 19.4211 18.8624V16.1053C19.4211 15.7246 19.7297 15.416 20.1104 15.416Z" fill="#D1FB9A"/>
<path d="M5.98003 6.11063C6.36072 6.11063 6.66931 6.41922 6.66931 6.79991V8.17848C6.66931 8.55918 6.36072 8.86777 5.98003 8.86777C5.59933 8.86777 5.29074 8.55918 5.29074 8.17848V6.79991C5.29074 6.41922 5.59933 6.11063 5.98003 6.11063Z" fill="#D1FB9A"/>
<path d="M15.63 6.79991C15.63 6.41922 15.3214 6.11063 14.9407 6.11063C14.5601 6.11063 14.2515 6.41922 14.2515 6.79991V8.17848C14.2515 8.55918 14.5601 8.86777 14.9407 8.86777C15.3214 8.86777 15.63 8.55918 15.63 8.17848V6.79991Z" fill="#D1FB9A"/>
<path d="M10.4604 6.11063C10.8411 6.11063 11.1497 6.41922 11.1497 6.79991V10.0023C11.1497 11.0466 10.5596 12.0013 9.62556 12.4683L9.39006 12.5861C9.04959 12.7563 8.63554 12.6183 8.46528 12.2778C8.29506 11.9373 8.43306 11.5233 8.77357 11.353L9.00906 11.2353C9.47609 11.0018 9.7711 10.5244 9.7711 10.0023V6.79991C9.7711 6.41922 10.0797 6.11063 10.4604 6.11063Z" fill="#D1FB9A"/>
<path d="M7.12407 14.2087C6.83798 13.9576 6.40246 13.9859 6.15131 14.2719C5.90017 14.558 5.92847 14.9936 6.21456 15.2447C8.56847 17.3112 12.3523 17.3112 14.7062 15.2447C14.9923 14.9936 15.0206 14.558 14.7695 14.2719C14.5183 13.9859 14.0828 13.9576 13.7967 14.2087C11.9631 15.8184 8.95767 15.8184 7.12407 14.2087Z" fill="#D1FB9A"/>
</svg>
