<svg width="190" height="109" viewBox="0 0 190 109" fill="none" xmlns="http://www.w3.org/2000/svg">
<path d="M189.098 94.3088V98.3037H173.088V95.126L181.259 87.4085C182.127 86.5813 182.712 85.8751 183.014 85.29C183.317 84.6847 183.468 84.0895 183.468 83.5044C183.468 82.657 183.176 82.0113 182.591 81.5674C182.026 81.1034 181.188 80.8714 180.079 80.8714C179.151 80.8714 178.313 81.0529 177.567 81.4161C176.82 81.7591 176.195 82.2837 175.69 82.9899L172.119 80.6898C172.946 79.459 174.086 78.5006 175.539 77.8146C176.992 77.1085 178.656 76.7554 180.533 76.7554C182.106 76.7554 183.478 77.0177 184.649 77.5422C185.839 78.0467 186.757 78.773 187.403 79.7213C188.069 80.6494 188.401 81.749 188.401 83.0201C188.401 84.1702 188.159 85.2496 187.675 86.2584C187.191 87.2673 186.253 88.4173 184.861 89.7086L179.988 94.3088H189.098Z" fill="#12284D"/>
<path d="M0.0820312 77.9653H9.93609C12.2912 77.9653 14.3724 78.3868 16.1797 79.2298C17.8958 79.996 19.3578 81.2311 20.3955 82.7913C21.3783 84.404 21.898 86.2537 21.898 88.1394C21.898 90.0252 21.3783 91.8749 20.3955 93.4876C19.3578 95.0478 17.8958 96.2829 16.1797 97.0491C14.374 97.8905 12.2928 98.312 9.93609 98.3136H0.0820312V77.9653ZM9.6881 94.4475C11.8568 94.4475 13.5871 93.8833 14.8789 92.755C16.1708 91.6267 16.8191 90.0906 16.824 88.1467C16.824 86.2125 16.1756 84.6812 14.8789 83.5529C13.5822 82.4246 11.852 81.8604 9.6881 81.8604H5.10267V94.4765L9.6881 94.4475Z" fill="#12284D"/>
<path d="M30.4022 97.2959C28.6687 96.4492 27.2008 95.1475 26.1572 93.5314C25.1541 91.9099 24.623 90.0434 24.623 88.1397C24.623 86.2359 25.1541 84.3695 26.1572 82.748C27.2008 81.1318 28.6687 79.8301 30.4022 78.9834C32.2911 78.0563 34.3743 77.5881 36.4805 77.6174C38.5872 77.584 40.6713 78.0524 42.5587 78.9834C44.2919 79.8358 45.7612 81.1382 46.8111 82.7528C47.8233 84.371 48.3598 86.2387 48.3598 88.1445C48.3598 90.0503 47.8233 91.918 46.8111 93.5362C45.7625 95.1481 44.2959 96.4486 42.566 97.3007C40.679 98.233 38.5946 98.7014 36.4878 98.6668C34.3786 98.697 32.2925 98.227 30.4022 97.2959ZM39.9548 93.8215C40.9648 93.2908 41.8065 92.4914 42.3861 91.5125C42.9649 90.482 43.2687 89.3212 43.2687 88.1409C43.2687 86.9605 42.9649 85.7998 42.3861 84.7693C41.8074 83.7891 40.9655 82.9887 39.9548 82.4578C38.88 81.9127 37.6907 81.6285 36.4841 81.6285C35.2776 81.6285 34.0883 81.9127 33.0135 82.4578C32.0027 82.9885 31.1607 83.789 30.5822 84.7693C30.0018 85.7993 29.6971 86.9602 29.6971 88.1409C29.6971 89.3216 30.0018 90.4825 30.5822 91.5125C31.1615 92.4916 32.0033 93.2911 33.0135 93.8215C34.0883 94.3666 35.2776 94.6508 36.4841 94.6508C37.6907 94.6508 38.88 94.3666 39.9548 93.8215Z" fill="#12284D"/>
<path d="M72.1904 98.3136L72.1612 86.1061L65.7767 96.1617H63.5155L57.1626 86.3793V98.3257H52.4531V77.9653H56.6058L64.7239 90.6104L72.718 77.9653H76.8391L76.9023 98.3136H72.1904Z" fill="#12284D"/>
<path d="M101.194 89.578C101.91 90.4832 102.283 91.6108 102.246 92.7623C102.246 94.545 101.508 95.9151 100.031 96.8726C98.5549 97.83 96.4016 98.3095 93.5715 98.3111H82.3535V77.9653H92.9564C95.6 77.9653 97.6261 78.4408 99.0347 79.3918C100.443 80.3428 101.151 81.6323 101.157 83.2603C101.172 84.1934 100.91 85.11 100.403 85.8957C99.878 86.6883 99.1438 87.3222 98.281 87.7284C99.4197 88.0331 100.437 88.6788 101.194 89.578ZM87.3352 81.5122V86.3092H92.3243C93.5642 86.3092 94.5043 86.1053 95.1446 85.6975C95.4545 85.5118 95.7084 85.2466 95.8795 84.9296C96.0506 84.6126 96.1327 84.2556 96.1171 83.8962C96.134 83.5385 96.0524 83.1831 95.881 82.8682C95.7096 82.5533 95.455 82.2909 95.1446 82.1094C94.4962 81.7113 93.5561 81.5122 92.3243 81.5122H87.3352ZM96.1827 94.1574C96.5085 93.9641 96.7747 93.6855 96.9522 93.3521C97.1297 93.0187 97.2117 92.6432 97.1893 92.2666C97.1893 90.5806 95.857 89.7376 93.1922 89.7376H87.3425V94.7666H93.1995C94.5205 94.7666 95.5174 94.5636 96.19 94.1574H96.1827Z" fill="#12284D"/>
<path d="M116.317 91.1037V98.3136H111.296V91.0456L102.898 77.9653H108.228L114.024 87.0055L119.818 77.9653H124.746L116.317 91.1037Z" fill="#12284D"/>
<path d="M140.767 98.3133L136.583 92.6436H131.963V98.3133H126.947V77.9651H136.335C138.047 77.9269 139.75 78.2337 141.341 78.8669C142.655 79.3893 143.791 80.2774 144.611 81.425C145.39 82.5845 145.79 83.9549 145.756 85.349C145.792 86.7414 145.385 88.1096 144.594 89.2586C143.762 90.3973 142.616 91.271 141.294 91.7732L146.157 98.3133H140.767ZM139.495 82.7185C138.712 82.1092 137.566 81.8037 136.057 81.8021H131.965V88.896H136.057C137.565 88.896 138.711 88.5857 139.495 87.9651C140.28 87.3445 140.673 86.4725 140.674 85.349C140.674 84.2062 140.281 83.3294 139.495 82.7185Z" fill="#12284D"/>
<path d="M164.316 93.9518H154.246L152.325 98.3038H147.176L156.845 77.9556H161.802L171.501 98.3038H166.24L164.316 93.9518ZM162.736 90.3782L159.298 82.5881L155.858 90.3782H162.736Z" fill="#12284D"/>
<path d="M3.46483 103.354H2.01719V107.087H1.58826V103.354H0.140625V102.978H3.46483V103.354Z" fill="#12284D"/>
<path d="M7.35199 105.658V107.073H6.92306V105.658L5.27704 102.978H5.74082L7.15361 105.279L8.56372 102.978H9.00069L7.35199 105.658ZM5.80784 105.468H8.45112V105.796H5.80784V105.468Z" fill="#12284D"/>
<path d="M14.1533 103.354C14.2937 103.486 14.4056 103.646 14.482 103.822C14.5584 103.999 14.5978 104.19 14.5978 104.382C14.5978 104.574 14.5584 104.765 14.482 104.941C14.4056 105.118 14.2937 105.277 14.1533 105.41C13.7984 105.675 13.3605 105.806 12.9174 105.78H11.8103V107.073H11.376V102.978H12.9174C13.3613 102.953 13.7997 103.086 14.1533 103.354ZM13.8396 105.135C13.9485 105.043 14.0345 104.928 14.0908 104.797C14.1471 104.667 14.1721 104.525 14.164 104.383C14.173 104.24 14.1484 104.096 14.0921 103.964C14.0358 103.832 13.9494 103.714 13.8396 103.621C13.5691 103.425 13.2377 103.331 12.904 103.354H11.8103V105.402H12.904C13.2377 105.425 13.5691 105.331 13.8396 105.135Z" fill="#12284D"/>
<path d="M17.8824 103.354V105.01H19.6464V105.338H17.877V107.073H17.4481V105.338H16.8288V105.01H17.4588V102.978H20.0753V103.354H17.8824Z" fill="#12284D"/>
<path d="M25.4956 104.77C25.6283 104.891 25.7319 105.04 25.7987 105.206C25.8656 105.372 25.8939 105.551 25.8817 105.73C25.8941 105.917 25.8637 106.104 25.7927 106.278C25.7216 106.452 25.6118 106.607 25.4715 106.732C25.1317 106.982 24.7134 107.103 24.2919 107.073H22.6566V102.978H23.0856V104.442H24.3804C24.7797 104.415 25.1755 104.531 25.4956 104.77ZM25.1498 106.479C25.2514 106.384 25.3307 106.269 25.3817 106.14C25.4327 106.011 25.4542 105.873 25.4447 105.735C25.4447 105.106 25.056 104.794 24.2812 104.794H23.0856V106.729H24.2812C24.5914 106.75 24.8989 106.661 25.1498 106.479ZM26.5921 102.978H27.021V107.073H26.5921V102.978Z" fill="#12284D"/>
<path d="M33.616 102.978V107.073H33.187V105.186H30.6108V107.073H30.1738V102.978H30.6108V104.805H33.187V102.978H33.616Z" fill="#12284D"/>
<path d="M41.5112 105.658V107.073H41.093V105.658L39.447 102.978H39.9108L41.3236 105.279L42.7364 102.978H43.1707L41.5112 105.658Z" fill="#12284D"/>
<path d="M45.5855 102.978H46.0144V106.372L48.6497 102.978H49.0438V107.073H48.6148V103.687L45.9796 107.073H45.5855V102.978ZM46.6069 102.482C46.5213 102.417 46.4524 102.333 46.4058 102.236C46.3593 102.139 46.3363 102.033 46.3388 101.925H46.6632C46.6615 101.997 46.6767 102.067 46.7074 102.131C46.7381 102.196 46.7836 102.252 46.8401 102.296C46.9734 102.391 47.135 102.438 47.2985 102.429C47.4611 102.436 47.6215 102.389 47.7543 102.296C47.8107 102.252 47.8562 102.196 47.8874 102.131C47.9185 102.067 47.9344 101.997 47.9339 101.925H48.2556C48.2585 102.033 48.2358 102.139 48.1892 102.236C48.1426 102.333 48.0734 102.417 47.9875 102.482C47.7851 102.624 47.5406 102.695 47.2932 102.682C47.0484 102.694 46.8067 102.624 46.6069 102.482Z" fill="#12284D"/>
<path d="M60.1749 105.197H59.2313V107.063H58.8077V102.978H59.2313V104.815H60.1749L61.5689 102.978H62.0381L60.51 104.967L62.1185 107.073H61.6172L60.1749 105.197Z" fill="#12284D"/>
<path d="M67.4745 106.697V107.071H64.5605V102.978H67.3861V103.354H64.9975V104.81H67.126V105.178H64.9975V106.697H67.4745Z" fill="#12284D"/>
<path d="M75.249 102.978V107.073H70.2037V102.978H70.6327V106.711H72.5092V102.978H72.9381V106.711H74.8147V102.978H75.249Z" fill="#12284D"/>
<path d="M81.3049 106.697V107.071H78.4016V102.978H81.2244V103.354H78.8385V104.81H80.9671V105.178H78.8385V106.697H81.3049Z" fill="#12284D"/>
<path d="M87.4845 102.978V107.073H87.0555V105.186H84.4793V107.073H84.0423V102.978H84.4793V104.805H87.0555V102.978H87.4845Z" fill="#12284D"/>
<path d="M90.6365 102.978H91.0654V107.073H90.6365V102.978Z" fill="#12284D"/>
<path d="M97.5026 102.733H97.8886V108.209H97.5026V102.733Z" fill="#12284D"/>
<path d="M107.676 105.196H106.823V107.063H106.4V105.196H105.542L104.282 107.063H103.778L105.188 104.951L103.882 102.968H104.36L105.542 104.805H106.405V102.968H106.829V104.805H107.681L108.871 102.968H109.341L108.035 104.951L109.448 107.063H108.941L107.676 105.196Z" fill="#12284D"/>
<path d="M111.901 102.978H112.33V106.372L114.966 102.978H115.352V107.073H114.923V103.688L112.287 107.073H111.893L111.901 102.978Z" fill="#12284D"/>
<path d="M121.678 102.978V107.073H121.249V103.341H119.262L119.214 104.708C119.206 105.167 119.161 105.625 119.077 106.076C119.033 106.356 118.919 106.621 118.745 106.846C118.672 106.932 118.581 107.001 118.478 107.047C118.375 107.093 118.263 107.116 118.15 107.113C118.038 107.113 117.928 107.098 117.82 107.07L117.855 106.687C117.919 106.7 117.985 106.707 118.051 106.708C118.132 106.71 118.212 106.692 118.285 106.657C118.359 106.622 118.422 106.57 118.471 106.505C118.6 106.314 118.683 106.096 118.715 105.868C118.779 105.493 118.815 105.113 118.825 104.732L118.884 102.976L121.678 102.978Z" fill="#12284D"/>
<path d="M125.538 106.836C125.214 106.665 124.945 106.407 124.761 106.092C124.577 105.766 124.481 105.399 124.481 105.026C124.481 104.652 124.577 104.285 124.761 103.959C124.946 103.644 125.215 103.386 125.538 103.213C125.879 103.035 126.259 102.942 126.644 102.942C127.029 102.942 127.409 103.035 127.75 103.213C128.071 103.387 128.338 103.645 128.522 103.959C128.707 104.284 128.805 104.652 128.805 105.026C128.805 105.399 128.707 105.767 128.522 106.092C128.337 106.406 128.07 106.664 127.75 106.838C127.41 107.019 127.03 107.111 126.645 107.105C126.259 107.113 125.877 107.02 125.538 106.836ZM127.527 106.503C127.787 106.362 128.001 106.151 128.147 105.895C128.292 105.628 128.369 105.33 128.369 105.027C128.369 104.724 128.292 104.425 128.147 104.159C128.001 103.903 127.786 103.692 127.527 103.549C127.257 103.402 126.953 103.326 126.645 103.33C126.336 103.327 126.032 103.402 125.761 103.549C125.5 103.691 125.283 103.902 125.136 104.159C124.988 104.425 124.911 104.723 124.911 105.027C124.911 105.33 124.988 105.629 125.136 105.895C125.283 106.151 125.499 106.362 125.761 106.503C126.031 106.651 126.336 106.727 126.645 106.724C126.95 106.726 127.25 106.65 127.517 106.503H127.527Z" fill="#12284D"/>
<path d="M131.6 102.978H132.029V106.372L134.654 102.978H135.048V107.073H134.619V103.687L131.983 107.073H131.589L131.6 102.978ZM132.621 102.482C132.536 102.417 132.467 102.333 132.42 102.236C132.374 102.139 132.351 102.033 132.353 101.925H132.678C132.676 101.997 132.691 102.067 132.722 102.131C132.753 102.196 132.798 102.252 132.855 102.296C132.988 102.391 133.15 102.438 133.313 102.429C133.476 102.436 133.636 102.389 133.769 102.296C133.825 102.252 133.871 102.196 133.902 102.131C133.933 102.067 133.949 101.997 133.948 101.925H134.27C134.273 102.033 134.25 102.139 134.204 102.236C134.157 102.333 134.088 102.417 134.002 102.482C133.8 102.624 133.555 102.695 133.308 102.682C133.063 102.694 132.821 102.624 132.621 102.482Z" fill="#12284D"/>
<path d="M142.881 105.197H141.94V107.063H141.516V102.978H141.94V104.815H142.881L144.275 102.978H144.746L143.218 104.967L144.827 107.073H144.326L142.881 105.197Z" fill="#12284D"/>
<path d="M147.961 106.836C147.638 106.665 147.369 106.407 147.186 106.092C147.001 105.767 146.904 105.399 146.904 105.026C146.904 104.652 147.001 104.285 147.186 103.959C147.37 103.644 147.638 103.386 147.961 103.213C148.302 103.035 148.681 102.942 149.066 102.942C149.452 102.942 149.831 103.035 150.172 103.213C150.494 103.387 150.761 103.645 150.947 103.959C151.131 104.285 151.228 104.652 151.228 105.026C151.228 105.399 151.131 105.766 150.947 106.092C150.761 106.405 150.493 106.663 150.172 106.838C149.831 107.015 149.452 107.108 149.066 107.108C148.681 107.108 148.302 107.015 147.961 106.838V106.836ZM149.952 106.503C150.212 106.362 150.426 106.151 150.569 105.895C150.717 105.629 150.794 105.33 150.794 105.027C150.794 104.723 150.717 104.425 150.569 104.159C150.425 103.902 150.211 103.691 149.952 103.549C149.681 103.404 149.377 103.329 149.069 103.329C148.761 103.329 148.458 103.404 148.186 103.549C147.925 103.691 147.709 103.902 147.561 104.159C147.412 104.424 147.333 104.723 147.333 105.027C147.333 105.331 147.412 105.63 147.561 105.895C147.708 106.152 147.924 106.363 148.186 106.503C148.458 106.647 148.761 106.722 149.069 106.722C149.377 106.722 149.681 106.647 149.952 106.503Z" fill="#12284D"/>
<path d="M158.311 102.978V107.073H157.893V103.8L156.285 106.553H156.078L154.47 103.816V107.073H154.035V102.978H154.392L156.18 106.015L157.952 102.978H158.311Z" fill="#12284D"/>
<path d="M164.927 102.978V107.073H164.498V103.341H161.893V107.073H161.461V102.978H164.927Z" fill="#12284D"/>
<path d="M171.246 102.978V107.073H170.818V103.341H168.828L168.78 104.708C168.772 105.167 168.727 105.625 168.643 106.076C168.599 106.356 168.485 106.621 168.311 106.846C168.238 106.932 168.147 107.001 168.044 107.047C167.941 107.093 167.829 107.116 167.716 107.113C167.605 107.113 167.494 107.098 167.386 107.07L167.424 106.687C167.487 106.7 167.552 106.707 167.617 106.708C167.698 106.71 167.779 106.692 167.852 106.657C167.925 106.622 167.989 106.57 168.038 106.505C168.166 106.314 168.249 106.096 168.281 105.868C168.344 105.492 168.382 105.113 168.394 104.732L168.453 102.976L171.246 102.978Z" fill="#12284D"/>
<path d="M177.31 106.697V107.071H174.399V102.978H177.222V103.354H174.833V104.81H176.962V105.178H174.833V106.697H177.31Z" fill="#12284D"/>
<path d="M181.404 105.197H180.463V107.063H180.04V102.978H180.463V104.815H181.404L182.798 102.978H183.27L181.739 104.967L183.348 107.073H182.849L181.404 105.197Z" fill="#12284D"/>
<path d="M186.484 106.841C186.164 106.667 185.897 106.409 185.712 106.095C185.53 105.769 185.434 105.402 185.434 105.028C185.434 104.655 185.53 104.288 185.712 103.962C185.896 103.647 186.164 103.389 186.487 103.216C186.786 103.062 187.114 102.972 187.45 102.952C187.786 102.931 188.123 102.981 188.438 103.098C188.69 103.194 188.916 103.347 189.098 103.543L188.83 103.81C188.671 103.651 188.481 103.525 188.272 103.442C188.063 103.358 187.838 103.318 187.613 103.325C187.302 103.321 186.995 103.398 186.723 103.546C186.463 103.689 186.247 103.9 186.098 104.157C185.949 104.421 185.87 104.719 185.87 105.022C185.87 105.325 185.949 105.623 186.098 105.887C186.246 106.143 186.462 106.353 186.723 106.495C186.995 106.645 187.302 106.722 187.613 106.719C187.839 106.726 188.065 106.686 188.274 106.601C188.484 106.516 188.673 106.388 188.83 106.225L189.098 106.492C188.915 106.689 188.688 106.841 188.436 106.937C188.121 107.056 187.784 107.107 187.448 107.088C187.112 107.069 186.783 106.979 186.484 106.825V106.841Z" fill="#12284D"/>
<path d="M96.3929 0.357422H60.7305V66.6547H95.5535C113.173 66.0563 127.377 52.2331 128.391 35.5197C129.474 17.6753 115.222 1.49738 96.3929 0.357422ZM127.1 37.7577H123.82C121.714 50.42 110.745 61.1225 96.5463 62.2594H65.2375V4.76168H96.5463C111.394 5.86275 123.059 17.4778 124.115 31.265C124.181 32.1626 124.203 33.0333 124.184 33.913H128.042C127.729 35.1916 127.415 36.4732 127.1 37.7577Z" fill="#12284D"/>
<path d="M115.829 37.7577C113.964 46.5004 106.015 53.5257 96.1642 54.1331H73.4062V42.4642C72.4659 41.7916 71.6112 41.008 70.8609 40.1304C70.3624 39.1724 69.9738 38.1618 69.7025 37.1174C69.4924 36.3222 69.3524 35.5103 69.2843 34.6909V58.304H96.0198C108.286 57.7474 118.221 48.8133 120.177 37.7488H115.829V37.7577Z" fill="#12284D"/>
<path d="M96.0198 8.86375H69.2843V17.7112C70.0682 17.1603 70.893 16.6692 71.7514 16.2421C72.1095 16.0626 72.6721 15.7903 73.4062 15.4971V13.1154H96.1642C107.718 13.9263 116.296 23.5067 116.247 33.913H120.514C120.595 21.155 110.004 9.58183 96.0198 8.86375Z" fill="#12284D"/>
<path d="M69.2843 23.396V17.7112C67.7663 18.7753 66.4043 20.0441 65.2375 21.4811V31.5822C65.6822 28.5944 67.0258 25.8104 69.0917 23.5965C69.1549 23.5277 69.2211 23.4648 69.2843 23.396Z" fill="#12284D"/>
<path d="M77.811 19.0636C79.3522 18.731 80.9444 18.7056 82.4956 18.9888C84.0151 19.2925 85.4647 19.8738 86.771 20.7032C90.5289 22.9293 93.5828 25.8914 95.4391 27.8841L98.3215 30.7504L101.484 27.7823L95.9115 22.1783C94.3464 20.2963 92.4934 18.6708 90.4206 17.3611C88.9162 16.4156 86.5694 14.9675 83.2177 14.3691C79.9076 13.8246 76.5103 14.2069 73.4062 15.4731V20.4339C74.7968 19.7594 76.2818 19.2974 77.811 19.0636Z" fill="#12284D"/>
<path d="M73.4062 20.4339L73.4062 15.4851C72.6721 15.7843 72.1095 16.0506 71.7514 16.2301C70.893 16.6572 70.0682 17.1483 69.2843 17.6992V23.396C70.4757 22.1791 71.8704 21.1768 73.4062 20.4339Z" fill="#12284D"/>
<path d="M88.1971 41.2135C89.524 40.0646 89.9753 39.1789 93.7332 35.418C94.4613 34.6879 95.0721 34.0955 95.4843 33.6946C94.717 32.8538 93.7151 31.7886 92.5116 30.5829C91.961 30.0323 91.8648 29.9485 89.6985 27.89C86.6416 24.9578 86.3919 24.7125 85.6939 24.2936C83.4749 22.9377 80.8317 22.4414 78.2683 22.8993C76.5132 23.1761 74.8478 23.8586 73.4062 24.892V33.6317C73.393 32.432 73.7055 31.251 74.3108 30.2131C74.916 29.1752 75.7916 28.3189 76.8452 27.7344C78.3508 26.9717 80.0831 26.7761 81.7224 27.1839C83.1304 27.5579 84.1865 28.5154 86.2354 30.4123C87.6195 31.6869 88.6815 32.8239 89.3946 33.6198C88.85 34.2182 88.0377 35.1158 86.9876 36.1061C84.5806 38.419 83.3561 39.5829 81.7103 40.0466C81.2079 40.1902 79.0025 40.8156 76.785 39.6577C74.029 38.2125 73.4965 35.1367 73.4544 34.8704C73.4186 34.6475 73.3955 34.4227 73.3852 34.1972V42.4762C75.1057 43.7408 77.1562 44.4856 79.2913 44.6214C83.9849 44.8458 87.4991 41.8089 88.1971 41.2135Z" fill="#12284D"/>
<path d="M70.8609 40.1274C71.6112 41.005 72.4659 41.7886 73.4062 42.4612V34.1823C73.4062 33.9668 73.4062 33.7783 73.4062 33.6198L73.4062 24.892C72.8399 25.3068 72.3195 25.7802 71.8537 26.3043C69.6092 28.8385 69.3715 31.7168 69.2843 32.7581V34.6999C69.3524 35.5193 69.4924 36.3312 69.7025 37.1264C69.9747 38.1666 70.3632 39.1732 70.8609 40.1274Z" fill="#12284D"/>
<path d="M120.514 33.913C120.514 34.4456 120.49 34.9811 120.448 35.5197C120.389 36.2717 120.296 37.0137 120.168 37.7458H123.82C124.033 36.4773 124.154 35.1955 124.184 33.91L120.514 33.913Z" fill="#12284D"/>
<path d="M106.893 33.913C106.44 33.8879 105.986 33.8879 105.533 33.913C104.9 33.9548 104.271 34.0408 103.65 34.1703C102.504 34.4186 100.443 35.2414 98.1109 36.8093L92.9389 41.8598C91.9851 42.91 86.3046 48.9808 78.4489 48.3345C76.7009 48.1852 74.9935 47.7283 73.4062 46.9851V51.5629C75.6085 52.4318 77.957 52.8756 80.3263 52.8704C90.6222 52.8166 97.1932 43.8944 98.159 42.545C98.5291 42.159 99.0616 41.6234 99.7687 41.025C100.533 40.3698 101.821 39.2657 103.238 38.5955C104.441 38.018 105.759 37.9313 108.316 37.7787C110.089 37.674 110.907 37.7248 114.376 37.7458H115.838C115.997 37.0101 116.111 36.2658 116.181 35.5167C116.229 34.9781 116.254 34.4426 116.257 33.91H110.444C109.258 33.913 108.076 33.9668 106.893 33.913Z" fill="#12284D"/>
<path d="M123.82 37.7577H127.1C127.413 36.4811 127.727 35.2035 128.042 33.9249H124.184C124.154 35.2095 124.032 36.4903 123.82 37.7577Z" fill="#12284D"/>
<path d="M116.178 35.5197C116.108 36.2688 115.994 37.0131 115.835 37.7488H120.174C120.302 37.0167 120.396 36.2747 120.454 35.5227C120.496 34.9841 120.517 34.4486 120.52 33.916H116.247C116.244 34.4456 116.22 34.9811 116.178 35.5197Z" fill="#12284D"/>
<path d="M109.953 33.1051C108.771 33.1051 107.585 33.0513 106.403 33.1051C105.95 33.1303 105.496 33.1303 105.043 33.1051C104.409 33.0632 103.779 32.9772 103.157 32.8478C102.01 32.5995 99.9522 31.7767 97.6205 30.2089L92.4485 25.1583C91.5067 24.1081 85.8142 18.0373 77.9675 18.6836C76.2204 18.8324 74.5139 19.2894 72.9278 20.033V15.4552C75.1304 14.5869 77.4786 14.1422 79.8479 14.1447C90.1438 14.2015 96.7148 23.1207 97.6806 24.4731C98.1913 25.0062 98.7285 25.5135 99.2903 25.9931C100.055 26.6483 101.342 27.7524 102.759 28.4226C103.963 29.0001 105.281 29.0868 107.838 29.2394C109.61 29.3442 110.429 29.2933 113.898 29.2724H126.631C126.944 30.5489 127.257 31.8265 127.572 33.1051H109.953Z" fill="#12284D"/>
</svg>
