<svg width="190" height="109" viewBox="0 0 190 109" fill="none" xmlns="http://www.w3.org/2000/svg">
<path d="M189.098 94.1113V98.1062H173.088V94.9285L181.259 87.211C182.127 86.3838 182.712 85.6776 183.014 85.0925C183.317 84.4872 183.468 83.892 183.468 83.3069C183.468 82.4595 183.176 81.8138 182.591 81.3699C182.026 80.9059 181.188 80.6738 180.079 80.6738C179.151 80.6738 178.313 80.8554 177.567 81.2186C176.82 81.5616 176.195 82.0862 175.69 82.7924L172.119 80.4923C172.946 79.2615 174.086 78.3031 175.539 77.6171C176.992 76.9109 178.656 76.5579 180.533 76.5579C182.106 76.5579 183.478 76.8202 184.649 77.3447C185.839 77.8491 186.757 78.5755 187.403 79.5238C188.069 80.4519 188.401 81.5515 188.401 82.8226C188.401 83.9727 188.159 85.0521 187.675 86.0609C187.191 87.0698 186.253 88.2198 184.861 89.5111L179.988 94.1113H189.098Z" fill="white"/>
<path d="M0.0820312 77.7678H9.93609C12.2912 77.7678 14.3724 78.1893 16.1797 79.0323C17.8958 79.7985 19.3578 81.0335 20.3955 82.5938C21.3783 84.2065 21.898 86.0562 21.898 87.9419C21.898 89.8277 21.3783 91.6774 20.3955 93.2901C19.3578 94.8503 17.8958 96.0854 16.1797 96.8515C14.374 97.6929 12.2928 98.1144 9.93609 98.1161H0.0820312V77.7678ZM9.6881 94.25C11.8568 94.25 13.5871 93.6858 14.8789 92.5575C16.1708 91.4292 16.8191 89.8931 16.824 87.9492C16.824 86.0149 16.1756 84.4837 14.8789 83.3554C13.5822 82.2271 11.852 81.6629 9.6881 81.6629H5.10267V94.279L9.6881 94.25Z" fill="white"/>
<path d="M30.4022 97.0981C28.6687 96.2515 27.2008 94.9497 26.1572 93.3336C25.1541 91.7121 24.623 89.8457 24.623 87.9419C24.623 86.0382 25.1541 84.1717 26.1572 82.5502C27.2008 80.9341 28.6687 79.6323 30.4022 78.7857C32.2911 77.8585 34.3743 77.3903 36.4805 77.4196C38.5872 77.3862 40.6713 77.8546 42.5587 78.7857C44.2919 79.6381 45.7612 80.9404 46.8111 82.5551C47.8233 84.1733 48.3598 86.041 48.3598 87.9468C48.3598 89.8525 47.8233 91.7202 46.8111 93.3385C45.7625 94.9503 44.2959 96.2509 42.566 97.103C40.679 98.0352 38.5946 98.5037 36.4878 98.469C34.3786 98.4992 32.2925 98.0293 30.4022 97.0981ZM39.9548 93.6238C40.9648 93.093 41.8065 92.2936 42.3861 91.3148C42.9649 90.2842 43.2687 89.1235 43.2687 87.9431C43.2687 86.7628 42.9649 85.602 42.3861 84.5715C41.8074 83.5914 40.9655 82.791 39.9548 82.2601C38.88 81.715 37.6907 81.4308 36.4841 81.4308C35.2776 81.4308 34.0883 81.715 33.0135 82.2601C32.0027 82.7908 31.1607 83.5912 30.5822 84.5715C30.0018 85.6015 29.6971 86.7624 29.6971 87.9431C29.6971 89.1238 30.0018 90.2847 30.5822 91.3148C31.1615 92.2938 32.0033 93.0933 33.0135 93.6238C34.0883 94.1689 35.2776 94.4531 36.4841 94.4531C37.6907 94.4531 38.88 94.1689 39.9548 93.6238Z" fill="white"/>
<path d="M72.1904 98.1161L72.1612 85.9086L65.7767 95.9642H63.5155L57.1626 86.1818V98.1281H52.4531V77.7678H56.6058L64.7239 90.4129L72.718 77.7678H76.8391L76.9023 98.1161H72.1904Z" fill="white"/>
<path d="M101.194 89.3805C101.91 90.2857 102.283 91.4132 102.246 92.5648C102.246 94.3475 101.508 95.7176 100.031 96.675C98.5549 97.6325 96.4016 98.112 93.5715 98.1136H82.3535V77.7678H92.9564C95.6 77.7678 97.6261 78.2433 99.0347 79.1943C100.443 80.1453 101.151 81.4348 101.157 83.0628C101.172 83.9958 100.91 84.9125 100.403 85.6982C99.878 86.4908 99.1438 87.1247 98.281 87.5309C99.4197 87.8356 100.437 88.4813 101.194 89.3805ZM87.3352 81.3147V86.1117H92.3243C93.5642 86.1117 94.5043 85.9078 95.1446 85.5C95.4545 85.3143 95.7084 85.0491 95.8795 84.7321C96.0506 84.4151 96.1327 84.0581 96.1171 83.6987C96.134 83.341 96.0524 82.9856 95.881 82.6707C95.7096 82.3558 95.455 82.0934 95.1446 81.9119C94.4962 81.5138 93.5561 81.3147 92.3243 81.3147H87.3352ZM96.1827 93.9599C96.5085 93.7666 96.7747 93.488 96.9522 93.1546C97.1297 92.8212 97.2117 92.4457 97.1893 92.0691C97.1893 90.3831 95.857 89.5401 93.1922 89.5401H87.3425V94.5691H93.1995C94.5205 94.5691 95.5174 94.366 96.19 93.9599H96.1827Z" fill="white"/>
<path d="M116.317 90.9062V98.1161H111.296V90.8481L102.898 77.7678H108.228L114.024 86.808L119.818 77.7678H124.746L116.317 90.9062Z" fill="white"/>
<path d="M140.767 98.1158L136.583 92.4461H131.963V98.1158H126.947V77.7676H136.335C138.047 77.7294 139.75 78.0362 141.341 78.6694C142.655 79.1918 143.791 80.0799 144.611 81.2274C145.39 82.387 145.79 83.7574 145.756 85.1515C145.792 86.5439 145.385 87.9121 144.594 89.0611C143.762 90.1998 142.616 91.0734 141.294 91.5756L146.157 98.1158H140.767ZM139.495 82.521C138.712 81.9117 137.566 81.6062 136.057 81.6046H131.965V88.6985H136.057C137.565 88.6985 138.711 88.3882 139.495 87.7676C140.28 87.147 140.673 86.275 140.674 85.1515C140.674 84.0087 140.281 83.1319 139.495 82.521Z" fill="white"/>
<path d="M164.316 93.7542H154.246L152.325 98.1063H147.176L156.845 77.7581H161.802L171.501 98.1063H166.24L164.316 93.7542ZM162.736 90.1807L159.298 82.3906L155.858 90.1807H162.736Z" fill="white"/>
<path d="M3.46483 103.157H2.01719V106.889H1.58826V103.157H0.140625V102.781H3.46483V103.157Z" fill="white"/>
<path d="M7.35199 105.46V106.876H6.92306V105.46L5.27704 102.781H5.74082L7.15361 105.082L8.56372 102.781H9.00069L7.35199 105.46ZM5.80784 105.271H8.45112V105.599H5.80784V105.271Z" fill="white"/>
<path d="M14.1533 103.157C14.2937 103.289 14.4056 103.449 14.482 103.625C14.5584 103.802 14.5978 103.992 14.5978 104.185C14.5978 104.377 14.5584 104.567 14.482 104.744C14.4056 104.921 14.2937 105.08 14.1533 105.212C13.7984 105.477 13.3605 105.609 12.9174 105.583H11.8103V106.876H11.376V102.781H12.9174C13.3613 102.755 13.7997 102.889 14.1533 103.157ZM13.8396 104.938C13.9485 104.846 14.0345 104.73 14.0908 104.6C14.1471 104.469 14.1721 104.328 14.164 104.186C14.173 104.043 14.1484 103.899 14.0921 103.767C14.0358 103.634 13.9494 103.517 13.8396 103.423C13.5691 103.228 13.2377 103.133 12.904 103.157H11.8103V105.204H12.904C13.2377 105.228 13.5691 105.133 13.8396 104.938Z" fill="white"/>
<path d="M17.8824 103.157V104.813H19.6464V105.141H17.877V106.876H17.4481V105.141H16.8288V104.813H17.4588V102.781H20.0753V103.157H17.8824Z" fill="white"/>
<path d="M25.4956 104.573C25.6283 104.694 25.7319 104.843 25.7987 105.009C25.8656 105.175 25.8939 105.354 25.8817 105.532C25.8941 105.719 25.8637 105.907 25.7927 106.081C25.7216 106.254 25.6118 106.41 25.4715 106.535C25.1317 106.785 24.7134 106.906 24.2919 106.876H22.6566V102.781H23.0856V104.245H24.3804C24.7797 104.217 25.1755 104.334 25.4956 104.573ZM25.1498 106.282C25.2514 106.187 25.3307 106.071 25.3817 105.943C25.4327 105.814 25.4542 105.676 25.4447 105.538C25.4447 104.909 25.056 104.597 24.2812 104.597H23.0856V106.532H24.2812C24.5914 106.553 24.8989 106.464 25.1498 106.282ZM26.5921 102.781H27.021V106.876H26.5921V102.781Z" fill="white"/>
<path d="M33.616 102.781V106.876H33.187V104.989H30.6108V106.876H30.1738V102.781H30.6108V104.607H33.187V102.781H33.616Z" fill="white"/>
<path d="M41.5112 105.46V106.876H41.093V105.46L39.447 102.781H39.9108L41.3236 105.082L42.7364 102.781H43.1707L41.5112 105.46Z" fill="white"/>
<path d="M45.5855 102.781H46.0144V106.175L48.6497 102.781H49.0438V106.876H48.6148V103.49L45.9796 106.876H45.5855V102.781ZM46.6069 102.285C46.5213 102.22 46.4524 102.135 46.4058 102.039C46.3593 101.942 46.3363 101.835 46.3388 101.728H46.6632C46.6615 101.799 46.6767 101.87 46.7074 101.934C46.7381 101.999 46.7836 102.055 46.8401 102.099C46.9734 102.193 47.135 102.24 47.2985 102.232C47.4611 102.239 47.6215 102.192 47.7543 102.099C47.8107 102.055 47.8562 101.998 47.8874 101.934C47.9185 101.87 47.9344 101.799 47.9339 101.728H48.2556C48.2585 101.835 48.2358 101.942 48.1892 102.039C48.1426 102.136 48.0734 102.22 47.9875 102.285C47.7851 102.427 47.5406 102.498 47.2932 102.485C47.0484 102.497 46.8067 102.426 46.6069 102.285Z" fill="white"/>
<path d="M60.1749 104.999H59.2313V106.865H58.8077V102.781H59.2313V104.618H60.1749L61.5689 102.781H62.0381L60.51 104.77L62.1185 106.876H61.6172L60.1749 104.999Z" fill="white"/>
<path d="M67.4745 106.5V106.873H64.5605V102.781H67.3861V103.157H64.9975V104.613H67.126V104.981H64.9975V106.5H67.4745Z" fill="white"/>
<path d="M75.249 102.781V106.876H70.2037V102.781H70.6327V106.513H72.5092V102.781H72.9381V106.513H74.8147V102.781H75.249Z" fill="white"/>
<path d="M81.3049 106.5V106.873H78.4016V102.781H81.2244V103.157H78.8385V104.613H80.9671V104.981H78.8385V106.5H81.3049Z" fill="white"/>
<path d="M87.4845 102.781V106.876H87.0555V104.989H84.4793V106.876H84.0423V102.781H84.4793V104.607H87.0555V102.781H87.4845Z" fill="white"/>
<path d="M90.6365 102.781H91.0654V106.876H90.6365V102.781Z" fill="white"/>
<path d="M97.5026 102.536H97.8886V108.011H97.5026V102.536Z" fill="white"/>
<path d="M107.676 104.999H106.823V106.865H106.4V104.999H105.542L104.282 106.865H103.778L105.188 104.754L103.882 102.77H104.36L105.542 104.607H106.405V102.77H106.829V104.607H107.681L108.871 102.77H109.341L108.035 104.754L109.448 106.865H108.941L107.676 104.999Z" fill="white"/>
<path d="M111.901 102.781H112.33V106.175L114.966 102.781H115.352V106.876H114.923V103.49L112.287 106.876H111.893L111.901 102.781Z" fill="white"/>
<path d="M121.678 102.781V106.876H121.249V103.144H119.262L119.214 104.511C119.206 104.97 119.161 105.427 119.077 105.879C119.033 106.159 118.919 106.424 118.745 106.649C118.672 106.735 118.581 106.804 118.478 106.85C118.375 106.896 118.263 106.919 118.15 106.916C118.038 106.915 117.928 106.901 117.82 106.873L117.855 106.489C117.919 106.503 117.985 106.51 118.051 106.511C118.132 106.512 118.212 106.495 118.285 106.46C118.359 106.424 118.422 106.372 118.471 106.308C118.6 106.116 118.683 105.899 118.715 105.671C118.779 105.295 118.815 104.916 118.825 104.535L118.884 102.778L121.678 102.781Z" fill="white"/>
<path d="M125.538 106.639C125.214 106.467 124.945 106.21 124.761 105.895C124.577 105.569 124.481 105.202 124.481 104.828C124.481 104.455 124.577 104.088 124.761 103.762C124.946 103.447 125.215 103.188 125.538 103.016C125.879 102.838 126.259 102.745 126.644 102.745C127.029 102.745 127.409 102.838 127.75 103.016C128.071 103.189 128.338 103.448 128.522 103.762C128.707 104.087 128.805 104.454 128.805 104.828C128.805 105.202 128.707 105.57 128.522 105.895C128.337 106.209 128.07 106.467 127.75 106.641C127.41 106.822 127.03 106.914 126.645 106.908C126.259 106.915 125.877 106.822 125.538 106.639ZM127.527 106.305C127.787 106.164 128.001 105.954 128.147 105.697C128.292 105.431 128.369 105.133 128.369 104.83C128.369 104.526 128.292 104.228 128.147 103.962C128.001 103.706 127.786 103.494 127.527 103.351C127.257 103.204 126.953 103.129 126.645 103.133C126.336 103.13 126.032 103.205 125.761 103.351C125.5 103.494 125.283 103.705 125.136 103.962C124.988 104.228 124.911 104.526 124.911 104.83C124.911 105.133 124.988 105.432 125.136 105.697C125.283 105.954 125.499 106.165 125.761 106.305C126.031 106.454 126.336 106.53 126.645 106.527C126.95 106.529 127.25 106.453 127.517 106.305H127.527Z" fill="white"/>
<path d="M131.6 102.781H132.029V106.175L134.654 102.781H135.048V106.876H134.619V103.49L131.983 106.876H131.589L131.6 102.781ZM132.621 102.285C132.536 102.22 132.467 102.135 132.42 102.039C132.374 101.942 132.351 101.835 132.353 101.728H132.678C132.676 101.799 132.691 101.87 132.722 101.934C132.753 101.999 132.798 102.055 132.855 102.099C132.988 102.193 133.15 102.24 133.313 102.232C133.476 102.239 133.636 102.192 133.769 102.099C133.825 102.055 133.871 101.998 133.902 101.934C133.933 101.87 133.949 101.799 133.948 101.728H134.27C134.273 101.835 134.25 101.942 134.204 102.039C134.157 102.136 134.088 102.22 134.002 102.285C133.8 102.427 133.555 102.498 133.308 102.485C133.063 102.497 132.821 102.426 132.621 102.285Z" fill="white"/>
<path d="M142.881 104.999H141.94V106.865H141.516V102.781H141.94V104.618H142.881L144.275 102.781H144.746L143.218 104.77L144.827 106.876H144.326L142.881 104.999Z" fill="white"/>
<path d="M147.961 106.639C147.638 106.467 147.369 106.21 147.186 105.895C147.001 105.569 146.904 105.202 146.904 104.828C146.904 104.455 147.001 104.087 147.186 103.762C147.37 103.447 147.638 103.188 147.961 103.016C148.302 102.838 148.681 102.745 149.066 102.745C149.452 102.745 149.831 102.838 150.172 103.016C150.494 103.19 150.761 103.448 150.947 103.762C151.131 104.088 151.228 104.455 151.228 104.828C151.228 105.202 151.131 105.569 150.947 105.895C150.761 106.208 150.493 106.466 150.172 106.641C149.831 106.818 149.452 106.91 149.066 106.91C148.681 106.91 148.302 106.818 147.961 106.641V106.639ZM149.952 106.305C150.212 106.165 150.426 105.954 150.569 105.697C150.717 105.432 150.794 105.133 150.794 104.83C150.794 104.526 150.717 104.228 150.569 103.962C150.425 103.705 150.211 103.493 149.952 103.351C149.681 103.207 149.377 103.132 149.069 103.132C148.761 103.132 148.458 103.207 148.186 103.351C147.925 103.494 147.709 103.705 147.561 103.962C147.412 104.227 147.333 104.526 147.333 104.83C147.333 105.134 147.412 105.432 147.561 105.697C147.708 105.955 147.924 106.165 148.186 106.305C148.458 106.449 148.761 106.525 149.069 106.525C149.377 106.525 149.681 106.449 149.952 106.305Z" fill="white"/>
<path d="M158.311 102.781V106.876H157.893V103.602L156.285 106.356H156.078L154.47 103.618V106.876H154.035V102.781H154.392L156.18 105.818L157.952 102.781H158.311Z" fill="white"/>
<path d="M164.927 102.781V106.876H164.498V103.144H161.893V106.876H161.461V102.781H164.927Z" fill="white"/>
<path d="M171.246 102.781V106.876H170.818V103.144H168.828L168.78 104.511C168.772 104.97 168.727 105.427 168.643 105.879C168.599 106.159 168.485 106.424 168.311 106.649C168.238 106.735 168.147 106.804 168.044 106.85C167.941 106.896 167.829 106.919 167.716 106.916C167.605 106.915 167.494 106.901 167.386 106.873L167.424 106.489C167.487 106.503 167.552 106.51 167.617 106.511C167.698 106.512 167.779 106.495 167.852 106.46C167.925 106.425 167.989 106.373 168.038 106.308C168.166 106.116 168.249 105.899 168.281 105.671C168.344 105.295 168.382 104.916 168.394 104.535L168.453 102.778L171.246 102.781Z" fill="white"/>
<path d="M177.31 106.5V106.873H174.399V102.781H177.222V103.157H174.833V104.613H176.962V104.981H174.833V106.5H177.31Z" fill="white"/>
<path d="M181.404 104.999H180.463V106.865H180.04V102.781H180.463V104.618H181.404L182.798 102.781H183.27L181.739 104.77L183.348 106.876H182.849L181.404 104.999Z" fill="white"/>
<path d="M186.484 106.644C186.164 106.469 185.897 106.211 185.712 105.898C185.53 105.571 185.434 105.204 185.434 104.831C185.434 104.458 185.53 104.091 185.712 103.765C185.896 103.45 186.164 103.191 186.487 103.018C186.786 102.864 187.114 102.774 187.45 102.754C187.786 102.734 188.123 102.784 188.438 102.901C188.69 102.997 188.916 103.149 189.098 103.346L188.83 103.613C188.671 103.453 188.481 103.328 188.272 103.244C188.063 103.161 187.838 103.121 187.613 103.128C187.302 103.124 186.995 103.2 186.723 103.349C186.463 103.492 186.247 103.703 186.098 103.959C185.949 104.224 185.87 104.521 185.87 104.824C185.87 105.127 185.949 105.425 186.098 105.69C186.246 105.946 186.462 106.156 186.723 106.297C186.995 106.448 187.302 106.525 187.613 106.521C187.839 106.529 188.065 106.489 188.274 106.404C188.484 106.319 188.673 106.191 188.83 106.028L189.098 106.295C188.915 106.492 188.688 106.644 188.436 106.74C188.121 106.859 187.784 106.91 187.448 106.891C187.112 106.871 186.783 106.782 186.484 106.628V106.644Z" fill="white"/>
<path d="M96.3929 0.159912H60.7305V66.4572H95.5535C113.173 65.8588 127.377 52.0356 128.391 35.3222C129.474 17.4778 115.222 1.29987 96.3929 0.159912ZM127.1 37.5602H123.82C121.714 50.2225 110.745 60.9249 96.5463 62.0619H65.2375V4.56417H96.5463C111.394 5.66524 123.059 17.2803 124.115 31.0675C124.181 31.9651 124.203 32.8358 124.184 33.7155H128.042C127.729 34.9941 127.415 36.2756 127.1 37.5602Z" fill="white"/>
<path d="M115.829 37.5602C113.964 46.3029 106.015 53.3282 96.1642 53.9356H73.4062V42.2667C72.4659 41.5941 71.6112 40.8104 70.8609 39.9329C70.3624 38.9749 69.9738 37.9643 69.7025 36.9199C69.4924 36.1247 69.3524 35.3128 69.2843 34.4934V58.1065H96.0198C108.286 57.5499 118.221 48.6158 120.177 37.5512H115.829V37.5602Z" fill="white"/>
<path d="M96.0198 8.66624H69.2843V17.5137C70.0682 16.9628 70.893 16.4717 71.7514 16.0446C72.1095 15.8651 72.6721 15.5928 73.4062 15.2996V12.9179H96.1642C107.718 13.7287 116.296 23.3092 116.247 33.7155H120.514C120.595 20.9575 110.004 9.38433 96.0198 8.66624Z" fill="white"/>
<path d="M69.2843 23.1985V17.5137C67.7663 18.5778 66.4043 19.8466 65.2375 21.2836V31.3847C65.6822 28.3969 67.0258 25.6129 69.0917 23.399C69.1549 23.3302 69.2211 23.2673 69.2843 23.1985Z" fill="white"/>
<path d="M77.811 18.8661C79.3522 18.5335 80.9444 18.5081 82.4956 18.7913C84.0151 19.095 85.4647 19.6763 86.771 20.5057C90.5289 22.7317 93.5828 25.6939 95.4391 27.6865L98.3215 30.5529L101.484 27.5848L95.9115 21.9807C94.3464 20.0988 92.4934 18.4732 90.4206 17.1636C88.9162 16.2181 86.5694 14.77 83.2177 14.1716C79.9076 13.6271 76.5103 14.0094 73.4062 15.2756V20.2364C74.7968 19.5619 76.2818 19.0999 77.811 18.8661Z" fill="white"/>
<path d="M73.4062 20.2364L73.4062 15.2876C72.6721 15.5868 72.1095 15.8531 71.7514 16.0326C70.893 16.4597 70.0682 16.9508 69.2843 17.5017V23.1985C70.4757 21.9816 71.8704 20.9793 73.4062 20.2364Z" fill="white"/>
<path d="M88.1971 41.016C89.524 39.8671 89.9753 38.9814 93.7332 35.2205C94.4613 34.4904 95.0721 33.898 95.4843 33.4971C94.717 32.6563 93.7151 31.5911 92.5116 30.3853C91.961 29.8348 91.8648 29.751 89.6985 27.6925C86.6416 24.7603 86.3919 24.515 85.6939 24.0961C83.4749 22.7402 80.8317 22.2439 78.2683 22.7018C76.5132 22.9785 74.8478 23.6611 73.4062 24.6945V33.4342C73.393 32.2345 73.7055 31.0535 74.3108 30.0156C74.916 28.9777 75.7916 28.1214 76.8452 27.5369C78.3508 26.7742 80.0831 26.5786 81.7224 26.9864C83.1304 27.3604 84.1865 28.3179 86.2354 30.2148C87.6195 31.4894 88.6815 32.6264 89.3946 33.4222C88.85 34.0207 88.0377 34.9183 86.9876 35.9086C84.5806 38.2215 83.3561 39.3854 81.7103 39.8491C81.2079 39.9927 79.0025 40.6181 76.785 39.4602C74.029 38.015 73.4965 34.9392 73.4544 34.6729C73.4186 34.45 73.3955 34.2252 73.3852 33.9997V42.2786C75.1057 43.5433 77.1562 44.2881 79.2913 44.4239C83.9849 44.6483 87.4991 41.6114 88.1971 41.016Z" fill="white"/>
<path d="M70.8609 39.9299C71.6112 40.8075 72.4659 41.5911 73.4062 42.2637V33.9848C73.4062 33.7693 73.4062 33.5808 73.4062 33.4222L73.4062 24.6945C72.8399 25.1092 72.3195 25.5827 71.8537 26.1068C69.6092 28.641 69.3715 31.5193 69.2843 32.5605V34.5024C69.3524 35.3218 69.4924 36.1337 69.7025 36.9289C69.9747 37.9691 70.3632 38.9757 70.8609 39.9299Z" fill="white"/>
<path d="M120.514 33.7155C120.514 34.2481 120.49 34.7836 120.448 35.3222C120.389 36.0742 120.296 36.8162 120.168 37.5483H123.82C124.033 36.2798 124.154 34.998 124.184 33.7125L120.514 33.7155Z" fill="white"/>
<path d="M106.893 33.7155C106.44 33.6903 105.986 33.6903 105.533 33.7155C104.9 33.7573 104.271 33.8433 103.65 33.9728C102.504 34.2211 100.443 35.0439 98.1109 36.6117L92.9389 41.6623C91.9851 42.7125 86.3046 48.7833 78.4489 48.137C76.7009 47.9877 74.9935 47.5308 73.4062 46.7876V51.3654C75.6085 52.2343 77.957 52.6781 80.3263 52.6729C90.6222 52.6191 97.1932 43.6969 98.159 42.3475C98.5291 41.9615 99.0616 41.4259 99.7687 40.8275C100.533 40.1723 101.821 39.0682 103.238 38.398C104.441 37.8205 105.759 37.7338 108.316 37.5812C110.089 37.4764 110.907 37.5273 114.376 37.5483H115.838C115.997 36.8126 116.111 36.0683 116.181 35.3192C116.229 34.7806 116.254 34.2451 116.257 33.7125H110.444C109.258 33.7155 108.076 33.7693 106.893 33.7155Z" fill="white"/>
<path d="M123.82 37.5602H127.1C127.413 36.2836 127.727 35.006 128.042 33.7274H124.184C124.154 35.012 124.032 36.2927 123.82 37.5602Z" fill="white"/>
<path d="M116.178 35.3222C116.108 36.0713 115.994 36.8156 115.835 37.5512H120.174C120.302 36.8192 120.396 36.0772 120.454 35.3252C120.496 34.7866 120.517 34.251 120.52 33.7185H116.247C116.244 34.248 116.22 34.7836 116.178 35.3222Z" fill="white"/>
<path d="M109.953 32.9076C108.771 32.9076 107.585 32.8538 106.403 32.9076C105.95 32.9327 105.496 32.9327 105.043 32.9076C104.409 32.8657 103.779 32.7797 103.157 32.6503C102.01 32.402 99.9522 31.5792 97.6205 30.0113L92.4485 24.9608C91.5067 23.9106 85.8142 17.8398 77.9675 18.4861C76.2204 18.6349 74.5139 19.0919 72.9278 19.8355V15.2577C75.1304 14.3894 77.4786 13.9447 79.8479 13.9472C90.1438 14.004 96.7148 22.9232 97.6806 24.2756C98.1913 24.8087 98.7285 25.316 99.2903 25.7956C100.055 26.4508 101.342 27.5549 102.759 28.2251C103.963 28.8026 105.281 28.8893 107.838 29.0419C109.61 29.1466 110.429 29.0958 113.898 29.0748H126.631C126.944 30.3514 127.257 31.629 127.572 32.9076H109.953Z" fill="white"/>
</svg>
