<svg width="41" height="41" viewBox="0 0 41 41" fill="none" xmlns="http://www.w3.org/2000/svg">
<rect x="0.498047" y="0.633301" width="40.0449" height="40.0449" rx="20.0225" fill="white"/>
<path fill-rule="evenodd" clip-rule="evenodd" d="M24.0618 19.9367C24.2493 20.1243 24.3546 20.3786 24.3546 20.6437C24.3546 20.9089 24.2493 21.1632 24.0618 21.3507L18.4048 27.0077C18.3126 27.1032 18.2022 27.1794 18.0802 27.2318C17.9582 27.2842 17.827 27.3118 17.6942 27.313C17.5615 27.3141 17.4298 27.2888 17.3069 27.2386C17.184 27.1883 17.0723 27.114 16.9784 27.0201C16.8845 26.9262 16.8103 26.8146 16.76 26.6917C16.7097 26.5688 16.6844 26.4371 16.6856 26.3043C16.6867 26.1716 16.7143 26.0403 16.7667 25.9183C16.8191 25.7963 16.8953 25.686 16.9908 25.5937L21.9408 20.6437L16.9908 15.6937C16.8087 15.5051 16.7079 15.2525 16.7102 14.9903C16.7124 14.7281 16.8176 14.4773 17.003 14.2919C17.1884 14.1065 17.4392 14.0013 17.7014 13.9991C17.9636 13.9968 18.2162 14.0976 18.4048 14.2797L24.0618 19.9367Z" fill="#12284D"/>
</svg>
