<svg width="8" height="13" viewBox="0 0 8 13" fill="none" xmlns="http://www.w3.org/2000/svg">
<path fill-rule="evenodd" clip-rule="evenodd" d="M7.19642 5.51355C7.36795 5.68513 7.46432 5.91782 7.46432 6.16044C7.46432 6.40306 7.36795 6.63574 7.19642 6.80733L2.02038 11.9834C1.93598 12.0708 1.83501 12.1405 1.72338 12.1884C1.61175 12.2364 1.49169 12.2616 1.3702 12.2627C1.24871 12.2637 1.12822 12.2406 1.01577 12.1946C0.903327 12.1486 0.801167 12.0806 0.715257 11.9947C0.629347 11.9088 0.561407 11.8066 0.515401 11.6942C0.469395 11.5817 0.446244 11.4613 0.4473 11.3398C0.448356 11.2183 0.473597 11.0982 0.52155 10.9866C0.569503 10.875 0.639208 10.774 0.726598 10.6896L5.25575 6.16044L0.726598 1.63129C0.559927 1.45872 0.467702 1.22759 0.469787 0.987687C0.471872 0.747782 0.568099 0.518294 0.737744 0.348649C0.907388 0.179005 1.13688 0.0827773 1.37678 0.0806925C1.61669 0.0786078 1.84781 0.170833 2.02038 0.337504L7.19642 5.51355Z" fill="white"/>
</svg>
