<svg width="19" height="20" viewBox="0 0 19 20" fill="none" xmlns="http://www.w3.org/2000/svg">
<circle cx="9.40417" cy="9.89441" r="9.2616" fill="#D1FB9A"/>
<path d="M12.2776 9.89436C12.2778 9.97726 12.2566 10.0588 12.2159 10.1311C12.1753 10.2033 12.1166 10.2638 12.0457 10.3067L7.64848 12.9966C7.57434 13.042 7.48943 13.0668 7.40252 13.0684C7.3156 13.07 7.22983 13.0484 7.15407 13.0058C7.07902 12.9638 7.01651 12.9026 6.97295 12.8285C6.9294 12.7544 6.90638 12.67 6.90625 12.584V7.20471C6.90638 7.11873 6.9294 7.03434 6.97295 6.96021C7.01651 6.88608 7.07902 6.82489 7.15407 6.78293C7.22983 6.74031 7.3156 6.71869 7.40252 6.7203C7.48943 6.72191 7.57434 6.74669 7.64848 6.79209L12.0457 9.48205C12.1166 9.52492 12.1753 9.58542 12.2159 9.65767C12.2566 9.72993 12.2778 9.81146 12.2776 9.89436Z" fill="#12284D"/>
</svg>
