<svg width="248" height="42" viewBox="0 0 248 42" fill="none" xmlns="http://www.w3.org/2000/svg">
<path d="M247.781 23.0449V28.2649H226.861V24.1126L237.539 14.0285C238.672 12.9476 239.437 12.0248 239.832 11.2603C240.228 10.4694 240.425 9.69164 240.425 8.92709C240.425 7.81981 240.043 6.97617 239.279 6.39617C238.54 5.7898 237.446 5.48661 235.996 5.48661C234.783 5.48661 233.689 5.72389 232.714 6.19844C231.738 6.64662 230.921 7.33208 230.262 8.25482L225.596 5.24934C226.677 3.64115 228.166 2.38887 230.064 1.4925C231.963 0.569765 234.138 0.108398 236.589 0.108398C238.646 0.108398 240.439 0.451127 241.968 1.13659C243.523 1.79568 244.723 2.74478 245.566 3.98388C246.436 5.19661 246.871 6.63344 246.871 8.29436C246.871 9.7971 246.555 11.2076 245.922 12.5258C245.289 13.8439 244.064 15.3467 242.244 17.034L235.878 23.0449H247.781Z" fill="white"/>
<path d="M0.800781 1.68945H13.6768C16.7541 1.68945 19.4735 2.24021 21.835 3.34174C24.0774 4.34286 25.9877 5.95666 27.3438 7.99534C28.628 10.1026 29.3069 12.5196 29.3069 14.9836C29.3069 17.4477 28.628 19.8646 27.3438 21.9719C25.9877 24.0106 24.0774 25.6244 21.835 26.6255C19.4757 27.7249 16.7562 28.2757 13.6768 28.2778H0.800781V1.68945ZM13.3527 23.2261C16.1865 23.2261 18.4474 22.489 20.1354 21.0147C21.8234 19.5403 22.6706 17.5332 22.6769 14.9931C22.6769 12.4657 21.8297 10.4648 20.1354 8.99051C18.441 7.51618 16.1802 6.77902 13.3527 6.77902H7.36108V23.2641L13.3527 23.2261Z" fill="white"/>
<path d="M40.4187 26.9478C38.1535 25.8416 36.2354 24.1406 34.8718 22.0289C33.5611 19.9101 32.8672 17.4713 32.8672 14.9837C32.8672 12.4961 33.5611 10.0573 34.8718 7.93856C36.2354 5.82682 38.1535 4.12587 40.4187 3.01959C42.8868 1.80805 45.6088 1.1963 48.3609 1.2346C51.1136 1.19095 53.8369 1.80299 56.3032 3.01959C58.5678 4.13336 60.4876 5.83513 61.8596 7.94488C63.1822 10.0594 63.8832 12.4998 63.8832 14.99C63.8832 17.4802 63.1822 19.9207 61.8596 22.0352C60.4894 24.1413 58.5731 25.8407 56.3127 26.9542C53.8469 28.1723 51.1233 28.7844 48.3705 28.7392C45.6144 28.7786 42.8886 28.1645 40.4187 26.9478ZM52.9007 22.408C54.2204 21.7145 55.3203 20.6699 56.0776 19.3909C56.8338 18.0443 57.2308 16.5276 57.2308 14.9853C57.2308 13.443 56.8338 11.9263 56.0776 10.5797C55.3214 9.29899 54.2213 8.25313 52.9007 7.55945C51.4963 6.84717 49.9422 6.47582 48.3657 6.47582C46.7892 6.47582 45.2351 6.84717 43.8307 7.55945C42.5099 8.25286 41.4097 9.29878 40.6538 10.5797C39.8955 11.9256 39.4973 13.4425 39.4973 14.9853C39.4973 16.5281 39.8955 18.045 40.6538 19.3909C41.4107 20.6702 42.5107 21.7149 43.8307 22.408C45.2351 23.1203 46.7892 23.4916 48.3657 23.4916C49.9422 23.4916 51.4963 23.1203 52.9007 22.408Z" fill="white"/>
<path d="M95.0205 28.2778L94.9824 12.3267L86.6399 25.4661H83.6854L75.3841 12.6837V28.2936H69.2305V1.68945H74.6566L85.2643 18.2124L95.7099 1.68945H101.095L101.177 28.2778H95.0205Z" fill="white"/>
<path d="M132.922 16.8634C133.859 18.0462 134.346 19.5195 134.298 21.0241C134.298 23.3536 133.333 25.1438 131.404 26.3949C129.474 27.646 126.661 28.2725 122.963 28.2747H108.305V1.68945H122.159C125.613 1.68945 128.261 2.31077 130.101 3.55342C131.942 4.79606 132.866 6.481 132.875 8.60824C132.894 9.8274 132.551 11.0251 131.89 12.0518C131.203 13.0875 130.244 13.9158 129.117 14.4466C130.605 14.8446 131.933 15.6884 132.922 16.8634ZM114.814 6.32409V12.5921H121.333C122.953 12.5921 124.182 12.3256 125.018 11.7928C125.423 11.5502 125.755 11.2036 125.979 10.7894C126.202 10.3752 126.31 9.90879 126.289 9.43913C126.311 8.97178 126.205 8.50731 125.981 8.09585C125.757 7.6844 125.424 7.34158 125.018 7.10443C124.171 6.5842 122.943 6.32409 121.333 6.32409H114.814ZM126.375 22.847C126.801 22.5945 127.148 22.2305 127.38 21.7949C127.612 21.3592 127.719 20.8686 127.69 20.3765C127.69 18.1734 125.949 17.0719 122.467 17.0719H114.824V23.6432H122.477C124.203 23.6432 125.505 23.3778 126.384 22.847H126.375Z" fill="white"/>
<path d="M152.682 18.8569V28.2778H146.121V18.7811L135.148 1.68945H142.112L149.686 13.5019L157.256 1.68945H163.696L152.682 18.8569Z" fill="white"/>
<path d="M184.628 28.2776L179.16 20.8691H173.124V28.2776H166.57V1.6892H178.836C181.074 1.63936 183.299 2.04019 185.378 2.8676C187.095 3.55018 188.579 4.71068 189.65 6.2101C190.668 7.72522 191.191 9.51596 191.147 11.3376C191.194 13.1569 190.663 14.9447 189.628 16.4461C188.542 17.934 187.044 19.0755 185.317 19.7317L191.671 28.2776H184.628ZM182.966 7.9003C181.943 7.10417 180.446 6.70505 178.474 6.70295H173.127V15.9722H178.474C180.444 15.9722 181.941 15.5668 182.966 14.7559C183.991 13.945 184.505 12.8056 184.507 11.3376C184.507 9.8443 183.993 8.69854 182.966 7.9003Z" fill="white"/>
<path d="M215.401 22.5784H202.242L199.733 28.2651H193.004L205.638 1.67676H212.116L224.789 28.2651H217.914L215.401 22.5784ZM213.336 17.9091L208.844 7.72991L204.349 17.9091H213.336Z" fill="white"/>
<path d="M5.22059 34.8649H3.329V39.7417H2.76853V34.8649H0.876953V34.3737H5.22059V34.8649Z" fill="white"/>
<path d="M10.2998 37.8746V39.7243H9.73934V37.8746L7.58854 34.3737H8.19454L10.0406 37.3799L11.8831 34.3737H12.4541L10.2998 37.8746ZM8.28212 37.6273H11.736V38.0557H8.28212V37.6273Z" fill="white"/>
<path d="M19.1868 34.8646C19.3703 35.0375 19.5165 35.2457 19.6163 35.4766C19.7162 35.7074 19.7677 35.9562 19.7677 36.2075C19.7677 36.4588 19.7162 36.7075 19.6163 36.9384C19.5165 37.1693 19.3703 37.3775 19.1868 37.5504C18.7231 37.8966 18.1509 38.0681 17.572 38.0346H16.1253V39.7241H15.5578V34.3734H17.572C18.152 34.34 18.7249 34.5142 19.1868 34.8646ZM18.777 37.1916C18.9193 37.0716 19.0316 36.9205 19.1052 36.75C19.1787 36.5795 19.2115 36.3944 19.2008 36.2092C19.2126 36.0219 19.1804 35.8344 19.1069 35.6615C19.0333 35.4886 18.9204 35.335 18.777 35.213C18.4234 34.9573 17.9905 34.834 17.5545 34.8646H16.1253V37.5399H17.5545C17.9905 37.5706 18.4234 37.4472 18.777 37.1916Z" fill="white"/>
<path d="M24.0595 34.8649V37.0281H26.3645V37.4566H24.0525V39.7243H23.4921V37.4566H22.6829V37.0281H23.5061V34.3737H26.9249V34.8649H24.0595Z" fill="white"/>
<path d="M34.0075 36.7146C34.1808 36.8725 34.3162 37.0673 34.4035 37.2844C34.4909 37.5015 34.5279 37.7354 34.5119 37.9686C34.5282 38.2131 34.4884 38.458 34.3956 38.6849C34.3028 38.9118 34.1593 39.1148 33.976 39.2784C33.532 39.6048 32.9854 39.7629 32.4347 39.7243H30.2979V34.3737H30.8583V36.2861H32.5503C33.072 36.2504 33.5892 36.4025 34.0075 36.7146ZM33.5556 38.9475C33.6884 38.8242 33.7919 38.6729 33.8586 38.5048C33.9252 38.3367 33.9534 38.1559 33.9409 37.9756C33.9409 37.1535 33.433 36.7459 32.4207 36.7459H30.8583V39.275H32.4207C32.8259 39.3019 33.2278 39.186 33.5556 38.9475ZM35.4402 34.3737H36.0006V39.7243H35.4402V34.3737Z" fill="white"/>
<path d="M44.618 34.3737V39.7243H44.0576V37.258H40.6913V39.7243H40.1203V34.3737H40.6913V36.7599H44.0576V34.3737H44.618Z" fill="white"/>
<path d="M54.9346 37.8746V39.7243H54.3881V37.8746L52.2373 34.3737H52.8433L54.6894 37.3799L56.5354 34.3737H57.1029L54.9346 37.8746Z" fill="white"/>
<path d="M60.2583 34.3735H60.8187V38.808L64.2621 34.3735H64.7771V39.7242H64.2166V35.3001L60.7732 39.7242H60.2583V34.3735ZM61.5929 33.7256C61.4811 33.6402 61.391 33.5297 61.3302 33.4032C61.2693 33.2767 61.2393 33.1378 61.2426 32.9976H61.6665C61.6643 33.0906 61.684 33.1829 61.7242 33.267C61.7643 33.3511 61.8237 33.4246 61.8976 33.4818C62.0717 33.6055 62.2829 33.6669 62.4966 33.6559C62.7091 33.6653 62.9186 33.604 63.0921 33.4818C63.1659 33.4243 63.2254 33.3507 63.2661 33.2668C63.3067 33.1828 63.3275 33.0907 63.3268 32.9976H63.7472C63.751 33.1378 63.7213 33.277 63.6604 33.4036C63.5995 33.5302 63.5092 33.6406 63.3969 33.7256C63.1324 33.9112 62.8129 34.0032 62.4896 33.9869C62.1697 34.0022 61.8539 33.9102 61.5929 33.7256Z" fill="white"/>
<path d="M79.3217 37.2719H78.0887V39.7104H77.5352V34.3737H78.0887V36.7738H79.3217L81.1433 34.3737H81.7563L79.7596 36.9724L81.8614 39.7243H81.2063L79.3217 37.2719Z" fill="white"/>
<path d="M88.8599 39.2332V39.7208H85.0523V34.3737H88.7444V34.8649H85.6232V36.7668H88.4046V37.2476H85.6232V39.2332H88.8599Z" fill="white"/>
<path d="M99.0186 34.3737V39.7243H92.4261V34.3737H92.9865V39.2506H95.4386V34.3737H95.9991V39.2506H98.4511V34.3737H99.0186Z" fill="white"/>
<path d="M106.932 39.2332V39.7208H103.138V34.3737H106.826V34.8649H103.709V36.7668H106.49V37.2476H103.709V39.2332H106.932Z" fill="white"/>
<path d="M115.006 34.3737V39.7243H114.446V37.258H111.079V39.7243H110.508V34.3737H111.079V36.7599H114.446V34.3737H115.006Z" fill="white"/>
<path d="M119.125 34.3737H119.685V39.7243H119.125V34.3737Z" fill="white"/>
<path d="M128.097 34.0528H128.601V41.2079H128.097V34.0528Z" fill="white"/>
<path d="M141.39 37.2719H140.276V39.7103H139.722V37.2719H138.601L136.955 39.7103H136.296L138.139 36.9514L136.433 34.3597H137.056L138.601 36.7598H139.729V34.3597H140.283V36.7598H141.397L142.952 34.3597H143.565L141.859 36.9514L143.705 39.7103H143.043L141.39 37.2719Z" fill="white"/>
<path d="M146.911 34.3737H147.471V38.8082L150.915 34.3737H151.419V39.7243H150.859V35.3003L147.415 39.7243H146.9L146.911 34.3737Z" fill="white"/>
<path d="M159.685 34.3734V39.724H159.125V34.8472H156.529L156.466 36.6342C156.456 37.2337 156.397 37.8314 156.288 38.4212C156.23 38.7876 156.08 39.1337 155.853 39.4279C155.758 39.5403 155.639 39.6299 155.504 39.6902C155.37 39.7505 155.223 39.7799 155.076 39.7763C154.93 39.7756 154.785 39.7568 154.645 39.7205L154.69 39.2189C154.774 39.2366 154.86 39.2459 154.946 39.2468C155.052 39.249 155.157 39.2261 155.253 39.1801C155.349 39.1341 155.432 39.0662 155.496 38.982C155.664 38.7318 155.773 38.4473 155.815 38.1495C155.897 37.6588 155.945 37.1629 155.958 36.6655L156.035 34.3699L159.685 34.3734Z" fill="white"/>
<path d="M164.73 39.4139C164.307 39.1902 163.955 38.8537 163.714 38.442C163.474 38.0163 163.348 37.5365 163.348 37.0486C163.348 36.5607 163.474 36.081 163.714 35.6552C163.956 35.2434 164.307 34.9058 164.73 34.6799C165.175 34.4476 165.671 34.3263 166.175 34.3263C166.678 34.3263 167.174 34.4476 167.62 34.6799C168.039 34.907 168.388 35.2444 168.628 35.6552C168.871 36.08 168.998 36.5601 168.998 37.0486C168.998 37.5371 168.871 38.0173 168.628 38.442C168.387 38.8521 168.039 39.1893 167.62 39.4174C167.176 39.6535 166.679 39.7733 166.176 39.7658C165.672 39.7755 165.173 39.6543 164.73 39.4139ZM167.329 38.9785C167.668 38.7943 167.948 38.5191 168.138 38.1842C168.329 37.8364 168.429 37.4466 168.429 37.0504C168.429 36.6542 168.329 36.2644 168.138 35.9165C167.947 35.5816 167.667 35.3055 167.329 35.1188C166.976 34.9267 166.579 34.8284 166.176 34.8331C165.773 34.8292 165.375 34.9275 165.02 35.1188C164.679 35.3045 164.397 35.5806 164.204 35.9165C164.011 36.2636 163.91 36.6538 163.91 37.0504C163.91 37.447 164.011 37.8371 164.204 38.1842C164.396 38.5195 164.679 38.7946 165.02 38.9785C165.374 39.1725 165.772 39.2721 166.176 39.2676C166.575 39.2705 166.967 39.1709 167.315 38.9785H167.329Z" fill="white"/>
<path d="M172.651 34.3735H173.211V38.808L176.641 34.3735H177.155V39.7242H176.595V35.3001L173.152 39.7242H172.637L172.651 34.3735ZM173.985 33.7256C173.873 33.6402 173.783 33.5297 173.723 33.4032C173.662 33.2767 173.632 33.1378 173.635 32.9976H174.059C174.057 33.0906 174.076 33.1829 174.117 33.267C174.157 33.3511 174.216 33.4246 174.29 33.4818C174.464 33.6055 174.675 33.6669 174.889 33.6559C175.101 33.6653 175.311 33.604 175.485 33.4818C175.558 33.4243 175.618 33.3507 175.658 33.2668C175.699 33.1828 175.72 33.0907 175.719 32.9976H176.14C176.143 33.1378 176.114 33.277 176.053 33.4036C175.992 33.5302 175.902 33.6406 175.789 33.7256C175.525 33.9112 175.205 34.0032 174.882 33.9869C174.562 34.0022 174.246 33.9102 173.985 33.7256Z" fill="white"/>
<path d="M187.391 37.2719H186.161V39.7104H185.608V34.3737H186.161V36.7738H187.391L189.212 34.3737H189.829L187.832 36.9724L189.934 39.7243H189.279L187.391 37.2719Z" fill="white"/>
<path d="M194.028 39.4139C193.606 39.1902 193.256 38.8535 193.016 38.442C192.775 38.0169 192.648 37.5369 192.648 37.0486C192.648 36.5603 192.775 36.0804 193.016 35.6552C193.257 35.2435 193.607 34.9059 194.028 34.6799C194.474 34.4476 194.97 34.3263 195.473 34.3263C195.977 34.3263 196.473 34.4476 196.918 34.6799C197.338 34.9079 197.688 35.245 197.931 35.6552C198.171 36.0807 198.298 36.5605 198.298 37.0486C198.298 37.5367 198.171 38.0166 197.931 38.442C197.687 38.8515 197.338 39.1884 196.918 39.4174C196.472 39.6485 195.977 39.7692 195.473 39.7692C194.97 39.7692 194.475 39.6485 194.028 39.4174V39.4139ZM196.631 38.9785C196.97 38.7952 197.25 38.5197 197.437 38.1842C197.63 37.8371 197.731 37.447 197.731 37.0504C197.731 36.6538 197.63 36.2636 197.437 35.9165C197.249 35.5808 196.97 35.3044 196.631 35.1188C196.276 34.9303 195.88 34.8317 195.477 34.8317C195.074 34.8317 194.678 34.9303 194.323 35.1188C193.982 35.3045 193.699 35.5806 193.507 35.9165C193.311 36.2629 193.209 36.6533 193.209 37.0504C193.209 37.4474 193.311 37.8378 193.507 38.1842C193.698 38.5203 193.981 38.7957 194.323 38.9785C194.678 39.1669 195.074 39.2655 195.477 39.2655C195.88 39.2655 196.276 39.1669 196.631 38.9785Z" fill="white"/>
<path d="M207.553 34.3737V39.7243H207.007V35.4466L204.905 39.045H204.635L202.534 35.4675V39.7243H201.966V34.3737H202.432L204.768 38.3414L207.084 34.3737H207.553Z" fill="white"/>
<path d="M216.198 34.3737V39.7243H215.638V34.8474H212.233V39.7243H211.669V34.3737H216.198Z" fill="white"/>
<path d="M224.455 34.3734V39.724H223.895V34.8472H221.296L221.233 36.6342C221.223 37.2337 221.163 37.8314 221.054 38.4212C220.996 38.7876 220.847 39.1337 220.62 39.4279C220.524 39.5403 220.405 39.6299 220.271 39.6902C220.136 39.7505 219.989 39.7799 219.842 39.7763C219.697 39.7756 219.552 39.7568 219.411 39.7205L219.46 39.2189C219.543 39.2366 219.627 39.2459 219.712 39.2468C219.818 39.2493 219.924 39.2265 220.019 39.1805C220.115 39.1345 220.198 39.0664 220.262 38.982C220.43 38.7318 220.539 38.4473 220.581 38.1495C220.663 37.6587 220.712 37.1629 220.728 36.6655L220.805 34.3699L224.455 34.3734Z" fill="white"/>
<path d="M232.379 39.2332V39.7208H228.574V34.3737H232.263V34.8649H229.142V36.7668H231.923V37.2476H229.142V39.2332H232.379Z" fill="white"/>
<path d="M237.728 37.2719H236.498V39.7104H235.945V34.3737H236.498V36.7738H237.728L239.55 34.3737H240.166L238.166 36.9724L240.268 39.7243H239.616L237.728 37.2719Z" fill="white"/>
<path d="M244.366 39.4211C243.947 39.1929 243.598 38.8557 243.357 38.4457C243.119 38.0195 242.994 37.5399 242.994 37.0523C242.994 36.5646 243.119 36.0851 243.357 35.6589C243.598 35.2471 243.948 34.9096 244.369 34.6835C244.76 34.4824 245.189 34.3649 245.628 34.3385C246.067 34.3121 246.507 34.3774 246.92 34.5302C247.248 34.6556 247.543 34.8547 247.781 35.112L247.431 35.4603C247.224 35.2519 246.976 35.0881 246.702 34.9791C246.428 34.87 246.135 34.818 245.841 34.8263C245.434 34.8219 245.034 34.9215 244.678 35.1155C244.338 35.3026 244.056 35.5784 243.861 35.9132C243.666 36.2583 243.564 36.6476 243.564 37.0436C243.564 37.4395 243.666 37.8288 243.861 38.174C244.055 38.5085 244.337 38.7834 244.678 38.9682C245.033 39.1649 245.434 39.2657 245.841 39.2608C246.136 39.2708 246.431 39.2185 246.705 39.1075C246.979 38.9964 247.226 38.8291 247.431 38.6164L247.781 38.9647C247.542 39.2221 247.245 39.4212 246.916 39.5465C246.504 39.7014 246.065 39.7685 245.625 39.7433C245.186 39.7181 244.757 39.6012 244.366 39.4002V39.4211Z" fill="white"/>
</svg>
