<svg width="16" height="16" viewBox="0 0 16 16" fill="none" xmlns="http://www.w3.org/2000/svg">
<path d="M8.43359 12.0405L4.64181 8.24979L5.40038 7.47836L7.89788 9.97586V0.708008H8.96931V9.97586L11.4657 7.47944L12.2254 8.24979L8.43359 12.0405ZM2.66502 15.708C2.17145 15.708 1.75966 15.543 1.42966 15.213C1.09966 14.883 0.934308 14.4709 0.933594 13.9766V11.3805H2.00502V13.9766C2.00502 14.1416 2.07359 14.293 2.21074 14.4309C2.34788 14.5687 2.49895 14.6373 2.66395 14.6366H14.2032C14.3675 14.6366 14.5186 14.568 14.6565 14.4309C14.7943 14.2937 14.8629 14.1423 14.8622 13.9766V11.3805H15.9336V13.9766C15.9336 14.4702 15.7686 14.8819 15.4386 15.2119C15.1086 15.5419 14.6965 15.7073 14.2022 15.708H2.66502Z" fill="#12284D"/>
</svg>
