<svg width="16" height="22" viewBox="0 0 16 22" fill="none" xmlns="http://www.w3.org/2000/svg">
<path d="M8.31433 10.6716C7.60265 10.6716 6.92011 10.3889 6.41687 9.88562C5.91364 9.38238 5.63092 8.69984 5.63092 7.98816C5.63092 7.27647 5.91364 6.59394 6.41687 6.0907C6.92011 5.58746 7.60265 5.30475 8.31433 5.30475C9.02602 5.30475 9.70855 5.58746 10.2118 6.0907C10.715 6.59394 10.9977 7.27647 10.9977 7.98816C10.9977 8.34055 10.9283 8.68949 10.7935 9.01506C10.6586 9.34062 10.461 9.63644 10.2118 9.88562C9.96261 10.1348 9.66679 10.3325 9.34123 10.4673C9.01566 10.6022 8.66672 10.6716 8.31433 10.6716ZM8.31433 0.474609C6.32161 0.474609 4.41051 1.26621 3.00145 2.67528C1.59238 4.08434 0.800781 5.99544 0.800781 7.98816C0.800781 13.6233 8.31433 21.9419 8.31433 21.9419C8.31433 21.9419 15.8279 13.6233 15.8279 7.98816C15.8279 5.99544 15.0363 4.08434 13.6272 2.67528C12.2181 1.26621 10.307 0.474609 8.31433 0.474609Z" fill="#12284C"/>
</svg>
