<svg width="13" height="12" viewBox="0 0 13 12" fill="none" xmlns="http://www.w3.org/2000/svg">
<path d="M12.664 1.11509V9.39055C12.664 9.55938 12.593 9.7213 12.4666 9.84068C12.3402 9.96006 12.1687 10.0271 11.99 10.0271C11.8112 10.0271 11.6398 9.96006 11.5134 9.84068C11.387 9.7213 11.3159 9.55938 11.3159 9.39055V2.65162L1.68251 11.7507C1.55604 11.8701 1.3845 11.9372 1.20564 11.9372C1.02678 11.9372 0.855249 11.8701 0.728776 11.7507C0.602302 11.6312 0.53125 11.4692 0.53125 11.3003C0.53125 11.1314 0.602302 10.9693 0.728776 10.8499L10.363 1.75166L3.2277 1.75166C3.04894 1.75166 2.8775 1.6846 2.7511 1.56522C2.6247 1.44583 2.55368 1.28392 2.55368 1.11509C2.55368 0.94626 2.6247 0.784345 2.7511 0.664964C2.8775 0.545583 3.04894 0.478516 3.2277 0.478516L11.99 0.478516C12.1687 0.478516 12.3402 0.545583 12.4666 0.664964C12.593 0.784345 12.664 0.94626 12.664 1.11509Z" fill="#D1FB9A"/>
</svg>
