<svg width="23" height="15" viewBox="0 0 23 15" fill="none" xmlns="http://www.w3.org/2000/svg">
<g clip-path="url(#clip0_963_1140)">
<path fill-rule="evenodd" clip-rule="evenodd" d="M2.47805 2.17309H21.3476C21.6244 2.17309 21.8898 2.07408 22.0855 1.89783C22.2811 1.72158 22.3911 1.48253 22.3911 1.23327C22.3911 0.984019 22.2811 0.744968 22.0855 0.568718C21.8898 0.392468 21.6244 0.293457 21.3476 0.293457H2.47805C2.2013 0.293457 1.93589 0.392468 1.7402 0.568718C1.54451 0.744968 1.43457 0.984019 1.43457 1.23327C1.43457 1.48253 1.54451 1.72158 1.7402 1.89783C1.93589 2.07408 2.2013 2.17309 2.47805 2.17309ZM21.3476 12.8244H2.47805C2.2013 12.8244 1.93589 12.9234 1.7402 13.0996C1.54451 13.2759 1.43457 13.5149 1.43457 13.7642C1.43457 14.0134 1.54451 14.2525 1.7402 14.4287C1.93589 14.605 2.2013 14.704 2.47805 14.704H21.3476C21.6244 14.704 21.8898 14.605 22.0855 14.4287C22.2811 14.2525 22.3911 14.0134 22.3911 13.7642C22.3911 13.5149 22.2811 13.2759 22.0855 13.0996C21.8898 12.9234 21.6244 12.8244 21.3476 12.8244Z" fill="#4F4F4F"/>
<path d="M2.47805 6.62037H21.3476C21.6244 6.62037 21.8898 6.71938 22.0855 6.89563C22.2811 7.07188 22.3911 7.31093 22.3911 7.56018C22.3911 7.80944 22.2811 8.04849 22.0855 8.22474C21.8898 8.40099 21.6244 8.5 21.3476 8.5H2.47805C2.2013 8.5 1.93589 8.40099 1.7402 8.22474C1.54451 8.04849 1.43457 7.80944 1.43457 7.56018C1.43457 7.31093 1.54451 7.07188 1.7402 6.89563C1.93589 6.71938 2.2013 6.62037 2.47805 6.62037Z" fill="#4F4F4F"/>
</g>
<defs>
<clipPath id="clip0_963_1140">
<rect width="22.9565" height="14.4105" fill="white" transform="translate(0 0.293457)"/>
</clipPath>
</defs>
</svg>
