<svg width="823" height="360" viewBox="0 0 823 360" fill="none" xmlns="http://www.w3.org/2000/svg">
<path d="M257.137 287.972H220.638V352.198H132.216V287.972H0V222.158L137.867 20.4241H220.638V221.015H257.137V287.972ZM132.216 221.015V182.424C132.216 175.152 132.466 165.371 132.995 153.028C133.524 140.712 133.942 134.22 134.248 133.635H131.742C126.592 145.282 120.773 156.176 114.286 166.319L77.5643 221.015H132.216Z" fill="#C4FBD4"/>
<path d="M519.926 186.743C519.926 245.452 510.098 288.446 490.443 315.752C470.787 343.059 440.719 356.712 400.211 356.712C359.703 356.712 330.748 342.446 310.647 313.941C290.546 285.437 280.496 243.028 280.496 186.743C280.496 130.458 290.323 84.483 309.979 56.9257C329.634 29.3963 359.703 15.6316 400.211 15.6316C440.719 15.6316 469.479 29.9536 489.663 58.6254C509.848 87.2972 519.926 129.985 519.926 186.715V186.743ZM369.586 186.743C369.586 224.276 371.925 250.05 376.63 264.121C381.307 278.192 389.186 285.214 400.211 285.214C411.236 285.214 419.282 277.941 423.903 263.424C428.525 248.907 430.808 223.328 430.808 186.715C430.808 150.102 428.469 124.189 423.792 109.449C419.115 94.709 411.236 87.3251 400.211 87.3251C389.186 87.3251 381.307 94.4304 376.63 108.669C371.952 122.879 369.586 148.904 369.586 186.743Z" fill="#C4FBD4"/>
<path d="M801.312 287.972H764.813V352.198H676.391V287.972H544.203V222.158L682.043 20.4241H764.813V221.015H801.312V287.972ZM676.391 221.015V182.424C676.391 175.152 676.642 165.371 677.198 153.028C677.727 140.712 678.145 134.22 678.451 133.635H675.945C670.795 145.282 664.976 156.176 658.489 166.319L621.767 221.015H676.419H676.391Z" fill="#C4FBD4"/>
<path d="M274.287 286.69H237.788V350.916H149.366V286.69H17.1499V220.876L155.017 19.1423H237.788V219.734H274.287V286.69ZM149.366 219.734V181.142C149.366 173.87 149.616 164.09 150.145 151.746C150.674 139.43 151.092 132.938 151.398 132.353H148.892C143.742 144 137.923 154.895 131.436 165.037L94.7142 219.734H149.366Z" stroke="black" stroke-width="5" stroke-miterlimit="10"/>
<path d="M537.076 185.489C537.076 244.198 527.248 287.192 507.593 314.498C487.937 341.805 457.869 355.458 417.361 355.458C376.852 355.458 347.898 341.192 327.797 312.687C307.696 284.183 297.646 241.774 297.646 185.489C297.646 129.204 307.473 83.2291 327.129 55.6718C346.784 28.1424 376.852 14.3777 417.361 14.3777C457.869 14.3777 486.628 28.6997 506.813 57.3715C526.997 86.0433 537.076 128.731 537.076 185.461V185.489ZM386.736 185.489C386.736 223.022 389.074 248.796 393.78 262.867C398.457 276.938 406.336 283.96 417.361 283.96C428.386 283.96 436.432 276.687 441.053 262.17C445.675 247.653 447.958 222.074 447.958 185.461C447.958 148.848 445.619 122.935 440.942 108.195C436.265 93.4551 428.386 86.0712 417.361 86.0712C406.336 86.0712 398.457 93.1764 393.78 107.387C389.102 121.598 386.736 147.622 386.736 185.461V185.489Z" stroke="black" stroke-width="5" stroke-miterlimit="10"/>
<path d="M818.462 286.69H781.963V350.916H693.54V286.69H561.353V220.876L699.192 19.1423H781.963V219.734H818.462V286.69ZM693.54 219.734V181.142C693.54 173.87 693.791 164.09 694.348 151.746C694.877 139.43 695.294 132.938 695.601 132.353H693.095C687.944 144 682.126 154.895 675.639 165.037L638.917 219.734H693.568H693.54Z" stroke="black" stroke-width="5" stroke-miterlimit="10"/>
</svg>
