<svg width="23" height="33" viewBox="0 0 23 33" fill="none" xmlns="http://www.w3.org/2000/svg">
<path fill-rule="evenodd" clip-rule="evenodd" d="M15.5606 31.9985C15.8191 32.4162 16.2324 32.7147 16.7103 32.8288C17.1881 32.9428 17.6917 32.863 18.111 32.6069C18.5302 32.3508 18.8311 31.9392 18.9478 31.462C19.0646 30.9848 18.9877 30.4807 18.734 30.06L14.4751 23.1503L13.5813 19.5337C13.5385 19.5837 13.4965 19.6341 13.4548 19.6851L10.5664 22.7918L10.9202 24.2219C10.961 24.4488 11.0436 24.6661 11.164 24.8627L15.5606 31.9985ZM1.35423 30.3486L4.12187 23.0179C4.21905 22.7589 4.37245 22.5246 4.57104 22.332L8.89582 17.5443V9.68916C8.89698 9.09342 9.13416 8.52241 9.55541 8.10115C9.97667 7.67989 10.5477 7.44272 11.1434 7.44156C11.7491 7.44156 12.0059 7.60911 12.4982 7.85559L21.8455 13.2523C22.0337 13.3613 22.1986 13.5063 22.3308 13.679C22.4629 13.8518 22.5598 14.0488 22.6158 14.259C22.6718 14.4692 22.6858 14.6883 22.6571 14.9039C22.6285 15.1195 22.5576 15.3273 22.4486 15.5155C22.3396 15.7037 22.1946 15.8686 22.0218 16.0008C21.8491 16.1329 21.652 16.2298 21.4419 16.2858C21.2317 16.3418 21.0126 16.3559 20.797 16.3272C20.5814 16.2985 20.3736 16.2276 20.1854 16.1186L13.3909 12.1958V17.4663C13.3909 18.4356 13.2666 18.3988 12.7313 19.0542L7.51444 24.6652L4.8694 31.672C4.69388 32.1381 4.34039 32.5154 3.88671 32.7208C3.43302 32.9263 2.9163 32.9431 2.45021 32.7676C1.98413 32.592 1.60686 32.2386 1.4014 31.7849C1.19594 31.3312 1.17912 30.8145 1.35465 30.3484L1.35423 30.3486ZM10.2732 -0.00292969C9.73055 -0.00292969 9.20012 0.157975 8.74895 0.459435C8.29778 0.760896 7.94614 1.18937 7.73849 1.69069C7.53084 2.192 7.47651 2.74363 7.58237 3.27581C7.68823 3.808 7.94952 4.29685 8.33321 4.68054C8.7169 5.06423 9.20574 5.32552 9.73793 5.43138C10.2701 5.53724 10.8217 5.48291 11.3231 5.27526C11.8244 5.06761 12.2529 4.71596 12.5543 4.2648C12.8558 3.81363 13.0167 3.2832 13.0167 2.74058C13.0167 2.01296 12.7276 1.31513 12.2131 0.800626C11.6986 0.286118 11.0008 -0.00292969 10.2732 -0.00292969ZM7.93648 14.5695V9.76296L5.76097 11.9957L1.21348 13.2779C0.791878 13.3948 0.433682 13.6739 0.217118 14.054C0.000554821 14.4342 -0.0567788 14.8846 0.0576381 15.3069C0.172055 15.7292 0.448926 16.0891 0.827786 16.308C1.20665 16.5268 1.65672 16.5869 2.0797 16.475L7.23527 15.0793C7.41019 15.0341 7.56929 14.9417 7.69514 14.812L7.93648 14.5695Z" fill="#12284D"/>
</svg>
