<svg width="41" height="27" viewBox="0 0 41 27" fill="none" xmlns="http://www.w3.org/2000/svg">
<path d="M39.903 8.26017C39.8075 7.98109 39.469 7.76404 39.1863 7.76404C37.9624 7.76404 36.7387 7.76404 35.5147 7.76404C35.2322 7.76404 34.8935 7.98109 34.7979 8.26017C34.7044 8.53332 34.6346 8.77704 34.5882 9.00626L32.1356 2.19627C31.7311 1.07331 30.6597 0.318848 29.4701 0.318848H10.712C9.52227 0.318848 8.45115 1.07331 8.04643 2.19647L5.59375 9.00707C5.54722 8.77766 5.47738 8.53363 5.38381 8.26017C5.2883 7.98109 4.94966 7.76404 4.66712 7.76404C3.44327 7.76404 2.21943 7.76404 0.995481 7.76404C0.712938 7.76404 0.374293 7.98109 0.278789 8.26017C-0.0930483 9.34675 -0.0928446 9.96877 0.27889 11.0555C0.374395 11.3345 0.713039 11.5516 0.995583 11.5516C2.21953 11.5516 3.44337 11.5516 4.66722 11.5516C4.67068 11.5516 4.67434 11.5507 4.67791 11.5506L4.62252 11.7046C3.87386 11.9542 3.33331 12.6616 3.33331 13.4969V19.1995V19.6695V25.9799C3.33331 26.4815 3.73834 26.888 4.23816 26.888H8.79214C9.29186 26.888 9.69699 26.4815 9.69699 25.9799V21.559H30.485V25.9799C30.485 26.4815 30.8902 26.888 31.3899 26.888H35.9439C36.4437 26.888 36.8487 26.4815 36.8487 25.9799V19.6695V19.1995V13.4969C36.8487 12.6618 36.3084 11.9545 35.56 11.7047L35.5045 11.5506C35.5079 11.5507 35.5114 11.5515 35.5148 11.5515C36.7388 11.5515 37.9625 11.5515 39.1864 11.5515C39.4691 11.5515 39.8076 11.3344 39.9031 11.0554C40.2749 9.96877 40.2747 9.34675 39.903 8.26017ZM11.0585 3.66084H29.1211L31.983 11.6073H8.19671L11.0585 3.66084ZM11.5623 17.2053H7.75248C6.9351 17.2053 6.27257 16.5404 6.27257 15.72C6.27257 14.8997 6.93499 14.2347 7.75248 14.2347H11.5623C12.3796 14.2347 13.0422 14.8996 13.0422 15.72C13.0423 16.5404 12.3796 17.2053 11.5623 17.2053ZM32.4292 17.2053H28.6194C27.8021 17.2053 27.1395 16.5404 27.1395 15.72C27.1395 14.8997 27.8021 14.2347 28.6194 14.2347H32.4292C33.2466 14.2347 33.9091 14.8996 33.9091 15.72C33.9091 16.5404 33.2466 17.2053 32.4292 17.2053Z" fill="#12284D"/>
</svg>
