<svg width="20" height="21" viewBox="0 0 20 21" fill="none" xmlns="http://www.w3.org/2000/svg">
<path d="M18.4134 3.0747C17.3781 1.95181 15.9575 1.33337 14.413 1.33337C13.2585 1.33337 12.2013 1.69837 11.2704 2.41814C10.8008 2.78142 10.3752 3.22595 10 3.7447C9.62492 3.22607 9.19922 2.78142 8.72941 2.41814C7.79875 1.69837 6.74148 1.33337 5.58699 1.33337C4.0425 1.33337 2.62176 1.95181 1.58645 3.0747C0.563516 4.18447 0 5.7006 0 7.34396C0 9.03537 0.630351 10.5837 1.98363 12.2167C3.19426 13.6774 4.93422 15.1603 6.94914 16.8774C7.63719 17.4638 8.41707 18.1284 9.22684 18.8364C9.4408 19.0238 9.71557 19.1271 10 19.127C10.2846 19.127 10.5592 19.0238 10.7729 18.8367C11.5826 18.1286 12.363 17.4636 13.0513 16.8769C15.0659 15.1601 16.8059 13.6774 18.0165 12.2165C19.3698 10.5838 20 9.0354 20 7.3438C20 5.7006 19.4365 4.18447 18.4134 3.0747Z" fill="#0E6131"/>
</svg>
