<svg width="156" height="30" viewBox="0 0 156 30" fill="none" xmlns="http://www.w3.org/2000/svg">
<path d="M15.4514 0.292069C17.8226 0.292069 20.0635 0.695952 22.1741 1.50372C24.2847 2.31148 26.0826 3.40588 27.5679 4.7869L25.6136 7.13202C24.1284 5.751 22.5649 4.76084 20.9234 4.16153C19.3078 3.53616 17.6141 3.22348 15.8423 3.22348C14.5133 3.22348 13.2887 3.45799 12.1682 3.92702C11.0478 4.36998 10.0706 5.06049 9.23681 5.99855C8.42904 6.9366 7.79065 8.13522 7.32162 9.59441C6.87866 11.0275 6.65717 12.7473 6.65717 14.7537C6.65717 16.8122 6.89168 18.5841 7.36071 20.0693C7.82973 21.5285 8.48116 22.7401 9.31498 23.7043C10.1488 24.6423 11.152 25.3458 12.3246 25.8149C13.5232 26.2578 14.826 26.4793 16.2331 26.4793C17.4057 26.4793 18.4089 26.3751 19.2427 26.1666C20.1026 25.9582 20.8191 25.7106 21.3924 25.424C22.0699 25.1113 22.6301 24.7465 23.0731 24.3296V16.9034H17.992V14.3628H28.7405V25.1113C27.7763 25.893 26.6559 26.5835 25.3791 27.1829C24.2847 27.704 22.9297 28.173 21.3142 28.5899C19.7247 29.0068 17.9008 29.2153 15.8423 29.2153C13.4971 29.2153 11.3865 28.9026 9.51041 28.2773C7.63431 27.6519 6.0318 26.7269 4.7029 25.5022C3.37399 24.2775 2.35777 22.7662 1.65423 20.9683C0.950695 19.1703 0.598926 17.0988 0.598926 14.7537C0.598926 12.4086 0.950695 10.337 1.65423 8.5391C2.35777 6.74117 3.34794 5.22987 4.62473 4.00519C5.92758 2.78051 7.49099 1.85549 9.31498 1.23012C11.165 0.604753 13.2105 0.292069 15.4514 0.292069ZM40.6737 18.8577H52.7902L46.9274 4.39604H46.5365L40.6737 18.8577ZM51.2268 1.07378L62.3662 28.4336H56.7378L54.1582 21.7891H39.3057L36.7261 28.4336H31.0978L42.2371 1.07378H51.2268ZM83.0937 14.5583L93.4513 28.4336H87.0022L78.0125 16.3171H71.1726V28.4336H65.5052V1.07378H71.1726V13.3857H77.6217L86.6113 1.07378H92.865L83.0937 14.5583ZM114.164 14.5583L124.521 28.4336H118.072L109.082 16.3171H102.242V28.4336H96.5751V1.07378H102.242V13.3857H108.692L117.681 1.07378H123.935L114.164 14.5583ZM141.716 26.4793C142.993 26.4793 144.139 26.31 145.155 25.9712C146.198 25.6064 147.083 25.0592 147.813 24.3296C148.543 23.574 149.103 22.6229 149.494 21.4764C149.911 20.3038 150.119 18.9098 150.119 17.2942V1.07378H155.786V17.2942C155.786 21.307 154.562 24.3036 152.112 26.2839C149.663 28.2382 146.198 29.2153 141.716 29.2153C137.208 29.2153 133.729 28.2382 131.28 26.2839C128.857 24.3036 127.645 21.307 127.645 17.2942V1.07378H133.312V17.2942C133.312 18.9098 133.508 20.3038 133.899 21.4764C134.316 22.6229 134.889 23.574 135.618 24.3296C136.348 25.0592 137.221 25.6064 138.237 25.9712C139.279 26.31 140.439 26.4793 141.716 26.4793Z" fill="white"/>
</svg>
