<svg width="76" height="51" viewBox="0 0 76 51" fill="none" xmlns="http://www.w3.org/2000/svg">
<path fill-rule="evenodd" clip-rule="evenodd" d="M6.31844 0.993708C6.52676 0.958007 6.85836 0.922937 7.35486 0.884104C7.67682 0.858919 8.84487 0.858068 9.22041 0.882743C9.88981 0.926725 10.278 0.959876 10.5418 0.995626C10.6915 1.01591 10.8955 1.04255 10.9953 1.05484C11.095 1.06713 11.2291 1.08874 11.2933 1.10287C11.3574 1.11701 11.5206 1.14951 11.656 1.17508C12.4059 1.31672 12.913 1.45119 13.6511 1.70418C14.1053 1.85988 14.8096 2.1569 15.0438 2.29152L15.128 2.33995V4.85558V7.37121L15.0697 7.35394C15.0377 7.34442 14.9753 7.31091 14.9312 7.27943C14.8871 7.24796 14.8384 7.22221 14.823 7.22221C14.8075 7.22221 14.779 7.20856 14.7596 7.19185C14.7403 7.17517 14.7015 7.14957 14.6736 7.135C14.6456 7.12043 14.5528 7.07178 14.4673 7.0269C14.2695 6.9231 13.5892 6.60903 13.4697 6.56641C13.4199 6.5486 13.3674 6.52602 13.3531 6.51621C13.3151 6.49 12.9014 6.34246 12.5888 6.24359C11.4779 5.89229 10.5749 5.74213 9.33701 5.70286C8.27693 5.66924 7.66501 5.78239 7.38901 6.06305C7.16926 6.28651 7.17017 6.63079 7.39108 6.8542C7.46236 6.92631 7.68954 7.08604 7.8342 7.16577C8.15101 7.34039 8.65461 7.51911 9.46656 7.74505C9.59482 7.78072 9.76972 7.82971 9.85522 7.85385C9.94073 7.87802 10.1156 7.92596 10.2439 7.9604C10.3721 7.99481 10.582 8.05132 10.7103 8.08593C11.1707 8.21023 12.0124 8.48877 12.3297 8.62186C13.0583 8.92753 13.4488 9.11961 13.9361 9.41197C14.4509 9.72077 14.8891 10.0694 15.1981 10.4159C15.3532 10.5898 15.6721 11.0329 15.6721 11.0746C15.6721 11.0907 15.6822 11.1076 15.6946 11.1121C15.7359 11.127 15.9774 11.6318 16.0829 11.9241C16.3181 12.5755 16.4034 13.271 16.3484 14.0893C16.3126 14.6228 16.2534 14.9707 16.1145 15.4646C15.9446 16.0691 15.5688 16.7594 15.1678 17.2037C15.0482 17.3362 14.5822 17.7664 14.4705 17.8475C14.2771 17.9878 13.9718 18.1878 13.896 18.2239C13.8539 18.2439 13.8137 18.2673 13.8066 18.2758C13.7686 18.3212 12.9553 18.6854 12.8919 18.6854C12.8734 18.6854 12.8472 18.6949 12.8336 18.7065C12.7859 18.7474 12.1269 18.9379 11.6837 19.0388C11.5919 19.0597 11.537 19.0716 11.5364 19.0854C11.5356 19.1054 11.6484 19.1296 11.9281 19.1909C12.2539 19.2624 12.6125 19.3518 12.6924 19.3813C12.7138 19.3892 12.8537 19.4369 13.0033 19.4873C13.384 19.6155 13.5097 19.667 13.9232 19.8639C14.4285 20.1045 14.9329 20.4091 15.2691 20.6768C15.5024 20.8625 15.6011 20.9477 15.7887 21.1254C16.4145 21.7183 16.8515 22.2944 17.2626 23.0691C17.4363 23.3964 17.6413 23.8526 17.6413 23.9118C17.6413 23.9305 17.6518 23.9562 17.6646 23.9689C17.6906 23.9946 17.7582 24.2062 17.8856 24.6598C18.009 25.0995 18.031 25.193 18.0851 25.5068C18.2092 26.2268 18.2213 26.4018 18.2211 27.477C18.2208 28.5327 18.2101 28.6964 18.0965 29.3835C18.0185 29.8556 17.7817 30.7394 17.6671 30.9864C17.6547 31.0131 17.6367 31.0623 17.627 31.0957C17.5765 31.2699 17.2637 31.9047 17.0467 32.2736C16.9365 32.461 16.6283 32.9026 16.6004 32.9131C16.5886 32.9176 16.579 32.9311 16.579 32.9431C16.579 32.9706 16.3525 33.2462 16.1498 33.4654C15.4853 34.1841 14.7067 34.7387 13.7619 35.1664C13.5734 35.2517 13.4095 35.3215 13.3975 35.3215C13.3856 35.3215 13.3299 35.3422 13.2738 35.3674C13.0538 35.4664 12.0505 35.7592 11.9328 35.7589C11.907 35.7588 11.8649 35.7692 11.8394 35.7819C11.7769 35.8133 11.2858 35.8963 10.8269 35.953C10.6202 35.9785 10.3579 36.0132 10.2439 36.03C10.0843 36.0536 8.9803 36.0624 5.44396 36.0684L0.851318 36.0761V27.4657V18.8554H2.43704C3.34088 18.8554 4.01217 18.8463 3.99815 18.8342C3.98462 18.8225 3.88609 18.7935 3.77921 18.7696C3.67233 18.7457 3.56739 18.7179 3.54601 18.7079C3.52464 18.6978 3.38472 18.6544 3.23509 18.6115C3.08545 18.5686 2.91056 18.5141 2.84643 18.4905C2.7823 18.4668 2.64821 18.4179 2.54846 18.3817C2.4487 18.3455 2.32044 18.2962 2.26344 18.272C2.20644 18.2479 2.08401 18.1987 1.99138 18.1627C1.82237 18.0969 1.49315 17.9459 1.14281 17.7733L0.95496 17.6808V15.038C0.95496 13.5382 0.964806 12.3952 0.97771 12.3952C0.990198 12.3952 1.01494 12.4116 1.03269 12.4316C1.05044 12.4517 1.0763 12.4681 1.09016 12.4681C1.10402 12.4681 1.15191 12.4927 1.19658 12.5227C1.24122 12.5528 1.29809 12.5883 1.32297 12.6016C1.34782 12.615 1.46465 12.6805 1.58259 12.7473C1.70056 12.8141 1.83203 12.8858 1.87478 12.9067C1.91754 12.9275 2.01664 12.978 2.09502 13.0188C2.39957 13.1774 2.82104 13.3703 3.22213 13.5348C3.29338 13.564 3.375 13.5978 3.4035 13.6099C3.4908 13.647 3.93252 13.8038 3.94962 13.8038C3.95848 13.8038 4.00245 13.8184 4.04735 13.8363C4.17136 13.8857 4.6634 14.0275 5.03587 14.1212C6.57674 14.5089 8.83303 14.5661 9.51838 14.2349C9.76951 14.1136 9.94586 13.8599 9.94588 13.6201C9.94593 13.3881 9.71445 13.1159 9.34911 12.9184C9.15413 12.813 8.82326 12.6625 8.78576 12.6622C8.77543 12.6621 8.73545 12.6466 8.69692 12.6278C8.58162 12.5714 8.01835 12.4025 7.56214 12.2875C6.8431 12.1063 6.78345 12.0895 6.30548 11.9338C6.05845 11.8533 5.54086 11.6675 5.42452 11.6175C5.39602 11.6052 5.28243 11.5623 5.1721 11.522C5.06178 11.4817 4.95101 11.4378 4.92595 11.4245C4.9009 11.4112 4.78712 11.3609 4.67312 11.3126C3.99356 11.025 3.04446 10.5278 2.76885 10.315C2.37491 10.0107 2.02867 9.67409 1.78874 9.36204C1.55228 9.05447 1.19365 8.43381 1.14709 8.25159C1.13724 8.21305 1.12045 8.17059 1.10975 8.15724C1.08304 8.12387 0.986235 7.81383 0.920189 7.55008C0.869171 7.34634 0.865414 7.26309 0.86487 6.32362C0.8643 5.37849 0.867745 5.30138 0.920032 5.08501C1.09102 4.37765 1.30066 3.91686 1.69867 3.37362C1.88424 3.12032 2.19081 2.7985 2.4288 2.60717C2.51975 2.53405 2.6072 2.4626 2.62313 2.44839C2.68384 2.39425 3.04889 2.14874 3.23509 2.03686C3.61742 1.80708 4.23927 1.52951 4.75085 1.36026C5.09437 1.24663 5.67642 1.09858 5.95219 1.05469C6.03249 1.04192 6.1973 1.01447 6.31844 0.993708ZM41.6863 1.57087C42.8274 1.17029 43.746 0.991401 45.2101 0.884613C45.5745 0.858044 46.7317 0.857315 47.0886 0.883423C48.2181 0.966094 48.5926 1.01882 49.4465 1.21544C50.2774 1.40677 51.0818 1.69959 51.7525 2.05492C51.9734 2.17191 52.5621 2.5273 52.695 2.62381C53.1545 2.95758 53.7561 3.4886 54.0471 3.81731C54.6693 4.52021 54.9727 4.94821 55.3413 5.6436C55.6011 6.13358 55.7659 6.53979 56.0016 7.27079C56.081 7.51739 56.2376 8.24923 56.2716 8.53368C56.2852 8.64721 56.3117 8.85486 56.3305 8.99512C56.3529 9.16247 56.3646 9.54229 56.3646 10.1001C56.3646 10.658 56.3529 11.0378 56.3305 11.2052C56.3117 11.3454 56.2852 11.5531 56.2716 11.6666C56.2451 11.888 56.2039 12.0981 56.1001 12.5409C55.8732 13.5091 55.4666 14.4492 54.9133 15.2853C54.8027 15.4523 54.705 15.5943 54.6961 15.601C54.6872 15.6077 54.6459 15.6623 54.6044 15.7224C54.4382 15.9629 53.9871 16.4589 53.6105 16.8153C53.2088 17.1955 53.0464 17.3305 52.7129 17.5615C52.6122 17.6312 52.518 17.6975 52.5036 17.7088C52.4892 17.7201 52.4017 17.7747 52.3093 17.8301C52.2168 17.8854 52.1285 17.9408 52.113 17.9532C52.0685 17.9886 51.6976 18.1812 51.4416 18.3018C50.4941 18.7481 49.4678 19.0442 48.3453 19.1949C47.8416 19.2625 47.6094 19.289 47.3672 19.3064C47.2496 19.3149 47.1534 19.3259 47.1534 19.3308C47.1534 19.3387 47.2472 19.481 47.4643 19.8024C47.6577 20.0887 48.339 21.0887 48.606 21.4783C48.7754 21.7254 48.9405 21.9681 48.973 22.0177C49.0054 22.0672 49.1052 22.2147 49.1948 22.3455C49.2844 22.4763 49.3719 22.6052 49.3891 22.6319C49.4063 22.6586 49.4467 22.7153 49.4788 22.7578C49.5109 22.8003 49.5372 22.8409 49.5372 22.8481C49.5372 22.8552 49.6049 22.957 49.6876 23.0743C49.7704 23.1917 49.9657 23.4762 50.1216 23.7066C50.425 24.1547 50.8263 24.7459 51.3022 25.4454C51.4644 25.6838 51.6087 25.8971 51.623 25.9195C51.6372 25.9418 51.6751 25.9944 51.7072 26.0363C51.7393 26.0781 51.7655 26.1196 51.7655 26.1284C51.7655 26.1373 51.7946 26.1803 51.8302 26.2241C51.8659 26.2679 51.895 26.3164 51.895 26.3318C51.895 26.4232 52.0017 26.2846 52.5146 25.5266C52.7017 25.2501 52.7437 25.1884 53.0171 24.7877C53.1426 24.6038 53.3383 24.3168 53.4519 24.1498C53.5655 23.9828 53.7263 23.7479 53.8091 23.6276C53.9749 23.3871 54.1893 23.0738 54.4083 22.7518C54.4867 22.6366 54.6325 22.4235 54.7322 22.2782C54.832 22.133 55.0185 21.8604 55.1468 21.6725C55.2751 21.4846 55.4535 21.2247 55.5434 21.0949C55.6332 20.9652 55.8019 20.7169 55.9182 20.5433C56.0344 20.3696 56.1416 20.2146 56.1564 20.1989C56.1711 20.1831 56.2415 20.0813 56.3128 19.9728C56.384 19.8642 56.5239 19.6571 56.6237 19.5124C56.7234 19.3678 56.8459 19.1873 56.8958 19.1112C56.9456 19.0351 57.0077 18.9465 57.0337 18.9142L57.0809 18.8554H59.7348H62.3888V15.886V12.9166L62.3305 12.8188C62.2412 12.6688 61.9493 12.1934 61.9214 12.1523C61.9077 12.1323 61.8574 12.0503 61.8095 11.9702C61.7232 11.8257 61.2559 11.0645 61.1745 10.9356C61.1512 10.8988 61.026 10.6957 60.8963 10.4844C60.5084 9.8524 60.3713 9.62979 60.1736 9.31084C60.0701 9.14387 59.9593 8.96354 59.9274 8.91011C59.8955 8.85668 59.7905 8.68729 59.6941 8.53368C59.5976 8.38006 59.496 8.21613 59.4682 8.16938C59.332 7.94053 59.2724 7.84287 59.0976 7.56222C58.9936 7.39525 58.8793 7.20946 58.8436 7.14935C58.8079 7.08924 58.7601 7.01092 58.7376 6.97529C58.715 6.93969 58.5902 6.7375 58.4603 6.526C58.2361 6.16095 58.0578 5.87153 57.3483 4.72072C56.4578 3.27631 56.3938 3.1721 56.3115 3.03281C56.2799 2.97938 56.1752 2.80999 56.0789 2.65638C55.9826 2.50277 55.8775 2.33337 55.8454 2.27994C55.7056 2.04708 55.3083 1.40347 55.2907 1.38134C55.2801 1.36798 55.2642 1.33792 55.2553 1.31455C55.2399 1.27422 55.4178 1.27205 58.759 1.27205H62.2788L62.3128 1.35098C62.3315 1.39441 62.4156 1.56653 62.4996 1.73349C62.5837 1.90046 62.6818 2.10265 62.7177 2.18279C62.7832 2.32946 62.8214 2.40907 62.9971 2.76567C63.0817 2.93732 63.1653 3.11182 63.3231 3.44568C63.3484 3.49911 63.4067 3.61933 63.4527 3.71283C63.5324 3.87477 63.5893 3.99159 63.7483 4.31999C63.787 4.40014 63.8526 4.53405 63.8941 4.61757C63.9355 4.70109 63.9693 4.77386 63.9693 4.77925C63.9693 4.78466 64.0226 4.89665 64.0876 5.02813C64.2778 5.41242 64.2987 5.45509 64.3592 5.58288C64.3908 5.64967 64.4432 5.75896 64.4755 5.82575C64.5078 5.89253 64.589 6.06193 64.6558 6.20218C64.7226 6.34244 64.8124 6.52823 64.8553 6.61505C64.923 6.75234 65.0755 7.0687 65.2064 7.34364C65.2287 7.3904 65.2867 7.50918 65.3354 7.60761C65.3841 7.70605 65.4355 7.81521 65.4497 7.85021L65.4756 7.91382L65.5251 7.85337C65.5523 7.82014 65.5749 7.78408 65.5752 7.77322C65.5755 7.76239 65.6038 7.69682 65.6381 7.6275C65.6723 7.55821 65.7481 7.40524 65.8065 7.28757C65.8649 7.1699 65.9126 7.06901 65.9126 7.06338C65.9126 7.05774 65.96 6.95829 66.018 6.84235C66.0759 6.72643 66.2026 6.46664 66.2995 6.26509C66.94 4.9324 67.0716 4.66017 67.1727 4.45818C67.235 4.33381 67.2859 4.22807 67.2859 4.22316C67.2859 4.21825 67.3252 4.13423 67.3732 4.0364C67.4213 3.93857 67.4864 3.80391 67.518 3.73712C67.5778 3.61044 67.5974 3.5703 67.7858 3.18956C67.8489 3.06206 67.9162 2.91724 67.9352 2.86776C67.9543 2.81829 67.9793 2.77781 67.9907 2.77781C68.002 2.77781 68.0114 2.76375 68.0114 2.74653C68.0114 2.72146 68.4138 1.86945 68.659 1.37527L68.7103 1.27205H72.2085C75.523 1.27205 75.7068 1.27429 75.7066 1.31455C75.7066 1.33792 75.6119 1.51006 75.4962 1.69707C75.3805 1.88407 75.1983 2.17915 75.0914 2.3528C74.9844 2.52644 74.8751 2.70131 74.8486 2.74138C74.8221 2.78145 74.7921 2.83063 74.7821 2.85067C74.7721 2.8707 74.6787 3.02208 74.5746 3.18706C74.4705 3.35206 74.3853 3.49161 74.3853 3.49719C74.3853 3.50278 74.358 3.54812 74.3246 3.59796C74.1966 3.78887 73.7894 4.46068 73.7894 4.48091C73.7894 4.49259 73.7802 4.50214 73.7689 4.50214C73.7576 4.50214 73.7305 4.53767 73.7087 4.58107C73.6869 4.62447 73.5912 4.78437 73.496 4.93638C73.4009 5.08836 73.323 5.22225 73.323 5.23389C73.323 5.2455 73.3138 5.25502 73.3025 5.25502C73.2912 5.25502 73.2642 5.29055 73.2424 5.33395C73.2207 5.37735 73.1178 5.54949 73.0137 5.71646C72.8042 6.05275 72.4726 6.58887 72.0524 7.27079C71.9001 7.5179 71.6502 7.92227 71.4971 8.16938C71.344 8.41649 71.0906 8.82633 70.9339 9.08012C70.6713 9.50537 70.3149 10.0805 70.2523 10.1799C70.2379 10.2028 70.1038 10.4214 69.9543 10.6657C69.8049 10.9099 69.6639 11.1394 69.6411 11.1757C69.6182 11.212 69.4884 11.4219 69.3525 11.6423C69.2166 11.8627 69.0035 12.207 68.8789 12.4074C68.7543 12.6077 68.6364 12.799 68.617 12.8324C68.5878 12.8827 68.5817 13.4095 68.5816 15.9081C68.5814 18.6348 68.5775 18.9244 68.5404 18.9378C68.5179 18.9459 67.142 18.9525 65.483 18.9525H62.4665V27.5135V36.0744H59.4998H56.533V32.1707V28.267L56.4797 28.3395C56.4503 28.3794 56.3053 28.5869 56.1574 28.8006C56.0096 29.0144 55.8762 29.2024 55.861 29.2186C55.8458 29.2347 55.8334 29.2533 55.8334 29.2599C55.8334 29.2712 55.7259 29.4293 55.3284 30.0028C55.2404 30.1297 55.114 30.3128 55.0475 30.4096C54.7534 30.8377 54.6732 30.9542 54.491 31.2171C54.0819 31.8078 53.9759 31.9616 53.9019 32.0723C53.8598 32.1353 53.7612 32.2774 53.6828 32.3881L53.5403 32.5893L51.9468 32.5949L50.3534 32.6005L50.1461 32.2957C50.0321 32.1281 49.8776 31.9038 49.8027 31.7973C49.7279 31.6908 49.6667 31.5941 49.6667 31.5824C49.6667 31.5707 49.6576 31.5576 49.6464 31.5531C49.6353 31.5486 49.5572 31.4412 49.4729 31.3143C49.3886 31.1874 49.2928 31.0498 49.26 31.0084C49.2272 30.9671 49.2003 30.9215 49.2003 30.9072C49.2003 30.8929 49.1911 30.8775 49.1799 30.8731C49.1686 30.8686 49.0614 30.7174 48.9415 30.5371C48.8217 30.3568 48.7167 30.2038 48.7082 30.1971C48.6997 30.1904 48.6235 30.0811 48.5389 29.9542C48.4542 29.8274 48.3148 29.6225 48.2291 29.499C48.1434 29.3756 47.9974 29.1637 47.9048 29.0283C47.8122 28.8928 47.6521 28.6605 47.549 28.512L47.3615 28.2421L47.3611 32.1582L47.3607 36.0744H44.3939H41.4271L41.4336 27.3131L41.4401 18.5518L41.0515 18.3738C40.3764 18.0647 39.7256 17.6685 39.2248 17.2617C38.9018 16.9994 38.2971 16.4085 38.0597 16.1232C38.0153 16.0697 37.9648 16.0094 37.9476 15.9891C37.6487 15.6366 37.2683 15.0677 37.0331 14.6215C36.9544 14.4723 36.8805 14.3335 36.8688 14.313C36.8205 14.2283 36.5818 13.6523 36.4967 13.415C36.094 12.2917 35.9153 10.9453 35.9823 9.53792C36.0197 8.75228 36.1272 8.06543 36.3334 7.29507C36.4566 6.8345 36.7527 6.10273 37.0064 5.63146C37.1999 5.27209 37.6014 4.63418 37.6714 4.575C37.6793 4.56832 37.726 4.50823 37.7751 4.44147C38.2326 3.82001 38.9416 3.1303 39.6134 2.6531C40.2216 2.22112 41.0171 1.8058 41.6863 1.57087ZM16.4222 1.8185C16.3956 1.76329 16.2163 1.29549 16.2163 1.28121C16.2163 1.27606 17.704 1.27465 19.5224 1.27803L22.8285 1.2842L22.8881 1.46634C22.9209 1.56653 22.9786 1.74685 23.0163 1.86707C23.054 1.98729 23.1065 2.15122 23.133 2.23136C23.246 2.5739 23.3934 3.02648 23.469 3.26354C23.6198 3.73627 23.6825 3.9309 23.7193 4.0407C23.8009 4.28412 24.0478 5.04834 24.2137 5.57074C24.2497 5.68428 24.2942 5.82089 24.3124 5.87432C24.375 6.05705 24.4265 6.21443 24.5071 6.46934C24.5515 6.60959 24.6098 6.78992 24.6367 6.87006C24.6636 6.95021 24.6985 7.06496 24.7143 7.12507C24.7301 7.18518 24.7535 7.25621 24.7664 7.28293C24.7793 7.30964 24.8147 7.41347 24.845 7.51365C24.9011 7.6989 24.9192 7.7554 25.0389 8.12081C25.0761 8.23435 25.1341 8.41467 25.1677 8.52153C25.2014 8.62839 25.2601 8.80872 25.2982 8.92226C25.3362 9.0358 25.3828 9.17787 25.4016 9.23798C25.4205 9.29809 25.4668 9.44016 25.5045 9.5537C25.5422 9.66724 25.5947 9.83117 25.6211 9.918C25.6825 10.1196 25.9356 10.9043 26.0366 11.2059C26.0792 11.3331 26.1141 11.4539 26.1141 11.4742C26.1141 11.4945 26.1242 11.5216 26.1365 11.5343C26.1489 11.5469 26.1802 11.6338 26.2061 11.7273C26.232 11.8208 26.2671 11.929 26.2839 11.9676C26.3136 12.0355 26.3174 12.0292 26.3973 11.7855C26.4427 11.6466 26.5021 11.462 26.5293 11.3752C26.5564 11.2884 26.6322 11.0534 26.6977 10.853C26.7632 10.6527 26.8461 10.3958 26.8819 10.2823C26.9177 10.1688 26.9683 10.0103 26.9943 9.93014C27.0203 9.85 27.102 9.59317 27.1758 9.35941C27.2497 9.12566 27.3202 8.91254 27.3325 8.88583C27.3449 8.85911 27.3773 8.76075 27.4047 8.66725C27.4701 8.44362 27.712 7.68273 27.8641 7.22221C27.9016 7.10867 27.9474 6.9666 27.966 6.90649C27.9845 6.84638 28.0313 6.69884 28.07 6.57862C28.1087 6.45841 28.1678 6.27262 28.2014 6.16576C28.235 6.0589 28.2908 5.88403 28.3254 5.77717C28.7082 4.59647 28.7795 4.37279 28.91 3.94355C28.9405 3.84337 28.9755 3.73955 28.9879 3.71283C29.0002 3.68612 29.0416 3.56044 29.0798 3.43354C29.1181 3.30664 29.1651 3.1591 29.1843 3.10567C29.2034 3.05224 29.2911 2.77902 29.3791 2.49851C29.4671 2.21801 29.5665 1.90654 29.6 1.80635C29.6335 1.70617 29.686 1.54496 29.7167 1.44813L29.7725 1.27205H33.0736C34.8892 1.27205 36.3746 1.27893 36.3746 1.28733C36.3746 1.30212 35.9656 2.36205 35.8556 2.63209C35.8257 2.70556 35.78 2.82577 35.7539 2.89924C35.7279 2.97271 35.6942 3.06014 35.6791 3.09353C35.664 3.12692 35.604 3.27993 35.5459 3.43354C35.4877 3.58715 35.4298 3.73469 35.4172 3.76141C35.4046 3.78812 35.3826 3.84276 35.3682 3.88284C35.3539 3.92291 35.3162 4.02127 35.2845 4.10141C35.2528 4.18156 35.1954 4.3291 35.1569 4.42928C35.1184 4.52946 34.9845 4.87372 34.8592 5.1943C34.7339 5.51488 34.609 5.83728 34.5814 5.91075C34.5538 5.98422 34.5208 6.06618 34.5079 6.0929C34.495 6.11961 34.42 6.31087 34.3411 6.51791C34.2622 6.72495 34.187 6.9162 34.1738 6.94292C34.1607 6.96963 34.1361 7.03521 34.1192 7.08864C34.1022 7.14207 34.0738 7.21857 34.0561 7.25864C34.0137 7.35399 33.9226 7.58546 33.7452 8.04795C33.6658 8.25499 33.5904 8.44625 33.5777 8.47296C33.5649 8.49968 33.5347 8.57618 33.5105 8.64296C33.4494 8.81127 33.3854 8.97763 33.305 9.17727C33.2673 9.27077 33.1834 9.48388 33.1185 9.65085C33.0537 9.81782 32.966 10.0419 32.9238 10.1487C32.8815 10.2556 32.8373 10.3703 32.8255 10.4037C32.8136 10.4371 32.7694 10.5519 32.7271 10.6587C32.6848 10.7656 32.5482 11.1153 32.4235 11.4359C32.2002 12.0097 32.0959 12.2749 32.0653 12.3466C32.0568 12.3667 32.0272 12.4432 31.9995 12.5166C31.8504 12.912 31.6289 13.4822 31.6079 13.5245C31.5947 13.5512 31.4896 13.819 31.3745 14.1195C31.2594 14.4201 31.1547 14.6878 31.1418 14.7146C31.1289 14.7413 31.1046 14.8068 31.0876 14.8603C31.0707 14.9137 31.0419 14.9902 31.0236 15.0303C31.0053 15.0703 30.9784 15.1359 30.9639 15.176C30.9493 15.2161 30.9114 15.3144 30.8797 15.3946C30.848 15.4747 30.7903 15.6223 30.7514 15.7224C30.6089 16.0898 30.433 16.541 30.3584 16.7303C30.3163 16.8372 30.2719 16.9519 30.2597 16.9853C30.2476 17.0187 30.2068 17.1225 30.169 17.216C30.0962 17.3966 29.9317 17.8201 29.7636 18.2604C29.7075 18.4073 29.6329 18.595 29.5979 18.6774C29.5629 18.7598 29.5343 18.839 29.5343 18.8535L23.1048 18.8797L23.0282 18.6793C22.9861 18.5691 22.9416 18.4571 22.9295 18.4304C22.9173 18.4037 22.8773 18.3053 22.8406 18.2118C22.6259 17.6643 22.4735 17.2725 22.4296 17.1553C22.4021 17.0819 22.3634 16.9835 22.3438 16.9368C22.2964 16.8243 22.026 16.1348 21.9627 15.9653C21.9353 15.8918 21.9025 15.8099 21.8897 15.7832C21.877 15.7564 21.8443 15.6745 21.817 15.601C21.763 15.4554 21.563 14.9425 21.1777 13.9617C21.0413 13.6144 20.8081 13.0188 20.6595 12.6381C20.4185 12.021 20.0273 11.0216 19.9368 10.7923C19.9184 10.7456 19.8078 10.4614 19.6911 10.1609C19.5745 9.86032 19.4667 9.5871 19.4516 9.5537C19.4366 9.52031 19.4073 9.44381 19.3865 9.3837C19.3658 9.32359 19.3381 9.25255 19.3249 9.22584C19.3117 9.19912 19.236 9.00787 19.1566 8.80083C19.0772 8.59378 18.9967 8.3916 18.9776 8.35153C18.9586 8.31146 18.9291 8.23495 18.9122 8.18152C18.8953 8.12809 18.8709 8.06252 18.858 8.03581C18.8451 8.00909 18.77 7.81784 18.6911 7.61079C18.6123 7.40375 18.537 7.2125 18.5239 7.18578C18.5108 7.15907 18.4775 7.0771 18.4499 7.00363C18.384 6.82831 18.0781 6.04241 17.9913 5.82575C17.9342 5.68331 17.6388 4.92895 17.4206 4.36856C17.3893 4.28842 17.3569 4.20645 17.3484 4.18642C17.3399 4.16638 17.2676 3.98059 17.1878 3.77355C17.1079 3.56651 17.0265 3.35886 17.0068 3.31211C16.9872 3.26536 16.9488 3.167 16.9215 3.09353C16.8943 3.02006 16.8114 2.80695 16.7374 2.61995C16.6633 2.43294 16.5674 2.18704 16.5242 2.0735C16.481 1.95996 16.4351 1.84521 16.4222 1.8185ZM49.04 7.27853C48.4275 6.6263 47.7366 6.30115 46.7 6.17739C46.4836 6.15157 45.8304 6.15259 45.6117 6.17911C45.0055 6.2526 44.4993 6.40993 44.0441 6.6663C43.9165 6.73823 43.6279 6.96186 43.4612 7.11817C43.3213 7.24934 43.0336 7.59047 43.0336 7.62529C43.0336 7.63525 43.0172 7.66065 42.9971 7.68174C42.9508 7.73043 42.7391 8.12639 42.6836 8.26825C42.6604 8.32741 42.6143 8.46325 42.5811 8.57011C42.5478 8.67697 42.5139 8.78079 42.5056 8.80083C42.4973 8.82086 42.4611 9.03159 42.4252 9.26911C42.3361 9.85901 42.3361 10.3413 42.4252 10.9312C42.4611 11.1687 42.4973 11.3794 42.5056 11.3995C42.5139 11.4195 42.5478 11.5233 42.5811 11.6302C42.6669 11.9065 42.7104 12.0112 42.8403 12.254C43.4748 13.4401 44.5985 14.0464 46.1633 14.0468C46.8805 14.0469 47.4843 13.9275 48.0214 13.6792C48.6199 13.4025 49.1431 12.9097 49.4645 12.32C49.6159 12.0423 49.6325 12.0054 49.7265 11.7395C50.0599 10.7963 50.0599 9.40395 49.7265 8.46082C49.5652 8.00455 49.3117 7.56788 49.04 7.27853ZM10.6196 24.1609C10.2767 23.9534 9.98747 23.8407 9.5443 23.7422C9.26231 23.6794 9.24658 23.6786 8.06084 23.6699L6.8624 23.661L6.86896 27.4816L6.87551 31.3021L7.58805 31.3093C9.1069 31.3247 9.6895 31.2471 10.3305 30.9442C11.0963 30.5824 11.6224 29.89 11.8546 28.9383C11.9748 28.4454 12.0268 27.7193 11.99 27.046C11.9576 26.4511 11.8954 26.0938 11.7473 25.6515C11.6745 25.4339 11.4042 24.8973 11.3272 24.8177C11.3014 24.7909 11.2456 24.7254 11.2032 24.6719C11.0763 24.5123 10.7992 24.2696 10.6196 24.1609ZM1.31597 39.8129C1.61055 39.5367 2.08409 39.3158 2.50609 39.2577C2.71382 39.2291 3.13979 39.2285 3.3465 39.2565C3.54658 39.2836 3.81753 39.3591 3.98001 39.433L4.09013 39.4831V39.939V40.395L3.90153 40.311C3.52217 40.1422 3.07472 40.0915 2.7304 40.1784C2.37794 40.2674 2.12746 40.4437 2.00708 40.6876C1.96081 40.7813 1.95252 40.8442 1.95252 41.1017C1.95252 41.3802 1.95824 41.4167 2.02198 41.5442C2.21963 41.9394 2.72649 42.1451 3.3281 42.0741C3.56962 42.0456 3.84346 41.9729 4.00616 41.894C4.05093 41.8723 4.10006 41.8546 4.11532 41.8546C4.13434 41.8546 4.14086 41.9978 4.13604 42.3088L4.129 42.7631L3.97354 42.8086C3.88803 42.8337 3.79789 42.8643 3.77322 42.8765C3.5883 42.9681 2.71125 43.0141 2.36708 42.9502C1.6653 42.8199 1.07778 42.3695 0.900212 41.8255C0.851708 41.6769 0.847976 41.614 0.856993 41.0969C0.863574 40.7202 0.863438 40.5978 0.897672 40.4845C0.917352 40.4194 0.948391 40.3573 0.998594 40.2517C1.06135 40.1196 1.21409 39.9084 1.31597 39.8129ZM15.0645 39.3022C15.0794 39.2913 15.1669 39.2723 15.2588 39.26C15.7915 39.1887 16.3353 39.2824 16.7086 39.5098C17.0978 39.7469 17.2967 40.0288 17.4358 40.5403C17.4809 40.7063 17.4893 40.7959 17.4813 41.026C17.4748 41.2096 17.458 41.3336 17.4329 41.381L17.3945 41.4538L16.0928 41.4601C15.0772 41.4651 14.7913 41.473 14.7917 41.4966C14.793 41.5619 14.8918 41.7262 14.9879 41.8227C15.2394 42.0752 15.9653 42.2369 16.441 42.1465C16.8954 42.0601 16.9833 42.0399 17.0789 41.9998C17.1376 41.9752 17.1949 41.9604 17.2062 41.9669C17.2175 41.9735 17.2268 42.1577 17.2268 42.3762V42.7735L17.0907 42.8132C17.0159 42.835 16.936 42.8623 16.9132 42.8738C16.8904 42.8853 16.7447 42.914 16.5894 42.9376C16.1937 42.9976 15.555 42.9977 15.2446 42.9377C15.1164 42.9129 14.9998 42.8849 14.9855 42.8756C14.9713 42.8663 14.9013 42.8386 14.83 42.8141C14.5298 42.7108 14.1312 42.4138 13.9507 42.1587C13.6891 41.789 13.5922 41.2565 13.6875 40.7131C13.7726 40.228 14.0119 39.8611 14.4155 39.597C14.5519 39.5077 14.8616 39.361 14.9596 39.3393C15.0023 39.3298 15.0496 39.3131 15.0645 39.3022ZM19.6105 39.4238C19.6413 39.3898 20.002 39.2779 20.143 39.2586C20.9338 39.1506 21.5831 39.405 21.9784 39.9777C22.2191 40.3265 22.3088 40.6349 22.3088 41.1138C22.3088 41.5941 22.2198 41.8992 21.9757 42.2549C21.8537 42.4326 21.5881 42.6911 21.5008 42.7171C21.4729 42.7254 21.4502 42.7414 21.4502 42.7528C21.4502 42.7641 21.3948 42.7929 21.3271 42.8167C21.2594 42.8405 21.1982 42.8673 21.1911 42.8763C21.1839 42.8853 21.0908 42.9112 20.9842 42.9338C20.3355 43.0713 19.7406 42.9537 19.335 42.6078L19.2478 42.5334V43.5176V44.5018H18.6906H18.1334L18.14 41.9213L18.1466 39.3409H18.6259H19.1053L19.1127 39.5799L19.1202 39.8188L19.283 39.6649C19.3726 39.5802 19.48 39.4946 19.5218 39.4745C19.5634 39.4545 19.6034 39.4317 19.6105 39.4238ZM29.1586 39.293C29.1871 39.2853 29.3153 39.269 29.4436 39.2569C29.7935 39.2237 30.3422 39.247 30.5859 39.3054C31.1897 39.45 31.5674 39.7962 31.7 40.3262C31.7359 40.4697 31.7482 40.6693 31.7603 41.3012C31.7724 41.932 31.7685 42.1132 31.8532 42.1635C31.8939 42.1877 31.9552 42.1815 32.0486 42.1806L32.2289 42.1787V42.5106C32.2289 42.8369 32.2279 42.8429 32.1671 42.8689C32.0382 42.9239 31.7822 42.9537 31.5336 42.9424C31.2243 42.9285 31.0344 42.8539 30.8869 42.6886C30.8352 42.6306 30.7836 42.5832 30.7723 42.5832C30.7609 42.5832 30.7071 42.6132 30.6527 42.6499C30.5983 42.6867 30.4789 42.7481 30.3874 42.7865C30.2958 42.8248 30.2003 42.866 30.1752 42.8779C30.0942 42.9165 29.7644 42.9725 29.5361 42.9865C29.1207 43.0118 28.7177 42.8925 28.4462 42.6637C28.2027 42.4585 28.1064 42.2438 28.1052 41.9031C28.1045 41.7138 28.1162 41.643 28.1703 41.5087C28.2432 41.3277 28.2483 41.3205 28.4331 41.1399C28.6376 40.9401 28.8419 40.8372 29.1659 40.771C29.4188 40.7194 30.1247 40.7174 30.4346 40.7674L30.6484 40.8019L30.6478 40.6907C30.6468 40.4813 30.4834 40.2599 30.2857 40.2C30.2358 40.1849 30.1819 40.1628 30.1658 40.1509C30.1185 40.1159 29.6677 40.1008 29.4436 40.1267C29.174 40.1578 28.9443 40.2086 28.6712 40.2973C28.5497 40.3367 28.4435 40.3627 28.4352 40.3549C28.4269 40.3471 28.4201 40.1473 28.4201 39.9109V39.4811L28.536 39.4396C28.5998 39.4168 28.7543 39.3776 28.8793 39.3526C29.0044 39.3275 29.13 39.3007 29.1586 39.293ZM33.9261 39.6684C34.1491 39.4548 34.4956 39.2947 34.82 39.2553C35.4818 39.1749 36.0457 39.3434 36.4265 39.7353C36.6051 39.9191 36.606 39.9204 36.7012 40.0817C36.9075 40.4314 36.9792 40.7302 36.9633 41.1745C36.9491 41.5749 36.9007 41.7745 36.7504 42.0539C36.686 42.1736 36.6532 42.2353 36.6115 42.2912C36.564 42.3546 36.5049 42.4105 36.3746 42.535C36.2203 42.6825 36.135 42.7412 35.9601 42.8201C35.8389 42.8748 35.6699 42.9335 35.5844 42.9505C35.3857 42.9901 34.8754 42.9908 34.6904 42.9518C34.5043 42.9124 34.1606 42.7525 34.03 42.6444C33.9732 42.5974 33.9178 42.5589 33.9069 42.5589C33.8961 42.5589 33.8872 42.9962 33.8872 43.5308V44.5027L33.3366 44.4962L32.786 44.4896L32.7794 41.9422C32.7745 40.0561 32.7805 39.386 32.8025 39.3612C32.8262 39.3345 32.9275 39.329 33.3014 39.3343L33.7706 39.3409L33.7836 39.5667L33.7965 39.7924L33.9261 39.6684ZM41.7975 40.1692C42.05 39.7114 42.628 39.3374 43.2052 39.2584C43.8598 39.1688 44.4988 39.3417 44.8987 39.7165C45.0821 39.8883 45.1885 40.0574 45.3043 40.361C45.3744 40.5448 45.3784 40.5767 45.3785 40.956C45.3785 41.238 45.3687 41.3729 45.3452 41.4113L45.3119 41.466H44.0044C43.1219 41.466 42.6968 41.4741 42.6968 41.4911C42.6968 41.5471 42.8271 41.7508 42.9159 41.8337C43.1153 42.0198 43.6068 42.1703 44.015 42.1703C44.2766 42.1703 44.7824 42.0859 44.964 42.0119C45.0388 41.9814 45.0827 41.961 45.1089 41.9734C45.1486 41.9922 45.1477 42.0862 45.1525 42.3346C45.1564 42.5386 45.1488 42.7244 45.1355 42.7475C45.0625 42.8749 44.135 43.0196 43.6003 42.9871C43.3319 42.9707 42.9584 42.9078 42.9183 42.8722C42.9048 42.8601 42.8757 42.8503 42.8536 42.8502C42.7883 42.85 42.4132 42.663 42.2689 42.5586C41.9571 42.3331 41.7708 42.0748 41.6438 41.6918C41.5796 41.4982 41.573 41.4439 41.5738 41.1138C41.5748 40.6883 41.6227 40.4863 41.7975 40.1692ZM4.42624 39.4644C4.39937 39.4121 4.38341 39.3602 4.39075 39.349C4.3981 39.3379 4.65835 39.3288 4.96907 39.3288H5.53405L5.60416 39.4806C5.64274 39.5641 5.68482 39.6542 5.69767 39.6809C5.79077 39.8745 6.05933 40.452 6.05933 40.4586C6.05933 40.4631 6.09431 40.5377 6.13706 40.6243C6.17981 40.7108 6.21479 40.7878 6.21479 40.7952C6.21479 40.8027 6.24255 40.8665 6.27644 40.937C6.31035 41.0075 6.3993 41.1964 6.47411 41.3567C6.54891 41.517 6.61446 41.6527 6.61975 41.6583C6.6404 41.68 6.66551 41.6251 6.82615 41.2068C6.91762 40.9687 7.00273 40.752 7.01533 40.7252C7.02792 40.6985 7.07378 40.5838 7.11723 40.4702C7.16066 40.3567 7.23318 40.1709 7.27837 40.0574C7.32353 39.9438 7.40178 39.7416 7.45223 39.6081C7.50268 39.4745 7.55678 39.3572 7.57248 39.3474C7.61186 39.3227 8.6701 39.324 8.68637 39.3487C8.69697 39.3648 8.35358 40.223 8.26196 40.4095C8.24882 40.4362 8.14409 40.6821 8.0292 40.956C7.91432 41.2298 7.81005 41.4757 7.79749 41.5024C7.78492 41.5291 7.76007 41.5892 7.74224 41.636C7.72442 41.6827 7.69506 41.7538 7.677 41.7938C7.6464 41.8618 7.52312 42.1543 7.16006 43.0203C7.02318 43.3468 6.80169 43.7936 6.76275 43.8218C6.7535 43.8284 6.70188 43.8953 6.64802 43.9703C6.4113 44.3 6.0257 44.5301 5.62515 44.5808C5.42035 44.6066 4.98373 44.5813 4.85856 44.5363C4.82078 44.5227 4.81563 44.4683 4.81563 44.0837C4.81563 43.6765 4.81874 43.6478 4.86097 43.6651C4.8859 43.6752 5.024 43.6885 5.16783 43.6946C5.41439 43.7049 5.43792 43.7016 5.57885 43.6369C5.66958 43.5953 5.77328 43.5203 5.84272 43.4461C5.96152 43.3192 6.13706 43.0166 6.13706 42.9388C6.13706 42.9142 6.08568 42.7941 6.0229 42.6718C5.96009 42.5496 5.86682 42.3649 5.81562 42.2614C5.7034 42.0345 5.55428 41.7325 5.48891 41.5996C5.46264 41.5461 5.36451 41.3515 5.27087 41.167C5.17726 40.9825 5.10064 40.8272 5.10064 40.8219C5.10064 40.8165 5.02485 40.6633 4.93222 40.4815C4.83959 40.2996 4.76381 40.1475 4.76381 40.1435C4.76381 40.1367 4.53165 39.6696 4.42624 39.4644ZM9.22666 41.1381C9.22298 40.1764 9.22557 39.3757 9.23238 39.359C9.24226 39.3348 9.62793 39.3298 11.0917 39.3347L12.9386 39.3409L12.9452 41.1204L12.9519 42.8998L12.4011 42.8933L11.8503 42.8867L11.8436 41.5571L11.8369 40.2274H11.0857H10.3346V41.5636V42.8998L9.78397 42.8933L9.23337 42.8867L9.22666 41.1381ZM23.0111 41.1275C23.0058 39.7362 23.0113 39.3642 23.037 39.3489C23.0549 39.3382 23.2922 39.3294 23.5643 39.3291C24.0883 39.3288 24.0975 39.3307 24.1543 39.4502C24.1638 39.4702 24.2035 39.5325 24.2424 39.5886C24.2814 39.6447 24.3832 39.7953 24.4687 39.9233C24.5543 40.0512 24.6534 40.199 24.689 40.2515C24.7246 40.3041 24.8587 40.5059 24.987 40.6998C25.1152 40.8938 25.2283 41.0526 25.2382 41.0528C25.2481 41.053 25.2959 40.9957 25.3443 40.9256C25.4969 40.7045 25.8137 40.2321 25.8734 40.1368C25.9049 40.0864 25.944 40.0278 25.9603 40.0066C25.9767 39.9853 26.0853 39.8268 26.2018 39.6544L26.4136 39.3409H26.9311H27.4485L27.4551 41.1199L27.4618 42.8989H26.9304H26.3991V41.9046C26.3991 41.3577 26.3891 40.9045 26.3769 40.8974C26.3647 40.8903 26.1823 41.1438 25.9715 41.4606C25.7608 41.7775 25.5707 42.0558 25.5492 42.0792C25.5167 42.1145 25.4653 42.1217 25.2461 42.1217C25.0266 42.1217 24.9755 42.1145 24.9435 42.0792C24.9223 42.0558 24.8071 41.8892 24.6876 41.7088C24.5681 41.5285 24.4466 41.3473 24.4177 41.3062C24.3888 41.2651 24.3126 41.1533 24.2485 41.0579C24.1844 40.9625 24.1232 40.8841 24.1125 40.8837C24.1018 40.8834 24.093 41.3369 24.093 41.8915V42.8999L23.5554 42.8933L23.0178 42.8867L23.0111 41.1275ZM37.6764 41.1381C37.6727 40.1764 37.6754 39.3756 37.6823 39.3587C37.692 39.3348 37.8166 39.3293 38.2331 39.3344L38.7714 39.3409L38.7843 39.9967L38.7973 40.6524L38.9961 40.6595C39.134 40.6643 39.204 40.6569 39.2246 40.6352C39.2409 40.6179 39.3347 40.4945 39.4332 40.361C39.5315 40.2274 39.6364 40.0853 39.6661 40.0452C39.6959 40.0052 39.8254 39.8274 39.9539 39.6501L40.1875 39.3279L40.7879 39.3344C41.2364 39.3393 41.3883 39.3484 41.3883 39.3703C41.3883 39.4007 41.3807 39.4119 41.2051 39.6407C41.0998 39.7777 40.8802 40.0739 40.6618 40.3731C40.5985 40.4599 40.454 40.6561 40.3408 40.809C40.2276 40.9619 40.1422 41.0985 40.1511 41.1126C40.1791 41.157 40.2736 41.2833 40.2882 41.296C40.296 41.3027 40.4299 41.4721 40.5858 41.6724C40.7418 41.8728 40.89 42.0579 40.9151 42.0838C40.9402 42.1097 40.9608 42.139 40.9608 42.1488C40.9608 42.1587 40.9755 42.1813 40.9936 42.1989C41.0805 42.2841 41.5247 42.8722 41.5114 42.8847C41.5031 42.8925 41.2266 42.8989 40.897 42.8989H40.2978L40.1317 42.6864C40.0403 42.5695 39.925 42.4192 39.8755 42.3524C39.8258 42.2856 39.7699 42.2165 39.7512 42.1989C39.7324 42.1813 39.7171 42.1594 39.7171 42.1503C39.717 42.1413 39.6908 42.1047 39.6588 42.0691C39.6267 42.0335 39.513 41.8891 39.4062 41.7484L39.2118 41.4925L38.9985 41.4914L38.7851 41.4903L38.7782 42.1885L38.7714 42.8867H38.2272H37.6831L37.6764 41.1381ZM45.6506 39.7775C45.6506 39.464 45.6588 39.354 45.683 39.3448C45.7008 39.338 46.4907 39.3343 47.4384 39.3367L49.1615 39.3409V39.7781V40.2152L48.559 40.2217L47.9566 40.2283V41.5641V42.8999L47.419 42.8933L46.8813 42.8867L46.8746 41.5571L46.8679 40.2274H46.3002C45.988 40.2274 45.7141 40.2207 45.6916 40.2126C45.6564 40.2 45.6506 40.1384 45.6506 39.7775ZM16.3458 40.4094C16.2828 40.2798 16.0938 40.1171 15.9663 40.0827C15.701 40.0109 15.3332 40.0431 15.1402 40.1549C14.9933 40.2401 14.8493 40.4081 14.8059 40.5452C14.7796 40.6281 14.753 40.6795 14.7695 40.7113C14.8003 40.7707 14.9817 40.7617 15.5977 40.7617H16.4302L16.4124 40.6358C16.4026 40.5665 16.3726 40.4647 16.3458 40.4094ZM44.1045 40.198C44.0638 40.1618 43.9786 40.115 43.9152 40.094C43.796 40.0546 43.4745 40.0266 43.3834 40.0476C43.2552 40.0773 43.0777 40.1348 43.0505 40.1554C43.0341 40.1679 42.9826 40.2067 42.9359 40.2417C42.8207 40.3283 42.7245 40.4896 42.6994 40.6383L42.6786 40.7617H43.5039H44.3292V40.6517C44.3292 40.5229 44.2184 40.2992 44.1045 40.198ZM21.1519 40.8399C21.0757 40.5366 20.9015 40.3221 20.6368 40.2053C20.426 40.1124 20.0694 40.0868 19.9085 40.1531C19.5847 40.2865 19.4424 40.3864 19.3215 40.5651L19.2478 40.6741V41.1138V41.5536L19.3212 41.6616C19.421 41.8085 19.588 41.9444 19.7629 42.0212C19.9721 42.1131 20.358 42.1255 20.5801 42.0476C21.0322 41.8888 21.2827 41.3598 21.1519 40.8399ZM35.2864 40.2006C35.2365 40.1851 35.184 40.1644 35.1698 40.1546C35.1302 40.1273 34.8217 40.1104 34.6904 40.1283C34.4311 40.1637 34.1339 40.3494 33.9622 40.5833L33.8872 40.6854V41.1074V41.5293L33.9612 41.6373C34.0644 41.7879 34.1458 41.8637 34.306 41.9587C34.4988 42.0729 34.6412 42.1039 34.9274 42.0936C35.2105 42.0835 35.3524 42.0291 35.5299 41.8627C35.765 41.6425 35.8933 41.2581 35.8314 40.9598C35.7633 40.631 35.6924 40.5012 35.4817 40.3191C35.4242 40.2694 35.3363 40.2161 35.2864 40.2006ZM30.6484 41.4237L30.4994 41.3964C30.2819 41.3564 29.9052 41.3435 29.7435 41.3705C29.4602 41.4178 29.2804 41.5523 29.2371 41.7493C29.1986 41.9242 29.328 42.1191 29.5343 42.1968C29.6567 42.243 30.0273 42.2376 30.2099 42.1871C30.2894 42.1651 30.4206 42.1063 30.5014 42.0564L30.6484 41.9656V41.6947V41.4237ZM64.4241 46.554C64.6886 46.032 65.3194 45.6478 66.0422 45.5686C66.1348 45.5584 66.333 45.5555 66.4826 45.5621C66.8453 45.5782 67.0926 45.6324 67.3976 45.7626L67.5191 45.8145V46.2631C67.5191 46.5099 67.5121 46.7118 67.5036 46.7118C67.4951 46.7118 67.4048 46.675 67.3028 46.6301C67.2009 46.5851 67.0533 46.5333 66.9749 46.5148C66.7883 46.4709 66.22 46.4702 66.081 46.5136C65.764 46.6128 65.5481 46.7736 65.4307 46.9978C65.3634 47.1262 65.3578 47.1591 65.3568 47.4283C65.3558 47.7038 65.36 47.7277 65.4329 47.8654C65.5743 48.1326 65.8676 48.3305 66.2106 48.3905C66.5503 48.4498 67.1712 48.3606 67.4239 48.2162C67.4691 48.1903 67.5149 48.1692 67.5255 48.1691C67.5362 48.1691 67.545 48.3752 67.545 48.6272V49.0854L67.3531 49.151C66.9022 49.3051 66.1979 49.3545 65.7422 49.264C65.3252 49.1811 64.9235 48.9742 64.6689 48.711C64.4487 48.4834 64.387 48.3825 64.2858 48.084C64.2271 47.9109 64.2197 47.8473 64.218 47.5011C64.2159 47.0667 64.2547 46.8884 64.4241 46.554ZM25.5526 46.1635C25.7959 45.9099 26.2401 45.6811 26.6711 45.5873C26.6996 45.5811 26.8703 45.5747 27.0505 45.5732C27.3219 45.5709 27.4203 45.5807 27.625 45.6305C28.1415 45.7563 28.4984 46.0183 28.701 46.4206C28.868 46.7519 28.8975 46.8825 28.8983 47.2947C28.8988 47.5567 28.889 47.6878 28.866 47.7258L28.8329 47.7804H27.5232H26.2136L26.2319 47.8587C26.2704 48.0228 26.4495 48.215 26.6563 48.3138C27.0991 48.5256 27.844 48.5409 28.4328 48.3505C28.5348 48.3175 28.6262 48.2904 28.6358 48.2904C28.6454 48.2904 28.6533 48.4745 28.6533 48.6995V49.1085L28.4266 49.1716C28.0426 49.2785 27.7081 49.3156 27.2412 49.3032C27.0132 49.2971 26.7582 49.2795 26.6746 49.2641C26.4434 49.2214 26.1373 49.1021 25.9273 48.9728C25.7537 48.8659 25.4145 48.5735 25.4145 48.5307C25.4145 48.5207 25.3993 48.498 25.3807 48.4804C25.3622 48.4628 25.3218 48.3991 25.2909 48.339C24.9295 47.6353 25.0426 46.695 25.5526 46.1635ZM60.0837 46.129C60.3515 45.8805 60.6417 45.7263 61.0157 45.6336C61.3711 45.5456 61.8877 45.5444 62.2426 45.6308C62.8088 45.7687 63.2644 46.089 63.4988 46.5141C63.719 46.9135 63.7831 47.4936 63.6588 47.9632C63.481 48.6349 62.9415 49.1026 62.1569 49.2651C61.731 49.3533 61.0752 49.3064 60.7412 49.1638C60.6799 49.1376 60.6224 49.1162 60.6134 49.1162C60.5749 49.1162 60.2397 48.8962 60.1127 48.7875C59.6813 48.4184 59.4807 47.8352 59.5597 47.1796C59.6148 46.7218 59.7613 46.4281 60.0837 46.129ZM20.6729 49.2143V47.4409V45.6675H21.2299H21.787V46.3358V47.004L22.5319 46.9976L23.2769 46.9911L23.2838 46.3293L23.2906 45.6675H23.8344H24.3781V47.4404V49.2133H23.8344H23.2906L23.2838 48.5515L23.2769 47.8897L22.5324 47.8833L21.7878 47.8768L21.7809 48.539L21.7741 49.2012L21.2235 49.2077L20.6729 49.2143ZM29.847 48.2479C30.1393 47.65 30.2577 47.0882 30.3 46.0986L30.3185 45.6675H31.8696H33.4208V47.0389V48.4102L33.6994 48.4171L33.9779 48.424L33.9847 49.2801L33.9915 50.1362H33.473H32.9544V49.6748V49.2133H31.6071H30.2597V49.6748V50.1362H29.7415H29.2233V49.274V48.4119H29.4951H29.7669L29.847 48.2479ZM34.6516 49.2012L34.6449 47.433L34.6383 45.6647L35.9793 45.6734L37.3204 45.682L37.4946 45.7461C37.5905 45.7814 37.6838 45.8214 37.7019 45.8352C37.8672 45.9601 37.9352 46.023 37.9825 46.0947C38.2196 46.4543 38.1828 46.9573 37.9001 47.2225C37.8342 47.2843 37.7439 47.349 37.6993 47.3663C37.6548 47.3836 37.6188 47.4046 37.6193 47.413C37.6199 47.4214 37.6775 47.4543 37.7473 47.4862C37.9131 47.5618 38.0627 47.6987 38.1396 47.845C38.1942 47.9491 38.2013 47.996 38.2013 48.254C38.2013 48.527 38.1966 48.5542 38.1267 48.6835C38.0415 48.8412 37.8805 49.0042 37.7479 49.067C37.698 49.0907 37.5872 49.1305 37.5017 49.1556C37.358 49.1977 37.2443 49.2012 35.9989 49.2012H34.6516ZM38.9527 49.2012L38.9461 47.4344L38.9394 45.6675H39.4964H40.0533L40.0601 46.645L40.0669 47.6226L40.2483 47.4076C40.348 47.2894 40.5754 47.0205 40.7535 46.8099C40.9316 46.5994 41.1124 46.3851 41.1551 46.3337C41.1979 46.2824 41.3086 46.1523 41.4013 46.0448C41.4939 45.9373 41.6025 45.8082 41.6427 45.7579L41.7157 45.6665L42.1998 45.6731L42.6838 45.6797V47.4404V49.2012L42.1332 49.2077L41.5826 49.2143L41.5819 48.2363L41.5811 47.2583L41.5106 47.3332C41.4718 47.3744 41.3235 47.5475 41.181 47.7179C41.0385 47.8883 40.9101 48.0404 40.8957 48.0559C40.8813 48.0714 40.8064 48.1605 40.7292 48.254C40.652 48.3475 40.568 48.4459 40.5426 48.4726C40.5173 48.4993 40.4193 48.6141 40.3249 48.7276C40.2305 48.8411 40.1338 48.9561 40.1101 48.9831C40.0863 49.0101 40.034 49.0731 39.9939 49.1233L39.9209 49.2144L39.4368 49.2078L38.9527 49.2012ZM43.8428 46.554C43.7993 46.5026 43.2668 45.6971 43.2668 45.6827C43.2668 45.6743 43.528 45.6675 43.8471 45.6675H44.4274L44.5436 45.8436C44.6076 45.9404 44.6966 46.0798 44.7415 46.1532C44.7863 46.2267 44.9365 46.4617 45.0752 46.6754L45.3274 47.064L45.489 47.0712L45.6506 47.0784V46.373V45.6675H46.2073H46.7639L46.7708 46.3658L46.7777 47.064L46.937 47.0711C47.091 47.0781 47.0984 47.0756 47.1573 46.9986C47.1908 46.9548 47.2306 46.8969 47.2458 46.87C47.261 46.8431 47.4399 46.5616 47.6433 46.2443L48.0132 45.6675H48.6093H49.2054L49.1503 45.7465C49.0805 45.8464 48.611 46.5392 48.5322 46.6586C48.4996 46.7079 48.3691 46.9013 48.2423 47.0883L48.0117 47.4283L48.0555 47.495C48.0973 47.5589 48.4289 48.0123 48.6018 48.2419C48.647 48.302 48.7395 48.4277 48.8073 48.5212C48.8751 48.6147 49.0087 48.7969 49.1043 48.9262C49.1999 49.0554 49.2781 49.1729 49.2781 49.1872C49.2781 49.2051 49.094 49.2133 48.6974 49.2133H48.1168L47.9169 48.928C47.8069 48.771 47.685 48.5989 47.646 48.5455C47.4129 48.2261 47.2732 48.0273 47.2408 47.9687C47.2049 47.9038 47.1976 47.9019 46.9843 47.9019H46.7647V48.5581V49.2143L46.2141 49.2077L45.6635 49.2012L45.6567 48.5515L45.6497 47.9019H45.4581H45.2664L45.1929 47.9968C45.097 48.1206 45.075 48.1512 44.9466 48.339C44.8873 48.4258 44.829 48.5005 44.8171 48.505C44.8053 48.5094 44.7955 48.5224 44.7955 48.5337C44.7955 48.5451 44.689 48.7027 44.5588 48.8839L44.322 49.2133H43.7426C43.3753 49.2133 43.1632 49.2045 43.1632 49.1891C43.1632 49.1758 43.3547 48.9053 43.5889 48.5881C43.823 48.2707 44.1095 47.8823 44.2254 47.7248L44.4362 47.4385L44.2735 47.1905C44.084 46.9018 43.8722 46.5888 43.8428 46.554ZM49.7704 49.2133V47.4404V45.6675H50.3145H50.8586V46.6228C50.8586 47.1482 50.8658 47.5848 50.8746 47.5931C50.8923 47.6096 50.9466 47.5507 51.2732 47.1607C51.3943 47.0161 51.5052 46.886 51.5197 46.8716C51.5341 46.8572 51.5866 46.7962 51.6363 46.7362C51.686 46.6761 51.7406 46.6106 51.7578 46.5905C51.8877 46.4381 52.2707 45.9813 52.3868 45.8402L52.5287 45.6675H53.0153H53.5018L53.4952 47.4344L53.4885 49.2012H52.9444H52.4003L52.3873 48.2359L52.3744 47.2705L52.1671 47.5171C52.0531 47.6527 51.9481 47.7756 51.9339 47.7902C51.9196 47.8049 51.8734 47.8606 51.8312 47.914C51.7889 47.9674 51.6723 48.1046 51.572 48.2188C51.4718 48.333 51.3606 48.4633 51.325 48.5082C51.2894 48.5532 51.1404 48.7303 50.994 48.9017L50.7277 49.2133H50.249H49.7704ZM54.4083 49.2133V47.4404V45.6675H54.9357H55.4631L55.6029 45.8745C55.6798 45.9883 55.7741 46.1277 55.8125 46.1841C55.9395 46.3712 56.0008 46.4637 56.1007 46.6189C56.155 46.7034 56.2333 46.8217 56.2747 46.8818C56.316 46.9419 56.374 47.0294 56.4035 47.0761C56.5413 47.2948 56.5997 47.3742 56.6228 47.3742C56.647 47.3742 57.0303 46.8284 57.1169 46.6704C57.1404 46.6277 57.1761 46.5799 57.1961 46.5643C57.2162 46.5487 57.2326 46.5262 57.2326 46.5143C57.2326 46.5024 57.2871 46.4136 57.3538 46.3169C57.4204 46.2202 57.5039 46.0974 57.5392 46.044C57.5745 45.9905 57.6231 45.9195 57.6472 45.8861C57.6713 45.8527 57.7105 45.7899 57.7345 45.7465L57.778 45.6675H58.3085H58.839V47.4409V49.2143L58.3144 49.2078L57.7897 49.2012L57.7767 48.1933L57.7638 47.1854L57.6716 47.319C57.6209 47.3925 57.5357 47.5181 57.4822 47.5983C57.2062 48.0115 56.972 48.3571 56.9349 48.4058C56.8964 48.4564 56.8736 48.4604 56.6262 48.4604H56.359L56.2599 48.3087C56.2054 48.2252 56.1529 48.1514 56.1432 48.1447C56.1336 48.1381 56.1049 48.0943 56.0796 48.0476C56.0542 48.0008 56.026 47.9571 56.0168 47.9504C56.0076 47.9438 55.8899 47.7716 55.7551 47.5679C55.6203 47.3642 55.5012 47.1976 55.4904 47.1976C55.4795 47.1976 55.4707 47.6511 55.4707 48.2054V49.2133H54.9395H54.4083ZM67.9336 46.1209C67.9336 45.8893 67.9414 45.6926 67.9509 45.6837C67.9604 45.6748 68.7533 45.6675 69.7128 45.6675H71.4575V46.1047V46.5418H70.8486H70.2397V47.8781V49.2143L69.702 49.2077L69.1644 49.2012L69.1577 47.8715L69.151 46.5418H68.5423H67.9336V46.1209ZM72.0275 49.2133V47.4404V45.6675H72.5843H73.141L73.1478 46.6372L73.1546 47.607L73.4007 47.3157C73.5361 47.1555 73.6668 47.0006 73.6911 46.9714C73.7154 46.9422 73.9292 46.6888 74.1662 46.4083C74.4032 46.1277 74.6398 45.8468 74.692 45.7839L74.787 45.6695L75.2469 45.6685L75.7068 45.6675V47.4409V49.2143L75.1821 49.2078L74.6574 49.2012L74.6445 48.2361L74.6315 47.2709L74.3853 47.5644C74.25 47.7259 74.1274 47.8706 74.1129 47.886C74.0985 47.9014 74.046 47.9632 73.9963 48.0232C73.9467 48.0833 73.8919 48.1489 73.8746 48.1689C73.5617 48.5331 73.0503 49.1385 73.0284 49.1708C73.0027 49.2088 72.9482 49.2133 72.5135 49.2133H72.0275ZM27.5968 46.5157C27.5391 46.4695 27.4383 46.4182 27.3727 46.4017C27.2268 46.3651 26.9151 46.3667 26.7748 46.4046C26.4667 46.488 26.2506 46.7118 26.2026 46.9972L26.1852 47.1004H27.0176H27.8501L27.85 46.9972C27.85 46.8542 27.7269 46.6201 27.5968 46.5157ZM36.8435 47.0628C37.0898 46.9434 37.0815 46.5469 36.8302 46.4351C36.7592 46.4035 36.6484 46.3961 36.2476 46.3961H35.7528V46.7483V47.1004H36.2593C36.666 47.1004 36.7812 47.093 36.8435 47.0628ZM32.3067 48.4119V47.4404V46.469H31.8181H31.3295L31.312 46.7179C31.3024 46.8548 31.284 47.0269 31.2711 47.1004C31.2582 47.1739 31.2342 47.316 31.2178 47.4161C31.1797 47.6493 31.0767 48.0107 30.9843 48.2358L30.912 48.4119H31.6094H32.3067ZM62.587 47.3286C62.5491 46.9085 62.2682 46.5863 61.8813 46.5192C61.348 46.4268 60.9734 46.5938 60.7645 47.0171C60.7 47.1478 60.6934 47.1871 60.6934 47.4404C60.6934 47.6915 60.7003 47.7338 60.7621 47.859C60.8545 48.0461 60.9453 48.153 61.0857 48.2402C61.4461 48.4639 61.9976 48.4257 62.2887 48.1567C62.5161 47.9466 62.6174 47.6654 62.587 47.3286ZM37.0848 48.3039C37.1738 48.1281 37.1103 47.9079 36.9447 47.8177C36.8627 47.773 36.8012 47.7675 36.3027 47.7605L35.7514 47.7527L35.7586 48.1248L35.7657 48.4969H36.2839C36.772 48.4969 36.8092 48.4936 36.9228 48.4412C37.0038 48.4038 37.0571 48.3586 37.0848 48.3039Z" fill="white"/>
<path fill-rule="evenodd" clip-rule="evenodd" d="M23.097 18.8778H21.9357C20.8309 18.8778 20.7715 18.88 20.7133 18.9242L20.6521 18.9706V27.4871C20.6521 35.8894 20.6528 36.004 20.7024 36.038C20.7456 36.0677 22.0296 36.0725 29.8176 36.0725H38.8825L38.9461 36.0129L39.0097 35.9533V27.4641C39.0097 19.0073 39.0095 18.9747 38.9579 18.9263C38.9064 18.8781 38.8715 18.8778 34.2163 18.8778C30.8769 18.8778 29.5265 18.8702 29.5265 18.8516L23.097 18.8778ZM33.2964 27.4662C33.2964 24.8776 33.29 24.2658 33.2627 24.2402C33.2355 24.2147 32.5838 24.2077 29.8555 24.204C28.0001 24.2014 26.4576 24.2086 26.4278 24.2199C26.398 24.2313 26.3599 24.2717 26.3432 24.3096C26.3204 24.3615 26.3145 25.1562 26.3197 27.5076L26.3265 30.6367L26.3877 30.6831C26.4472 30.7283 26.5395 30.7295 29.8223 30.7295C32.695 30.7295 33.2033 30.7244 33.2461 30.6951C33.2955 30.6612 33.2964 30.6002 33.2964 27.4662Z" fill="#00632E"/>
</svg>
