<svg width="45" height="46" viewBox="0 0 45 46" fill="none" xmlns="http://www.w3.org/2000/svg">
<path fill-rule="evenodd" clip-rule="evenodd" d="M0.0186431 7.99895L0.0541811 13.6468C0.0611375 14.7524 0.256294 15.8487 0.631281 16.8888C0.942822 17.7533 1.40034 18.7642 1.64756 19.1352L2.09744 19.8099L6.42265 15.4847L6.18121 14.7007C6.04828 14.2695 5.94704 12.2345 5.95636 10.1784L5.97315 6.43994L9.71163 6.42316C11.7677 6.41384 13.8027 6.51508 14.2339 6.64801L15.0179 6.88945L19.2965 2.61085L18.965 2.27936C18.7826 2.09703 17.7119 1.62328 16.5858 1.22691C15.2302 0.749767 13.8042 0.503064 12.367 0.497042L7.37256 0.476116C3.43179 0.459523 0.154367 0.498866 0.0898583 0.563375C0.0251647 0.628069 -0.00671413 3.97409 0.0186431 7.99895ZM2.35585 25.1954C1.78703 25.9871 1.33193 26.8546 1.00381 27.7725L0.724666 28.5536C0.280465 29.797 0.0510248 31.1069 0.0461672 32.4272L0 45.0258L12.5859 44.9797C13.9145 44.9748 15.2325 44.7425 16.4827 44.2929L17.0704 44.0815C18.1049 43.7093 19.0814 43.1924 19.9709 42.5462L20.6972 42.0186C21.1901 41.6606 21.6542 41.2643 22.0851 40.8336L33.2794 29.6446L22.2795 18.6446L11.2796 29.6446L15.3729 33.7378L22.2795 27.0344L24.9066 29.4412L17.2313 37.1165C16.5532 37.7946 15.7268 38.3055 14.8173 38.6091C13.9015 38.9147 12.9421 39.0694 11.9767 39.0671L5.97315 39.0527L5.95874 33.0491C5.95643 32.0837 6.11109 31.1243 6.41668 30.2085C6.72027 29.299 7.23127 28.4726 7.90928 27.7946L22.2795 13.4243L36.6247 27.7765C37.3044 28.4565 37.8238 29.2795 38.1451 30.1856C38.4681 31.0962 38.6301 32.056 38.624 33.0222L38.5859 39.0527L34.8474 39.0695C32.7913 39.0788 30.7562 38.9774 30.3251 38.8446L29.5411 38.6032L25.0793 43.065L27.0863 43.9744C28.0064 44.3913 28.9802 44.6778 29.9795 44.8256C30.808 44.9479 34.4311 45.0394 38.031 45.0284L44.5762 45.0087L44.5009 32.3429C44.4936 31.1122 44.294 29.8903 43.9095 28.7213L43.8868 28.6526C43.5164 27.5271 43.0019 26.4543 42.3561 25.4609C41.7091 24.4661 40.9602 23.5416 40.1215 22.7022L22.2795 4.84812L3.87266 23.3392C3.43366 23.7802 3.03072 24.2557 2.66772 24.7611L2.35585 25.1954ZM29.5203 6.86857L30.5047 6.64111C31.0463 6.51601 33.0857 6.41962 35.0374 6.42708L38.5855 6.44032L38.5987 9.98844C38.6062 11.9401 38.5098 13.9796 38.3847 14.5212L38.1572 15.5056L42.5848 19.9331L43.0459 18.9694C43.2996 18.4394 43.7331 17.3209 44.0096 16.484C44.3426 15.4759 44.514 14.4214 44.5174 13.3597L44.559 0.466797L32.2039 0.49774C30.7641 0.501322 29.3353 0.747324 27.9773 1.22542C26.8488 1.62272 25.7764 2.09702 25.594 2.27936L25.2625 2.61085L29.5203 6.86857Z" fill="#1A282A"/>
</svg>
