<svg width="25" height="25" viewBox="0 0 25 25" fill="none" xmlns="http://www.w3.org/2000/svg">
<path d="M8.09425 2.5H16.4943C19.6943 2.5 22.2943 5.1 22.2943 8.3V16.7C22.2943 18.2383 21.6832 19.7135 20.5955 20.8012C19.5078 21.8889 18.0325 22.5 16.4943 22.5H8.09425C4.89425 22.5 2.29425 19.9 2.29425 16.7V8.3C2.29425 6.76174 2.90532 5.28649 3.99303 4.19878C5.08074 3.11107 6.55599 2.5 8.09425 2.5ZM7.89425 4.5C6.93947 4.5 6.0238 4.87928 5.34867 5.55442C4.67354 6.22955 4.29425 7.14522 4.29425 8.1V16.9C4.29425 18.89 5.90425 20.5 7.89425 20.5H16.6943C17.649 20.5 18.5647 20.1207 19.2398 19.4456C19.915 18.7705 20.2943 17.8548 20.2943 16.9V8.1C20.2943 6.11 18.6842 4.5 16.6943 4.5H7.89425ZM17.5443 6C17.8758 6 18.1937 6.1317 18.4281 6.36612C18.6626 6.60054 18.7943 6.91848 18.7943 7.25C18.7943 7.58152 18.6626 7.89946 18.4281 8.13388C18.1937 8.3683 17.8758 8.5 17.5443 8.5C17.2127 8.5 16.8948 8.3683 16.6604 8.13388C16.4259 7.89946 16.2943 7.58152 16.2943 7.25C16.2943 6.91848 16.4259 6.60054 16.6604 6.36612C16.8948 6.1317 17.2127 6 17.5443 6ZM12.2943 7.5C13.6203 7.5 14.8921 8.02678 15.8298 8.96447C16.7675 9.90215 17.2943 11.1739 17.2943 12.5C17.2943 13.8261 16.7675 15.0979 15.8298 16.0355C14.8921 16.9732 13.6203 17.5 12.2943 17.5C10.9682 17.5 9.6964 16.9732 8.75872 16.0355C7.82103 15.0979 7.29425 13.8261 7.29425 12.5C7.29425 11.1739 7.82103 9.90215 8.75872 8.96447C9.6964 8.02678 10.9682 7.5 12.2943 7.5ZM12.2943 9.5C11.4986 9.5 10.7355 9.81607 10.1729 10.3787C9.61032 10.9413 9.29425 11.7044 9.29425 12.5C9.29425 13.2956 9.61032 14.0587 10.1729 14.6213C10.7355 15.1839 11.4986 15.5 12.2943 15.5C13.0899 15.5 13.853 15.1839 14.4156 14.6213C14.9782 14.0587 15.2943 13.2956 15.2943 12.5C15.2943 11.7044 14.9782 10.9413 14.4156 10.3787C13.853 9.81607 13.0899 9.5 12.2943 9.5Z" fill="white"/>
</svg>
