<svg width="161" height="127" viewBox="0 0 161 127" fill="none" xmlns="http://www.w3.org/2000/svg">
<path d="M16.9215 86.1804C19.3089 86.1804 21.5651 86.587 23.6902 87.4003C25.8152 88.2136 27.6254 89.3155 29.1208 90.7059L27.1532 93.0671C25.6578 91.6766 24.0837 90.6797 22.4309 90.0763C20.8043 89.4467 19.099 89.1318 17.3151 89.1318C15.9771 89.1318 14.744 89.368 13.6159 89.8402C12.4878 90.2862 11.504 90.9814 10.6645 91.9259C9.85123 92.8703 9.20847 94.0771 8.73624 95.5463C8.29025 96.9892 8.06725 98.7207 8.06725 100.741C8.06725 102.813 8.30336 104.597 8.77559 106.093C9.24782 107.562 9.9037 108.782 10.7432 109.753C11.5827 110.697 12.5928 111.405 13.7734 111.878C14.9802 112.324 16.2919 112.547 17.7086 112.547C18.8892 112.547 19.8992 112.442 20.7387 112.232C21.6045 112.022 22.3259 111.773 22.9031 111.484C23.5852 111.169 24.1493 110.802 24.5953 110.382V102.905H19.4795V100.347H30.3014V111.169C29.3307 111.956 28.2026 112.651 26.9171 113.255C25.8152 113.78 24.451 114.252 22.8244 114.672C21.2241 115.091 19.3876 115.301 17.3151 115.301C14.9539 115.301 12.8289 114.986 10.94 114.357C9.05106 113.727 7.43761 112.796 6.09963 111.563C4.76164 110.33 3.73848 108.808 3.03014 106.998C2.32179 105.188 1.96762 103.102 1.96762 100.741C1.96762 98.3797 2.32179 96.294 3.03014 94.4838C3.73848 92.6736 4.73541 91.1519 6.02092 89.9189C7.33267 88.6858 8.90677 87.7545 10.7432 87.1249C12.6059 86.4952 14.6653 86.1804 16.9215 86.1804ZM42.3162 104.873H54.5154L48.6126 90.3124H48.219L42.3162 104.873ZM52.9413 86.9675L64.1568 114.514H58.49L55.8928 107.824H40.9388L38.3416 114.514H32.6748L43.8903 86.9675H52.9413ZM85.0259 100.544L95.4543 114.514H88.9611L79.91 102.315H73.0234V114.514H67.3173V86.9675H73.0234V99.3635H79.5165L88.5676 86.9675H94.864L85.0259 100.544ZM116.308 100.544L126.736 114.514H120.243L111.192 102.315H104.305V114.514H98.5994V86.9675H104.305V99.3635H110.799L119.85 86.9675H126.146L116.308 100.544ZM144.048 112.547C145.334 112.547 146.488 112.376 147.511 112.035C148.561 111.668 149.453 111.117 150.187 110.382C150.922 109.621 151.486 108.664 151.879 107.509C152.299 106.329 152.509 104.925 152.509 103.299V86.9675H158.215V103.299C158.215 107.339 156.982 110.356 154.516 112.35C152.05 114.317 148.561 115.301 144.048 115.301C139.51 115.301 136.007 114.317 133.541 112.35C131.101 110.356 129.881 107.339 129.881 103.299V86.9675H135.588V103.299C135.588 104.925 135.784 106.329 136.178 107.509C136.598 108.664 137.175 109.621 137.909 110.382C138.644 111.117 139.523 111.668 140.546 112.035C141.595 112.376 142.763 112.547 144.048 112.547Z" fill="#1A282A"/>
<path d="M89.7732 121.685H88.7949V123.844H88.3082V121.685H87.3299L85.889 123.844H85.3107L86.9203 121.419L85.436 119.134H85.9709L87.3202 121.246H88.3082V119.134H88.7949V121.246H89.7732L91.1273 119.134H91.6671L90.1732 121.419L91.7876 123.844H91.2092L89.7732 121.685Z" fill="#1A282A"/>
<path d="M92.92 119.134H93.4116V123.039L96.4235 119.134H96.8717V123.844H96.3849V119.949L93.3682 123.844H92.92V119.134Z" fill="#1A282A"/>
<path d="M102.414 119.134V123.844H101.922V119.563H99.6523L99.5993 121.14C99.5752 121.791 99.527 122.311 99.4402 122.711C99.3583 123.112 99.2282 123.406 99.0595 123.598C98.8908 123.796 98.6595 123.893 98.38 123.893C98.2596 123.893 98.1342 123.878 98.0041 123.844L98.0475 123.401C98.1246 123.42 98.1969 123.43 98.2692 123.43C98.4668 123.43 98.6258 123.353 98.7511 123.198C98.8764 123.044 98.968 122.798 99.0306 122.47C99.0933 122.143 99.1366 121.704 99.1607 121.159L99.2282 119.139H102.423L102.414 119.134Z" fill="#1A282A"/>
<path d="M105.136 123.57C104.756 123.357 104.462 123.073 104.25 122.711C104.033 122.35 103.927 121.94 103.927 121.487C103.927 121.034 104.033 120.624 104.25 120.262C104.467 119.901 104.76 119.612 105.136 119.404C105.517 119.197 105.936 119.091 106.404 119.091C106.871 119.091 107.286 119.197 107.662 119.404C108.037 119.612 108.331 119.896 108.543 120.262C108.76 120.629 108.866 121.039 108.866 121.492C108.866 121.945 108.755 122.355 108.543 122.721C108.327 123.087 108.033 123.372 107.662 123.579C107.286 123.787 106.866 123.893 106.404 123.893C105.941 123.893 105.517 123.787 105.136 123.579M107.411 123.194C107.715 123.025 107.946 122.789 108.115 122.495C108.283 122.196 108.37 121.863 108.37 121.497C108.37 121.13 108.283 120.798 108.115 120.499C107.946 120.2 107.705 119.968 107.411 119.8C107.107 119.631 106.775 119.549 106.404 119.549C106.033 119.549 105.695 119.631 105.392 119.8C105.088 119.968 104.852 120.205 104.679 120.499C104.505 120.798 104.423 121.13 104.423 121.497C104.423 121.863 104.51 122.196 104.679 122.495C104.852 122.793 105.093 123.025 105.392 123.194C105.695 123.362 106.033 123.444 106.404 123.444C106.775 123.444 107.112 123.362 107.411 123.194Z" fill="#1A282A"/>
<path d="M110.399 119.134H110.89V123.039L113.902 119.134H114.35V123.844H113.859V119.949L110.847 123.844H110.399V119.134ZM111.565 118.561C111.367 118.411 111.271 118.194 111.266 117.924H111.637C111.637 118.103 111.71 118.247 111.84 118.349C111.97 118.455 112.148 118.503 112.36 118.503C112.572 118.503 112.75 118.455 112.881 118.349C113.016 118.247 113.083 118.107 113.088 117.924H113.459C113.459 118.199 113.353 118.411 113.155 118.561C112.958 118.71 112.693 118.792 112.365 118.792C112.037 118.792 111.763 118.715 111.57 118.561" fill="#1A282A"/>
<path d="M119.941 121.685H118.861V123.844H118.374V119.134H118.861V121.246H119.941L121.531 119.134H122.071L120.316 121.424L122.167 123.844H121.598L119.941 121.685Z" fill="#1A282A"/>
<path d="M124.066 123.57C123.685 123.357 123.391 123.073 123.179 122.711C122.962 122.35 122.856 121.94 122.856 121.487C122.856 121.034 122.962 120.624 123.179 120.262C123.396 119.901 123.69 119.612 124.066 119.404C124.446 119.197 124.866 119.091 125.333 119.091C125.801 119.091 126.215 119.197 126.591 119.404C126.967 119.612 127.261 119.896 127.473 120.262C127.69 120.629 127.796 121.039 127.796 121.492C127.796 121.945 127.685 122.355 127.473 122.721C127.256 123.087 126.962 123.372 126.591 123.579C126.215 123.787 125.796 123.893 125.333 123.893C124.87 123.893 124.446 123.787 124.066 123.579M126.34 123.194C126.644 123.025 126.875 122.789 127.044 122.495C127.213 122.196 127.299 121.863 127.299 121.497C127.299 121.13 127.213 120.798 127.044 120.499C126.875 120.2 126.634 119.968 126.34 119.8C126.037 119.631 125.704 119.549 125.333 119.549C124.962 119.549 124.625 119.631 124.321 119.8C124.017 119.968 123.781 120.205 123.608 120.499C123.434 120.798 123.352 121.13 123.352 121.497C123.352 121.863 123.439 122.196 123.608 122.495C123.781 122.793 124.022 123.025 124.321 123.194C124.625 123.362 124.962 123.444 125.333 123.444C125.704 123.444 126.041 123.362 126.34 123.194Z" fill="#1A282A"/>
<path d="M134.215 119.134V123.844H133.738V120.079L131.887 123.247H131.651L129.805 120.098V123.844H129.323V119.134H129.738L131.781 122.629L133.805 119.134H134.215Z" fill="#1A282A"/>
<path d="M140.104 119.134V123.844H139.612V119.568H136.629V123.844H136.142V119.134H140.104Z" fill="#1A282A"/>
<path d="M145.641 119.134V123.844H145.149V119.563H142.879L142.826 121.14C142.802 121.791 142.754 122.311 142.667 122.711C142.585 123.112 142.455 123.406 142.287 123.598C142.118 123.796 141.887 123.893 141.607 123.893C141.487 123.893 141.361 123.878 141.231 123.844L141.275 123.401C141.352 123.42 141.424 123.43 141.496 123.43C141.694 123.43 141.853 123.353 141.978 123.198C142.103 123.044 142.195 122.798 142.258 122.47C142.32 122.143 142.364 121.704 142.388 121.159L142.455 119.139H145.65L145.641 119.134Z" fill="#1A282A"/>
<path d="M150.898 123.415V123.844H147.563V119.134H150.797V119.568H148.065V121.246H150.503V121.665H148.065V123.415H150.898Z" fill="#1A282A"/>
<path d="M153.896 121.685H152.821V123.844H152.334V119.134H152.821V121.246H153.896L155.491 119.134H156.026L154.281 121.424L156.132 123.844H155.558L153.896 121.685Z" fill="#1A282A"/>
<path d="M158.026 123.574C157.65 123.367 157.356 123.083 157.144 122.716C156.927 122.35 156.821 121.94 156.821 121.487C156.821 121.034 156.927 120.624 157.144 120.258C157.356 119.891 157.655 119.607 158.026 119.399C158.402 119.192 158.821 119.086 159.288 119.086C159.635 119.086 159.963 119.144 160.257 119.26C160.556 119.375 160.801 119.549 161.009 119.771L160.691 120.089C160.324 119.718 159.857 119.53 159.298 119.53C158.927 119.53 158.589 119.616 158.281 119.785C157.973 119.954 157.736 120.19 157.568 120.484C157.394 120.783 157.308 121.111 157.308 121.477C157.308 121.844 157.394 122.176 157.568 122.47C157.741 122.769 157.982 122.996 158.281 123.169C158.589 123.338 158.922 123.425 159.298 123.425C159.862 123.425 160.329 123.237 160.691 122.861L161.009 123.179C160.801 123.406 160.551 123.574 160.252 123.69C159.953 123.811 159.63 123.868 159.279 123.868C158.811 123.868 158.392 123.767 158.021 123.555L158.026 123.574Z" fill="#1A282A"/>
<path d="M82.6554 118.85H82.2121V125.146H82.6554V118.85Z" fill="#1A282A"/>
<path d="M6.95265 119.563H5.29969V123.84H4.80334V119.563H3.15039V119.129H6.95265V119.563Z" fill="#1A282A"/>
<path d="M9.71397 122.21V123.835H9.22243V122.21L7.33816 119.129H7.86827L9.48265 121.771L11.097 119.129H11.5982L9.71397 122.21ZM7.94537 121.988H10.9669V122.364H7.94537V121.988Z" fill="#1A282A"/>
<path d="M15.8149 119.563C16.1522 119.853 16.3257 120.248 16.3257 120.745C16.3257 121.241 16.1571 121.641 15.8149 121.926C15.4776 122.21 15.0053 122.35 14.4029 122.35H13.1403V123.835H12.6391V119.125H14.4029C15.0053 119.125 15.4728 119.264 15.8149 119.554M15.4583 121.603C15.7041 121.4 15.8294 121.111 15.8294 120.735C15.8294 120.359 15.7041 120.06 15.4583 119.853C15.2125 119.65 14.8559 119.544 14.3885 119.544H13.1355V121.902H14.3885C14.8559 121.902 15.2125 121.8 15.4583 121.593" fill="#1A282A"/>
<path d="M18.3931 119.563V121.463H20.4268V121.844H18.4028V123.84H17.9112V121.844H17.1884V121.463H17.9112V119.129H20.9038V119.563H18.3931Z" fill="#1A282A"/>
<path d="M25.4193 121.188C25.7133 121.439 25.8578 121.805 25.8578 122.292C25.8578 122.779 25.7036 123.184 25.3904 123.449C25.0772 123.709 24.629 123.844 24.0411 123.844H22.1713V119.134H22.6628V120.817H24.1423C24.6964 120.817 25.1205 120.947 25.4145 121.193M25.0145 123.16C25.241 122.967 25.3519 122.682 25.3519 122.306C25.3519 121.583 24.9085 121.227 24.017 121.227H22.6532V123.454H24.017C24.4507 123.454 24.7832 123.357 25.0097 123.165M26.6626 119.139H27.1542V123.849H26.6626V119.139Z" fill="#1A282A"/>
<path d="M33.0238 119.129V123.84H32.5323V121.67H29.5878V123.84H29.0914V119.129H29.5878V121.231H32.5323V119.129H33.0238Z" fill="#1A282A"/>
<path d="M38.6862 122.21V123.84H38.1947V122.21L36.3152 119.129H36.8453L38.4549 121.776L40.0741 119.129H40.5705L38.6862 122.21Z" fill="#1A282A"/>
<path d="M41.6692 119.129H42.1608V123.034L45.1727 119.129H45.6209V123.84H45.1293V119.944L42.1174 123.84H41.6692V119.129ZM42.8354 118.556C42.6379 118.406 42.5415 118.189 42.5366 117.919H42.9077C42.9077 118.098 42.98 118.242 43.1101 118.344C43.2402 118.45 43.4137 118.498 43.6306 118.498C43.8474 118.498 44.0209 118.45 44.151 118.344C44.286 118.242 44.3534 118.103 44.3583 117.919H44.7293C44.7293 118.194 44.6233 118.406 44.4257 118.556C44.2281 118.705 43.9631 118.787 43.6354 118.787C43.3077 118.787 43.033 118.71 42.8402 118.556" fill="#1A282A"/>
<path d="M51.2062 121.68H50.1267V123.84H49.6448V119.129H50.1267V121.246H51.2062L52.8013 119.129H53.3362L51.5869 121.419L53.4374 123.84H52.8639L51.2062 121.68Z" fill="#1A282A"/>
<path d="M57.8709 123.41V123.84H54.5409V119.129H57.7697V119.563H55.0325V121.241H57.4709V121.66H55.0325V123.41H57.8709Z" fill="#1A282A"/>
<path d="M65.0803 119.129V123.84H59.307V119.129H59.7986V123.41H61.9527V119.129H62.4442V123.41H64.5935V119.129H65.0803Z" fill="#1A282A"/>
<path d="M70.333 123.41V123.84H67.0031V119.129H70.2318V119.563H67.4994V121.241H69.9379V121.66H67.4994V123.41H70.333Z" fill="#1A282A"/>
<path d="M75.7111 119.129V123.84H75.2148V121.67H72.2703V123.84H71.7739V119.129H72.2703V121.231H75.2148V119.129H75.7111Z" fill="#1A282A"/>
<path d="M78.1207 119.129H77.6291V123.84H78.1207V119.129Z" fill="#1A282A"/>
<path fill-rule="evenodd" clip-rule="evenodd" d="M46.9051 12.2837L46.9587 20.8078C46.9692 22.4765 47.2638 24.1311 47.8297 25.7009C48.2999 27.0057 48.9905 28.5314 49.3636 29.0914L50.0426 30.1097L56.5706 23.5818L56.2061 22.3985C56.0055 21.7477 55.8527 18.6763 55.8668 15.5731L55.8921 9.93069L61.5345 9.90536C64.6377 9.89129 67.7091 10.0441 68.3599 10.2447L69.5432 10.6091L76.0008 4.15151L75.5005 3.6512C75.2253 3.376 73.6093 2.66099 71.9097 2.06276C69.8636 1.34261 67.7114 0.970264 65.5423 0.961176L58.0042 0.929593C52.0565 0.904549 47.1099 0.963929 47.0126 1.06129C46.9149 1.15893 46.8668 6.20903 46.9051 12.2837ZM50.4326 38.2379C49.5741 39.4328 48.8872 40.7421 48.392 42.1276L47.9707 43.3064C47.3003 45.1831 46.954 47.1601 46.9466 49.1529L46.877 68.1677L65.8727 68.0981C67.8779 68.0907 69.8671 67.7401 71.754 67.0615L72.641 66.7424C74.2023 66.1806 75.6762 65.4005 77.0188 64.4252L78.1148 63.629C78.8588 63.0886 79.5593 62.4905 80.2097 61.8404L97.105 44.953L80.503 28.351L63.901 44.953L70.079 51.1309L80.503 41.0136L84.4681 44.646L72.8838 56.2303C71.8605 57.2537 70.6131 58.0249 69.2404 58.4831C67.8582 58.9443 66.4103 59.1778 64.9531 59.1743L55.8921 59.1525L55.8704 50.0915C55.8669 48.6344 56.1003 47.1864 56.5615 45.8042C57.0197 44.4315 57.791 43.1842 58.8143 42.1609L80.503 20.4721L102.154 42.1336C103.18 43.1599 103.964 44.402 104.449 45.7696C104.936 47.144 105.181 48.5926 105.171 50.0508L105.114 59.1525L99.4715 59.1779C96.3684 59.1919 93.2967 59.0388 92.6461 58.8385L91.4629 58.4741L84.7287 65.2083L87.7579 66.5808C89.1466 67.21 90.6163 67.6424 92.1244 67.8655C93.3749 68.0501 98.8432 68.1882 104.277 68.1716L114.155 68.1418L114.041 49.0255C114.03 47.1682 113.729 45.324 113.149 43.5596L113.115 43.4558C112.556 41.7572 111.779 40.138 110.804 38.6386C109.828 37.1373 108.698 35.7419 107.432 34.4751L80.503 7.52819L52.7219 35.4365C52.0593 36.1021 51.4512 36.8197 50.9033 37.5826L50.4326 38.2379ZM91.4314 10.5776L92.9171 10.2343C93.7345 10.0455 96.8127 9.90002 99.7583 9.91128L105.113 9.93126L105.133 15.2864C105.145 18.232 104.999 21.3101 104.81 22.1275L104.467 23.6133L111.149 30.2957L111.845 28.8412C112.228 28.0412 112.883 26.3532 113.3 25.09C113.802 23.5685 114.061 21.977 114.066 20.3746L114.129 0.915527L95.4817 0.962229C93.3088 0.967636 91.1522 1.33892 89.1026 2.06051C87.3993 2.66014 85.7808 3.376 85.5056 3.6512L85.0053 4.15151L91.4314 10.5776Z" fill="#1A282A"/>
</svg>
