<svg width="214" height="60" viewBox="0 0 214 60" fill="none" xmlns="http://www.w3.org/2000/svg">
<path d="M87.2402 15.6596C89.3213 15.6596 91.288 16.0141 93.1404 16.723C94.9928 17.432 96.5708 18.3925 97.8744 19.6046L96.1592 21.6628C94.8556 20.4507 93.4835 19.5817 92.0427 19.0557C90.6248 18.5068 89.1383 18.2324 87.5832 18.2324C86.4169 18.2324 85.342 18.4382 84.3586 18.8499C83.3753 19.2387 82.5177 19.8447 81.7858 20.668C81.0769 21.4913 80.5166 22.5433 80.105 23.8239C79.7162 25.0817 79.5218 26.5911 79.5218 28.352C79.5218 30.1587 79.7276 31.7138 80.1393 33.0174C80.5509 34.2981 81.1226 35.3615 81.8545 36.2076C82.5863 37.0309 83.4667 37.6484 84.4959 38.06C85.5478 38.4488 86.6913 38.6432 87.9262 38.6432C88.9554 38.6432 89.8358 38.5517 90.5676 38.3688C91.3223 38.1858 91.9512 37.9686 92.4543 37.717C93.0489 37.4426 93.5406 37.1224 93.9294 36.7565V30.2388H89.4699V28.009H98.9035V37.4426C98.0573 38.1286 97.0739 38.7347 95.9533 39.2607C94.9928 39.7181 93.8036 40.1297 92.3857 40.4956C90.9907 40.8615 89.3899 41.0445 87.5832 41.0445C85.525 41.0445 83.6726 40.77 82.026 40.2212C80.3794 39.6723 78.9729 38.8605 77.8066 37.7856C76.6403 36.7108 75.7484 35.3843 75.1309 33.8064C74.5134 32.2284 74.2047 30.4103 74.2047 28.352C74.2047 26.2938 74.5134 24.4757 75.1309 22.8977C75.7484 21.3198 76.6174 19.9933 77.738 18.9185C78.8815 17.8436 80.2536 17.0318 81.8545 16.4829C83.4782 15.9341 85.2734 15.6596 87.2402 15.6596ZM109.377 31.954H120.011L114.865 19.2615H114.522L109.377 31.954ZM118.639 16.3457L128.416 40.3584H123.476L121.212 34.5267H108.176L105.912 40.3584H100.972L110.749 16.3457H118.639ZM146.607 28.1805L155.698 40.3584H150.038L142.148 29.7242H136.145V40.3584H131.171V16.3457H136.145V27.1514H141.805L149.695 16.3457H155.183L146.607 28.1805ZM173.876 28.1805L182.967 40.3584H177.307L169.417 29.7242H163.413V40.3584H158.439V16.3457H163.413V27.1514H169.074L176.963 16.3457H182.452L173.876 28.1805ZM198.058 38.6432C199.178 38.6432 200.185 38.4946 201.076 38.1973C201.991 37.8771 202.769 37.3968 203.409 36.7565C204.049 36.0933 204.541 35.2586 204.884 34.2523C205.25 33.2232 205.433 31.9997 205.433 30.5818V16.3457H210.407V30.5818C210.407 34.1037 209.332 36.7336 207.183 38.4717C205.033 40.1869 201.991 41.0445 198.058 41.0445C194.101 41.0445 191.048 40.1869 188.899 38.4717C186.772 36.7336 185.708 34.1037 185.708 30.5818V16.3457H190.682V30.5818C190.682 31.9997 190.854 33.2232 191.197 34.2523C191.563 35.2586 192.066 36.0933 192.706 36.7565C193.347 37.3968 194.113 37.8771 195.005 38.1973C195.919 38.4946 196.937 38.6432 198.058 38.6432Z" fill="#F4F3EF"/>
<path d="M150.747 46.8622H149.894V48.7449H149.47V46.8622H148.617L147.361 48.7449H146.857L148.26 46.631L146.966 44.6391H147.433L148.609 46.4798H149.47V44.6391H149.894V46.4798H150.747L151.928 44.6391H152.398L151.096 46.631L152.503 48.7449H151.999L150.747 46.8622Z" fill="#F4F3EF"/>
<path d="M153.49 44.6391H153.919V48.0431L156.544 44.6391H156.935V48.7449H156.511V45.3493L153.881 48.7449H153.49V44.6391Z" fill="#F4F3EF"/>
<path d="M161.766 44.6391V48.7449H161.338V45.0131H159.359L159.313 46.3873C159.292 46.9546 159.25 47.4085 159.174 47.7573C159.103 48.1061 158.989 48.3625 158.842 48.5306C158.695 48.7029 158.494 48.7869 158.25 48.7869C158.145 48.7869 158.036 48.7743 157.922 48.7449L157.96 48.3583C158.027 48.3751 158.09 48.3835 158.153 48.3835C158.326 48.3835 158.464 48.3162 158.573 48.1817C158.683 48.0473 158.762 47.8329 158.817 47.5472C158.872 47.2614 158.909 46.879 158.93 46.4041L158.989 44.6433H161.774L161.766 44.6391Z" fill="#F4F3EF"/>
<path d="M164.139 48.5053C163.808 48.3204 163.551 48.0725 163.367 47.7573C163.177 47.4421 163.085 47.0849 163.085 46.6899C163.085 46.2949 163.177 45.9377 163.367 45.6225C163.556 45.3073 163.812 45.0551 164.139 44.8744C164.471 44.6937 164.837 44.6013 165.244 44.6013C165.652 44.6013 166.013 44.6937 166.341 44.8744C166.668 45.0551 166.925 45.3031 167.109 45.6225C167.298 45.9419 167.391 46.2991 167.391 46.6941C167.391 47.0891 167.294 47.4463 167.109 47.7657C166.92 48.0851 166.664 48.333 166.341 48.5137C166.013 48.6945 165.648 48.7869 165.244 48.7869C164.841 48.7869 164.471 48.6945 164.139 48.5137M166.122 48.1775C166.387 48.0305 166.589 47.8246 166.736 47.5682C166.883 47.3077 166.958 47.0177 166.958 46.6983C166.958 46.3789 166.883 46.0889 166.736 45.8284C166.589 45.5678 166.379 45.3661 166.122 45.219C165.858 45.072 165.568 45.0005 165.244 45.0005C164.921 45.0005 164.627 45.072 164.362 45.219C164.097 45.3661 163.892 45.572 163.74 45.8284C163.589 46.0889 163.518 46.3789 163.518 46.6983C163.518 47.0177 163.593 47.3077 163.74 47.5682C163.892 47.8288 164.102 48.0305 164.362 48.1775C164.627 48.3246 164.921 48.3961 165.244 48.3961C165.568 48.3961 165.862 48.3246 166.122 48.1775Z" fill="#F4F3EF"/>
<path d="M168.727 44.6391H169.155V48.0431L171.781 44.6391H172.171V48.7449H171.743V45.3493L169.117 48.7449H168.727V44.6391ZM169.743 44.139C169.571 44.0087 169.487 43.8196 169.483 43.5843H169.806C169.806 43.7398 169.869 43.8659 169.983 43.9541C170.096 44.0466 170.252 44.0886 170.437 44.0886C170.621 44.0886 170.777 44.0466 170.89 43.9541C171.008 43.8659 171.067 43.744 171.071 43.5843H171.394C171.394 43.8238 171.302 44.0087 171.13 44.139C170.957 44.2693 170.726 44.3407 170.441 44.3407C170.155 44.3407 169.916 44.2735 169.748 44.139" fill="#F4F3EF"/>
<path d="M177.044 46.8622H176.103V48.7449H175.679V44.6391H176.103V46.4798H177.044L178.431 44.6391H178.901L177.372 46.6352L178.985 48.7449H178.489L177.044 46.8622Z" fill="#F4F3EF"/>
<path d="M180.64 48.5053C180.308 48.3204 180.052 48.0725 179.867 47.7573C179.678 47.4421 179.586 47.0849 179.586 46.6899C179.586 46.2949 179.678 45.9377 179.867 45.6225C180.056 45.3073 180.313 45.0551 180.64 44.8744C180.972 44.6937 181.338 44.6013 181.745 44.6013C182.153 44.6013 182.514 44.6937 182.842 44.8744C183.169 45.0551 183.425 45.3031 183.61 45.6225C183.799 45.9419 183.892 46.2991 183.892 46.6941C183.892 47.0891 183.795 47.4463 183.61 47.7657C183.421 48.0851 183.165 48.333 182.842 48.5137C182.514 48.6945 182.148 48.7869 181.745 48.7869C181.342 48.7869 180.972 48.6945 180.64 48.5137M182.623 48.1775C182.888 48.0305 183.089 47.8246 183.236 47.5682C183.383 47.3077 183.459 47.0177 183.459 46.6983C183.459 46.3789 183.383 46.0889 183.236 45.8284C183.089 45.5678 182.879 45.3661 182.623 45.219C182.358 45.072 182.069 45.0005 181.745 45.0005C181.422 45.0005 181.128 45.072 180.863 45.219C180.598 45.3661 180.392 45.572 180.241 45.8284C180.09 46.0889 180.019 46.3789 180.019 46.6983C180.019 47.0177 180.094 47.3077 180.241 47.5682C180.392 47.8288 180.602 48.0305 180.863 48.1775C181.128 48.3246 181.422 48.3961 181.745 48.3961C182.069 48.3961 182.363 48.3246 182.623 48.1775Z" fill="#F4F3EF"/>
<path d="M189.487 44.6391V48.7449H189.071V45.4628L187.458 48.2238H187.252L185.643 45.4796V48.7449H185.223V44.6391H185.585L187.366 47.6859L189.13 44.6391H189.487Z" fill="#F4F3EF"/>
<path d="M194.621 44.6391V48.7449H194.192V45.0173H191.592V48.7449H191.168V44.6391H194.621Z" fill="#F4F3EF"/>
<path d="M199.447 44.6391V48.7449H199.019V45.0131H197.04L196.994 46.3873C196.973 46.9546 196.931 47.4085 196.855 47.7573C196.784 48.1061 196.671 48.3625 196.524 48.5306C196.377 48.7029 196.175 48.7869 195.931 48.7869C195.826 48.7869 195.717 48.7743 195.604 48.7449L195.641 48.3583C195.709 48.3751 195.772 48.3835 195.835 48.3835C196.007 48.3835 196.146 48.3162 196.255 48.1817C196.364 48.0473 196.444 47.8329 196.498 47.5472C196.553 47.2614 196.591 46.879 196.612 46.4041L196.671 44.6433H199.456L199.447 44.6391Z" fill="#F4F3EF"/>
<path d="M204.031 48.3709V48.7449H201.124V44.6391H203.942V45.0173H201.56V46.4798H203.686V46.8454H201.56V48.3709H204.031Z" fill="#F4F3EF"/>
<path d="M206.643 46.8622H205.707V48.7449H205.282V44.6391H205.707V46.4798H206.643L208.034 44.6391H208.5L206.979 46.6352L208.593 48.7449H208.093L206.643 46.8622Z" fill="#F4F3EF"/>
<path d="M210.244 48.5095C209.916 48.3288 209.66 48.0809 209.475 47.7615C209.286 47.4421 209.193 47.0849 209.193 46.6899C209.193 46.2949 209.286 45.9377 209.475 45.6183C209.66 45.2989 209.92 45.0509 210.244 44.8702C210.571 44.6895 210.937 44.5971 211.344 44.5971C211.647 44.5971 211.932 44.6475 212.188 44.7484C212.449 44.8492 212.663 45.0005 212.844 45.1938L212.567 45.4712C212.247 45.1476 211.84 44.9837 211.353 44.9837C211.029 44.9837 210.735 45.0594 210.466 45.2064C210.197 45.3535 209.991 45.5594 209.844 45.8158C209.693 46.0763 209.618 46.3621 209.618 46.6815C209.618 47.0009 209.693 47.2908 209.844 47.5472C209.996 47.8077 210.206 48.0052 210.466 48.1565C210.735 48.3036 211.025 48.3793 211.353 48.3793C211.844 48.3793 212.252 48.2154 212.567 47.8876L212.844 48.1649C212.663 48.3625 212.445 48.5095 212.184 48.6104C211.924 48.7155 211.642 48.7659 211.336 48.7659C210.928 48.7659 210.563 48.6776 210.239 48.4927L210.244 48.5095Z" fill="#F4F3EF"/>
<path d="M144.543 44.3912H144.156V49.8796H144.543V44.3912Z" fill="#F4F3EF"/>
<path d="M78.5519 45.0131H77.111V48.7407H76.6783V45.0131H75.2374V44.6349H78.5519V45.0131Z" fill="#F4F3EF"/>
<path d="M80.959 47.3203V48.7365H80.5305V47.3203L78.8879 44.6349H79.35L80.7573 46.9378L82.1646 44.6349H82.6015L80.959 47.3203ZM79.4173 47.1269H82.0512V47.4547H79.4173V47.1269Z" fill="#F4F3EF"/>
<path d="M86.2772 45.0131C86.5713 45.2653 86.7225 45.6099 86.7225 46.0427C86.7225 46.4756 86.5755 46.8244 86.2772 47.0723C85.9831 47.3203 85.5715 47.4421 85.0464 47.4421H83.9457V48.7365H83.5089V44.6307H85.0464C85.5715 44.6307 85.9789 44.7526 86.2772 45.0047M85.9663 46.7907C86.1806 46.6142 86.2898 46.3621 86.2898 46.0343C86.2898 45.7065 86.1806 45.446 85.9663 45.2653C85.7521 45.0888 85.4412 44.9963 85.0337 44.9963H83.9415V47.0513H85.0337C85.4412 47.0513 85.7521 46.963 85.9663 46.7823" fill="#F4F3EF"/>
<path d="M88.5246 45.0131V46.6689H90.2974V47.0009H88.533V48.7407H88.1046V47.0009H87.4744V46.6689H88.1046V44.6349H90.7133V45.0131H88.5246Z" fill="#F4F3EF"/>
<path d="M94.6494 46.4293C94.9057 46.6479 95.0317 46.9672 95.0317 47.3917C95.0317 47.8161 94.8973 48.1692 94.6242 48.4003C94.3512 48.6272 93.9605 48.7449 93.448 48.7449H91.8181V44.6391H92.2466V46.1058H93.5362C94.0193 46.1058 94.389 46.2192 94.6452 46.4335M94.2966 48.1481C94.494 47.98 94.5906 47.7321 94.5906 47.4043C94.5906 46.7739 94.2042 46.4629 93.427 46.4629H92.2382V48.4045H93.427C93.8051 48.4045 94.0949 48.3204 94.2924 48.1523M95.7332 44.6433H96.1617V48.7491H95.7332V44.6433Z" fill="#F4F3EF"/>
<path d="M101.278 44.6349V48.7407H100.85V46.8496H98.2831V48.7407H97.8505V44.6349H98.2831V46.4672H100.85V44.6349H101.278Z" fill="#F4F3EF"/>
<path d="M106.214 47.3203V48.7407H105.786V47.3203L104.148 44.6349H104.61L106.013 46.942L107.424 44.6349H107.857L106.214 47.3203Z" fill="#F4F3EF"/>
<path d="M108.815 44.6349H109.243V48.0389L111.869 44.6349H112.259V48.7407H111.831V45.3451L109.205 48.7407H108.815V44.6349ZM109.831 44.1348C109.659 44.0045 109.575 43.8154 109.571 43.5801H109.894C109.894 43.7356 109.957 43.8617 110.071 43.9499C110.184 44.0424 110.335 44.0844 110.524 44.0844C110.713 44.0844 110.865 44.0424 110.978 43.9499C111.096 43.8617 111.154 43.7398 111.159 43.5801H111.482C111.482 43.8196 111.39 44.0045 111.217 44.1348C111.045 44.2651 110.814 44.3365 110.529 44.3365C110.243 44.3365 110.003 44.2693 109.835 44.1348" fill="#F4F3EF"/>
<path d="M117.128 46.858H116.187V48.7407H115.767V44.6349H116.187V46.4798H117.128L118.519 44.6349H118.985L117.46 46.631L119.073 48.7407H118.573L117.128 46.858Z" fill="#F4F3EF"/>
<path d="M122.938 48.3667V48.7407H120.035V44.6349H122.85V45.0131H120.464V46.4756H122.589V46.8412H120.464V48.3667H122.938Z" fill="#F4F3EF"/>
<path d="M129.222 44.6349V48.7407H124.19V44.6349H124.618V48.3667H126.496V44.6349H126.924V48.3667H128.798V44.6349H129.222Z" fill="#F4F3EF"/>
<path d="M133.801 48.3667V48.7407H130.898V44.6349H133.713V45.0131H131.331V46.4756H133.457V46.8412H131.331V48.3667H133.801Z" fill="#F4F3EF"/>
<path d="M138.489 44.6349V48.7407H138.057V46.8496H135.49V48.7407H135.057V44.6349H135.49V46.4672H138.057V44.6349H138.489Z" fill="#F4F3EF"/>
<path d="M140.59 44.6349H140.161V48.7407H140.59V44.6349Z" fill="#F4F3EF"/>
<path fill-rule="evenodd" clip-rule="evenodd" d="M0.792716 10.3101L0.839472 17.7407C0.848624 19.1953 1.10538 20.6376 1.59874 22.006C2.00862 23.1434 2.61056 24.4734 2.93581 24.9615L3.5277 25.8492L9.21818 20.1587L8.90053 19.1273C8.72563 18.5599 8.59244 15.8826 8.6047 13.1775L8.62679 8.25899L13.5453 8.23691C16.2504 8.22464 18.9277 8.35784 19.4951 8.53273L20.5265 8.85039L26.1557 3.22123L25.7196 2.7851C25.4797 2.54521 24.071 1.92193 22.5894 1.40044C20.8058 0.772682 18.9297 0.448105 17.0389 0.440183L10.4679 0.412651C5.28324 0.390821 0.971282 0.442583 0.886411 0.527454C0.801296 0.612569 0.759355 5.01478 0.792716 10.3101ZM3.86767 32.9347C3.1193 33.9763 2.52055 35.1176 2.08886 36.3253L1.7216 37.3529C1.13718 38.9888 0.83532 40.7122 0.828929 42.4493L0.768188 59.0247L17.3269 58.964C19.0749 58.9576 20.8089 58.652 22.4537 58.0604L23.2269 57.7823C24.588 57.2925 25.8728 56.6125 27.0431 55.7623L27.9985 55.0683C28.6471 54.5971 29.2576 54.0758 29.8246 53.5091L44.5524 38.7883L30.0803 24.3162L15.6082 38.7883L20.9936 44.1736L30.0803 35.3542L33.5367 38.5206L23.4386 48.6188C22.5465 49.5108 21.4592 50.1831 20.2626 50.5825C19.0577 50.9846 17.7955 51.1881 16.5254 51.185L8.62679 51.1661L8.60784 43.2675C8.60479 41.9973 8.80828 40.7351 9.21033 39.5303C9.60974 38.3336 10.282 37.2463 11.1741 36.3543L30.0803 17.448L48.9537 36.3305C49.8479 37.2251 50.5312 38.308 50.954 39.5001C51.3789 40.6981 51.5921 41.9609 51.584 43.232L51.5339 51.1661L46.6153 51.1882C43.9103 51.2004 41.2327 51.067 40.6656 50.8923L39.6341 50.5747L33.7639 56.445L36.4044 57.6414C37.615 58.1899 38.8961 58.5668 40.2108 58.7612C41.3009 58.9221 46.0676 59.0426 50.8039 59.0281L59.415 59.0021L59.316 42.3383C59.3064 40.7192 59.0438 39.1116 58.5379 37.5736L58.5081 37.4832C58.0208 36.0024 57.3438 34.5909 56.4941 33.284C55.643 31.9752 54.6577 30.7588 53.5542 29.6546L30.0803 6.1647L5.86328 30.4926C5.2857 31.0728 4.75557 31.6984 4.27799 32.3634L3.86767 32.9347ZM39.6067 8.82292L40.9018 8.52366C41.6144 8.35907 44.2976 8.23225 46.8653 8.24206L51.5334 8.25948L51.5508 12.9276C51.5606 15.4953 51.4338 18.1785 51.2692 18.8911L50.97 20.1862L56.7951 26.0114L57.4017 24.7435C57.7355 24.0461 58.3058 22.5746 58.6696 21.4735C59.1077 20.1471 59.3332 18.7598 59.3377 17.363L59.3925 0.400391L43.1374 0.441101C41.2432 0.445814 39.3633 0.769467 37.5766 1.39848C36.0919 1.92119 34.681 2.5452 34.4411 2.7851L34.005 3.22123L39.6067 8.82292Z" fill="#F4F3EF"/>
</svg>
