<svg width="25" height="25" viewBox="0 0 25 25" fill="none" xmlns="http://www.w3.org/2000/svg">
<path d="M14.2943 12.5L10.7943 14.5V10.5L14.2943 12.5Z" fill="white" stroke="white" stroke-width="1.5" stroke-linecap="round" stroke-linejoin="round"/>
<path d="M2.29425 13.2074V11.7914C2.29425 8.89641 2.29425 7.44841 3.19925 6.51741C4.10525 5.58541 5.53125 5.54541 8.38225 5.46441C9.73225 5.42641 11.1123 5.39941 12.2943 5.39941C13.4763 5.39941 14.8553 5.42641 16.2063 5.46441C19.0573 5.54541 20.4833 5.58541 21.3883 6.51741C22.2933 7.44941 22.2943 8.89741 22.2943 11.7914V13.2064C22.2943 16.1024 22.2942 17.5494 21.3892 18.4814C20.4832 19.4124 19.0583 19.4534 16.2063 19.5334C14.8563 19.5724 13.4763 19.5994 12.2943 19.5994C11.1123 19.5994 9.73325 19.5724 8.38225 19.5334C5.53125 19.4534 4.10525 19.4134 3.19925 18.4814C2.29325 17.5494 2.29425 16.1014 2.29425 13.2074Z" stroke="white" stroke-width="1.5"/>
</svg>
