<svg width="21" height="21" viewBox="0 0 21 21" fill="none" xmlns="http://www.w3.org/2000/svg">
<g clip-path="url(#clip0_9_32)">
<path d="M10.2822 0.5C8.29392 0.502646 6.3878 1.29367 4.98185 2.69962C3.5759 4.10557 2.78487 6.01169 2.78223 8C2.78223 13.3844 9.76973 20.1281 10.0666 20.4125C10.1243 20.4686 10.2017 20.5 10.2822 20.5C10.3628 20.5 10.4401 20.4686 10.4979 20.4125C10.7947 20.1281 17.7822 13.3844 17.7822 8C17.7796 6.01169 16.9886 4.10557 15.5826 2.69962C14.1767 1.29367 12.2705 0.502646 10.2822 0.5ZM10.2822 11.4375C9.60235 11.4375 8.93775 11.2359 8.37245 10.8582C7.80716 10.4805 7.36657 9.9436 7.10639 9.31548C6.84621 8.68735 6.77814 7.99619 6.91078 7.32938C7.04341 6.66257 7.3708 6.05006 7.85155 5.56932C8.33229 5.08858 8.94479 4.76119 9.6116 4.62855C10.2784 4.49591 10.9696 4.56399 11.5977 4.82416C12.2258 5.08434 12.7627 5.52493 13.1404 6.09023C13.5181 6.65552 13.7197 7.32013 13.7197 8C13.7191 8.9115 13.3568 9.78551 12.7123 10.43C12.0677 11.0746 11.1937 11.4369 10.2822 11.4375Z" fill="#CECECE"/>
</g>
<defs>
<clipPath id="clip0_9_32">
<rect width="20" height="20" fill="white" transform="translate(0.282227 0.5)"/>
</clipPath>
</defs>
</svg>
