<svg width="186" height="40" viewBox="0 0 186 40" fill="none" xmlns="http://www.w3.org/2000/svg">
<path d="M0 7.15364C0.0798293 6.70654 0.13685 6.2526 0.24633 5.81235C0.821101 3.50614 2.3447 2.04167 4.46132 1.11782C5.82754 0.520167 7.27359 0.228185 8.75157 0.100443C12.4625 -0.221194 16.032 0.333116 19.4396 1.85918C19.6563 1.95499 19.7498 2.05992 19.7475 2.31084C19.7361 4.46193 19.7406 6.61301 19.7406 8.7641C19.7406 8.85307 19.7315 8.94203 19.727 9.03555C19.5764 9.04012 19.4829 8.94431 19.3734 8.89184C16.3125 7.40228 13.0966 6.57424 9.67759 6.60161C9.23967 6.60617 8.80859 6.67004 8.41173 6.87306C7.86205 7.15364 7.80046 7.64864 8.26119 8.05696C8.60332 8.35806 9.02299 8.51774 9.44267 8.6683C10.9594 9.21576 12.5218 9.6218 14.0591 10.1122C15.569 10.5936 17.0242 11.1935 18.3357 12.1059C19.9733 13.2465 21.0658 14.7497 21.2893 16.7662C21.6155 19.7203 20.6119 22.1132 18.1463 23.8377C16.6798 24.8642 15.0307 25.4367 13.2768 25.6671C9.67987 26.1416 6.14914 25.8656 2.7256 24.595C1.76765 24.2392 0.857595 23.7875 0.00228084 23.2263V15.8105C1.41184 16.9077 3.00386 17.6399 4.69168 18.1897C6.84935 18.89 9.03896 19.3918 11.3289 19.2481C11.9014 19.2116 12.4739 19.1477 12.978 18.8352C13.5482 18.4839 13.5733 17.8954 13.0487 17.4871C12.8023 17.2955 12.5241 17.1609 12.239 17.0423C11.0415 16.5495 9.80304 16.18 8.56682 15.8082C6.78777 15.2744 5.03381 14.6813 3.45091 13.6822C1.89994 12.7013 0.718464 11.4284 0.255454 9.59899C0.143693 9.15874 0.0866718 8.70479 0.00456167 8.2577V7.1582" fill="black"/>
<path d="M102.927 12.9525C102.927 8.93542 102.93 4.91839 102.92 0.901351C102.92 0.602525 102.98 0.495313 103.31 0.497594C106.759 0.511281 110.208 0.490751 113.656 0.513562C116.245 0.531811 118.74 1.01313 121.021 2.29511C124.123 4.04016 126.297 6.54482 127.013 10.0965C127.756 13.7851 127.3 17.2911 124.917 20.3433C122.905 22.9209 120.209 24.4264 117.018 25.0743C115.837 25.3138 114.639 25.4165 113.433 25.4165C110.053 25.4165 106.672 25.4119 103.292 25.4256C102.975 25.4256 102.92 25.3298 102.923 25.0401C102.932 21.0116 102.93 16.9832 102.93 12.9547M110.566 12.9593V17.9709C110.566 18.8423 110.566 18.8468 111.435 18.84C112.66 18.8332 113.887 18.9062 115.096 18.6256C116.913 18.2059 118.307 17.2638 119.005 15.4685C119.363 14.5492 119.472 13.582 119.422 12.6035C119.265 9.5057 117.62 7.69222 114.56 7.20178C113.351 7.00788 112.135 7.11282 110.924 7.07404C110.641 7.06491 110.557 7.14019 110.559 7.42989C110.573 9.27303 110.566 11.1139 110.566 12.957" fill="black"/>
<path d="M61.8927 25.8795C58.3528 25.8658 55.3535 24.9944 52.8263 22.8068C49.5077 19.9349 48.0617 16.2942 48.3148 11.9236C48.6478 6.17066 53.2323 1.18187 58.9139 0.2489C62.7639 -0.382967 66.4156 0.12572 69.6338 2.49808C72.3959 4.53511 74.2046 7.21769 74.7725 10.6439C76.1114 18.7305 70.5325 24.7207 64.2442 25.6764C63.3821 25.8065 62.5153 25.8681 61.8927 25.8795ZM56.1039 12.9593C56.0993 13.5569 56.1564 14.15 56.316 14.7271C56.8703 16.7299 58.0517 18.1944 60.1068 18.7419C62.1641 19.2893 64.0481 18.8833 65.5671 17.307C67.3918 15.4137 67.7042 11.9601 66.3175 9.62883C64.2761 6.19576 59.6141 6.22997 57.4861 8.88975C56.5236 10.0896 56.1153 11.4514 56.1039 12.9615" fill="black"/>
<path d="M21.7108 0.506843H22.1852C24.7283 0.506843 27.2737 0.511406 29.8169 0.5C30.0769 0.5 30.1863 0.577558 30.273 0.826199C31.9084 5.52073 33.5551 10.2107 35.2019 14.9007C35.2475 15.0284 35.2977 15.1539 35.373 15.35C35.6991 14.433 36.0025 13.5867 36.3013 12.7404C37.7017 8.77587 39.1021 4.8113 40.4935 0.842167C40.5847 0.579839 40.701 0.5 40.977 0.5C43.4631 0.511406 45.9492 0.506843 48.4376 0.506843H48.7775C48.8094 0.648272 48.7364 0.74636 48.6953 0.84901C45.4566 9.09295 42.2155 17.3346 38.9813 25.5808C38.8923 25.8066 38.7851 25.891 38.5365 25.8888C36.3355 25.8774 34.1368 25.8796 31.9358 25.8888C31.7008 25.8888 31.5754 25.834 31.4819 25.5945C28.2545 17.3346 25.018 9.07698 21.7837 0.821637C21.7473 0.728111 21.688 0.639148 21.713 0.509124" fill="black"/>
<path d="M74.0588 0.506564H74.401C77.0467 0.506564 79.6948 0.508845 82.3406 0.502002C82.5755 0.502002 82.7101 0.574997 82.8332 0.775735C84.1401 2.89945 85.4562 5.01632 86.7722 7.13547C86.8429 7.25181 86.9182 7.36587 86.9935 7.48448C87.1372 7.40921 87.1805 7.27234 87.2489 7.16285C88.5878 5.04597 89.9243 2.92682 91.2518 0.800827C91.3909 0.577278 91.5369 0.499721 91.7992 0.502002C94.3537 0.513407 96.9083 0.508845 99.4651 0.508845H99.8072C99.7867 0.700458 99.6726 0.80539 99.5951 0.926288C96.7258 5.28321 93.8565 9.64013 90.9804 13.9925C90.823 14.232 90.7477 14.4647 90.7477 14.7544C90.7568 18.3243 90.7477 21.8943 90.7614 25.4665C90.7614 25.7699 90.6861 25.8451 90.3851 25.8429C88.0928 25.8292 85.8029 25.8269 83.5106 25.8429C83.1639 25.8451 83.1024 25.7334 83.1046 25.4186C83.116 21.9171 83.1092 18.4156 83.116 14.9141C83.116 14.6495 83.0499 14.4327 82.9062 14.2115C80.0346 9.77472 77.1699 5.3334 74.3029 0.892072C74.2345 0.787141 74.1706 0.68221 74.0588 0.508845" fill="black"/>
<path d="M156.054 12.9867C156.054 16.9809 156.05 20.9728 156.064 24.9671C156.064 25.3229 155.961 25.4005 155.619 25.4005C147.634 25.3913 139.648 25.3936 131.663 25.3936C131.355 25.3936 131.2 25.2362 131.2 24.9214C131.2 16.9695 131.2 9.01524 131.2 1.06329C131.2 0.725687 131.37 0.556885 131.711 0.556885C139.662 0.556885 147.613 0.556885 155.564 0.556885C155.891 0.556885 156.054 0.718844 156.054 1.04276C156.054 5.02558 156.054 9.00612 156.054 12.9889M143.635 17.6903C145.09 17.6903 146.546 17.6835 148.001 17.6972C148.277 17.6994 148.345 17.6128 148.345 17.3481C148.336 14.4192 148.336 11.4902 148.345 8.5613C148.345 8.3081 148.275 8.22598 148.017 8.22598C145.084 8.23282 142.151 8.23282 139.217 8.22598C138.946 8.22598 138.862 8.31038 138.864 8.57955C138.871 11.4971 138.873 14.4146 138.864 17.3322C138.864 17.6219 138.96 17.6994 139.238 17.6972C140.704 17.6857 142.171 17.6926 143.638 17.6926" fill="#0E6131"/>
<path d="M178.576 11.547C178.25 12.0944 177.923 12.6442 177.597 13.1917C176.833 14.4805 176.06 15.7647 175.31 17.0604C175.168 17.3045 175.009 17.3752 174.739 17.3729C173.606 17.3592 172.47 17.3592 171.336 17.3729C171.088 17.3752 170.946 17.2977 170.819 17.0855C169.744 15.3291 168.661 13.5794 167.575 11.8298C167.514 11.7295 167.482 11.5994 167.304 11.5196V24.9143C167.304 25.2139 167.158 25.3637 166.866 25.3637C164.679 25.3637 162.489 25.3591 160.302 25.3705C160.005 25.3705 159.916 25.3021 159.916 24.9918C159.925 16.9464 159.925 8.90316 159.916 0.857683C159.916 0.529203 160.021 0.465332 160.322 0.467613C162.603 0.479019 164.882 0.476738 167.162 0.467613C167.411 0.467613 167.55 0.545171 167.68 0.757314C169.352 3.49009 171.031 6.21601 172.712 8.94194C172.782 9.056 172.83 9.19058 172.954 9.27498C173.079 9.19971 173.125 9.06284 173.193 8.95107C174.874 6.23882 176.557 3.52658 178.227 0.807499C178.386 0.545171 178.56 0.465332 178.856 0.465332C181.103 0.476738 183.347 0.476738 185.594 0.465332C185.89 0.465332 186 0.517798 186 0.85084C185.989 8.89632 185.991 16.9395 186 24.985C186 25.2838 185.931 25.3705 185.624 25.3682C183.436 25.3545 181.247 25.3545 179.059 25.3682C178.751 25.3682 178.656 25.2975 178.656 24.9713C178.667 20.6349 178.662 16.2962 178.662 11.9599V11.5561C178.635 11.5515 178.608 11.5447 178.58 11.5401" fill="black"/>
<path d="M0 33.1652C0 32.5584 0.108597 32.0153 0.324068 31.5361C0.539539 31.0568 0.827407 30.6775 1.18595 30.3965C1.54449 30.1155 1.94096 29.9035 2.37362 29.7621C2.80629 29.619 3.26136 29.5483 3.74057 29.5483C4.5042 29.5483 5.18509 29.7087 5.78323 30.031V31.7154C5.26783 31.3844 4.6783 31.2189 4.01637 31.2189C3.43719 31.2189 2.94936 31.3706 2.5529 31.674C2.15643 31.9774 1.95992 32.4429 1.95992 33.0687C1.95992 33.6945 2.15815 34.1238 2.5529 34.4427C2.94764 34.7599 3.42685 34.9185 3.98879 34.9185C4.69726 34.9185 5.31782 34.7582 5.85218 34.4358V36.1339C5.16268 36.4287 4.41629 36.5752 3.61646 36.5752C2.62185 36.5752 1.77203 36.2839 1.06356 35.6995C0.355096 35.115 0 34.2703 0 33.167L0 33.1652Z" fill="black"/>
<path d="M10.2547 34.2288L11.8974 29.7568H13.8849L10.9459 37.1837C10.2926 38.7939 9.33935 39.599 8.08962 39.599C7.82244 39.599 7.47768 39.549 7.05364 39.4473V37.8595C7.35702 37.9233 7.61903 37.956 7.83967 37.956C8.53952 37.956 9.06355 37.4733 9.41347 36.5062L9.42726 36.4786L6.29346 29.7568H8.32233L10.2547 34.2288Z" fill="black"/>
<path d="M16.755 36.3821H14.8364V29.7568H21.3505V36.3821H19.432V31.3722H16.755V36.3821Z" fill="black"/>
<path d="M22.6074 33.0686C22.6074 32.4704 22.7126 31.9394 22.9246 31.4739C23.1366 31.0084 23.4141 30.6429 23.7589 30.3757C24.1037 30.1085 24.4674 29.9068 24.85 29.7689C25.231 29.631 25.6206 29.562 26.017 29.562C26.679 29.562 27.253 29.6861 27.7356 29.9344C28.2183 30.1826 28.5751 30.5033 28.8061 30.8946C29.0353 31.286 29.1939 31.7273 29.2818 32.2204C29.3698 32.7134 29.3439 33.203 29.206 33.6909H24.5415C24.6432 34.1512 24.9086 34.4943 25.3413 34.7201C25.774 34.946 26.2842 35.058 26.8737 35.058C27.6012 35.058 28.2683 34.9253 28.875 34.6581V36.1631C28.2217 36.4389 27.4116 36.5769 26.4462 36.5769C25.3413 36.5769 24.426 36.2683 23.7003 35.6528C22.9729 35.0356 22.6091 34.1754 22.6091 33.072L22.6074 33.0686ZM27.4788 32.4479C27.5253 32.1445 27.4374 31.8308 27.2168 31.5101C26.9961 31.1877 26.6186 31.0274 26.0843 31.0274C25.6602 31.0274 25.2982 31.1532 24.9931 31.4067C24.6897 31.6601 24.5329 32.0066 24.5243 32.4497H27.4771L27.4788 32.4479Z" fill="black"/>
<path d="M32.1999 30.7222C32.7428 29.9499 33.5427 29.562 34.6011 29.562C35.6043 29.562 36.3938 29.9051 36.9678 30.5912C37.5435 31.2774 37.8297 32.1031 37.8297 33.0686C37.8297 34.034 37.5418 34.8615 36.9678 35.5459C36.3921 36.2321 35.6043 36.5734 34.6011 36.5734C33.6909 36.5734 32.9635 36.2752 32.4205 35.6769V39.418H30.502V29.7551H32.1999V30.7205V30.7222ZM35.4026 34.415C35.7146 34.0512 35.8715 33.603 35.8715 33.0686C35.8715 32.5341 35.7146 32.0859 35.4026 31.7222C35.0889 31.3584 34.6666 31.1774 34.1322 31.1774C33.7357 31.1774 33.3841 31.2825 33.0755 31.4946C32.767 31.7066 32.5446 31.9687 32.4067 32.2807V33.8547C32.5446 34.1685 32.767 34.4305 33.0755 34.6408C33.3841 34.8529 33.7357 34.958 34.1322 34.958C34.6648 34.958 35.0889 34.777 35.4026 34.4133V34.415Z" fill="black"/>
<path d="M40.9498 36.3821H39.0864V29.7568H40.9222L42.9787 33.0427L45.0489 29.7568H46.871V36.3821H45.0213V32.4755L43.4613 34.946H42.5098L40.9498 32.4755V36.3821Z" fill="black"/>
<path d="M54.4211 34.6701C54.4211 34.9649 54.578 35.1115 54.89 35.1115C55.0193 35.1115 55.1382 35.0925 55.2485 35.0563V36.3131C54.8986 36.4424 54.5452 36.5062 54.185 36.5062C53.4851 36.5062 52.9973 36.2579 52.7215 35.7614C52.032 36.3045 51.2356 36.5751 50.3341 36.5751C49.6808 36.5751 49.1309 36.3941 48.6844 36.0303C48.238 35.6666 48.0156 35.1718 48.0156 34.546C48.0156 34.0219 48.1725 33.584 48.4845 33.2341C48.7965 32.8841 49.1602 32.6479 49.5756 32.5238C49.9893 32.3997 50.441 32.3376 50.9288 32.3376C51.4718 32.3376 51.9958 32.3979 52.5026 32.5169V32.2824C52.5026 31.9428 52.3699 31.6704 52.1027 31.4687C51.8355 31.267 51.4494 31.1653 50.9426 31.1653C50.2065 31.1653 49.4239 31.3308 48.5965 31.6618V30.0051C49.4791 29.7103 50.3358 29.5637 51.1632 29.5637C53.3352 29.5637 54.4211 30.5619 54.4211 32.56V34.6719V34.6701ZM51.3718 33.4823C50.9753 33.4823 50.6444 33.5564 50.3772 33.703C50.11 33.8495 49.9773 34.0805 49.9773 34.3926C49.9773 34.6322 50.0755 34.827 50.2738 34.9787C50.472 35.1304 50.7168 35.2063 51.0115 35.2063C51.5907 35.2063 52.0889 35.027 52.5026 34.6684V33.634C52.0785 33.5323 51.7028 33.4823 51.3701 33.4823H51.3718Z" fill="black"/>
<path d="M57.9684 30.7222C58.5114 29.9499 59.3112 29.562 60.3696 29.562C61.3729 29.562 62.1623 29.9051 62.7364 30.5912C63.3121 31.2774 63.5982 32.1031 63.5982 33.0686C63.5982 34.034 63.3104 34.8615 62.7364 35.5459C62.1606 36.2321 61.3729 36.5734 60.3696 36.5734C59.4595 36.5734 58.732 36.2752 58.1891 35.6769V39.418H56.2705V29.7551H57.9684V30.7205V30.7222ZM61.1712 34.415C61.4832 34.0512 61.64 33.603 61.64 33.0686C61.64 32.5341 61.4832 32.0859 61.1712 31.7222C60.8574 31.3584 60.4351 31.1774 59.9008 31.1774C59.5043 31.1774 59.1526 31.2825 58.8441 31.4946C58.5355 31.7066 58.3132 31.9687 58.1753 32.2807V33.8547C58.3132 34.1685 58.5355 34.4305 58.8441 34.6408C59.1526 34.8529 59.5043 34.958 59.9008 34.958C60.4334 34.958 60.8574 34.777 61.1712 34.4133V34.415Z" fill="black"/>
<path d="M66.7735 36.3821H64.855V29.7568H66.7735V32.2273H67.5734L69.2575 29.7568H71.4105L69.1334 33.0289L71.6035 36.3838H69.4505L67.5458 33.7616H66.7735V36.3838V36.3821Z" fill="black"/>
<path d="M71.7002 33.0686C71.7002 32.4704 71.8053 31.9394 72.0174 31.4739C72.2294 31.0084 72.5069 30.6429 72.8517 30.3757C73.1964 30.1085 73.5601 29.9068 73.9428 29.7689C74.3238 29.631 74.7133 29.562 75.1098 29.562C75.7717 29.562 76.3457 29.6861 76.8284 29.9344C77.3111 30.1826 77.6679 30.5033 77.8989 30.8946C78.1281 31.286 78.2867 31.7273 78.3746 32.2204C78.4625 32.7134 78.4367 33.203 78.2988 33.6909H73.6343C73.736 34.1512 74.0014 34.4943 74.4341 34.7201C74.8668 34.946 75.377 35.058 75.9665 35.058C76.6939 35.058 77.361 34.9253 77.9678 34.6581V36.1631C77.3145 36.4389 76.5043 36.5769 75.539 36.5769C74.4341 36.5769 73.5188 36.2683 72.7931 35.6528C72.0656 35.0356 71.7019 34.1754 71.7019 33.072L71.7002 33.0686ZM76.5716 32.4479C76.6181 32.1445 76.5302 31.8308 76.3095 31.5101C76.0889 31.1877 75.7114 31.0274 75.177 31.0274C74.753 31.0274 74.391 31.1532 74.0859 31.4067C73.7825 31.6601 73.6256 32.0066 73.617 32.4497H76.5698L76.5716 32.4479Z" fill="black"/>
<path d="M82.9353 36.3821H81.0306V31.3722H78.9189V29.7568H85.0469V31.3722H82.9353V36.3821Z" fill="black"/>
<path d="M91.065 36.3821H89.1465V29.7568H91.065V32.2687H93.742V29.7568H95.6606V36.3821H93.742V33.8702H91.065V36.3821Z" fill="black"/>
<path d="M96.917 33.0686C96.917 32.4704 97.0221 31.9394 97.2342 31.4739C97.4462 31.0084 97.7237 30.6429 98.0685 30.3757C98.4132 30.1085 98.7769 29.9068 99.1596 29.7689C99.5406 29.631 99.9301 29.562 100.327 29.562C100.989 29.562 101.563 29.6861 102.045 29.9344C102.528 30.1826 102.885 30.5033 103.116 30.8946C103.345 31.286 103.504 31.7273 103.591 32.2204C103.679 32.7134 103.653 33.203 103.516 33.6909H98.8511C98.9528 34.1512 99.2182 34.4943 99.6509 34.7201C100.084 34.946 100.594 35.058 101.183 35.058C101.911 35.058 102.578 34.9253 103.185 34.6581V36.1631C102.531 36.4389 101.721 36.5769 100.756 36.5769C99.6509 36.5769 98.7356 36.2683 98.0099 35.6528C97.2824 35.0356 96.9187 34.1754 96.9187 33.072L96.917 33.0686ZM101.788 32.4479C101.835 32.1445 101.747 31.8308 101.526 31.5101C101.306 31.1877 100.928 31.0274 100.394 31.0274C99.9698 31.0274 99.6078 31.1532 99.3027 31.4067C98.9993 31.6601 98.8424 32.0066 98.8338 32.4497H101.787L101.788 32.4479Z" fill="black"/>
<path d="M105.97 38.1356H104.203V34.9187H105.127C105.817 33.7222 106.139 32.0017 106.092 29.7554H111.545V34.9187H112.539V38.1356H110.772V36.3823H105.97V38.1356ZM107.861 31.219C107.806 32.7292 107.558 33.9619 107.116 34.9187H109.642V31.219H107.861Z" fill="black"/>
<path d="M117.785 36.3821H113.727V29.7568H117.674C118.411 29.7568 118.959 29.9258 119.317 30.2602C119.676 30.5964 119.855 31.0119 119.855 31.5101C119.855 32.2652 119.514 32.7703 118.833 33.0289C119.615 33.2875 120.007 33.8064 120.007 34.5891C120.007 35.1132 119.833 35.5442 119.483 35.8804C119.133 36.2166 118.567 36.3838 117.785 36.3838V36.3821ZM115.632 31.0671V32.4755H117.095C117.647 32.4755 117.923 32.2463 117.923 31.786C117.923 31.3257 117.642 31.0688 117.081 31.0688H115.632V31.0671ZM115.646 33.634V35.0701H117.219C117.809 35.0701 118.102 34.8357 118.102 34.3667C118.102 33.8978 117.807 33.6358 117.219 33.6358H115.646V33.634Z" fill="black"/>
<path d="M122.976 36.3821H121.305V29.7568H123.224V33.4841L126.177 29.7568H127.833V36.3821H125.928V32.6548L122.974 36.3821H122.976Z" fill="black"/>
<path d="M139.482 36.3823H137.425L135.783 33.9119H135.038V36.3823H133.119V33.9119H132.375L130.732 36.3823H128.676L130.966 33.0551L128.869 29.7554H130.911L132.499 32.3913H133.119V29.7554H135.038V32.3913H135.659L137.246 29.7554H139.289L137.191 33.0551L139.482 36.3823Z" fill="black"/>
<path d="M141.994 36.3821H140.323V29.7568H142.242V33.4841L145.195 29.7568H146.851V36.3821H144.946V32.6548L141.992 36.3821H141.994Z" fill="black"/>
<path d="M150.344 36.3821H148.48V29.7568H150.316L152.372 33.0427L154.443 29.7568H156.265V36.3821H154.415V32.4755L152.855 34.946H151.904L150.344 32.4755V36.3821Z" fill="black"/>
<path d="M158.583 35.6511C157.874 35.0339 157.519 34.1736 157.519 33.0703C157.519 31.9669 157.872 31.1049 158.583 30.4895C159.291 29.8723 160.156 29.5654 161.177 29.5654C162.197 29.5654 163.075 29.874 163.778 30.4895C164.481 31.1067 164.835 31.9669 164.835 33.0703C164.835 34.1736 164.483 35.0356 163.778 35.6511C163.075 36.2682 162.206 36.5751 161.177 36.5751C160.148 36.5751 159.291 36.2665 158.583 35.6511ZM162.433 34.3598C162.737 34.0236 162.889 33.5944 162.889 33.0685C162.889 32.5427 162.737 32.1135 162.433 31.7773C162.13 31.4411 161.711 31.2739 161.177 31.2739C160.643 31.2739 160.227 31.4411 159.927 31.7773C159.627 32.1135 159.479 32.5427 159.479 33.0685C159.479 33.5944 159.629 34.0236 159.927 34.3598C160.225 34.696 160.643 34.8632 161.177 34.8632C161.711 34.8632 162.128 34.696 162.433 34.3598Z" fill="black"/>
<path d="M165.719 33.1652C165.719 32.5584 165.828 32.0153 166.043 31.5361C166.259 31.0568 166.547 30.6775 166.905 30.3965C167.264 30.1155 167.66 29.9035 168.093 29.7621C168.526 29.619 168.981 29.5483 169.46 29.5483C170.223 29.5483 170.904 29.7087 171.502 30.031V31.7154C170.987 31.3844 170.398 31.2189 169.736 31.2189C169.156 31.2189 168.669 31.3706 168.272 31.674C167.876 31.9774 167.679 32.4429 167.679 33.0687C167.679 33.6945 167.877 34.1238 168.272 34.4427C168.667 34.7599 169.146 34.9185 169.708 34.9185C170.417 34.9185 171.037 34.7582 171.571 34.4358V36.1339C170.882 36.4287 170.136 36.5752 169.336 36.5752C168.341 36.5752 167.491 36.2839 166.783 35.6995C166.074 35.115 165.719 34.2703 165.719 33.167V33.1652Z" fill="black"/>
<path d="M176.319 36.3821H174.414V31.3722H172.302V29.7568H178.43V31.3722H176.319V36.3821Z" fill="black"/>
<path d="M181.136 36.3821H179.466V29.7568H181.385V33.4841L184.337 29.7568H185.994V36.3821H184.089V32.6548L181.135 36.3821H181.136Z" fill="black"/>
</svg>
