<svg width="65" height="65" viewBox="0 0 65 65" fill="none" xmlns="http://www.w3.org/2000/svg">
<path d="M11.7203 0.35498C5.63459 0.35498 0.701172 5.2884 0.701172 11.3741V53.4348C0.701172 58.2743 3.38876 62.8473 8.15922 63.8657C9.58494 64.1701 11.0306 63.4608 12.5211 62.7296C13.9106 62.0479 15.339 61.347 16.8267 61.4303C18.1132 61.5023 19.3196 62.2126 20.5333 62.9271C21.8906 63.7261 23.2571 64.5306 24.755 64.4538C28.7192 64.2508 30.3032 59.699 30.6005 55.4854V49.0674C26.0988 55.1145 20.3877 55.988 18.1705 55.9208C18.1033 54.1738 18.0361 51.9342 18.0361 51.0159C26.8379 51.0159 30.7349 42.6844 30.7349 40.6015V37.9812C29.3687 39.8849 25.3329 43.6923 20.119 43.6923C20.119 42.541 20.0965 41.1841 20.0775 40.0413C20.0637 39.2098 20.0518 38.4916 20.0518 38.0483C26.9723 38.0483 30.8693 32.1357 30.8693 28.9777V27.4996C29.7943 28.933 26.5423 31.7997 22.1347 31.7997C22.109 31.0298 22.0833 30.3383 22.0614 29.7477C22.0259 28.792 22.0003 28.1005 22.0003 27.7683C28.5849 27.7683 31.0709 21.1838 31.0709 19.6384V17.9587C30.0406 19.0785 27.2007 21.3181 24.0831 21.3181C24.0831 19.3293 23.9936 17.13 23.9488 16.2789C30.1974 16.2789 31.1381 10.4334 31.1381 9.22401H32.6834H34.1616C34.1616 10.4334 35.1022 16.2789 41.3509 16.2789C41.3061 17.13 41.2165 19.3293 41.2165 21.3181C38.0989 21.3181 35.259 19.0785 34.2288 17.9587V19.6384C34.2288 21.1838 36.7148 27.7683 43.2994 27.7683C43.2994 28.1005 43.2737 28.792 43.2383 29.7477C43.2163 30.3383 43.1907 31.0298 43.165 31.7997C38.7573 31.7997 35.5054 28.933 34.4303 27.4996V28.9777C34.4303 32.1357 38.3273 38.0483 45.2479 38.0483C45.2479 38.4916 45.236 39.2098 45.2222 40.0413C45.2032 41.1841 45.1807 42.541 45.1807 43.6923C39.9668 43.6923 35.9309 39.8849 34.5647 37.9812V40.6015C34.5647 42.6844 38.4617 51.0159 47.2636 51.0159C47.2636 51.9342 47.1964 54.1738 47.1292 55.9208C44.9119 55.988 39.2008 55.1145 34.6991 49.0674C34.6991 51.2175 34.7663 53.1982 34.7663 55.5176C35.5098 64.2466 38.7816 64.4538 40.8805 64.4538C42.2915 64.4538 43.4716 63.712 44.8379 62.955C46.2893 62.1509 47.7714 61.3299 49.2121 61.3631C50.4346 61.3914 51.6265 62.0276 52.8211 62.6654C54.2598 63.4334 55.7025 64.2036 57.2076 63.9163C62.65 62.8775 64.8 58.4475 64.8 53.4348V11.3741C64.8 5.2884 59.8666 0.35498 53.7809 0.35498H11.7203Z" fill="#344532"/>
</svg>
