<svg width="17" height="24" viewBox="0 0 17 24" fill="none" xmlns="http://www.w3.org/2000/svg">
<path d="M8.7902 11.356C8.01919 11.356 7.27977 11.0497 6.73459 10.5045C6.1894 9.95932 5.88312 9.21989 5.88312 8.44889C5.88312 7.67789 6.1894 6.93846 6.73459 6.39328C7.27977 5.8481 8.01919 5.54182 8.7902 5.54182C9.5612 5.54182 10.3006 5.8481 10.8458 6.39328C11.391 6.93846 11.6973 7.67789 11.6973 8.44889C11.6973 8.83065 11.6221 9.20868 11.476 9.56138C11.3299 9.91408 11.1158 10.2346 10.8458 10.5045C10.5759 10.7744 10.2554 10.9886 9.90269 11.1347C9.54998 11.2808 9.17196 11.356 8.7902 11.356ZM8.7902 0.309082C6.63139 0.309082 4.56099 1.16667 3.03448 2.69318C1.50797 4.21969 0.650391 6.29008 0.650391 8.44889C0.650391 14.5537 8.7902 23.5657 8.7902 23.5657C8.7902 23.5657 16.93 14.5537 16.93 8.44889C16.93 6.29008 16.0724 4.21969 14.5459 2.69318C13.0194 1.16667 10.949 0.309082 8.7902 0.309082Z" fill="white"/>
</svg>
