<svg width="49" height="51" viewBox="0 0 49 51" fill="none" xmlns="http://www.w3.org/2000/svg">
<path fill-rule="evenodd" clip-rule="evenodd" d="M47.8772 50.8254H0.728623C0.454066 50.8254 0.233032 50.6034 0.233032 50.3298V0.574448C0.233032 0.300882 0.454066 0.0788574 0.728623 0.0788574H47.8772C48.1517 0.0788574 48.3728 0.300882 48.3728 0.574448V50.3298C48.3728 50.6034 48.1507 50.8254 47.8772 50.8254ZM1.22421 49.8342H47.3816V1.07004H1.22421V49.8342Z" fill="#117169"/>
<path fill-rule="evenodd" clip-rule="evenodd" d="M47.8772 3.77696H0.728623C0.454066 3.77696 0.233032 3.55493 0.233032 3.28137C0.233032 3.0078 0.454066 2.78578 0.728623 2.78578H47.8772C48.1517 2.78578 48.3728 3.0078 48.3728 3.28137C48.3728 3.55493 48.1517 3.77696 47.8772 3.77696Z" fill="#117169"/>
<path fill-rule="evenodd" clip-rule="evenodd" d="M47.8772 7.15689H0.728623C0.454066 7.15689 0.233032 6.93486 0.233032 6.6613C0.233032 6.38773 0.454066 6.16571 0.728623 6.16571H47.8772C48.1517 6.16571 48.3728 6.38773 48.3728 6.6613C48.3728 6.93486 48.1517 7.15689 47.8772 7.15689Z" fill="#117169"/>
<path fill-rule="evenodd" clip-rule="evenodd" d="M36.7839 50.8254H4.02133C3.74776 50.8254 3.52574 50.6034 3.52574 50.3298V11.1484C3.52574 10.8748 3.74776 10.6528 4.02133 10.6528H36.7839C37.0574 10.6528 37.2785 10.8748 37.2785 11.1484V50.3298C37.2795 50.6034 37.0574 50.8254 36.7839 50.8254ZM4.51692 49.8342H36.2883V11.644H4.51692V49.8342Z" fill="#117169"/>
<path fill-rule="evenodd" clip-rule="evenodd" d="M33.4555 47.497H7.34972C7.07615 47.497 6.85413 47.275 6.85413 47.0014V14.4768C6.85413 14.2032 7.07615 13.9812 7.34972 13.9812H33.4555C33.729 13.9812 33.9511 14.2032 33.9511 14.4768V47.0014C33.9511 47.275 33.729 47.497 33.4555 47.497ZM7.84531 46.5058H32.9599V14.9724H7.84531V46.5058Z" fill="#117169"/>
<path fill-rule="evenodd" clip-rule="evenodd" d="M22.049 47.497H18.7562C18.4827 47.497 18.2607 47.275 18.2607 47.0014V14.4768C18.2607 14.2032 18.4827 13.9812 18.7562 13.9812H22.049C22.3235 13.9812 22.5445 14.2032 22.5445 14.4768V47.0014C22.5445 47.275 22.3235 47.497 22.049 47.497ZM19.2518 46.5058H21.5534V14.9724H19.2518V46.5058Z" fill="#117169"/>
<path fill-rule="evenodd" clip-rule="evenodd" d="M13.0163 34.1815C12.7427 34.1815 12.5207 33.9594 12.5207 33.6859V27.7923C12.5207 27.5187 12.7427 27.2967 13.0163 27.2967C13.2909 27.2967 13.5119 27.5187 13.5119 27.7923V33.6859C13.5119 33.9594 13.2909 34.1815 13.0163 34.1815Z" fill="#117169"/>
<path fill-rule="evenodd" clip-rule="evenodd" d="M15.5299 30.3684C15.4189 30.3684 15.3069 30.3307 15.2147 30.2544L13.0163 28.4356L10.8189 30.2544C10.6087 30.4289 10.2955 30.3991 10.1211 30.189C9.94662 29.9779 9.97635 29.6656 10.1875 29.4902L12.7011 27.4107C12.8845 27.2591 13.1491 27.2591 13.3325 27.4107L15.8461 29.4902C16.0573 29.6656 16.087 29.9779 15.9125 30.189C15.8144 30.3069 15.6727 30.3684 15.5299 30.3684Z" fill="#117169"/>
<path fill-rule="evenodd" clip-rule="evenodd" d="M27.7889 34.1815C27.5153 34.1815 27.2933 33.9594 27.2933 33.6859V27.7923C27.2933 27.5177 27.5153 27.2967 27.7889 27.2967C28.0625 27.2967 28.2845 27.5177 28.2845 27.7923V33.6859C28.2845 33.9594 28.0625 34.1815 27.7889 34.1815Z" fill="#117169"/>
<path fill-rule="evenodd" clip-rule="evenodd" d="M27.7889 34.1815C27.6769 34.1815 27.5649 34.1438 27.4727 34.0675L24.9591 31.987C24.7479 31.8125 24.7192 31.5003 24.8936 31.2892C25.0681 31.0791 25.3803 31.0493 25.5914 31.2238L27.7889 33.0426L29.9863 31.2238C30.1975 31.0493 30.5097 31.0791 30.6841 31.2892C30.8586 31.5003 30.8298 31.8125 30.6187 31.987L28.1051 34.0675C28.0129 34.1438 27.9009 34.1815 27.7889 34.1815Z" fill="#117169"/>
<path fill-rule="evenodd" clip-rule="evenodd" d="M44.521 29.2196C44.521 29.2196 44.52 29.2196 44.519 29.2196H39.4273C39.247 29.2196 39.0804 29.1215 38.9932 28.9629C38.906 28.8053 38.9119 28.612 39.0081 28.4594L41.6079 24.342C41.6991 24.1983 41.8577 24.1111 42.0272 24.1111H42.0322C42.2036 24.113 42.3622 24.2032 42.4514 24.3499L44.9225 28.4326C44.9819 28.5149 45.0166 28.615 45.0166 28.724C45.0166 28.9976 44.7946 29.2196 44.521 29.2196ZM40.3263 28.2284H43.6399L42.0183 25.5493L40.3263 28.2284Z" fill="#117169"/>
<path fill-rule="evenodd" clip-rule="evenodd" d="M42.0272 37.3671C41.8577 37.3671 41.6991 37.2799 41.6079 37.1362L39.0081 33.0188C38.9119 32.8662 38.906 32.6729 38.9932 32.5153C39.0804 32.3567 39.247 32.2586 39.4273 32.2586H44.519C44.6985 32.2586 44.863 32.3547 44.9512 32.5113C45.0384 32.6669 45.0355 32.8582 44.9433 33.0109L42.4514 37.1283C42.3622 37.2749 42.2036 37.3651 42.0322 37.3671C42.0302 37.3671 42.0292 37.3671 42.0272 37.3671ZM40.3263 33.2498L42.0183 35.9289L43.6399 33.2498H40.3263Z" fill="#117169"/>
</svg>
