<svg width="74" height="51" viewBox="0 0 74 51" fill="none" xmlns="http://www.w3.org/2000/svg">
<path fill-rule="evenodd" clip-rule="evenodd" d="M21.5603 31.6918C21.1417 31.6918 20.739 31.4604 20.5393 31.0604C20.2582 30.4972 20.487 29.8126 21.0505 29.5316L66.212 6.99878C66.6284 6.79097 66.7984 6.28293 66.5906 5.86673L65.1855 3.05025C65.0847 2.84838 64.9118 2.69797 64.6978 2.62652C64.4839 2.55508 64.2549 2.57111 64.053 2.67165L19.4903 24.9062C18.9269 25.1872 18.2425 24.9586 17.9613 24.3952C17.6802 23.8319 17.9088 23.1474 18.4723 22.8661L63.0354 0.63138C63.7823 0.258911 64.6293 0.199538 65.4206 0.463947C66.2122 0.728555 66.8533 1.28548 67.2257 2.03239L68.6307 4.84847C69.3998 6.38921 68.7716 8.26917 67.2301 9.03865L22.0685 31.5714C21.905 31.653 21.7313 31.6918 21.5603 31.6918Z" fill="#117169"/>
<path fill-rule="evenodd" clip-rule="evenodd" d="M60.5191 12.2735C60.3008 12.2735 60.0803 12.211 59.8854 12.0804L53.0757 7.51632C52.5528 7.16582 52.4129 6.45769 52.7634 5.93481C53.1139 5.41173 53.822 5.272 54.3451 5.62251L61.1548 10.1865C61.6777 10.537 61.8176 11.2452 61.4671 11.7682C61.2472 12.0962 60.8866 12.2735 60.5191 12.2735Z" fill="#117169"/>
<path fill-rule="evenodd" clip-rule="evenodd" d="M50.6517 17.1968C50.4334 17.1968 50.2129 17.1342 50.0179 17.0036L43.2082 12.4396C42.6853 12.0891 42.5454 11.3809 42.8959 10.858C43.2464 10.3352 43.9543 10.1952 44.4776 10.5457L51.2873 15.1098C51.8102 15.4603 51.9502 16.1684 51.5997 16.6915C51.3798 17.0194 51.019 17.1968 50.6517 17.1968Z" fill="#117169"/>
<path fill-rule="evenodd" clip-rule="evenodd" d="M40.784 22.1202C40.5657 22.1202 40.3452 22.0577 40.1503 21.927L33.3406 17.363C32.8175 17.0125 32.6777 16.3044 33.0283 15.7815C33.3788 15.2584 34.0869 15.1187 34.6098 15.4692L41.4195 20.0332C41.9424 20.3837 42.0823 21.0918 41.7318 21.6149C41.5121 21.9429 41.1515 22.1202 40.784 22.1202Z" fill="#117169"/>
<path fill-rule="evenodd" clip-rule="evenodd" d="M30.683 27.1598C30.4647 27.1598 30.2442 27.0973 30.0493 26.9666L23.2396 22.4026C22.7165 22.0521 22.5768 21.344 22.9273 20.8211C23.2778 20.298 23.9859 20.1583 24.5088 20.5088L31.3185 25.0728C31.8416 25.4233 31.9813 26.1315 31.6308 26.6543C31.4111 26.9825 31.0505 27.1598 30.683 27.1598Z" fill="#117169"/>
<path fill-rule="evenodd" clip-rule="evenodd" d="M21.5593 45.9382C20.9297 45.9382 20.4193 45.4278 20.4193 44.7983V29.2585C20.4193 26.0909 17.8423 23.5139 14.6748 23.5139C13.1401 23.5139 11.6978 24.1114 10.6132 25.1963C9.54964 26.2595 8.95235 27.6718 8.93077 29.1739L8.93038 44.7983C8.93038 45.4278 8.41996 45.9382 7.79041 45.9382C7.16085 45.9382 6.65044 45.4278 6.65044 44.7983L6.65084 29.1664C6.65084 29.1615 6.65084 29.1565 6.65103 29.1516C6.67854 27.049 7.51314 25.0718 9.00103 23.5845C10.516 22.0689 12.5312 21.2341 14.6748 21.2341C19.0995 21.2341 22.6993 24.834 22.6993 29.2587V44.7985C22.6993 45.4278 22.1889 45.9382 21.5593 45.9382Z" fill="#117169"/>
<path fill-rule="evenodd" clip-rule="evenodd" d="M23.2673 50.8638C22.6377 50.8638 22.1273 50.3534 22.1273 49.7239V45.9382H7.2224V49.7239C7.2224 50.3534 6.71199 50.8638 6.08244 50.8638C5.45288 50.8638 4.94247 50.3534 4.94247 49.7239V44.7983C4.94247 44.1687 5.45288 43.6583 6.08244 43.6583H23.2673C23.8968 43.6583 24.4072 44.1687 24.4072 44.7983V49.7239C24.4072 50.3534 23.8968 50.8638 23.2673 50.8638Z" fill="#117169"/>
<path fill-rule="evenodd" clip-rule="evenodd" d="M14.6749 33.1771C12.8225 33.1771 11.3156 31.67 11.3156 29.8178C11.3156 27.9653 12.8227 26.4584 14.6749 26.4584C16.5272 26.4584 18.0343 27.9655 18.0343 29.8178C18.0341 31.67 16.5272 33.1771 14.6749 33.1771ZM14.6749 28.7381C14.0796 28.7381 13.5955 29.2224 13.5955 29.8176C13.5955 30.4129 14.0798 30.897 14.6749 30.897C15.2703 30.897 15.7544 30.4127 15.7544 29.8176C15.7544 29.2224 15.2701 28.7381 14.6749 28.7381Z" fill="#117169"/>
<path fill-rule="evenodd" clip-rule="evenodd" d="M66.7666 50.8638C66.137 50.8638 65.6266 50.3534 65.6266 49.7239V29.4419H61.7343V49.7239C61.7343 50.3534 61.2239 50.8638 60.5943 50.8638C59.9648 50.8638 59.4544 50.3534 59.4544 49.7239V28.302C59.4544 27.6724 59.9648 27.162 60.5943 27.162H66.7666C67.3961 27.162 67.9065 27.6724 67.9065 28.302V49.7239C67.9065 50.3534 67.3963 50.8638 66.7666 50.8638Z" fill="#117169"/>
<path fill-rule="evenodd" clip-rule="evenodd" d="M72.2901 50.8638H1.61201C0.982459 50.8638 0.472046 50.3534 0.472046 49.7239C0.472046 49.0943 0.982459 48.5839 1.61201 48.5839H72.2901C72.9196 48.5839 73.4301 49.0943 73.4301 49.7239C73.4301 50.3534 72.9196 50.8638 72.2901 50.8638Z" fill="#117169"/>
</svg>
