<svg width="48" height="47" viewBox="0 0 48 47" fill="none" xmlns="http://www.w3.org/2000/svg">
<mask id="path-1-inside-1_22_2992" fill="white">
<path d="M46.7861 16.6895H46.7737L27.9595 8.40349V5.82024H28.7033C29.0563 5.82208 29.3995 5.70421 29.6769 5.48587C29.9543 5.26753 30.1495 4.96161 30.2306 4.61806C30.3117 4.2745 30.274 3.91359 30.1236 3.59423C29.9731 3.27488 29.7189 3.01594 29.4024 2.85969L24.8007 0.582758C24.5832 0.475791 24.344 0.420166 24.1016 0.420166C23.8592 0.420166 23.6201 0.475791 23.4026 0.582758L18.8009 2.85969C18.4843 3.01594 18.2301 3.27488 18.0797 3.59423C17.9293 3.91359 17.8915 4.2745 17.9727 4.61806C18.0538 4.96161 18.249 5.26753 18.5263 5.48587C18.8037 5.70421 19.1469 5.82208 19.4999 5.82024H20.2437V8.40349L1.42799 16.6825H1.41564C1.27767 16.7431 1.16046 16.8427 1.07846 16.9692C0.996466 17.0956 0.953282 17.2432 0.954239 17.3939V19.7087C0.954239 20.1179 1.11682 20.5104 1.40622 20.7998C1.69562 21.0892 2.08813 21.2518 2.4974 21.2518H3.26898V41.3129H2.4974C2.08813 41.3129 1.69562 41.4755 1.40622 41.7649C1.11682 42.0543 0.954239 42.4468 0.954239 42.856V45.1708C0.954239 45.5801 1.11682 45.9726 1.40622 46.262C1.69562 46.5514 2.08813 46.7139 2.4974 46.7139H45.7058C46.1151 46.7139 46.5076 46.5514 46.797 46.262C47.0864 45.9726 47.249 45.5801 47.249 45.1708V42.856C47.249 42.4468 47.0864 42.0543 46.797 41.7649C46.5076 41.4755 46.1151 41.3129 45.7058 41.3129H44.9343V21.2518H45.7058C46.1151 21.2518 46.5076 21.0892 46.797 20.7998C47.0864 20.5104 47.249 20.1179 47.249 19.7087V17.3939C47.2485 17.2443 47.2044 17.098 47.1222 16.9729C47.04 16.8478 46.9232 16.7493 46.7861 16.6895ZM27.0259 9.67813L42.8086 16.6223H5.39468L21.1773 9.67813H27.0259ZM19.4853 4.24313L24.1147 1.9662L28.7157 4.24313L28.7033 4.27708L19.4853 4.24313ZM26.4164 5.82024V8.13498H21.7869V5.82024H26.4164ZM4.81214 21.2518H6.3553V41.3129H4.81214V21.2518ZM37.9901 41.3129V32.0539H40.3048V41.3129H37.9901ZM34.1322 32.0539H36.4469V41.3129H34.1322V32.0539ZM40.3048 30.5108H34.1322V21.2518H40.3048V30.5108ZM32.589 41.3129H31.0458V21.2518H32.589V41.3129ZM29.5027 41.3129H18.7006V21.2518H29.5027V41.3129ZM17.1574 41.3129H15.6142V21.2518H17.1574V41.3129ZM7.89845 32.0539H10.2132V41.3129H7.89845V32.0539ZM11.7564 32.0539H14.0711V41.3129H11.7564V32.0539ZM14.0711 30.5108H7.89845V21.2518H14.0711V30.5108ZM45.7058 45.1708H2.4974V42.856H45.7058V45.1708ZM43.3911 41.3129H41.8479V21.2518H43.3911V41.3129ZM2.4974 19.7087V18.1655H45.7058V19.7087H2.4974Z"/>
</mask>
<path d="M46.7861 16.6895H46.7737L27.9595 8.40349V5.82024H28.7033C29.0563 5.82208 29.3995 5.70421 29.6769 5.48587C29.9543 5.26753 30.1495 4.96161 30.2306 4.61806C30.3117 4.2745 30.274 3.91359 30.1236 3.59423C29.9731 3.27488 29.7189 3.01594 29.4024 2.85969L24.8007 0.582758C24.5832 0.475791 24.344 0.420166 24.1016 0.420166C23.8592 0.420166 23.6201 0.475791 23.4026 0.582758L18.8009 2.85969C18.4843 3.01594 18.2301 3.27488 18.0797 3.59423C17.9293 3.91359 17.8915 4.2745 17.9727 4.61806C18.0538 4.96161 18.249 5.26753 18.5263 5.48587C18.8037 5.70421 19.1469 5.82208 19.4999 5.82024H20.2437V8.40349L1.42799 16.6825H1.41564C1.27767 16.7431 1.16046 16.8427 1.07846 16.9692C0.996466 17.0956 0.953282 17.2432 0.954239 17.3939V19.7087C0.954239 20.1179 1.11682 20.5104 1.40622 20.7998C1.69562 21.0892 2.08813 21.2518 2.4974 21.2518H3.26898V41.3129H2.4974C2.08813 41.3129 1.69562 41.4755 1.40622 41.7649C1.11682 42.0543 0.954239 42.4468 0.954239 42.856V45.1708C0.954239 45.5801 1.11682 45.9726 1.40622 46.262C1.69562 46.5514 2.08813 46.7139 2.4974 46.7139H45.7058C46.1151 46.7139 46.5076 46.5514 46.797 46.262C47.0864 45.9726 47.249 45.5801 47.249 45.1708V42.856C47.249 42.4468 47.0864 42.0543 46.797 41.7649C46.5076 41.4755 46.1151 41.3129 45.7058 41.3129H44.9343V21.2518H45.7058C46.1151 21.2518 46.5076 21.0892 46.797 20.7998C47.0864 20.5104 47.249 20.1179 47.249 19.7087V17.3939C47.2485 17.2443 47.2044 17.098 47.1222 16.9729C47.04 16.8478 46.9232 16.7493 46.7861 16.6895ZM27.0259 9.67813L42.8086 16.6223H5.39468L21.1773 9.67813H27.0259ZM19.4853 4.24313L24.1147 1.9662L28.7157 4.24313L28.7033 4.27708L19.4853 4.24313ZM26.4164 5.82024V8.13498H21.7869V5.82024H26.4164ZM4.81214 21.2518H6.3553V41.3129H4.81214V21.2518ZM37.9901 41.3129V32.0539H40.3048V41.3129H37.9901ZM34.1322 32.0539H36.4469V41.3129H34.1322V32.0539ZM40.3048 30.5108H34.1322V21.2518H40.3048V30.5108ZM32.589 41.3129H31.0458V21.2518H32.589V41.3129ZM29.5027 41.3129H18.7006V21.2518H29.5027V41.3129ZM17.1574 41.3129H15.6142V21.2518H17.1574V41.3129ZM7.89845 32.0539H10.2132V41.3129H7.89845V32.0539ZM11.7564 32.0539H14.0711V41.3129H11.7564V32.0539ZM14.0711 30.5108H7.89845V21.2518H14.0711V30.5108ZM45.7058 45.1708H2.4974V42.856H45.7058V45.1708ZM43.3911 41.3129H41.8479V21.2518H43.3911V41.3129ZM2.4974 19.7087V18.1655H45.7058V19.7087H2.4974Z" fill="#117169" stroke="#117169" stroke-width="1.07493" mask="url(#path-1-inside-1_22_2992)"/>
</svg>
