<svg width="60" height="51" viewBox="0 0 60 51" fill="none" xmlns="http://www.w3.org/2000/svg">
<path d="M30.2421 50.9863C29.8721 50.9863 29.572 50.6864 29.572 50.3162V28.8673C29.572 28.6987 29.4295 28.5562 29.2608 28.5562H6.69039C6.52179 28.5562 6.37919 28.6987 6.37919 28.8673V50.3162C6.37919 50.6864 6.07911 50.9863 5.70908 50.9863C5.33904 50.9863 5.03896 50.6864 5.03896 50.3162V28.8673C5.03896 27.9567 5.77971 27.216 6.69039 27.216H29.2608C30.1714 27.216 30.9122 27.9567 30.9122 28.8673V50.3162C30.9124 50.6864 30.6122 50.9863 30.2421 50.9863Z" fill="#117169"/>
<path d="M27.3683 28.5562C26.9982 28.5562 26.6982 28.2563 26.6982 27.8861V13.9765H9.25305V27.8861C9.25305 28.2563 8.95297 28.5562 8.58293 28.5562C8.2129 28.5562 7.91282 28.2563 7.91282 27.8861V13.3064C7.91282 12.9364 8.2129 12.6363 8.58293 12.6363H27.3683C27.7383 12.6363 28.0384 12.9364 28.0384 13.3064V27.8861C28.0384 28.2561 27.7384 28.5562 27.3683 28.5562Z" fill="#117169"/>
<path d="M8.5824 13.9766C8.45159 13.9766 8.31944 13.9385 8.20338 13.8587C7.89848 13.6491 7.82101 13.2319 8.03062 12.927L16.0038 1.32447C16.5041 0.596327 17.2229 0.178711 17.9755 0.178711C18.7282 0.178711 19.447 0.596327 19.9473 1.32447L27.9204 12.927C28.1301 13.232 28.0527 13.6491 27.7477 13.8587C27.4428 14.0683 27.0254 13.9911 26.816 13.686L18.8428 2.08345C18.5926 1.71944 18.2846 1.51894 17.9755 1.51894C17.6665 1.51894 17.3585 1.71944 17.1083 2.08345L9.13511 13.686C9.00537 13.8749 8.79563 13.9766 8.5824 13.9766Z" fill="#117169"/>
<path d="M23.5131 28.5562C23.1431 28.5562 22.843 28.2563 22.843 27.8861V21.4364C22.843 18.7526 20.6595 16.5691 17.9757 16.5691C15.2919 16.5691 13.1084 18.7526 13.1084 21.4364V27.8861C13.1084 28.2563 12.8083 28.5562 12.4382 28.5562C12.0682 28.5562 11.7681 28.2563 11.7681 27.8861V21.4364C11.7681 18.0136 14.5529 15.2288 17.9757 15.2288C21.3986 15.2288 24.1832 18.0136 24.1832 21.4364V27.8861C24.1832 28.2561 23.8831 28.5562 23.5131 28.5562Z" fill="#117169"/>
<path d="M23.5131 50.9863C23.1431 50.9863 22.843 50.6864 22.843 50.3162V28.5562H13.1084V50.3162C13.1084 50.6864 12.8083 50.9863 12.4382 50.9863C12.0682 50.9863 11.7681 50.6864 11.7681 50.3162V27.8861C11.7681 27.5159 12.0682 27.216 12.4382 27.216H23.5131C23.8831 27.216 24.1832 27.5159 24.1832 27.8861V50.3162C24.1832 50.6864 23.8831 50.9863 23.5131 50.9863Z" fill="#117169"/>
<path d="M42.1408 50.9272C41.8716 50.9272 41.6177 50.7638 41.5152 50.4975L33.0882 28.5849H27.3683C26.9982 28.5849 26.6982 28.2849 26.6982 27.9148V23.4288C26.6982 23.0587 26.9982 22.7586 27.3683 22.7586H36.2949C36.5722 22.7586 36.8208 22.9294 36.9204 23.1882L45.3475 45.1008H53.3001C53.6703 45.1008 53.9702 45.4008 53.9702 45.7709V50.2571C53.9702 50.6273 53.6703 50.9272 53.3001 50.9272C52.9299 50.9272 52.63 50.6273 52.63 50.2571V46.441H44.8874C44.6101 46.441 44.3614 46.2703 44.2619 46.0115L35.8348 24.0989H28.0385V27.2447H33.5486C33.8259 27.2447 34.0745 27.4154 34.1741 27.6742L42.7662 50.0164C42.899 50.3618 42.7266 50.7496 42.3813 50.8824C42.3022 50.9127 42.2208 50.9272 42.1408 50.9272Z" fill="#117169"/>
<path d="M59.2186 50.9863H1.32063C0.95059 50.9863 0.650513 50.6864 0.650513 50.3162C0.650513 49.946 0.95059 49.6461 1.32063 49.6461H59.2186C59.5887 49.6461 59.8887 49.946 59.8887 50.3162C59.8887 50.6864 59.5886 50.9863 59.2186 50.9863Z" fill="#117169"/>
<path d="M23.5131 33.4627H12.4382C12.0682 33.4627 11.7681 33.1627 11.7681 32.7925C11.7681 32.4224 12.0682 32.1224 12.4382 32.1224H23.5131C23.8831 32.1224 24.1832 32.4224 24.1832 32.7925C24.1832 33.1627 23.8831 33.4627 23.5131 33.4627Z" fill="#117169"/>
<path d="M23.5131 39.7711H12.4382C12.0682 39.7711 11.7681 39.4712 11.7681 39.101C11.7681 38.7308 12.0682 38.4309 12.4382 38.4309H23.5131C23.8831 38.4309 24.1832 38.7308 24.1832 39.101C24.1832 39.4712 23.8831 39.7711 23.5131 39.7711Z" fill="#117169"/>
<path d="M23.5131 46.0797H12.4382C12.0682 46.0797 11.7681 45.7798 11.7681 45.4096C11.7681 45.0394 12.0682 44.7395 12.4382 44.7395H23.5131C23.8831 44.7395 24.1832 45.0394 24.1832 45.4096C24.1832 45.7798 23.8831 46.0797 23.5131 46.0797Z" fill="#117169"/>
<path d="M17.9757 11.7323C16.2147 11.7323 14.782 10.2997 14.782 8.5388C14.782 6.77787 16.2146 5.3453 17.9757 5.3453C19.7366 5.3453 21.1692 6.77787 21.1692 8.5388C21.1692 10.2997 19.7366 11.7323 17.9757 11.7323ZM17.9757 6.68553C16.9537 6.68553 16.1223 7.51687 16.1223 8.5388C16.1223 9.56072 16.9537 10.3921 17.9757 10.3921C18.9976 10.3921 19.8289 9.56072 19.8289 8.5388C19.8289 7.51687 18.9976 6.68553 17.9757 6.68553Z" fill="#117169"/>
<path d="M48.9737 18.6368H35.5352C33.3831 18.6368 31.6322 16.8859 31.6322 14.7337C31.6322 12.66 33.258 10.9589 35.3019 10.8377C35.6177 9.00051 37.2223 7.59796 39.1484 7.59796C39.3825 7.59796 39.6131 7.61819 39.8394 7.65867C40.1291 4.88573 42.4804 2.71697 45.3288 2.71697C48.3722 2.71697 50.8483 5.19291 50.8483 8.23631C50.8483 9.21588 50.5903 10.1658 50.1081 10.9989C51.7087 11.486 52.8767 12.976 52.8767 14.7339C52.8766 16.8859 51.1259 18.6368 48.9737 18.6368ZM35.5352 12.171C34.1221 12.171 32.9724 13.3206 32.9724 14.7337C32.9724 16.1469 34.1221 17.2965 35.5352 17.2965H48.9739C50.3869 17.2965 51.5365 16.1469 51.5365 14.7337C51.5365 13.3206 50.3869 12.171 48.9739 12.171L48.9272 12.1715C48.6572 12.1759 48.4143 12.0222 48.3037 11.7783C48.1932 11.5343 48.2385 11.2481 48.4187 11.0501C49.1211 10.2795 49.5081 9.28008 49.5081 8.23617C49.5081 5.93178 47.6334 4.05707 45.3288 4.05707C43.0243 4.05707 41.1496 5.93178 41.1496 8.23617C41.1496 8.32557 41.1527 8.41925 41.1591 8.51467C41.1746 8.75015 41.0653 8.97638 40.8711 9.11054C40.677 9.24456 40.4267 9.26668 40.212 9.16844C39.8774 9.01552 39.5196 8.93805 39.1482 8.93805C37.7352 8.93805 36.5856 10.0877 36.5856 11.5008C36.5889 11.6941 36.5088 11.8849 36.3652 12.0147C36.222 12.1444 36.0294 12.2109 35.8374 12.1888C35.7371 12.177 35.6352 12.171 35.5352 12.171Z" fill="#117169"/>
</svg>
