<svg width="330" height="118" viewBox="0 0 330 118" fill="none" xmlns="http://www.w3.org/2000/svg">
<path d="M0.457764 31.0373C0.457764 25.795 1.47921 22.2172 3.5221 20.3094C5.56499 18.4016 9.54267 17.4451 15.4498 17.4451H60.1015C66.0518 17.4451 70.0403 18.4016 72.0615 20.3094C74.0828 22.2226 75.0935 25.795 75.0935 31.0373V61.4915C75.0935 66.777 74.0612 70.3764 71.9967 72.2896C69.9322 74.2028 65.9653 75.154 60.1015 75.154H15.4552C9.54808 75.154 5.57039 74.1973 3.5275 72.2896C1.48461 70.3818 0.463168 66.7824 0.463168 61.4915V31.0373H0.457764ZM14.5202 64.091H61.0364V28.0378H14.5202V64.091Z" fill="#117169"/>
<path d="M99.4186 75.153V17.4387H113.611V64.3549H158.862V75.153H99.4186Z" fill="#117169"/>
<path d="M174.726 75.153V17.4387H236.634V27.6369H188.918V40.2348H216.707V50.1628H188.918V64.3549H237.363V75.153H174.72H174.726Z" fill="#117169"/>
<path d="M257.693 75.153V17.4387H267.357L316.337 55.7564V17.4387H329.065V75.153H319.337L270.491 36.2355V75.153H257.693Z" fill="#117169"/>
<path d="M22.7901 13.2769C26.4375 13.2769 29.3943 10.3201 29.3943 6.67262C29.3943 3.02519 26.4375 0.0683594 22.7901 0.0683594C19.1426 0.0683594 16.1858 3.02519 16.1858 6.67262C16.1858 10.3201 19.1426 13.2769 22.7901 13.2769Z" fill="#117169"/>
<path d="M53.357 13.2769C57.0044 13.2769 59.9612 10.3201 59.9612 6.67262C59.9612 3.02519 57.0044 0.0683594 53.357 0.0683594C49.7095 0.0683594 46.7527 3.02519 46.7527 6.67262C46.7527 10.3201 49.7095 13.2769 53.357 13.2769Z" fill="#117169"/>
<path d="M302.202 6.18199C306.396 6.61975 308.806 5.38753 308.806 2.49614H316.394C316.394 9.36522 313 13.2024 306.574 13.4888C301.04 13.6347 295.419 10.5218 288.723 9.80299C284.978 9.37063 282.832 10.7433 282.746 13.5645H275.25C275.25 6.54948 279 2.49614 285.243 2.49614C290.063 2.49614 295.327 5.53345 302.196 6.18199H302.202Z" fill="#117169"/>
<path d="M93.2573 94.9535H95.5654V113.264H93.2573V94.9535Z" fill="#0D0D0D"/>
<path d="M100.545 94.9535H102.853V113.264H100.545V94.9535Z" fill="#0D0D0D"/>
<path d="M122.433 94.6201C125.117 94.6201 127.212 95.5177 128.716 97.3129C130.221 99.108 130.973 101.373 130.973 104.109C130.973 106.844 130.221 109.11 128.716 110.905C127.212 112.7 125.117 113.597 122.433 113.597C119.732 113.597 117.629 112.708 116.125 110.93C114.637 109.135 113.893 106.861 113.893 104.109C113.893 101.356 114.637 99.0909 116.125 97.3129C117.629 95.5177 119.732 94.6201 122.433 94.6201ZM117.791 109.366C118.834 110.785 120.382 111.495 122.433 111.495C124.485 111.495 126.032 110.785 127.075 109.366C128.118 107.947 128.639 106.195 128.639 104.109C128.639 102.023 128.118 100.271 127.075 98.8515C126.032 97.4325 124.485 96.723 122.433 96.723C120.382 96.723 118.834 97.4325 117.791 98.8515C116.749 100.271 116.227 102.023 116.227 104.109C116.227 106.195 116.749 107.947 117.791 109.366Z" fill="#0D0D0D"/>
<path d="M133.88 94.9535H136.188V100.185C136.188 100.664 136.197 101.031 136.214 101.288C136.248 101.527 136.342 101.843 136.496 102.237C136.65 102.613 136.881 102.903 137.189 103.109C137.496 103.297 137.949 103.468 138.548 103.622C139.163 103.775 139.915 103.852 140.804 103.852C142.275 103.852 143.737 103.681 145.19 103.339V94.9535H147.498V113.264H145.19V105.468C143.702 105.793 142.147 105.955 140.522 105.955C139.291 105.955 138.24 105.836 137.368 105.596C136.513 105.357 135.864 105.075 135.419 104.75C134.975 104.425 134.633 103.981 134.393 103.416C134.154 102.835 134.009 102.331 133.957 101.903C133.906 101.459 133.88 100.886 133.88 100.185V94.9535Z" fill="#0D0D0D"/>
<path d="M154.465 111.161H165.313V113.264H152.157V94.9535H164.903V97.0564H154.465V102.724H162.877V104.827H154.465V111.161Z" fill="#0D0D0D"/>
<path d="M168.887 94.9535H176.631C178.615 94.9535 180.145 95.4322 181.222 96.3896C182.299 97.347 182.838 98.6891 182.838 100.416C182.838 102.16 182.299 103.519 181.222 104.493C180.145 105.451 178.615 105.93 176.631 105.93H171.195V113.264H168.887V94.9535ZM171.195 103.878H176.247C179.085 103.878 180.504 102.733 180.504 100.442C180.504 98.1506 179.085 97.0051 176.247 97.0051H171.195V103.878Z" fill="#0D0D0D"/>
<path d="M188.801 111.161H199.648V113.264H186.493V94.9535H199.238V97.0564H188.801V102.724H197.212V104.827H188.801V111.161Z" fill="#0D0D0D"/>
<path d="M216.993 111.161H219.635V117.752H217.352V113.264H203.478V117.752H201.196V111.161H203.094C204.632 107.913 205.402 103.741 205.402 98.6464V94.9535H216.993V111.161ZM214.711 111.161V97.0564H207.607V99.0311C207.607 104.023 206.923 108.067 205.556 111.161H214.711Z" fill="#0D0D0D"/>
<path d="M224.964 111.212H229.837C232.794 111.212 234.273 110.007 234.273 107.597C234.273 105.203 232.794 104.006 229.837 104.006H224.964V111.212ZM230.247 113.264H222.656V94.9535H224.964V101.955H230.247C232.264 101.955 233.829 102.459 234.94 103.468C236.051 104.459 236.607 105.836 236.607 107.597C236.607 109.392 236.051 110.785 234.94 111.777C233.846 112.768 232.282 113.264 230.247 113.264Z" fill="#0D0D0D"/>
</svg>
