<svg width="241" height="209" viewBox="0 0 241 209" fill="none" xmlns="http://www.w3.org/2000/svg">
<path d="M124.064 0.921875V40.2062C119.658 38.8394 114.897 40.21 112.084 43.6307C108.885 47.5171 108.797 53.3315 112.007 57.5539C114.397 61.2036 118.715 63.0743 122.899 62.2993C127.454 61.4517 130.993 57.6264 131.535 52.8886V10.8021C133.322 11.2793 135.815 12.0811 138.613 13.4478C151.609 19.789 157.236 31.5056 158.061 33.2846C163.661 45.3868 163.096 60.1881 156.583 70.9349C150.815 80.4525 139.228 88.6873 133.329 90.6229C132.646 90.8482 130.642 91.4475 128.664 93.1464C125.755 95.647 124.594 99.0791 124.068 101.557C127.343 101.278 147.993 99.1746 161.561 80.9679C163.799 77.9672 174.007 63.5744 171.285 43.9399C169.384 30.2305 162.187 21.2207 159.305 17.9603C145.993 2.90327 128.069 1.20439 124.064 0.921875Z" fill="#117169"/>
<path d="M116.288 0.921875C115.91 2.30771 115.188 4.26619 113.738 6.27049C111.153 9.84006 107.793 11.4168 106.22 12.0314C90.3196 18.9949 79.9813 34.2849 80.0385 50.6285C80.1034 70.2936 95.2063 88.1299 116.288 91.9324V100.877C89.1514 97.9415 69.139 74.3136 70.4713 48.2921C71.7083 24.0916 91.1137 3.57519 116.288 0.921875Z" fill="#117169"/>
<path d="M116.287 20.0567V29.3146C115.52 29.5208 103.376 33.0255 100.031 44.4061C96.8243 55.3056 103.349 67.7934 114.267 71.4775C121.869 74.043 131.142 72.1838 137.059 65.644C143.404 58.6309 144.37 47.9222 139.239 39.4278V25.9703C149.444 33.5714 154.499 46.0401 152.074 57.707C149.07 72.1494 135.089 83.0337 118.78 82.5221C105.991 81.1898 95.1713 72.6343 91.2428 60.7421C87.5626 49.602 90.3839 36.9233 98.6339 28.6924C105.216 22.1221 113.122 20.5224 116.291 20.0567H116.287Z" fill="#117169"/>
<path d="M70.0423 192.111H71.6727V205.046H70.0423V192.111Z" fill="black"/>
<path d="M75.1904 192.111H76.8208V205.046H75.1904V192.111Z" fill="black"/>
<path d="M90.6521 191.876C92.5483 191.876 94.0277 192.51 95.0905 193.778C96.1533 195.046 96.6847 196.646 96.6847 198.579C96.6847 200.511 96.1533 202.111 95.0905 203.379C94.0277 204.648 92.5483 205.282 90.6521 205.282C88.744 205.282 87.2585 204.654 86.1957 203.398C85.145 202.129 84.6196 200.523 84.6196 198.579C84.6196 196.634 85.145 195.034 86.1957 193.778C87.2585 192.51 88.744 191.876 90.6521 191.876ZM87.3732 202.292C88.1099 203.295 89.2029 203.796 90.6521 203.796C92.1014 203.796 93.1944 203.295 93.9311 202.292C94.6678 201.29 95.0361 200.052 95.0361 198.579C95.0361 197.105 94.6678 195.867 93.9311 194.865C93.1944 193.863 92.1014 193.361 90.6521 193.361C89.2029 193.361 88.1099 193.863 87.3732 194.865C86.6365 195.867 86.2682 197.105 86.2682 198.579C86.2682 200.052 86.6365 201.29 87.3732 202.292Z" fill="black"/>
<path d="M98.7384 192.111H100.369V195.807C100.369 196.145 100.375 196.405 100.387 196.586C100.411 196.755 100.477 196.979 100.586 197.256C100.695 197.522 100.858 197.727 101.075 197.872C101.293 198.005 101.613 198.126 102.035 198.235C102.47 198.343 103.002 198.398 103.63 198.398C104.668 198.398 105.701 198.277 106.727 198.035V192.111H108.358V205.046H106.727V199.539C105.677 199.768 104.578 199.883 103.43 199.883C102.561 199.883 101.818 199.799 101.202 199.629C100.598 199.46 100.139 199.261 99.8253 199.032C99.5113 198.802 99.2698 198.488 99.1007 198.09C98.9316 197.679 98.829 197.323 98.7927 197.021C98.7565 196.707 98.7384 196.302 98.7384 195.807V192.111Z" fill="black"/>
<path d="M113.28 203.561H120.943V205.046H111.649V192.111H120.653V193.597H113.28V197.601H119.222V199.086H113.28V203.561Z" fill="black"/>
<path d="M123.467 192.111H128.938C130.339 192.111 131.42 192.45 132.18 193.126C132.941 193.802 133.322 194.75 133.322 195.97C133.322 197.202 132.941 198.162 132.18 198.85C131.42 199.527 130.339 199.865 128.938 199.865H125.097V205.046H123.467V192.111ZM125.097 198.416H128.666C130.671 198.416 131.673 197.607 131.673 195.988C131.673 194.37 130.671 193.561 128.666 193.561H125.097V198.416Z" fill="black"/>
<path d="M137.534 203.561H145.197V205.046H135.904V192.111H144.907V193.597H137.534V197.601H143.476V199.086H137.534V203.561Z" fill="black"/>
<path d="M157.449 203.561H159.315V208.216H157.703V205.046H147.902V208.216H146.29V203.561H147.631C148.718 201.266 149.261 198.319 149.261 194.72V192.111H157.449V203.561ZM155.837 203.561V193.597H150.819V194.992C150.819 198.518 150.336 201.375 149.37 203.561H155.837Z" fill="black"/>
<path d="M163.08 203.597H166.522C168.611 203.597 169.656 202.745 169.656 201.043C169.656 199.352 168.611 198.506 166.522 198.506H163.08V203.597ZM166.812 205.046H161.45V192.111H163.08V197.057H166.812C168.237 197.057 169.342 197.413 170.127 198.126C170.912 198.826 171.305 199.799 171.305 201.043C171.305 202.311 170.912 203.295 170.127 203.995C169.354 204.696 168.249 205.046 166.812 205.046Z" fill="black"/>
<path d="M4.4887 131.226C4.4887 127.523 5.21025 124.995 6.65335 123.648C8.09644 122.3 10.9063 121.624 15.079 121.624H46.621C50.8243 121.624 53.6418 122.3 55.0696 123.648C56.4974 124.999 57.2114 127.523 57.2114 131.226V152.739C57.2114 156.472 56.4822 159.015 55.0238 160.366C53.5654 161.718 50.7632 162.39 46.621 162.39H15.0829C10.9101 162.39 8.10026 161.714 6.65716 160.366C5.21407 159.019 4.49252 156.476 4.49252 152.739V131.226H4.4887ZM14.4224 154.575H47.2815V129.107H14.4224V154.575Z" fill="black"/>
<path d="M74.3946 162.389V121.62H84.42V154.761H116.386V162.389H74.3946Z" fill="black"/>
<path d="M127.591 162.389V121.62H171.323V128.824H137.617V137.723H157.247V144.736H137.617V154.761H171.839V162.389H127.588H127.591Z" fill="black"/>
<path d="M186.2 162.389V121.62H193.026L227.626 148.687V121.62H236.617V162.389H229.745L195.24 134.898V162.389H186.2Z" fill="black"/>
<path d="M6.31022 174.381H4.0425V179.653H3.23314V174.381H0.969238V173.663H6.31022V174.381Z" fill="black"/>
<path d="M10.3534 179.687V181.863H9.54401V179.687L6.87924 173.663H7.73441L9.96777 178.767L12.2355 173.663H13.0334L10.3572 179.687H10.3534ZM7.59697 179.302H12.2966V179.893H7.59697V179.302Z" fill="black"/>
<path d="M19.3063 173.998C19.7606 174.254 20.1194 174.613 20.3752 175.075C20.6348 175.537 20.7608 176.068 20.7608 176.659C20.7608 177.251 20.631 177.789 20.3752 178.255C20.1156 178.717 19.7606 179.076 19.3101 179.332C18.8596 179.588 18.348 179.714 17.7792 179.714C17.2943 179.714 16.8553 179.614 16.4621 179.412C16.0727 179.21 15.752 178.916 15.5 178.53V181.867H14.6906V173.666H15.4656V174.85C15.71 174.457 16.0307 174.151 16.4277 173.937C16.8247 173.724 17.2752 173.617 17.7792 173.617C18.3404 173.617 18.8481 173.743 19.3063 173.998ZM18.8634 178.702C19.207 178.507 19.4742 178.232 19.6651 177.877C19.8598 177.522 19.9553 177.114 19.9553 176.659C19.9553 176.205 19.8598 175.8 19.6651 175.445C19.4704 175.094 19.2032 174.815 18.8634 174.621C18.5198 174.422 18.1419 174.323 17.7257 174.323C17.3096 174.323 16.9202 174.422 16.5804 174.621C16.2406 174.819 15.9772 175.094 15.7825 175.445C15.5878 175.797 15.4924 176.201 15.4924 176.659C15.4924 177.118 15.5878 177.522 15.7825 177.877C15.9772 178.236 16.2406 178.511 16.5804 178.702C16.9164 178.897 17.2981 178.992 17.7257 178.992C18.1533 178.992 18.5236 178.897 18.8634 178.702Z" fill="black"/>
<path d="M23.899 174.381V176.706H26.518V177.297H23.899V179.657H23.0897V177.297H22.2918V176.706H23.0897V173.663H27.3273V174.381H23.899Z" fill="black"/>
<path d="M33.282 176.282C33.6752 176.61 33.8738 177.08 33.8738 177.694C33.8738 178.309 33.66 178.821 33.2362 179.164C32.8124 179.508 32.2016 179.672 31.4152 179.664L29.0444 179.653V173.663H29.8537V175.759L31.564 175.782C32.3161 175.789 32.8888 175.957 33.282 176.282ZM32.6254 178.714C32.9117 178.481 33.053 178.141 33.053 177.694C33.053 177.248 32.9117 176.927 32.633 176.713C32.3505 176.499 31.9305 176.393 31.3693 176.381L29.8537 176.358V179.023L31.3693 179.046C31.9229 179.054 32.3429 178.943 32.6292 178.71L32.6254 178.714ZM34.874 173.663H35.6834V179.653H34.874V173.663Z" fill="black"/>
<path d="M38.3948 173.663H39.2041V176.316H42.976V173.663H43.7854V179.653H42.976V177.011H39.2041V179.653H38.3948V173.663Z" fill="black"/>
<path d="M55.0355 179.687V181.863H54.2262V179.687L51.5614 173.663H52.4166L54.6499 178.767L56.9177 173.663H57.7156L55.0394 179.687H55.0355Z" fill="black"/>
<path d="M59.3758 173.663H60.1852V178.423L64.1823 173.663H64.9V179.653H64.0907V174.892L60.105 179.653H59.3758V173.663ZM60.8685 172.41C60.5631 172.151 60.4104 171.788 60.4028 171.319H60.9831C60.9907 171.616 61.0976 171.853 61.3037 172.033C61.5099 172.212 61.7733 172.3 62.1017 172.3C62.43 172.3 62.6972 172.212 62.9034 172.033C63.1133 171.853 63.2202 171.616 63.2279 171.319H63.8082C63.8005 171.788 63.644 172.155 63.3348 172.41C63.0255 172.67 62.617 172.796 62.0978 172.796C61.5786 172.796 61.1701 172.666 60.8685 172.41Z" fill="black"/>
<path d="M75.9026 176.988H74.5359V179.653H73.7265V173.663H74.5359V176.293H75.9141L78.0215 173.663H78.8995L76.5402 176.568L79.0675 179.653H78.1093L75.8988 176.988H75.9026Z" fill="black"/>
<path d="M85.7754 176.908H80.7627C80.8085 177.53 81.049 178.034 81.4804 178.416C81.9118 178.797 82.4616 178.992 83.122 178.992C83.4924 178.992 83.836 178.927 84.149 178.794C84.4621 178.66 84.7293 178.465 84.9584 178.206L85.4127 178.729C85.1454 179.049 84.8133 179.29 84.4163 179.458C84.0192 179.626 83.5802 179.71 83.0992 179.71C82.4845 179.71 81.9386 179.58 81.4652 179.317C80.9918 179.053 80.6214 178.69 80.3542 178.228C80.087 177.767 79.9572 177.244 79.9572 176.656C79.9572 176.068 80.0831 175.548 80.3389 175.083C80.5947 174.621 80.9421 174.258 81.385 174.002C81.8279 173.743 82.328 173.617 82.8815 173.617C83.4351 173.617 83.9314 173.746 84.3743 174.002C84.8133 174.262 85.1607 174.621 85.4089 175.079C85.6608 175.537 85.783 176.064 85.783 176.656L85.7715 176.908H85.7754ZM81.4308 174.865C81.0414 175.232 80.8161 175.713 80.7627 176.304H85.0118C84.9584 175.713 84.7369 175.232 84.3437 174.865C83.9505 174.499 83.4657 174.312 82.8815 174.312C82.2974 174.312 81.8202 174.495 81.4308 174.865Z" fill="black"/>
<path d="M96.2555 173.663V179.653H87.9863V173.663H88.7956V178.947H91.7353V173.663H92.5446V178.947H95.4499V173.663H96.2593H96.2555Z" fill="black"/>
<path d="M104.215 176.908H99.2026C99.2484 177.53 99.4889 178.034 99.9203 178.416C100.352 178.797 100.901 178.992 101.562 178.992C101.932 178.992 102.276 178.927 102.589 178.794C102.902 178.66 103.169 178.465 103.398 178.206L103.853 178.729C103.585 179.049 103.253 179.29 102.856 179.458C102.459 179.626 102.02 179.71 101.539 179.71C100.924 179.71 100.378 179.58 99.905 179.317C99.4316 179.053 99.0613 178.69 98.7941 178.228C98.5268 177.767 98.397 177.244 98.397 176.656C98.397 176.068 98.523 175.548 98.7788 175.083C99.0346 174.621 99.382 174.258 99.8249 174.002C100.268 173.743 100.768 173.617 101.321 173.617C101.875 173.617 102.371 173.746 102.814 174.002C103.253 174.262 103.601 174.621 103.849 175.079C104.101 175.537 104.223 176.064 104.223 176.656L104.211 176.908H104.215ZM99.8707 174.865C99.4812 175.232 99.256 175.713 99.2026 176.304H103.452C103.398 175.713 103.177 175.232 102.784 174.865C102.39 174.499 101.905 174.312 101.321 174.312C100.737 174.312 100.26 174.495 99.8707 174.865Z" fill="black"/>
<path d="M106.426 173.663H107.236V176.316H111.007V173.663H111.817V179.653H111.007V177.011H107.236V179.653H106.426V173.663Z" fill="black"/>
<path d="M114.512 172.183C114.398 172.068 114.34 171.931 114.34 171.774C114.34 171.618 114.398 171.488 114.512 171.377C114.627 171.263 114.768 171.205 114.932 171.205C115.096 171.205 115.241 171.259 115.352 171.369C115.463 171.48 115.524 171.61 115.524 171.763C115.524 171.931 115.467 172.072 115.352 172.183C115.238 172.297 115.096 172.354 114.932 172.354C114.768 172.354 114.623 172.297 114.512 172.183ZM114.524 173.664H115.333V179.654H114.524V173.664Z" fill="black"/>
<path d="M124.296 171.201H125.048V181.86H124.296V171.201Z" fill="black"/>
<path d="M139.274 176.988H137.976V179.653H137.167V176.988H135.869L134.036 179.653H133.067L135.22 176.568L133.238 173.663H134.117L135.869 176.293H137.167V173.663H137.976V176.293H139.274L141.038 173.663H141.916L139.935 176.58L142.088 179.657H141.118L139.274 176.992V176.988Z" fill="black"/>
<path d="M143.84 173.663H144.649V178.424L148.646 173.663H149.364V179.653H148.555V174.892L144.569 179.653H143.84V173.663Z" fill="black"/>
<path d="M156.983 173.663V179.653H156.174V174.381H153.303L153.223 175.862C153.162 177.107 153.017 178.065 152.792 178.733C152.563 179.401 152.158 179.737 151.574 179.737C151.413 179.737 151.223 179.706 150.993 179.645L151.051 178.95C151.188 178.981 151.284 178.996 151.337 178.996C151.65 178.996 151.883 178.851 152.043 178.565C152.204 178.275 152.311 177.92 152.364 177.496C152.418 177.072 152.463 176.511 152.501 175.808L152.605 173.667H156.991L156.983 173.663Z" fill="black"/>
<path d="M160.607 179.317C160.145 179.053 159.779 178.69 159.515 178.228C159.248 177.767 159.118 177.244 159.118 176.656C159.118 176.068 159.252 175.548 159.515 175.083C159.782 174.621 160.145 174.258 160.607 174.002C161.069 173.743 161.592 173.617 162.168 173.617C162.745 173.617 163.264 173.746 163.73 174.002C164.192 174.262 164.554 174.621 164.818 175.083C165.081 175.545 165.211 176.071 165.211 176.656C165.211 177.24 165.081 177.763 164.818 178.228C164.554 178.69 164.192 179.053 163.73 179.317C163.268 179.58 162.745 179.71 162.168 179.71C161.592 179.71 161.073 179.58 160.607 179.317ZM163.31 178.702C163.646 178.507 163.913 178.232 164.1 177.877C164.291 177.522 164.387 177.114 164.387 176.659C164.387 176.205 164.291 175.797 164.1 175.442C163.909 175.087 163.646 174.808 163.31 174.617C162.974 174.422 162.592 174.327 162.165 174.327C161.737 174.327 161.359 174.422 161.019 174.617C160.68 174.812 160.416 175.087 160.221 175.442C160.027 175.8 159.931 176.205 159.931 176.659C159.931 177.114 160.027 177.522 160.221 177.877C160.416 178.236 160.68 178.511 161.019 178.702C161.355 178.897 161.737 178.992 162.165 178.992C162.592 178.992 162.97 178.897 163.31 178.702Z" fill="black"/>
<path d="M167.349 173.663H168.158V178.423L172.155 173.663H172.873V179.653H172.063V174.892L168.078 179.653H167.349V173.663ZM168.841 172.41C168.536 172.151 168.383 171.788 168.376 171.319H168.956C168.963 171.616 169.07 171.853 169.276 172.033C169.483 172.212 169.746 172.3 170.074 172.3C170.403 172.3 170.67 172.212 170.876 172.033C171.086 171.853 171.193 171.616 171.201 171.319H171.781C171.773 171.788 171.617 172.155 171.308 172.41C170.998 172.67 170.59 172.796 170.071 172.796C169.551 172.796 169.143 172.666 168.841 172.41Z" fill="black"/>
<path d="M183.875 176.988H182.509V179.653H181.699V173.663H182.509V176.293H183.887L185.994 173.663H186.872L184.513 176.568L187.04 179.653H186.082L183.872 176.988H183.875Z" fill="black"/>
<path d="M189.423 179.317C188.961 179.053 188.595 178.69 188.331 178.228C188.064 177.767 187.934 177.244 187.934 176.656C187.934 176.068 188.068 175.548 188.331 175.083C188.599 174.621 188.961 174.258 189.423 174.002C189.885 173.743 190.408 173.617 190.985 173.617C191.561 173.617 192.08 173.746 192.546 174.002C193.008 174.262 193.371 174.621 193.634 175.083C193.898 175.545 194.027 176.071 194.027 176.656C194.027 177.24 193.898 177.763 193.634 178.228C193.371 178.69 193.008 179.053 192.546 179.317C192.084 179.58 191.561 179.71 190.985 179.71C190.408 179.71 189.889 179.58 189.423 179.317ZM192.126 178.702C192.462 178.507 192.729 178.232 192.916 177.877C193.107 177.522 193.203 177.114 193.203 176.659C193.203 176.205 193.107 175.797 192.916 175.442C192.726 175.087 192.462 174.808 192.126 174.617C191.79 174.422 191.408 174.327 190.981 174.327C190.553 174.327 190.175 174.422 189.836 174.617C189.496 174.812 189.232 175.087 189.038 175.442C188.843 175.8 188.748 176.205 188.748 176.659C188.748 177.114 188.843 177.522 189.038 177.877C189.232 178.236 189.496 178.511 189.836 178.702C190.172 178.897 190.553 178.992 190.981 178.992C191.408 178.992 191.786 178.897 192.126 178.702Z" fill="black"/>
<path d="M202.861 173.663V179.653H202.12V174.915L199.696 178.924H199.33L196.905 174.904V179.653H196.165V173.663H196.986L199.524 177.981L202.109 173.663H202.861Z" fill="black"/>
<path d="M210.947 173.663V179.653H210.138V174.381H206.381V179.653H205.572V173.663H210.947Z" fill="black"/>
<path d="M218.556 173.663V179.653H217.747V174.381H214.876L214.796 175.862C214.735 177.107 214.589 178.065 214.364 178.733C214.135 179.401 213.731 179.737 213.146 179.737C212.986 179.737 212.795 179.706 212.566 179.645L212.623 178.95C212.761 178.981 212.856 178.996 212.91 178.996C213.223 178.996 213.456 178.851 213.616 178.565C213.776 178.275 213.883 177.92 213.937 177.496C213.99 177.072 214.036 176.511 214.074 175.808L214.177 173.667H218.564L218.556 173.663Z" fill="black"/>
<path d="M226.509 176.908H221.496C221.542 177.53 221.783 178.034 222.214 178.416C222.645 178.797 223.195 178.992 223.856 178.992C224.226 178.992 224.569 178.927 224.882 178.794C225.196 178.66 225.463 178.465 225.692 178.206L226.146 178.729C225.879 179.049 225.547 179.29 225.15 179.458C224.753 179.626 224.314 179.71 223.833 179.71C223.218 179.71 222.672 179.58 222.199 179.317C221.725 179.053 221.355 178.69 221.088 178.228C220.82 177.767 220.691 177.244 220.691 176.656C220.691 176.068 220.817 175.548 221.072 175.083C221.328 174.621 221.676 174.258 222.122 174.002C222.565 173.743 223.065 173.617 223.619 173.617C224.172 173.617 224.669 173.746 225.112 174.002C225.551 174.262 225.898 174.621 226.146 175.079C226.398 175.537 226.52 176.064 226.52 176.656L226.509 176.908ZM222.164 174.865C221.775 175.232 221.55 175.713 221.496 176.304H225.745C225.692 175.713 225.47 175.232 225.077 174.865C224.684 174.499 224.199 174.312 223.615 174.312C223.031 174.312 222.554 174.495 222.164 174.865Z" fill="black"/>
<path d="M230.891 176.988H229.525V179.653H228.715V173.663H229.525V176.293H230.903L233.01 173.663H233.888L231.529 176.568L234.056 179.653H233.098L230.888 176.988H230.891Z" fill="black"/>
<path d="M236.445 179.325C235.98 179.065 235.613 178.703 235.346 178.237C235.079 177.771 234.949 177.244 234.949 176.66C234.949 176.076 235.083 175.553 235.346 175.087C235.613 174.625 235.98 174.263 236.445 174.007C236.911 173.747 237.442 173.621 238.034 173.621C238.549 173.621 239.011 173.72 239.416 173.923C239.82 174.125 240.141 174.419 240.378 174.805L239.775 175.213C239.576 174.915 239.328 174.694 239.022 174.545C238.721 174.396 238.389 174.324 238.034 174.324C237.602 174.324 237.213 174.419 236.865 174.614C236.518 174.808 236.251 175.083 236.056 175.438C235.861 175.797 235.766 176.202 235.766 176.656C235.766 177.111 235.861 177.527 236.056 177.882C236.251 178.237 236.518 178.508 236.865 178.703C237.213 178.897 237.598 178.993 238.034 178.993C238.389 178.993 238.721 178.92 239.022 178.775C239.328 178.63 239.576 178.409 239.775 178.115L240.378 178.523C240.141 178.909 239.82 179.206 239.408 179.405C239 179.607 238.538 179.707 238.03 179.707C237.438 179.707 236.907 179.577 236.442 179.321L236.445 179.325Z" fill="black"/>
<path d="M20.2642 118.68C22.8408 118.68 24.9295 116.591 24.9295 114.015C24.9295 111.438 22.8408 109.349 20.2642 109.349C17.6877 109.349 15.599 111.438 15.599 114.015C15.599 116.591 17.6877 118.68 20.2642 118.68Z" fill="black"/>
<path d="M41.8567 118.68C44.4332 118.68 46.5219 116.591 46.5219 114.015C46.5219 111.438 44.4332 109.349 41.8567 109.349C39.2801 109.349 37.1914 111.438 37.1914 114.015C37.1914 116.591 39.2801 118.68 41.8567 118.68Z" fill="black"/>
<path d="M217.641 113.668C220.603 113.977 222.306 113.107 222.306 111.064H227.666C227.666 115.917 225.268 118.627 220.729 118.83C216.82 118.933 212.849 116.734 208.119 116.226C205.474 115.92 203.958 116.89 203.897 118.883H198.602C198.602 113.928 201.251 111.064 205.661 111.064C209.066 111.064 212.785 113.21 217.637 113.668H217.641Z" fill="black"/>
</svg>
