<svg width="61" height="51" viewBox="0 0 61 51" fill="none" xmlns="http://www.w3.org/2000/svg">
<path fill-rule="evenodd" clip-rule="evenodd" d="M1.40901 0.400106C1.07059 0.567808 0.82838 0.81137 0.665535 1.14776L0.536377 1.4145L0.537729 25.5392L0.539082 49.6638L0.66449 49.9405C0.814118 50.2705 0.974136 50.4528 1.30481 50.6699L1.5507 50.8314L2.0425 50.8316L2.53429 50.8319L2.71872 50.7131C3.02677 50.5147 3.24574 50.2911 3.38522 50.0327L3.51788 49.7868L3.53547 46.7588L3.55305 43.7309L8.73005 43.7466L13.9071 43.7623L13.9378 46.7745L13.9685 49.7868L14.0725 50.002C14.2087 50.2835 14.4035 50.4907 14.7062 50.6759L14.9521 50.8263L15.4177 50.8291L15.8833 50.8319L16.1784 50.6474L16.4735 50.463L16.6494 50.2171L16.8254 49.9712L16.8877 49.6401L16.95 49.3089V26.2952V3.28141H21.9912H27.0324L27.0168 9.59299L27.0011 15.9046L26.5708 16.0388C24.6249 16.6455 23.0422 18.2122 22.3985 20.1689C22.1852 20.8172 22.1145 21.3148 22.1165 22.1541L22.1182 22.861L22.201 23.3253C22.492 24.9565 23.487 26.4584 24.9292 27.4432C25.6042 27.9042 26.11 28.1161 27.3085 28.4398L27.5544 28.5063L28.4765 28.5084L29.3986 28.5104L30.0142 28.3472C30.769 28.1471 31.4501 27.8385 32.1205 27.393L32.6293 27.0549L33.0929 26.5621C34.0443 25.5508 34.5701 24.5137 34.8091 23.1774L34.9173 22.5716L34.8833 21.9172C34.8038 20.393 34.302 19.1044 33.3445 17.9662L32.9872 17.5414L32.4453 17.1275C31.6872 16.5484 31.1224 16.2472 30.3515 16.0108L30.0133 15.9071L29.9977 9.59428L29.9821 3.28141H35.6687H41.3554V9.6027V15.9241L41.046 15.9954C40.8758 16.0347 40.6131 16.1231 40.4621 16.1919C40.3112 16.2606 40.1204 16.3424 40.0382 16.3737C39.9558 16.405 39.6445 16.5895 39.3463 16.7835L38.8042 17.1364L38.309 17.632C36.8445 19.0975 36.2348 20.9356 36.5025 23.0778L36.5676 23.5987L36.7574 24.1474C37.4972 26.2868 39.0393 27.7209 41.2632 28.3376L41.8779 28.5081L42.8 28.5105L43.7221 28.5128L44.3676 28.3412C45.6966 27.9878 46.8509 27.2787 47.6345 26.3343C48.29 25.5442 48.5023 25.1907 48.8305 24.3423L49.0422 23.7949L49.1329 23.2358C49.2473 22.5305 49.2479 21.8557 49.1348 21.1054C49.025 20.3774 48.9268 20.0753 48.5461 19.2955L48.246 18.6807L47.8525 18.1849C47.2929 17.4799 46.194 16.5907 45.606 16.3672C45.5176 16.3335 45.3567 16.264 45.2485 16.2127C45.1402 16.1613 44.8909 16.0715 44.6943 16.0132L44.3369 15.9071L44.3212 9.59428L44.3056 3.28141H49.3467H54.3879V5.79584V8.31026L53.5734 8.33166L52.7589 8.35305L52.3963 8.53673L52.0337 8.72048L51.8307 9.02853L51.6277 9.33664L51.5878 9.64555L51.548 9.95452L51.6172 10.2116C51.6553 10.3531 51.7758 10.5875 51.885 10.7326L52.0835 10.9964L52.4168 11.1655L52.7502 11.3346H53.569H54.3879V13.8857V16.4369H53.642H52.8961L52.6735 16.5036C52.5512 16.5403 52.3427 16.644 52.2103 16.7342L51.9696 16.898L51.7802 17.2054L51.5909 17.5127L51.5934 17.9563L51.5958 18.3999L51.8393 18.7493L52.0827 19.0987L52.39 19.2586L52.6974 19.4184L53.5427 19.4397L54.3879 19.461V22.0005V24.54L53.5119 24.5611L52.6359 24.5823L52.3622 24.736L52.0884 24.8897L51.8874 25.1535C51.7769 25.2987 51.6552 25.5335 51.6169 25.6754L51.5475 25.9334L51.584 26.2004C51.6557 26.7229 52.0241 27.2355 52.4584 27.417L52.6627 27.5023H53.5253H54.3879V30.0535V32.6047L53.6964 32.6054L53.0048 32.606L52.6998 32.6985C52.2811 32.8256 52.0196 33.015 51.8044 33.3474L51.6221 33.629L51.5835 33.9101L51.545 34.1912L51.6205 34.5057L51.6959 34.8202L52.0122 35.1515L52.3286 35.4829L52.5744 35.5496L52.8203 35.6163L53.6041 35.6166L54.3879 35.6169V38.1681V40.7193H53.66H52.9321L52.6429 40.8064C52.2595 40.9218 51.9818 41.1421 51.7678 41.5007L51.5921 41.7951L51.5915 42.2254L51.5909 42.6558L51.7613 42.9457C51.969 43.2991 52.2591 43.529 52.6429 43.6445L52.9321 43.7316H53.6578H54.3835L54.4011 46.7592L54.4187 49.7868L54.5513 50.0327C54.6908 50.2911 54.9098 50.5147 55.2178 50.7131L55.4023 50.8319L55.8941 50.8316L56.3859 50.8314L56.6318 50.6699C56.9624 50.4528 57.1224 50.2705 57.2721 49.9405L57.3975 49.6638L57.3988 46.6977L57.4002 43.7316H58.1267H58.8533L59.1727 43.6367L59.492 43.5419L59.7161 43.3451L59.9401 43.1485L60.0835 42.8406L60.2268 42.5328L60.2274 42.2263L60.228 41.9198L60.062 41.5918C59.9707 41.4113 59.8051 41.1839 59.694 41.0864L59.492 40.909L59.1727 40.8142L58.8533 40.7193H58.1267H57.4002V38.1681V35.6169L58.2147 35.6142L59.0293 35.6115L59.2545 35.5311C59.5595 35.4221 59.808 35.2106 60.0202 34.8792L60.1973 34.6026L60.1932 34.1416L60.1892 33.6805L60.0232 33.3962L59.8573 33.1119L59.6183 32.9463C59.4869 32.8552 59.2477 32.7411 59.0869 32.6927L58.7946 32.6047H58.0974H57.4002V30.0578V27.511L58.3473 27.4913L59.2943 27.4716L59.5614 27.2782L59.8284 27.0847L60.0086 26.7921L60.1887 26.4995L60.2161 26.1694L60.2435 25.8393L60.136 25.5578C60.0768 25.403 59.9422 25.178 59.8367 25.0579L59.6449 24.8394L59.3371 24.6961L59.0293 24.5528L58.2147 24.5522L57.4002 24.5516V22.0004V19.4492H58.1106H58.8211L59.0789 19.3836C59.2206 19.3476 59.4467 19.2429 59.5812 19.151L59.8257 18.9841L60.0115 18.6833L60.1973 18.3825L60.196 17.9476L60.1948 17.5127L60.0197 17.2183C59.8155 16.8748 59.5563 16.6609 59.1864 16.5304L58.9216 16.4369H58.1609H57.4002V13.8857V11.3346L58.2147 11.3339L59.0293 11.3333L59.3371 11.19L59.6449 11.0467L59.8367 10.8283C59.9422 10.7081 60.0772 10.4822 60.1368 10.3262L60.2451 10.0425L60.2107 9.70973L60.1764 9.3769L59.9669 9.04937L59.7574 8.7219L59.3933 8.53747L59.0293 8.35305L58.2147 8.33166L57.4002 8.31026V4.88356V1.45679L57.2134 1.08303L57.0267 0.709261L56.7077 0.504613L56.3887 0.299903L29.0312 0.284473L1.67365 0.269043L1.40901 0.400106ZM13.9378 5.80186V8.32231H8.74321H3.54862V5.80186V3.28141H8.74321H13.9378V5.80186ZM13.9231 13.9011L13.9391 16.4369H8.74388H3.54862V13.8854V11.3339L8.72784 11.3496L13.9071 11.3653L13.9231 13.9011ZM28.9891 18.7739L29.4402 18.8324L29.819 18.9994C30.8239 19.4423 31.5296 20.2798 31.8013 21.3521L31.9019 21.7489L31.8755 22.305L31.8492 22.861L31.7037 23.2606C31.5122 23.7866 31.1748 24.2809 30.7474 24.662L30.4002 24.9714L29.934 25.1957L29.4677 25.4202L28.9875 25.4902L28.5072 25.5602L28.0001 25.4873L27.4929 25.4145L26.9783 25.1608L26.4638 24.9071L26.0869 24.5248L25.7101 24.1425L25.4813 23.6862L25.2525 23.2299L25.1457 22.6564L25.039 22.0829L25.1459 21.5498L25.2529 21.0168L25.4489 20.6172L25.6449 20.2176L26.1159 19.741L26.587 19.2644L27.0606 19.0485L27.5342 18.8327L27.9439 18.7799C28.5027 18.7078 28.4812 18.7079 28.9891 18.7739ZM43.3111 18.7752L43.819 18.8389L44.263 19.0496L44.707 19.2604L45.0625 19.5772C45.258 19.7515 45.5233 20.0498 45.6519 20.2402L45.8859 20.5865L46.0596 21.109L46.2332 21.6315L46.2292 22.1848L46.2251 22.7381L46.0705 23.1778C45.6025 24.5087 44.4789 25.3983 43.1209 25.5131L42.6737 25.5509L42.2357 25.477L41.7977 25.4031L41.4221 25.2255C40.4758 24.778 39.8441 24.0411 39.5753 23.0711L39.4497 22.6176V22.1233V21.6291L39.5753 21.1755C39.7414 20.5761 39.9429 20.2461 40.4631 19.7206L40.8943 19.285L41.3746 19.059L41.8548 18.833L42.2659 18.78C42.492 18.7509 42.7055 18.7235 42.7401 18.7192C42.7749 18.715 43.0318 18.7401 43.3111 18.7752ZM13.9231 21.985L13.9071 24.5208L8.72784 24.5366L3.54862 24.5522V22.0007V19.4492H8.74388H13.9391L13.9231 21.985ZM13.9231 30.0689L13.9391 32.6047H8.74388H3.54862V30.0531V27.5016L8.72784 27.5173L13.9071 27.5331L13.9231 30.0689ZM13.9231 38.1528L13.9071 40.6886L8.72784 40.7043L3.54862 40.72V38.1685V35.6169H8.74388H13.9391L13.9231 38.1528Z" fill="#117169"/>
</svg>
