<svg width="52" height="51" viewBox="0 0 52 51" fill="none" xmlns="http://www.w3.org/2000/svg">
<path d="M23.9393 28.2272L23.9933 28.3352L23.9393 28.2272L23.3614 28.5162C22.5855 28.9041 21.6419 28.5896 21.2539 27.8136C20.866 27.0377 21.1805 26.0941 21.9565 25.7061L22.5344 25.4172L22.4804 25.3092L22.5344 25.4172C23.7214 24.8236 24.4712 23.6105 24.4712 22.2833V14.4245C24.4712 13.557 25.1745 12.8537 26.042 12.8537C26.9096 12.8537 27.6129 13.557 27.6129 14.4245V22.2833C27.6129 24.8005 26.1908 27.1015 23.9393 28.2272ZM0.789518 6.81258C0.789518 3.14237 3.76481 0.167081 7.43501 0.167081H14.2012C15.0688 0.167081 15.7721 0.870375 15.7721 1.73793C15.7721 2.60549 15.0688 3.30879 14.2012 3.30879H7.43501C5.49992 3.30879 3.93122 4.87749 3.93122 6.81258V13.5788C3.93122 14.4464 3.22793 15.1496 2.36037 15.1496C1.49281 15.1496 0.789518 14.4464 0.789518 13.5788V6.81258ZM36.312 1.73793C36.312 0.870375 37.0153 0.167081 37.8829 0.167081H44.6491C48.3193 0.167081 51.2946 3.14237 51.2946 6.81258V13.5788C51.2946 14.4464 50.5913 15.1496 49.7237 15.1496C48.8561 15.1496 48.1529 14.4464 48.1529 13.5788V6.81258C48.1529 4.87749 46.5841 3.30879 44.6491 3.30879H37.8829C37.0153 3.30879 36.312 2.60549 36.312 1.73793ZM2.36037 35.6896C3.22793 35.6896 3.93122 36.3929 3.93122 37.2604V44.0266C3.93122 45.9617 5.49992 47.5304 7.43501 47.5304H14.2012C15.0688 47.5304 15.7721 48.2337 15.7721 49.1013C15.7721 49.9689 15.0688 50.6721 14.2012 50.6721H7.43501C3.76481 50.6721 0.789518 47.6968 0.789518 44.0266V37.2604C0.789518 36.3929 1.49281 35.6896 2.36037 35.6896ZM49.7237 35.6896C50.5913 35.6896 51.2946 36.3929 51.2946 37.2604V44.0266C51.2946 47.6968 48.3193 50.6721 44.6491 50.6721H37.8829C37.0153 50.6721 36.312 49.9689 36.312 49.1013C36.312 48.2337 37.0153 47.5304 37.8829 47.5304H44.6491C46.5841 47.5304 48.1529 45.9617 48.1529 44.0266V37.2604C48.1529 36.3929 48.8561 35.6896 49.7237 35.6896ZM15.047 12.8537C15.9146 12.8537 16.6178 13.557 16.6178 14.4245V17.8076C16.6178 18.6752 15.9146 19.3785 15.047 19.3785C14.1794 19.3785 13.4761 18.6752 13.4761 17.8076V14.4245C13.4761 13.557 14.1794 12.8537 15.047 12.8537ZM37.0371 12.8537C37.9047 12.8537 38.608 13.557 38.608 14.4245V17.8076C38.608 18.6752 37.9047 19.3785 37.0371 19.3785C36.1695 19.3785 35.4662 18.6752 35.4662 17.8076V14.4245C35.4662 13.557 36.1695 12.8537 37.0371 12.8537ZM15.558 32.841C16.1304 32.189 17.1229 32.1245 17.7749 32.6968C22.3202 36.6872 29.7639 36.6872 34.3092 32.6968C34.9612 32.1245 35.9537 32.189 36.526 32.841C37.0984 33.493 37.0339 34.4855 36.3819 35.0578C30.6508 40.0891 21.4332 40.0891 15.7022 35.0578C15.0502 34.4855 14.9857 33.493 15.558 32.841Z" fill="#117169" stroke="#117169" stroke-width="0.241389"/>
</svg>
