<svg width="187" height="162" viewBox="0 0 187 162" fill="none" xmlns="http://www.w3.org/2000/svg">
<path d="M96.1409 0.593018V31.1038C92.7192 30.0423 89.0218 31.1068 86.8365 33.7635C84.3518 36.7819 84.2836 41.2978 86.7772 44.5771C88.6334 47.4118 91.9869 48.8647 95.2366 48.2628C98.7739 47.6045 101.523 44.6335 101.944 40.9538V8.26667C103.331 8.6373 105.267 9.25997 107.441 10.3215C117.534 15.2465 121.905 24.3463 122.545 25.7281C126.895 35.1274 126.456 46.6231 121.398 54.9698C116.917 62.3618 107.918 68.7575 103.337 70.2608C102.806 70.4357 101.25 70.9012 99.7139 72.2207C97.4545 74.1628 96.5531 76.8284 96.1439 78.7528C98.688 78.5363 114.726 76.9026 125.264 62.762C127.002 60.4315 134.93 49.2531 132.816 34.0036C131.34 23.356 125.75 16.3584 123.512 13.8262C113.172 2.1319 99.2513 0.812434 96.1409 0.593018Z" fill="white"/>
<path d="M90.1015 0.593018C89.808 1.66935 89.2476 3.19044 88.1209 4.74711C86.1135 7.51947 83.5042 8.74405 82.2826 9.22143C69.933 14.6298 61.9035 26.5049 61.948 39.1985C61.9984 54.4717 73.7283 68.3246 90.1015 71.2778V78.225C69.0257 75.9448 53.4827 57.5939 54.5175 37.3839C55.4782 18.5881 70.5497 2.65375 90.1015 0.593018Z" fill="white"/>
<path d="M90.101 15.4544V22.6447C89.505 22.8048 80.0731 25.5268 77.4757 34.3657C74.985 42.831 80.0523 52.5298 88.5325 55.3912C94.436 57.3837 101.638 55.9397 106.234 50.8605C111.162 45.4136 111.912 37.0966 107.927 30.4992V20.0473C115.853 25.9508 119.779 35.6348 117.896 44.6961C115.562 55.913 104.704 64.3665 92.0372 63.9692C82.1042 62.9343 73.7011 56.2896 70.65 47.0533C67.7917 38.4012 69.9829 28.5541 76.3904 22.1614C81.5023 17.0585 87.643 15.8161 90.104 15.4544H90.101Z" fill="white"/>
<path d="M54.1843 149.083H55.4506V159.129H54.1843V149.083Z" fill="white"/>
<path d="M58.1827 149.083H59.4489V159.129H58.1827V149.083Z" fill="white"/>
<path d="M70.1913 148.901C71.6639 148.901 72.8129 149.393 73.6384 150.378C74.4638 151.363 74.8765 152.606 74.8765 154.106C74.8765 155.607 74.4638 156.85 73.6384 157.835C72.8129 158.82 71.6639 159.312 70.1913 159.312C68.7092 159.312 67.5555 158.824 66.7301 157.849C65.914 156.864 65.506 155.617 65.506 154.106C65.506 152.596 65.914 151.353 66.7301 150.378C67.5555 149.393 68.7092 148.901 70.1913 148.901ZM67.6446 156.991C68.2168 157.769 69.0657 158.159 70.1913 158.159C71.3168 158.159 72.1657 157.769 72.7379 156.991C73.3101 156.212 73.5962 155.251 73.5962 154.106C73.5962 152.962 73.3101 152.001 72.7379 151.222C72.1657 150.444 71.3168 150.054 70.1913 150.054C69.0657 150.054 68.2168 150.444 67.6446 151.222C67.0724 152.001 66.7864 152.962 66.7864 154.106C66.7864 155.251 67.0724 156.212 67.6446 156.991Z" fill="white"/>
<path d="M76.4716 149.083H77.7378V151.954C77.7378 152.216 77.7425 152.418 77.7519 152.559C77.7707 152.69 77.8223 152.864 77.9067 153.079C77.9911 153.286 78.1177 153.445 78.2866 153.558C78.4554 153.661 78.704 153.755 79.0323 153.839C79.3699 153.923 79.7827 153.966 80.2704 153.966C81.0771 153.966 81.8791 153.872 82.6764 153.684V149.083H83.9426V159.129H82.6764V154.852C81.8603 155.03 81.0067 155.119 80.1156 155.119C79.4403 155.119 78.8634 155.054 78.3851 154.922C77.9161 154.791 77.5596 154.636 77.3158 154.458C77.0719 154.28 76.8843 154.036 76.753 153.727C76.6216 153.408 76.5419 153.131 76.5138 152.896C76.4856 152.653 76.4716 152.338 76.4716 151.954V149.083Z" fill="white"/>
<path d="M87.7652 157.976H93.7168V159.129H86.499V149.083H93.4917V150.237H87.7652V153.347H92.3801V154.5H87.7652V157.976Z" fill="white"/>
<path d="M95.6773 149.083H99.9264C101.014 149.083 101.854 149.346 102.445 149.871C103.036 150.397 103.331 151.133 103.331 152.08C103.331 153.037 103.036 153.783 102.445 154.317C101.854 154.843 101.014 155.105 99.9264 155.105H96.9436V159.129H95.6773V149.083ZM96.9436 153.98H99.7154C101.272 153.98 102.051 153.351 102.051 152.094C102.051 150.838 101.272 150.209 99.7154 150.209H96.9436V153.98Z" fill="white"/>
<path d="M106.603 157.976H112.554V159.129H105.337V149.083H112.329V150.237H106.603V153.347H111.218V154.5H106.603V157.976Z" fill="white"/>
<path d="M122.07 157.976H123.52V161.592H122.267V159.129H114.656V161.592H113.403V157.976H114.445C115.289 156.193 115.711 153.905 115.711 151.11V149.083H122.07V157.976ZM120.818 157.976V150.237H116.921V151.321C116.921 154.06 116.546 156.278 115.795 157.976H120.818Z" fill="white"/>
<path d="M126.444 158.004H129.117C130.74 158.004 131.551 157.342 131.551 156.02C131.551 154.707 130.74 154.05 129.117 154.05H126.444V158.004ZM129.342 159.129H125.177V149.083H126.444V152.925H129.342C130.449 152.925 131.307 153.201 131.917 153.755C132.526 154.299 132.831 155.054 132.831 156.02C132.831 157.005 132.526 157.769 131.917 158.313C131.316 158.857 130.458 159.129 129.342 159.129Z" fill="white"/>
<path d="M3.27104 101.796C3.27104 98.9195 3.83145 96.9566 4.95225 95.9099C6.07305 94.8632 8.25536 94.3384 11.4962 94.3384H35.9938C39.2583 94.3384 41.4466 94.8632 42.5555 95.9099C43.6645 96.9596 44.2189 98.9195 44.2189 101.796V118.504C44.2189 121.404 43.6526 123.379 42.5199 124.428C41.3873 125.478 39.2109 126 35.9938 126H11.4992C8.25832 126 6.07602 125.475 4.95521 124.428C3.83441 123.381 3.27401 121.407 3.27401 118.504V101.796H3.27104ZM10.9862 119.93H36.5067V100.15H10.9862V119.93Z" fill="white"/>
<path d="M57.5646 125.999V94.335H65.3509V120.075H90.1776V125.999H57.5646Z" fill="white"/>
<path d="M98.8808 125.999V94.335H132.846V99.9301H106.667V106.842H121.914V112.289H106.667V120.075H133.246V125.999H98.8778H98.8808Z" fill="white"/>
<path d="M144.4 125.999V94.335H149.702L176.574 115.357V94.335H183.557V125.999H178.22L151.421 104.648V125.999H144.4Z" fill="white"/>
<path d="M4.68576 135.313H2.92449V139.407H2.2959V135.313H0.537598V134.755H4.68576V135.313Z" fill="white"/>
<path d="M7.82593 139.434V141.124H7.19733V139.434L5.12769 134.755H5.79187L7.52645 138.719L9.28771 134.755H9.90742L7.82889 139.434H7.82593ZM5.68513 139.135H9.33516V139.594H5.68513V139.135Z" fill="white"/>
<path d="M14.7793 135.016C15.1322 135.214 15.4109 135.493 15.6096 135.852C15.8112 136.211 15.909 136.623 15.909 137.082C15.909 137.542 15.8082 137.96 15.6096 138.322C15.4079 138.681 15.1322 138.959 14.7823 139.158C14.4324 139.357 14.0351 139.454 13.5933 139.454C13.2167 139.454 12.8758 139.377 12.5703 139.22C12.2679 139.063 12.0188 138.835 11.8231 138.535V141.127H11.1945V134.758H11.7965V135.677C11.9862 135.372 12.2353 135.134 12.5437 134.968C12.852 134.802 13.2019 134.719 13.5933 134.719C14.0292 134.719 14.4235 134.817 14.7793 135.016ZM14.4354 138.669C14.7022 138.517 14.9098 138.304 15.0581 138.028C15.2093 137.752 15.2834 137.435 15.2834 137.082C15.2834 136.73 15.2093 136.415 15.0581 136.139C14.9068 135.867 14.6993 135.65 14.4354 135.499C14.1685 135.345 13.875 135.268 13.5518 135.268C13.2286 135.268 12.9262 135.345 12.6623 135.499C12.3984 135.653 12.1938 135.867 12.0426 136.139C11.8913 136.412 11.8172 136.727 11.8172 137.082C11.8172 137.438 11.8913 137.752 12.0426 138.028C12.1938 138.307 12.3984 138.52 12.6623 138.669C12.9232 138.82 13.2197 138.894 13.5518 138.894C13.8839 138.894 14.1715 138.82 14.4354 138.669Z" fill="white"/>
<path d="M18.3464 135.313V137.118H20.3804V137.578H18.3464V139.41H17.7178V137.578H17.0981V137.118H17.7178V134.755H21.009V135.313H18.3464Z" fill="white"/>
<path d="M25.6338 136.789C25.9392 137.044 26.0934 137.409 26.0934 137.886C26.0934 138.364 25.9274 138.761 25.5983 139.028C25.2691 139.295 24.7947 139.422 24.1839 139.416L22.3426 139.407V134.755H22.9712V136.383L24.2995 136.401C24.8837 136.407 25.3284 136.537 25.6338 136.789ZM25.1238 138.678C25.3462 138.497 25.4559 138.233 25.4559 137.886C25.4559 137.539 25.3462 137.29 25.1298 137.124C24.9104 136.958 24.5842 136.875 24.1483 136.866L22.9712 136.848V138.918L24.1483 138.936C24.5783 138.942 24.9044 138.856 25.1268 138.675L25.1238 138.678ZM26.8703 134.755H27.4989V139.407H26.8703V134.755Z" fill="white"/>
<path d="M29.6047 134.755H30.2333V136.816H33.1628V134.755H33.7914V139.407H33.1628V137.355H30.2333V139.407H29.6047V134.755Z" fill="white"/>
<path d="M42.529 139.434V141.124H41.9004V139.434L39.8308 134.755H40.495L42.2296 138.719L43.9908 134.755H44.6105L42.532 139.434H42.529Z" fill="white"/>
<path d="M45.9 134.755H46.5286V138.452L49.633 134.755H50.1905V139.407H49.5619V135.71L46.4663 139.407H45.9V134.755ZM47.0593 133.782C46.8221 133.581 46.7035 133.299 46.6976 132.934H47.1483C47.1542 133.166 47.2372 133.349 47.3974 133.489C47.5575 133.628 47.7621 133.696 48.0171 133.696C48.2721 133.696 48.4796 133.628 48.6397 133.489C48.8028 133.349 48.8858 133.166 48.8918 132.934H49.3425C49.3365 133.299 49.215 133.584 48.9748 133.782C48.7346 133.984 48.4173 134.082 48.0141 134.082C47.6108 134.082 47.2936 133.981 47.0593 133.782Z" fill="white"/>
<path d="M58.7358 137.338H57.6743V139.407H57.0457V134.755H57.6743V136.798H58.7447L60.3814 134.755H61.0634L59.231 137.012L61.1939 139.407H60.4496L58.7328 137.338H58.7358Z" fill="white"/>
<path d="M66.4036 137.275H62.5105C62.546 137.758 62.7328 138.15 63.0679 138.446C63.403 138.743 63.8299 138.894 64.3429 138.894C64.6305 138.894 64.8974 138.844 65.1405 138.74C65.3836 138.636 65.5912 138.485 65.7691 138.283L66.1219 138.689C65.9144 138.939 65.6564 139.125 65.3481 139.256C65.0397 139.386 64.6987 139.451 64.3251 139.451C63.8477 139.451 63.4237 139.351 63.056 139.146C62.6884 138.941 62.4007 138.66 62.1932 138.301C61.9856 137.942 61.8848 137.536 61.8848 137.079C61.8848 136.623 61.9827 136.22 62.1813 135.858C62.38 135.499 62.6498 135.217 62.9938 135.019C63.3377 134.817 63.7262 134.719 64.1561 134.719C64.586 134.719 64.9715 134.82 65.3154 135.019C65.6564 135.22 65.9262 135.499 66.119 135.855C66.3147 136.211 66.4096 136.62 66.4096 137.079L66.4007 137.275H66.4036ZM63.0294 135.689C62.7269 135.973 62.552 136.347 62.5105 136.807H65.8106C65.7691 136.347 65.5971 135.973 65.2917 135.689C64.9863 135.404 64.6097 135.259 64.1561 135.259C63.7024 135.259 63.3318 135.401 63.0294 135.689Z" fill="white"/>
<path d="M74.5432 134.755V139.407H68.1208V134.755H68.7494V138.859H71.0325V134.755H71.6611V138.859H73.9175V134.755H74.5461H74.5432Z" fill="white"/>
<path d="M80.7252 137.275H76.8321C76.8676 137.758 77.0545 138.15 77.3895 138.446C77.7246 138.743 78.1515 138.894 78.6645 138.894C78.9521 138.894 79.219 138.844 79.4621 138.74C79.7052 138.636 79.9128 138.485 80.0907 138.283L80.4436 138.689C80.236 138.939 79.978 139.125 79.6697 139.256C79.3613 139.386 79.0203 139.451 78.6467 139.451C78.1693 139.451 77.7453 139.351 77.3776 139.146C77.01 138.941 76.7224 138.66 76.5148 138.301C76.3073 137.942 76.2064 137.536 76.2064 137.079C76.2064 136.623 76.3043 136.22 76.503 135.858C76.7016 135.499 76.9714 135.217 77.3154 135.019C77.6593 134.817 78.0478 134.719 78.4777 134.719C78.9076 134.719 79.2931 134.82 79.637 135.019C79.978 135.22 80.2479 135.499 80.4406 135.855C80.6363 136.211 80.7312 136.62 80.7312 137.079L80.7223 137.275H80.7252ZM77.351 135.689C77.0485 135.973 76.8736 136.347 76.8321 136.807H80.1322C80.0907 136.347 79.9187 135.973 79.6133 135.689C79.3079 135.404 78.9313 135.259 78.4777 135.259C78.024 135.259 77.6534 135.401 77.351 135.689Z" fill="white"/>
<path d="M82.4424 134.755H83.071V136.816H86.0005V134.755H86.6291V139.407H86.0005V137.355H83.071V139.407H82.4424V134.755Z" fill="white"/>
<path d="M88.7226 133.605C88.6336 133.516 88.5892 133.41 88.5892 133.288C88.5892 133.167 88.6336 133.066 88.7226 132.98C88.8115 132.891 88.9212 132.846 89.0488 132.846C89.1762 132.846 89.2889 132.888 89.3749 132.974C89.4609 133.06 89.5083 133.161 89.5083 133.279C89.5083 133.41 89.4639 133.519 89.3749 133.605C89.286 133.694 89.1762 133.739 89.0488 133.739C88.9212 133.739 88.8086 133.694 88.7226 133.605ZM88.7315 134.756H89.3601V139.408H88.7315V134.756Z" fill="white"/>
<path d="M96.3216 132.843H96.9057V141.121H96.3216V132.843Z" fill="white"/>
<path d="M107.954 137.338H106.946V139.407H106.318V137.338H105.31L103.886 139.407H103.133L104.805 137.012L103.267 134.755H103.949L105.31 136.798H106.318V134.755H106.946V136.798H107.954L109.324 134.755H110.006L108.467 137.02L110.14 139.41H109.387L107.954 137.341V137.338Z" fill="white"/>
<path d="M111.5 134.755H112.129V138.453L115.233 134.755H115.791V139.407H115.162V135.71L112.067 139.407H111.5V134.755Z" fill="white"/>
<path d="M121.709 134.755V139.407H121.08V135.313H118.85L118.788 136.463C118.741 137.43 118.628 138.174 118.453 138.693C118.275 139.212 117.961 139.473 117.507 139.473C117.382 139.473 117.234 139.449 117.056 139.401L117.101 138.862C117.208 138.885 117.282 138.897 117.323 138.897C117.566 138.897 117.747 138.785 117.872 138.562C117.996 138.337 118.079 138.061 118.121 137.732C118.162 137.403 118.198 136.967 118.228 136.421L118.308 134.758H121.714L121.709 134.755Z" fill="white"/>
<path d="M124.523 139.146C124.164 138.941 123.879 138.66 123.675 138.301C123.467 137.942 123.366 137.536 123.366 137.079C123.366 136.623 123.47 136.22 123.675 135.858C123.882 135.499 124.164 135.217 124.523 135.019C124.882 134.817 125.288 134.719 125.736 134.719C126.183 134.719 126.586 134.82 126.948 135.019C127.307 135.22 127.589 135.499 127.793 135.858C127.998 136.217 128.099 136.626 128.099 137.079C128.099 137.533 127.998 137.939 127.793 138.301C127.589 138.66 127.307 138.941 126.948 139.146C126.589 139.351 126.183 139.451 125.736 139.451C125.288 139.451 124.885 139.351 124.523 139.146ZM126.622 138.669C126.883 138.517 127.091 138.304 127.236 138.028C127.384 137.753 127.458 137.435 127.458 137.082C127.458 136.73 127.384 136.412 127.236 136.137C127.088 135.861 126.883 135.644 126.622 135.496C126.361 135.345 126.065 135.271 125.733 135.271C125.4 135.271 125.107 135.345 124.843 135.496C124.579 135.647 124.375 135.861 124.223 136.137C124.072 136.415 123.998 136.73 123.998 137.082C123.998 137.435 124.072 137.753 124.223 138.028C124.375 138.307 124.579 138.52 124.843 138.669C125.104 138.82 125.4 138.894 125.733 138.894C126.065 138.894 126.358 138.82 126.622 138.669Z" fill="white"/>
<path d="M129.759 134.755H130.387V138.452L133.492 134.755H134.049V139.407H133.421V135.71L130.325 139.407H129.759V134.755ZM130.918 133.782C130.681 133.581 130.562 133.299 130.556 132.934H131.007C131.013 133.166 131.096 133.349 131.256 133.489C131.416 133.628 131.621 133.696 131.876 133.696C132.131 133.696 132.338 133.628 132.498 133.489C132.662 133.349 132.745 133.166 132.75 132.934H133.201C133.195 133.299 133.074 133.584 132.834 133.782C132.593 133.984 132.276 134.082 131.873 134.082C131.47 134.082 131.152 133.981 130.918 133.782Z" fill="white"/>
<path d="M142.595 137.338H141.533V139.407H140.904V134.755H141.533V136.798H142.603L144.24 134.755H144.922L143.09 137.012L145.053 139.407H144.308L142.592 137.338H142.595Z" fill="white"/>
<path d="M146.903 139.146C146.545 138.941 146.26 138.66 146.055 138.301C145.848 137.942 145.747 137.536 145.747 137.079C145.747 136.623 145.851 136.22 146.055 135.858C146.263 135.499 146.545 135.217 146.903 135.019C147.262 134.817 147.668 134.719 148.116 134.719C148.564 134.719 148.967 134.82 149.329 135.019C149.688 135.22 149.969 135.499 150.174 135.858C150.379 136.217 150.479 136.626 150.479 137.079C150.479 137.533 150.379 137.939 150.174 138.301C149.969 138.66 149.688 138.941 149.329 139.146C148.97 139.351 148.564 139.451 148.116 139.451C147.668 139.451 147.265 139.351 146.903 139.146ZM149.003 138.669C149.264 138.517 149.471 138.304 149.616 138.028C149.765 137.753 149.839 137.435 149.839 137.082C149.839 136.73 149.765 136.412 149.616 136.137C149.468 135.861 149.264 135.644 149.003 135.496C148.742 135.345 148.445 135.271 148.113 135.271C147.781 135.271 147.488 135.345 147.224 135.496C146.96 135.647 146.755 135.861 146.604 136.137C146.453 136.415 146.379 136.73 146.379 137.082C146.379 137.435 146.453 137.753 146.604 138.028C146.755 138.307 146.96 138.52 147.224 138.669C147.485 138.82 147.781 138.894 148.113 138.894C148.445 138.894 148.739 138.82 149.003 138.669Z" fill="white"/>
<path d="M157.34 134.755V139.407H156.765V135.728L154.882 138.841H154.597L152.715 135.719V139.407H152.139V134.755H152.777L154.749 138.109L156.756 134.755H157.34Z" fill="white"/>
<path d="M163.62 134.755V139.407H162.992V135.313H160.074V139.407H159.446V134.755H163.62Z" fill="white"/>
<path d="M169.53 134.755V139.407H168.901V135.313H166.672L166.609 136.463C166.562 137.43 166.449 138.174 166.274 138.693C166.096 139.212 165.782 139.473 165.328 139.473C165.204 139.473 165.056 139.449 164.878 139.401L164.922 138.862C165.029 138.885 165.103 138.897 165.145 138.897C165.388 138.897 165.569 138.785 165.693 138.562C165.818 138.337 165.901 138.061 165.942 137.732C165.984 137.403 166.019 136.967 166.049 136.421L166.129 134.758H169.536L169.53 134.755Z" fill="white"/>
<path d="M175.707 137.275H171.813C171.849 137.758 172.036 138.15 172.371 138.446C172.706 138.743 173.133 138.894 173.646 138.894C173.933 138.894 174.2 138.844 174.443 138.74C174.687 138.636 174.894 138.485 175.072 138.283L175.425 138.689C175.217 138.939 174.959 139.125 174.651 139.256C174.343 139.386 174.002 139.451 173.628 139.451C173.151 139.451 172.727 139.351 172.359 139.146C171.991 138.941 171.704 138.66 171.496 138.301C171.289 137.942 171.188 137.536 171.188 137.079C171.188 136.623 171.286 136.22 171.484 135.858C171.683 135.499 171.953 135.217 172.3 135.019C172.644 134.817 173.032 134.719 173.462 134.719C173.892 134.719 174.277 134.82 174.621 135.019C174.962 135.22 175.232 135.499 175.425 135.855C175.621 136.211 175.715 136.62 175.715 137.079L175.707 137.275ZM172.332 135.689C172.03 135.973 171.855 136.347 171.813 136.807H175.114C175.072 136.347 174.9 135.973 174.595 135.689C174.289 135.404 173.913 135.259 173.459 135.259C173.005 135.259 172.635 135.401 172.332 135.689Z" fill="white"/>
<path d="M179.11 137.338H178.049V139.407H177.42V134.755H178.049V136.798H179.119L180.756 134.755H181.438L179.605 137.012L181.568 139.407H180.824L179.107 137.338H179.11Z" fill="white"/>
<path d="M183.424 139.153C183.062 138.951 182.778 138.669 182.57 138.307C182.362 137.946 182.262 137.537 182.262 137.083C182.262 136.629 182.365 136.223 182.57 135.861C182.778 135.503 183.062 135.221 183.424 135.022C183.786 134.821 184.198 134.723 184.657 134.723C185.058 134.723 185.417 134.8 185.731 134.957C186.045 135.114 186.294 135.342 186.478 135.642L186.01 135.959C185.855 135.728 185.663 135.556 185.425 135.44C185.191 135.325 184.933 135.268 184.657 135.268C184.322 135.268 184.02 135.342 183.75 135.494C183.48 135.645 183.273 135.858 183.122 136.134C182.97 136.413 182.896 136.727 182.896 137.08C182.896 137.433 182.97 137.756 183.122 138.032C183.273 138.307 183.48 138.518 183.75 138.669C184.02 138.82 184.319 138.895 184.657 138.895C184.933 138.895 185.191 138.838 185.425 138.726C185.663 138.613 185.855 138.441 186.01 138.213L186.478 138.53C186.294 138.829 186.045 139.061 185.725 139.215C185.408 139.372 185.049 139.449 184.654 139.449C184.195 139.449 183.783 139.348 183.421 139.15L183.424 139.153Z" fill="white"/>
<path d="M15.5234 92.0516C17.5245 92.0516 19.1467 90.4294 19.1467 88.4283C19.1467 86.4272 17.5245 84.8049 15.5234 84.8049C13.5222 84.8049 11.9 86.4272 11.9 88.4283C11.9 90.4294 13.5222 92.0516 15.5234 92.0516Z" fill="white"/>
<path d="M32.2935 92.0516C34.2946 92.0516 35.9168 90.4294 35.9168 88.4283C35.9168 86.4272 34.2946 84.8049 32.2935 84.8049C30.2924 84.8049 28.6702 86.4272 28.6702 88.4283C28.6702 90.4294 30.2924 92.0516 32.2935 92.0516Z" fill="white"/>
<path d="M168.819 88.1591C171.12 88.3993 172.442 87.7232 172.442 86.1369H176.605C176.605 89.9055 174.743 92.0107 171.218 92.1679C168.181 92.2479 165.098 90.5401 161.424 90.1457C159.369 89.9085 158.192 90.6616 158.145 92.2094H154.032C154.032 88.3607 156.09 86.1369 159.514 86.1369C162.159 86.1369 165.047 87.8033 168.816 88.1591H168.819Z" fill="white"/>
</svg>
