<svg width="241" height="209" viewBox="0 0 241 209" fill="none" xmlns="http://www.w3.org/2000/svg">
<path d="M123.864 0.947266V40.2316C119.458 38.8648 114.698 40.2354 111.884 43.656C108.685 47.5425 108.597 53.3569 111.808 57.5792C114.198 61.229 118.515 63.0997 122.7 62.3247C127.254 61.4771 130.793 57.6518 131.335 52.914V10.8275C133.122 11.3047 135.615 12.1064 138.413 13.4732C151.409 19.8144 157.036 31.531 157.861 33.31C163.461 45.4122 162.896 60.2135 156.383 70.9603C150.615 80.4779 139.028 88.7127 133.13 90.6483C132.446 90.8735 130.442 91.4729 128.464 93.1718C125.555 95.6724 124.395 99.1045 123.868 101.582C127.144 101.304 147.794 99.2 161.362 80.9933C163.599 77.9926 173.807 63.5998 171.085 43.9653C169.184 30.2559 161.988 21.2461 159.105 17.9857C145.793 2.92866 127.869 1.22978 123.864 0.947266Z" fill="white"/>
<path d="M116.088 0.947266C115.71 2.3331 114.989 4.29158 113.538 6.29589C110.953 9.86545 107.594 11.4422 106.021 12.0568C90.1199 19.0203 79.7816 34.3103 79.8388 50.6539C79.9037 70.319 95.0066 88.1553 116.088 91.9578V100.903C88.9517 97.9669 68.9392 74.339 70.2716 48.3175C71.5086 24.117 90.914 3.60058 116.088 0.947266Z" fill="white"/>
<path d="M116.087 20.0821V29.34C115.32 29.5462 103.176 33.0509 99.8315 44.4315C96.6246 55.331 103.149 67.8188 114.068 71.5029C121.669 74.0684 130.942 72.2092 136.86 65.6694C143.205 58.6563 144.17 47.9476 139.039 39.4532V25.9957C149.244 33.5968 154.299 46.0654 151.875 57.7324C148.87 72.1748 134.89 83.0591 118.58 82.5475C105.791 81.2151 94.9716 72.6596 91.0431 60.7675C87.3629 49.6274 90.1841 36.9487 98.4342 28.7177C105.016 22.1475 112.922 20.5478 116.091 20.0821H116.087Z" fill="white"/>
<path d="M69.8426 192.137H71.473V205.071H69.8426V192.137Z" fill="white"/>
<path d="M74.9907 192.137H76.6211V205.071H74.9907V192.137Z" fill="white"/>
<path d="M90.4524 191.901C92.3485 191.901 93.828 192.535 94.8908 193.804C95.9536 195.072 96.485 196.672 96.485 198.604C96.485 200.537 95.9536 202.137 94.8908 203.405C93.828 204.673 92.3485 205.307 90.4524 205.307C88.5443 205.307 87.0588 204.679 85.996 203.423C84.9453 202.155 84.4199 200.549 84.4199 198.604C84.4199 196.66 84.9453 195.06 85.996 193.804C87.0588 192.535 88.5443 191.901 90.4524 191.901ZM87.1735 202.318C87.9102 203.32 89.0032 203.821 90.4524 203.821C91.9017 203.821 92.9947 203.32 93.7314 202.318C94.4681 201.315 94.8364 200.078 94.8364 198.604C94.8364 197.131 94.4681 195.893 93.7314 194.89C92.9947 193.888 91.9017 193.387 90.4524 193.387C89.0032 193.387 87.9102 193.888 87.1735 194.89C86.4368 195.893 86.0684 197.131 86.0684 198.604C86.0684 200.078 86.4368 201.315 87.1735 202.318Z" fill="white"/>
<path d="M98.5387 192.137H100.169V195.832C100.169 196.171 100.175 196.43 100.187 196.611C100.211 196.781 100.278 197.004 100.386 197.282C100.495 197.547 100.658 197.753 100.876 197.898C101.093 198.03 101.413 198.151 101.836 198.26C102.271 198.369 102.802 198.423 103.43 198.423C104.469 198.423 105.501 198.302 106.528 198.061V192.137H108.158V205.071H106.528V199.564C105.477 199.794 104.378 199.908 103.231 199.908C102.361 199.908 101.618 199.824 101.002 199.655C100.399 199.486 99.9396 199.286 99.6256 199.057C99.3116 198.828 99.0701 198.514 98.901 198.115C98.7319 197.704 98.6293 197.348 98.593 197.046C98.5568 196.732 98.5387 196.328 98.5387 195.832V192.137Z" fill="white"/>
<path d="M113.08 203.586H120.743V205.071H111.449V192.137H120.453V193.622H113.08V197.626H119.022V199.111H113.08V203.586Z" fill="white"/>
<path d="M123.267 192.137H128.738C130.139 192.137 131.22 192.475 131.981 193.151C132.742 193.828 133.122 194.776 133.122 195.995C133.122 197.227 132.742 198.187 131.981 198.876C131.22 199.552 130.139 199.89 128.738 199.89H124.898V205.071H123.267V192.137ZM124.898 198.441H128.466C130.471 198.441 131.474 197.632 131.474 196.014C131.474 194.395 130.471 193.586 128.466 193.586H124.898V198.441Z" fill="white"/>
<path d="M137.334 203.586H144.997V205.071H135.704V192.137H144.707V193.622H137.334V197.626H143.276V199.111H137.334V203.586Z" fill="white"/>
<path d="M157.25 203.586H159.116V208.242H157.503V205.071H147.703V208.242H146.09V203.586H147.431C148.518 201.291 149.061 198.345 149.061 194.746V192.137H157.25V203.586ZM155.637 203.586V193.622H150.619V195.017C150.619 198.544 150.136 201.4 149.17 203.586H155.637Z" fill="white"/>
<path d="M162.88 203.622H166.322C168.412 203.622 169.456 202.771 169.456 201.068C169.456 199.377 168.412 198.532 166.322 198.532H162.88V203.622ZM166.612 205.071H161.25V192.137H162.88V197.082H166.612C168.037 197.082 169.142 197.439 169.927 198.151C170.712 198.852 171.105 199.824 171.105 201.068C171.105 202.336 170.712 203.32 169.927 204.021C169.154 204.721 168.049 205.071 166.612 205.071Z" fill="white"/>
<path d="M4.28899 131.251C4.28899 127.548 5.01054 125.021 6.45364 123.673C7.89673 122.325 10.7066 121.65 14.8793 121.65H46.4213C50.6246 121.65 53.4421 122.325 54.8699 123.673C56.2977 125.024 57.0116 127.548 57.0116 131.251V152.764C57.0116 156.498 56.2825 159.04 54.8241 160.392C53.3657 161.743 50.5635 162.415 46.4213 162.415H14.8832C10.7104 162.415 7.90055 161.739 6.45746 160.392C5.01436 159.044 4.29281 156.502 4.29281 152.764V131.251H4.28899ZM14.2227 154.6H47.0818V129.132H14.2227V154.6Z" fill="white"/>
<path d="M74.1949 162.415V121.645H84.2202V154.787H116.186V162.415H74.1949Z" fill="white"/>
<path d="M127.392 162.415V121.645H171.124V128.849H137.417V137.748H157.048V144.761H137.417V154.787H171.639V162.415H127.388H127.392Z" fill="white"/>
<path d="M186 162.415V121.645H192.826L227.426 148.713V121.645H236.417V162.415H229.545L195.041 134.923V162.415H186Z" fill="white"/>
<path d="M6.11051 174.406H3.84279V179.678H3.03344V174.406H0.769531V173.688H6.11051V174.406Z" fill="white"/>
<path d="M10.1537 179.713V181.889H9.3443V179.713L6.67953 173.688H7.5347L9.76806 178.793L12.0358 173.688H12.8337L10.1575 179.713H10.1537ZM7.39726 179.327H12.0969V179.919H7.39726V179.327Z" fill="white"/>
<path d="M19.1066 174.024C19.5609 174.28 19.9197 174.638 20.1755 175.1C20.4351 175.562 20.5611 176.093 20.5611 176.685C20.5611 177.277 20.4313 177.815 20.1755 178.281C19.9159 178.743 19.5609 179.101 19.1104 179.357C18.6599 179.613 18.1483 179.739 17.5795 179.739C17.0946 179.739 16.6556 179.64 16.2624 179.437C15.8729 179.235 15.5523 178.941 15.3003 178.555V181.892H14.4909V173.692H15.2659V174.875C15.5103 174.482 15.831 174.177 16.228 173.963C16.625 173.749 17.0755 173.642 17.5795 173.642C18.1407 173.642 18.6484 173.768 19.1066 174.024ZM18.6637 178.727C19.0073 178.533 19.2745 178.258 19.4654 177.903C19.6601 177.548 19.7556 177.139 19.7556 176.685C19.7556 176.23 19.6601 175.826 19.4654 175.471C19.2707 175.12 19.0035 174.841 18.6637 174.646C18.3201 174.448 17.9422 174.348 17.526 174.348C17.1099 174.348 16.7205 174.448 16.3807 174.646C16.0409 174.845 15.7775 175.12 15.5828 175.471C15.3881 175.822 15.2927 176.227 15.2927 176.685C15.2927 177.143 15.3881 177.548 15.5828 177.903C15.7775 178.262 16.0409 178.536 16.3807 178.727C16.7167 178.922 17.0984 179.017 17.526 179.017C17.9536 179.017 18.3239 178.922 18.6637 178.727Z" fill="white"/>
<path d="M23.6993 174.406V176.731H26.3183V177.323H23.6993V179.682H22.89V177.323H22.0921V176.731H22.89V173.688H27.1276V174.406H23.6993Z" fill="white"/>
<path d="M33.0823 176.307C33.4755 176.636 33.6741 177.105 33.6741 177.72C33.6741 178.334 33.4603 178.846 33.0365 179.19C32.6127 179.533 32.0019 179.697 31.2154 179.69L28.8447 179.678V173.688H29.654V175.784L31.3643 175.807C32.1164 175.815 32.6891 175.983 33.0823 176.307ZM32.4257 178.739C32.712 178.506 32.8532 178.166 32.8532 177.72C32.8532 177.273 32.712 176.952 32.4333 176.739C32.1508 176.525 31.7308 176.418 31.1696 176.407L29.654 176.384V179.048L31.1696 179.071C31.7232 179.079 32.1432 178.968 32.4295 178.735L32.4257 178.739ZM34.6743 173.688H35.4837V179.678H34.6743V173.688Z" fill="white"/>
<path d="M38.1951 173.688H39.0044V176.342H42.7763V173.688H43.5857V179.678H42.7763V177.036H39.0044V179.678H38.1951V173.688Z" fill="white"/>
<path d="M54.8358 179.713V181.889H54.0265V179.713L51.3617 173.688H52.2169L54.4502 178.793L56.718 173.688H57.5159L54.8396 179.713H54.8358Z" fill="white"/>
<path d="M59.1761 173.688H59.9855V178.449L63.9826 173.688H64.7003V179.678H63.891V174.917L59.9053 179.678H59.1761V173.688ZM60.6688 172.436C60.3634 172.176 60.2107 171.814 60.2031 171.344H60.7834C60.791 171.642 60.8979 171.878 61.104 172.058C61.3102 172.237 61.5736 172.325 61.9019 172.325C62.2303 172.325 62.4975 172.237 62.7037 172.058C62.9136 171.878 63.0205 171.642 63.0282 171.344H63.6085C63.6008 171.814 63.4443 172.18 63.1351 172.436C62.8258 172.695 62.4173 172.821 61.8981 172.821C61.3789 172.821 60.9704 172.692 60.6688 172.436Z" fill="white"/>
<path d="M75.7029 177.014H74.3362V179.678H73.5268V173.688H74.3362V176.319H75.7144L77.8218 173.688H78.6998L76.3405 176.594L78.8678 179.678H77.9096L75.6991 177.014H75.7029Z" fill="white"/>
<path d="M85.5757 176.933H80.563C80.6088 177.555 80.8493 178.059 81.2807 178.441C81.7121 178.823 82.2619 179.017 82.9223 179.017C83.2927 179.017 83.6363 178.953 83.9493 178.819C84.2624 178.685 84.5296 178.491 84.7587 178.231L85.213 178.754C84.9457 179.075 84.6136 179.315 84.2166 179.483C83.8195 179.651 83.3805 179.735 82.8994 179.735C82.2848 179.735 81.7388 179.605 81.2654 179.342C80.7921 179.079 80.4217 178.716 80.1545 178.254C79.8873 177.792 79.7574 177.269 79.7574 176.681C79.7574 176.093 79.8834 175.574 80.1392 175.108C80.395 174.646 80.7424 174.283 81.1853 174.028C81.6281 173.768 82.1283 173.642 82.6818 173.642C83.2354 173.642 83.7317 173.772 84.1746 174.028C84.6136 174.287 84.961 174.646 85.2092 175.104C85.4611 175.562 85.5833 176.089 85.5833 176.681L85.5718 176.933H85.5757ZM81.2311 174.89C80.8417 175.257 80.6164 175.738 80.563 176.33H84.8121C84.7587 175.738 84.5372 175.257 84.144 174.89C83.7508 174.524 83.2659 174.337 82.6818 174.337C82.0977 174.337 81.6205 174.52 81.2311 174.89Z" fill="white"/>
<path d="M96.0558 173.688V179.678H87.7866V173.688H88.5959V178.972H91.5356V173.688H92.3449V178.972H95.2502V173.688H96.0596H96.0558Z" fill="white"/>
<path d="M104.016 176.933H99.0028C99.0487 177.555 99.2892 178.059 99.7206 178.441C100.152 178.823 100.702 179.017 101.362 179.017C101.733 179.017 102.076 178.953 102.389 178.819C102.702 178.685 102.969 178.491 103.199 178.231L103.653 178.754C103.386 179.075 103.053 179.315 102.656 179.483C102.259 179.651 101.82 179.735 101.339 179.735C100.725 179.735 100.179 179.605 99.7053 179.342C99.2319 179.079 98.8616 178.716 98.5944 178.254C98.3271 177.792 98.1973 177.269 98.1973 176.681C98.1973 176.093 98.3233 175.574 98.5791 175.108C98.8349 174.646 99.1823 174.283 99.6251 174.028C100.068 173.768 100.568 173.642 101.122 173.642C101.675 173.642 102.172 173.772 102.614 174.028C103.053 174.287 103.401 174.646 103.649 175.104C103.901 175.562 104.023 176.089 104.023 176.681L104.012 176.933H104.016ZM99.6709 174.89C99.2815 175.257 99.0563 175.738 99.0028 176.33H103.252C103.199 175.738 102.977 175.257 102.584 174.89C102.191 174.524 101.706 174.337 101.122 174.337C100.538 174.337 100.06 174.52 99.6709 174.89Z" fill="white"/>
<path d="M106.226 173.688H107.036V176.342H110.808V173.688H111.617V179.678H110.808V177.036H107.036V179.678H106.226V173.688Z" fill="white"/>
<path d="M114.313 172.208C114.198 172.093 114.141 171.956 114.141 171.799C114.141 171.643 114.198 171.513 114.313 171.402C114.427 171.288 114.568 171.231 114.732 171.231C114.897 171.231 115.042 171.284 115.152 171.395C115.263 171.506 115.324 171.635 115.324 171.788C115.324 171.956 115.267 172.097 115.152 172.208C115.038 172.323 114.897 172.38 114.732 172.38C114.568 172.38 114.423 172.323 114.313 172.208ZM114.324 173.689H115.133V179.679H114.324V173.689Z" fill="white"/>
<path d="M124.097 171.226H124.849V181.885H124.097V171.226Z" fill="white"/>
<path d="M139.075 177.014H137.777V179.678H136.967V177.014H135.669L133.837 179.678H132.867L135.02 176.594L133.039 173.688H133.917L135.669 176.319H136.967V173.688H137.777V176.319H139.075L140.838 173.688H141.716L139.735 176.605L141.888 179.682H140.919L139.075 177.017V177.014Z" fill="white"/>
<path d="M143.64 173.688H144.449V178.449L148.447 173.688H149.164V179.678H148.355V174.918L144.369 179.678H143.64V173.688Z" fill="white"/>
<path d="M156.784 173.688V179.678H155.974V174.406H153.104L153.023 175.887C152.962 177.132 152.817 178.09 152.592 178.758C152.363 179.426 151.958 179.762 151.374 179.762C151.214 179.762 151.023 179.732 150.794 179.671L150.851 178.976C150.989 179.006 151.084 179.022 151.137 179.022C151.45 179.022 151.683 178.877 151.844 178.59C152.004 178.3 152.111 177.945 152.164 177.521C152.218 177.098 152.264 176.536 152.302 175.834L152.405 173.692H156.791L156.784 173.688Z" fill="white"/>
<path d="M160.407 179.342C159.945 179.079 159.579 178.716 159.315 178.254C159.048 177.792 158.918 177.269 158.918 176.681C158.918 176.093 159.052 175.574 159.315 175.108C159.583 174.646 159.945 174.283 160.407 174.028C160.869 173.768 161.392 173.642 161.969 173.642C162.545 173.642 163.064 173.772 163.53 174.028C163.992 174.287 164.355 174.646 164.618 175.108C164.882 175.57 165.011 176.097 165.011 176.681C165.011 177.265 164.882 177.788 164.618 178.254C164.355 178.716 163.992 179.079 163.53 179.342C163.068 179.605 162.545 179.735 161.969 179.735C161.392 179.735 160.873 179.605 160.407 179.342ZM163.11 178.727C163.446 178.533 163.713 178.258 163.9 177.903C164.091 177.548 164.187 177.139 164.187 176.685C164.187 176.23 164.091 175.822 163.9 175.467C163.71 175.112 163.446 174.833 163.11 174.642C162.774 174.448 162.392 174.352 161.965 174.352C161.537 174.352 161.159 174.448 160.82 174.642C160.48 174.837 160.216 175.112 160.022 175.467C159.827 175.826 159.732 176.23 159.732 176.685C159.732 177.139 159.827 177.548 160.022 177.903C160.216 178.262 160.48 178.536 160.82 178.727C161.156 178.922 161.537 179.017 161.965 179.017C162.392 179.017 162.77 178.922 163.11 178.727Z" fill="white"/>
<path d="M167.149 173.688H167.958V178.449L171.955 173.688H172.673V179.678H171.864V174.917L167.878 179.678H167.149V173.688ZM168.642 172.436C168.336 172.176 168.183 171.814 168.176 171.344H168.756C168.764 171.642 168.871 171.878 169.077 172.058C169.283 172.237 169.546 172.325 169.875 172.325C170.203 172.325 170.47 172.237 170.676 172.058C170.886 171.878 170.993 171.642 171.001 171.344H171.581C171.574 171.814 171.417 172.18 171.108 172.436C170.799 172.695 170.39 172.821 169.871 172.821C169.352 172.821 168.943 172.692 168.642 172.436Z" fill="white"/>
<path d="M183.676 177.014H182.309V179.678H181.5V173.688H182.309V176.319H183.687L185.794 173.688H186.673L184.313 176.594L186.841 179.678H185.882L183.672 177.014H183.676Z" fill="white"/>
<path d="M189.224 179.342C188.762 179.079 188.395 178.716 188.132 178.254C187.864 177.792 187.735 177.269 187.735 176.681C187.735 176.093 187.868 175.574 188.132 175.108C188.399 174.646 188.762 174.283 189.224 174.028C189.686 173.768 190.209 173.642 190.785 173.642C191.361 173.642 191.881 173.772 192.346 174.028C192.808 174.287 193.171 174.646 193.435 175.108C193.698 175.57 193.828 176.097 193.828 176.681C193.828 177.265 193.698 177.788 193.435 178.254C193.171 178.716 192.808 179.079 192.346 179.342C191.885 179.605 191.361 179.735 190.785 179.735C190.209 179.735 189.689 179.605 189.224 179.342ZM191.926 178.727C192.262 178.533 192.53 178.258 192.717 177.903C192.908 177.548 193.003 177.139 193.003 176.685C193.003 176.23 192.908 175.822 192.717 175.467C192.526 175.112 192.262 174.833 191.926 174.642C191.591 174.448 191.209 174.352 190.781 174.352C190.354 174.352 189.976 174.448 189.636 174.642C189.296 174.837 189.033 175.112 188.838 175.467C188.643 175.826 188.548 176.23 188.548 176.685C188.548 177.139 188.643 177.548 188.838 177.903C189.033 178.262 189.296 178.536 189.636 178.727C189.972 178.922 190.354 179.017 190.781 179.017C191.209 179.017 191.587 178.922 191.926 178.727Z" fill="white"/>
<path d="M202.661 173.688V179.678H201.921V174.941L199.496 178.949H199.13L196.706 174.929V179.678H195.965V173.688H196.786L199.325 178.006L201.909 173.688H202.661Z" fill="white"/>
<path d="M210.748 173.688V179.678H209.938V174.406H206.182V179.678H205.372V173.688H210.748Z" fill="white"/>
<path d="M218.356 173.688V179.678H217.547V174.406H214.676L214.596 175.887C214.535 177.132 214.39 178.09 214.165 178.758C213.935 179.426 213.531 179.762 212.947 179.762C212.786 179.762 212.595 179.732 212.366 179.671L212.424 178.976C212.561 179.006 212.657 179.022 212.71 179.022C213.023 179.022 213.256 178.877 213.416 178.59C213.577 178.3 213.684 177.945 213.737 177.521C213.79 177.098 213.836 176.536 213.874 175.834L213.977 173.692H218.364L218.356 173.688Z" fill="white"/>
<path d="M226.309 176.933H221.296C221.342 177.555 221.583 178.059 222.014 178.441C222.446 178.823 222.995 179.017 223.656 179.017C224.026 179.017 224.37 178.953 224.683 178.819C224.996 178.685 225.263 178.491 225.492 178.231L225.946 178.754C225.679 179.075 225.347 179.315 224.95 179.483C224.553 179.651 224.114 179.735 223.633 179.735C223.018 179.735 222.472 179.605 221.999 179.342C221.526 179.079 221.155 178.716 220.888 178.254C220.621 177.792 220.491 177.269 220.491 176.681C220.491 176.093 220.617 175.574 220.873 175.108C221.129 174.646 221.476 174.283 221.923 174.028C222.365 173.768 222.866 173.642 223.419 173.642C223.973 173.642 224.469 173.772 224.912 174.028C225.351 174.287 225.698 174.646 225.946 175.104C226.198 175.562 226.321 176.089 226.321 176.681L226.309 176.933ZM221.965 174.89C221.575 175.257 221.35 175.738 221.296 176.33H225.546C225.492 175.738 225.271 175.257 224.878 174.89C224.484 174.524 223.999 174.337 223.415 174.337C222.831 174.337 222.354 174.52 221.965 174.89Z" fill="white"/>
<path d="M230.692 177.014H229.325V179.678H228.516V173.688H229.325V176.319H230.703L232.811 173.688H233.689L231.329 176.594L233.857 179.678H232.898L230.688 177.014H230.692Z" fill="white"/>
<path d="M236.246 179.35C235.78 179.091 235.413 178.728 235.146 178.262C234.879 177.796 234.749 177.27 234.749 176.685C234.749 176.101 234.883 175.578 235.146 175.113C235.413 174.651 235.78 174.288 236.246 174.032C236.712 173.773 237.242 173.647 237.834 173.647C238.349 173.647 238.811 173.746 239.216 173.948C239.621 174.15 239.941 174.444 240.178 174.83L239.575 175.239C239.376 174.941 239.128 174.719 238.823 174.57C238.521 174.422 238.189 174.349 237.834 174.349C237.403 174.349 237.013 174.444 236.666 174.639C236.318 174.834 236.051 175.109 235.856 175.464C235.662 175.823 235.566 176.227 235.566 176.682C235.566 177.136 235.662 177.552 235.856 177.907C236.051 178.262 236.318 178.533 236.666 178.728C237.013 178.923 237.399 179.018 237.834 179.018C238.189 179.018 238.521 178.946 238.823 178.8C239.128 178.655 239.376 178.434 239.575 178.14L240.178 178.549C239.941 178.934 239.621 179.232 239.208 179.43C238.8 179.633 238.338 179.732 237.83 179.732C237.238 179.732 236.708 179.602 236.242 179.346L236.246 179.35Z" fill="white"/>
<path d="M20.0645 118.705C22.6411 118.705 24.7298 116.617 24.7298 114.04C24.7298 111.463 22.6411 109.375 20.0645 109.375C17.488 109.375 15.3993 111.463 15.3993 114.04C15.3993 116.617 17.488 118.705 20.0645 118.705Z" fill="white"/>
<path d="M41.657 118.705C44.2335 118.705 46.3222 116.617 46.3222 114.04C46.3222 111.463 44.2335 109.375 41.657 109.375C39.0804 109.375 36.9917 111.463 36.9917 114.04C36.9917 116.617 39.0804 118.705 41.657 118.705Z" fill="white"/>
<path d="M217.441 113.693C220.404 114.003 222.106 113.132 222.106 111.09H227.466C227.466 115.942 225.069 118.653 220.53 118.855C216.62 118.958 212.65 116.759 207.92 116.251C205.274 115.946 203.758 116.916 203.697 118.908H198.402C198.402 113.953 201.052 111.09 205.461 111.09C208.866 111.09 212.585 113.235 217.437 113.693H217.441Z" fill="white"/>
</svg>
