<svg width="52" height="51" viewBox="0 0 52 51" fill="none" xmlns="http://www.w3.org/2000/svg">
<path d="M36.327 29.5295H33.0531V20.526C33.0531 20.309 32.9668 20.1008 32.8133 19.9473C32.6598 19.7938 32.4516 19.7075 32.2346 19.7075H29.7791V13.1596C29.7791 9.68636 28.3993 6.35537 25.9434 3.89942C23.4874 1.44346 20.1565 0.0637207 16.6832 0.0637207C13.21 0.0637207 9.87897 1.44346 7.42302 3.89942C4.96707 6.35537 3.58732 9.68636 3.58732 13.1596V19.7075H1.13185C0.914769 19.7075 0.706583 19.7938 0.553085 19.9473C0.399588 20.1008 0.313354 20.309 0.313354 20.526V46.7178C0.313354 46.9349 0.399588 47.1431 0.553085 47.2966C0.706583 47.4501 0.914769 47.5363 1.13185 47.5363H24.8681C24.8681 48.4046 25.2131 49.2373 25.8271 49.8513C26.441 50.4653 27.2738 50.8103 28.1421 50.8103H36.327C37.1953 50.8103 38.0281 50.4653 38.6421 49.8513C39.2561 49.2373 39.601 48.4046 39.601 47.5363V32.8034C39.601 31.9351 39.2561 31.1024 38.6421 30.4884C38.0281 29.8744 37.1953 29.5295 36.327 29.5295ZM24.8681 19.7075V17.2521H28.1421V19.7075H24.8681ZM23.2311 19.7075H10.1353V13.1596C10.1353 11.423 10.8251 9.75749 12.0531 8.52951C13.2811 7.30153 14.9466 6.61166 16.6832 6.61166C18.4198 6.61166 20.0853 7.30153 21.3133 8.52951C22.5413 9.75749 23.2311 11.423 23.2311 13.1596V19.7075ZM16.6832 1.70071C19.7213 1.70396 22.634 2.91227 24.7823 5.06053C26.9305 7.20878 28.1389 10.1215 28.1421 13.1596V15.6151H24.8681V13.1596C24.8681 10.9888 24.0058 8.90696 22.4708 7.37199C20.9359 5.83701 18.854 4.97468 16.6832 4.97468C14.5124 4.97468 12.4306 5.83701 10.8956 7.37199C9.36062 8.90696 8.49828 10.9888 8.49828 13.1596V15.6151H5.22431V13.1596C5.22756 10.1215 6.43588 7.20878 8.58413 5.06053C10.7324 2.91227 13.6451 1.70396 16.6832 1.70071ZM5.22431 17.2521H8.49828V19.7075H5.22431V17.2521ZM1.95034 45.8993V21.3445H31.4161V29.5295H29.7791V23.8C29.7791 23.5829 29.6929 23.3747 29.5394 23.2212C29.3859 23.0677 29.1777 22.9815 28.9606 22.9815H4.40582C4.18874 22.9815 3.98055 23.0677 3.82706 23.2212C3.67356 23.3747 3.58732 23.5829 3.58732 23.8V43.4438C3.58732 43.6609 3.67356 43.8691 3.82706 44.0226C3.98055 44.1761 4.18874 44.2623 4.40582 44.2623H24.8681V45.8993H1.95034ZM24.8681 32.8034V42.6253H5.22431V24.6185H28.1421V29.5295C27.2738 29.5295 26.441 29.8744 25.8271 30.4884C25.2131 31.1024 24.8681 31.9351 24.8681 32.8034ZM37.964 47.5363C37.964 47.9704 37.7915 48.3868 37.4846 48.6938C37.1776 49.0008 36.7612 49.1733 36.327 49.1733H28.1421C27.7079 49.1733 27.2916 49.0008 26.9846 48.6938C26.6776 48.3868 26.5051 47.9704 26.5051 47.5363V32.8034C26.5051 32.3693 26.6776 31.9529 26.9846 31.6459C27.2916 31.3389 27.7079 31.1664 28.1421 31.1664H36.327C36.7612 31.1664 37.1776 31.3389 37.4846 31.6459C37.7915 31.9529 37.964 32.3693 37.964 32.8034V47.5363Z" fill="#117169"/>
<path d="M34.9413 37.1005L33.8585 38.3283C34.2326 38.6581 34.4974 39.0941 34.6176 39.5782C34.7379 40.0623 34.7078 40.5715 34.5315 41.0381C34.3552 41.5047 34.041 41.9065 33.6306 42.1901C33.2203 42.4737 32.7334 42.6256 32.2346 42.6256C31.7358 42.6256 31.2488 42.4737 30.8385 42.1901C30.4282 41.9065 30.1139 41.5047 29.9376 41.0381C29.7613 40.5715 29.7313 40.0623 29.8515 39.5782C29.9717 39.0941 30.2365 38.6581 30.6107 38.3283L29.5278 37.1005C28.9043 37.6503 28.463 38.377 28.2627 39.1838C28.0624 39.9905 28.1125 40.8392 28.4064 41.6168C28.7003 42.3944 29.224 43.0641 29.9078 43.5367C30.5917 44.0093 31.4033 44.2625 32.2346 44.2625C33.0658 44.2625 33.8774 44.0093 34.5613 43.5367C35.2451 43.0641 35.7689 42.3944 36.0628 41.6168C36.3566 40.8392 36.4067 39.9905 36.2064 39.1838C36.0061 38.377 35.5648 37.6503 34.9413 37.1005Z" fill="#117169"/>
<path d="M31.4161 36.0774H33.0531V39.3514H31.4161V36.0774Z" fill="#117169"/>
<path d="M16.6832 26.2555C15.3811 26.2568 14.1328 26.7746 13.2121 27.6953C12.2914 28.616 11.7736 29.8644 11.7723 31.1664C11.7713 31.8548 11.9168 32.5354 12.1991 33.1633C12.4813 33.7911 12.8938 34.3517 13.4092 34.8079V37.7144C13.4092 38.5827 13.7542 39.4154 14.3682 40.0294C14.9821 40.6434 15.8149 40.9883 16.6832 40.9883C17.5515 40.9883 18.3843 40.6434 18.9983 40.0294C19.6122 39.4154 19.9572 38.5827 19.9572 37.7144V34.8079C20.4726 34.3517 20.8851 33.7911 21.1674 33.1633C21.4496 32.5354 21.5951 31.8548 21.5942 31.1664C21.5929 29.8644 21.075 28.616 20.1543 27.6953C19.2336 26.7746 17.9853 26.2568 16.6832 26.2555ZM18.6476 33.7692C18.5459 33.8455 18.4634 33.9443 18.4066 34.058C18.3498 34.1716 18.3202 34.297 18.3202 34.424V37.7144C18.3202 38.1485 18.1477 38.5649 17.8407 38.8719C17.5337 39.1789 17.1174 39.3514 16.6832 39.3514C16.2491 39.3514 15.8327 39.1789 15.5257 38.8719C15.2187 38.5649 15.0462 38.1485 15.0462 37.7144V34.4224C15.0462 34.2953 15.0166 34.17 14.9598 34.0564C14.903 33.9427 14.8205 33.8438 14.7188 33.7676C14.3129 33.4661 13.9832 33.0738 13.7558 32.6222C13.5284 32.1706 13.4097 31.6721 13.4092 31.1664C13.4092 30.2981 13.7542 29.4654 14.3682 28.8514C14.9821 28.2374 15.8149 27.8925 16.6832 27.8925C17.5515 27.8925 18.3843 28.2374 18.9983 28.8514C19.6122 29.4654 19.9572 30.2981 19.9572 31.1664C19.9569 31.6723 19.8384 32.1712 19.611 32.6231C19.3836 33.075 19.0537 33.4675 18.6476 33.7692Z" fill="#117169"/>
<path d="M42.0565 25.437C41.5708 25.437 41.0961 25.581 40.6923 25.8508C40.2885 26.1206 39.9738 26.5041 39.7879 26.9528C39.6021 27.4015 39.5534 27.8952 39.6482 28.3715C39.7429 28.8478 39.9768 29.2853 40.3202 29.6288C40.6636 29.9722 41.1011 30.206 41.5774 30.3008C42.0538 30.3955 42.5475 30.3469 42.9961 30.161C43.4448 29.9752 43.8283 29.6605 44.0981 29.2567C44.3679 28.8529 44.512 28.3781 44.512 27.8925C44.512 27.2412 44.2533 26.6167 43.7928 26.1562C43.3323 25.6957 42.7077 25.437 42.0565 25.437ZM42.0565 28.711C41.8946 28.711 41.7363 28.663 41.6017 28.573C41.4671 28.4831 41.3622 28.3553 41.3003 28.2057C41.2383 28.0561 41.2221 27.8916 41.2537 27.7328C41.2853 27.574 41.3632 27.4282 41.4777 27.3137C41.5922 27.1992 41.738 27.1213 41.8968 27.0897C42.0556 27.0581 42.2201 27.0743 42.3697 27.1363C42.5193 27.1982 42.6471 27.3031 42.737 27.4377C42.827 27.5723 42.875 27.7306 42.875 27.8925C42.875 28.1095 42.7887 28.3177 42.6352 28.4712C42.4817 28.6247 42.2736 28.711 42.0565 28.711Z" fill="#117169"/>
<path d="M42.0565 22.163V23.8C43.1415 23.8013 44.1816 24.2329 44.9488 25.0001C45.7161 25.7673 46.1476 26.8075 46.1489 27.8925H47.7859C47.7842 26.3735 47.18 24.9172 46.1059 23.8431C45.0318 22.7689 43.5755 22.1648 42.0565 22.163Z" fill="#117169"/>
<path d="M42.0565 18.889V20.526C44.0095 20.5282 45.8819 21.305 47.2629 22.686C48.6439 24.067 49.4207 25.9394 49.4229 27.8925H51.0599C51.0571 25.5055 50.1076 23.2171 48.4197 21.5292C46.7319 19.8413 44.4435 18.8919 42.0565 18.889Z" fill="#117169"/>
</svg>
