<svg width="57" height="51" viewBox="0 0 57 51" fill="none" xmlns="http://www.w3.org/2000/svg">
<path d="M55.6396 0.0788574H17.5084C12.3436 0.0788574 8.14105 6.05994 8.14105 13.4123C8.14105 13.4174 8.14393 13.4218 8.14404 13.427C8.14825 20.5062 12.0548 26.295 16.9603 26.7027V33.7633H9.37911V28.3483C9.37911 26.7414 8.07189 25.4342 6.46498 25.4342H1.65707L1.65707 24.0159C1.65707 23.6539 1.36335 23.3602 1.00132 23.3602C0.639302 23.3602 0.345582 23.6539 0.345582 24.0159L0.345581 50.1695C0.345581 50.5316 0.639301 50.8253 1.00132 50.8253C1.36334 50.8253 1.65706 50.5316 1.65706 50.1695L1.65707 49.4362H6.46498C8.07189 49.4362 9.37911 48.129 9.37911 46.5221V41.0499H16.9603V42.1744C16.9603 43.7813 18.2675 45.0885 19.8744 45.0885H23.72C25.3261 45.0885 26.6333 43.7813 26.6333 42.1744V26.7423H42.442C47.6059 26.7423 51.8076 20.7638 51.8076 13.4157C51.8076 11.433 51.5027 9.50877 50.9324 7.76247C56.6522 5.2298 56.311 0.861385 56.292 0.670555C56.2603 0.350177 55.9317 0.0788574 55.6396 0.0788574ZM47.5633 3.09031L47.5595 3.0933C47.5554 3.09661 47.5502 3.09714 47.5462 3.10056C47.5426 3.10355 47.5413 3.10803 47.5378 3.11102C45.7272 4.50404 44.5382 6.10199 43.8602 7.19979C43.2591 8.17146 42.2285 8.7512 41.104 8.7512H37.3181C36.2782 8.7512 35.2613 9.11322 34.4553 9.76896C34.356 9.84966 31.5368 12.1411 31.6684 12.0342C31.0946 12.5004 30.3731 12.7565 29.6354 12.7565H9.47746C9.66404 7.63436 12.4344 1.39118 17.5093 1.39118C18.6977 1.39115 43.3224 1.39051 50.4065 1.39032C49.399 1.84543 48.4495 2.41237 47.5633 3.09031ZM39.9793 10.0627H41.104C42.3078 10.0627 43.4317 9.59031 44.2721 8.76605C44.9206 9.7884 45.4919 11.3853 45.4919 13.4072C45.4919 17.0573 43.6561 19.4796 42.442 19.4796C41.2278 19.4796 39.3921 17.0573 39.3921 13.4072C39.3921 12.2107 39.6012 11.0691 39.9793 10.0627ZM8.06762 46.5221C8.06762 47.4058 7.34869 48.1248 6.46498 48.1248H1.65707V26.7457H6.46498C7.34869 26.7457 8.06762 27.4646 8.06762 28.3483V46.5221ZM9.37911 39.7384V35.0748H16.9603V39.7384H9.37911ZM25.3218 42.1744C25.3218 43.0581 24.6029 43.7771 23.72 43.7771H19.8744C18.9907 43.7771 18.2717 43.0581 18.2717 42.1744C18.2717 36.7061 18.2717 32.0998 18.2717 26.7457H25.3218V42.1744ZM38.3923 25.4308H17.5093C13.2161 25.4308 9.70644 20.3889 9.47725 14.068H29.6354C30.6728 14.068 31.6889 13.7068 32.4949 13.052L33.104 12.557C33.0913 12.8434 33.0772 13.1302 33.0772 13.4157C33.0772 17.8561 34.7507 22.9328 38.3923 25.4308ZM42.442 25.4308C38.0012 25.4308 34.3887 20.0406 34.3887 13.4157C34.3887 12.7349 34.4341 12.0647 34.5115 11.4131L35.2835 10.7859C35.8564 10.3197 36.5787 10.0627 37.3181 10.0627H38.582C38.2544 11.0971 38.0806 12.2344 38.0806 13.4071C38.0806 17.3407 40.1187 20.7911 42.442 20.7911C44.7653 20.7911 46.8033 17.3407 46.8033 13.4071C46.8033 11.1942 46.1751 9.10032 45.1133 7.67463C45.6817 6.79113 46.5734 5.62864 47.8516 4.54577C49.5325 6.8334 50.4962 10.0164 50.4962 13.4157C50.4962 20.0406 46.8828 25.4308 42.442 25.4308ZM50.4735 6.53478C50.0446 5.51583 49.5095 4.58708 48.8953 3.75332C50.6663 2.53213 52.6981 1.7672 54.9533 1.47338C54.7976 2.61473 54.017 4.93779 50.4735 6.53478Z" fill="#117169"/>
<path d="M33.7295 3.41477H27.2327C26.8707 3.41477 26.577 3.70849 26.577 4.07051C26.577 4.43253 26.8707 4.72625 27.2327 4.72625H33.7295C34.0915 4.72625 34.3852 4.43253 34.3852 4.07051C34.3852 3.70849 34.0915 3.41477 33.7295 3.41477Z" fill="#117169"/>
<path d="M24.3006 3.41477H23.9967C23.6347 3.41477 23.3409 3.70849 23.3409 4.07051C23.3409 4.43253 23.6347 4.72625 23.9967 4.72625H24.3006C24.6627 4.72625 24.9564 4.43253 24.9564 4.07051C24.9564 3.70849 24.6627 3.41477 24.3006 3.41477Z" fill="#117169"/>
</svg>
