<svg width="27" height="26" viewBox="0 0 27 26" fill="none" xmlns="http://www.w3.org/2000/svg">
<g clip-path="url(#clip0_131_6438)">
<path d="M26.2641 19.0814L22.4962 15.453C21.1505 14.1572 18.8628 14.6755 18.3246 16.3601C17.9209 17.5264 16.5752 18.1743 15.364 17.9151C12.6727 17.2672 9.0393 13.898 8.36646 11.1767C7.96275 10.0104 8.77016 8.71453 9.98128 8.32583C11.7307 7.80749 12.269 5.60455 10.9233 4.3087L7.15534 0.680321C6.07878 -0.226774 4.46396 -0.226774 3.52197 0.680321L0.965164 3.14243C-1.59165 5.73413 1.2343 12.6021 7.55904 18.6926C13.8838 24.7831 21.0159 27.634 23.7073 25.0423L26.2641 22.5802C27.2062 21.5435 27.2062 19.9885 26.2641 19.0814Z" fill="#CECECE"/>
</g>
<defs>
<clipPath id="clip0_131_6438">
<rect width="27" height="26" fill="white"/>
</clipPath>
</defs>
</svg>
