<svg width="130" height="126" viewBox="0 0 130 126" fill="none" xmlns="http://www.w3.org/2000/svg">
<path d="M2.85714 109.846L3.88614 107.481C4.38594 107.539 4.44474 107.539 5.15033 107.685C2.21034 106.401 0.152344 102.694 0.152344 98.6943C0.152344 92.71 4.76814 87.8933 10.5011 87.8933C16.2341 87.8933 20.8499 92.71 20.8499 98.7235C20.8499 104.445 16.4399 109.349 11.2949 109.349C10.9421 109.349 10.7069 109.349 10.3247 109.291V109.437C13.8233 110.809 15.9695 111.422 18.5567 111.831L17.6159 114.954C14.8523 114.575 13.1177 113.962 9.82493 112.239C6.70853 110.663 4.88574 110.05 2.85714 109.846ZM10.5011 91.3088C6.76733 91.3088 3.91554 94.4615 3.91554 98.6067C3.91554 102.986 6.67913 106.138 10.5011 106.138C14.2643 106.138 17.1455 102.898 17.1455 98.7235C17.1455 94.5199 14.2643 91.3088 10.5011 91.3088Z" fill="white"/>
<path d="M25.149 109.057H21.4446L31.9109 87.6598L41.8481 109.057H37.9967L36.3209 105.379H26.8542L25.149 109.057ZM28.2066 102.431H35.0273L31.6463 94.7242L28.2066 102.431Z" fill="white"/>
<path d="M57.3141 109.057V99.6577L49.4349 88.3896H53.7273L59.2545 96.5633L64.8993 88.3896H69.1917L60.9891 99.5993V109.057H57.3141Z" fill="white"/>
<path d="M71.102 109.057V87.6598L84.8318 101.438V88.3896H88.448V109.846L74.7182 96.0379V109.057H71.102Z" fill="white"/>
<path d="M93.6113 109.057V88.3896H98.6387C106.371 88.3896 111.104 92.3013 111.104 98.6943C111.104 102.548 109.311 105.642 105.959 107.51C103.96 108.62 101.902 109.057 98.6387 109.057H93.6113ZM97.2275 105.759H99.1091C104.284 105.759 107.371 103.131 107.371 98.7235C107.371 94.3155 104.284 91.6883 99.1091 91.6883H97.2275V105.759Z" fill="white"/>
<path d="M118.038 109.057V99.6577L110.158 88.3896H114.451L119.978 96.5633L125.623 88.3896H129.915L121.713 99.5993V109.057H118.038Z" fill="white"/>
<path fill-rule="evenodd" clip-rule="evenodd" d="M43.9128 94.5215V109.057H47.529V94.5215H43.9128ZM47.529 92.0818V88.3896H43.9128V92.0818H47.529Z" fill="white"/>
<path d="M3.29364 120.284V120.562H1.79815V124.517H1.49549V120.562H0V120.284H3.29364Z" fill="white"/>
<path d="M7.05768 120.284L5.46724 122.926H6.46423V123.156H5.38415V124.517H5.0815V123.156H3.98955V122.926H4.99841L3.40797 120.284H3.7403L5.24173 122.775L6.74315 120.284H7.05768Z" fill="white"/>
<path d="M9.26572 120.284C10.3102 120.284 10.9392 120.816 10.9392 121.711C10.9392 122.6 10.3102 123.132 9.26572 123.132H8.07883V124.517H7.77617V120.284H9.26572ZM9.26572 122.854C10.1559 122.854 10.6307 122.436 10.6307 121.711C10.6307 120.979 10.1559 120.562 9.26572 120.562H8.07883V122.854H9.26572Z" fill="white"/>
<path d="M14.6664 120.562H12.3995V122.418H14.2273V122.666H12.3995V124.517H12.0968V122.666H11.4559V122.418H12.0968V120.284H14.6664V120.562Z" fill="white"/>
<path d="M17.1922 121.832C18.1714 121.832 18.6936 122.279 18.6936 123.15C18.6936 124.045 18.1358 124.517 17.1151 124.517H15.5246V120.284H15.8273V121.832H17.1922ZM19.4592 124.517V120.284H19.7618V124.517H19.4592ZM17.121 124.257C17.9518 124.257 18.385 123.882 18.385 123.156C18.385 122.436 17.9578 122.092 17.121 122.092H15.8273V124.257H17.121Z" fill="white"/>
<path d="M24.3363 120.284H24.6389V124.517H24.3363V122.503H21.5589V124.517H21.2563V120.284H21.5589V122.231H24.3363V120.284Z" fill="white"/>
<path d="M30.6333 120.284L28.9598 123.059V124.517H28.6572V123.059L26.9836 120.284H27.316L28.8174 122.775L30.3188 120.284H30.6333Z" fill="white"/>
<path d="M33.0372 119.963C32.4913 119.963 32.1233 119.691 32.1115 119.225H32.3548C32.3666 119.564 32.6396 119.769 33.0372 119.769C33.4289 119.769 33.7019 119.564 33.7138 119.225H33.9571C33.9452 119.691 33.5773 119.963 33.0372 119.963ZM31.3518 124.517V120.284H31.6545V123.997L34.4852 120.284H34.7523V124.517H34.4496V120.81L31.6189 124.517H31.3518Z" fill="white"/>
<path d="M40.6573 124.517L39.0728 122.509H38.0758V124.517H37.7731V120.284H38.0758V122.231H39.0787L40.5683 120.284H40.9065L39.3161 122.346L41.0134 124.517H40.6573Z" fill="white"/>
<path d="M42.0572 124.238H44.6209V124.517H41.7546V120.284H44.5319V120.562H42.0572V122.231H44.2708V122.503H42.0572V124.238Z" fill="white"/>
<path d="M50.3199 120.284H50.6226V124.517H45.6317V120.284H45.9344V124.238H47.9758V120.284H48.2785V124.238H50.3199V120.284Z" fill="white"/>
<path d="M52.4194 124.238H54.9831V124.517H52.1167V120.284H54.8941V120.562H52.4194V122.231H54.633V122.503H52.4194V124.238Z" fill="white"/>
<path d="M59.0739 120.284H59.3765V124.517H59.0739V122.503H56.2965V124.517H55.9939V120.284H56.2965V122.231H59.0739V120.284Z" fill="white"/>
<path d="M60.8736 124.517V120.284H61.1762V124.517H60.8736Z" fill="white"/>
<path d="M72.5096 124.517L71.1387 122.509H70.2248V124.517H69.9281V122.509H69.0142L67.6433 124.517H67.2813L68.7649 122.34L67.3941 120.284H67.7383L69.0082 122.231H69.9281V120.284H70.2248V122.231H71.1387L72.4146 120.284H72.7529L71.388 122.34L72.8716 124.517H72.5096Z" fill="white"/>
<path d="M73.6352 124.517V120.284H73.9379V123.997L76.7686 120.284H77.0357V124.517H76.733V120.81L73.9023 124.517H73.6352Z" fill="white"/>
<path d="M78.8724 120.284H81.5963V124.517H81.2937V120.562H79.1454L79.092 122.116C79.0267 123.821 78.7597 124.553 78.0594 124.553C77.9644 124.553 77.8754 124.547 77.7627 124.517L77.7983 124.232C77.8754 124.251 77.9288 124.257 77.9941 124.257C78.5341 124.257 78.7537 123.646 78.8131 122.122L78.8724 120.284Z" fill="white"/>
<path d="M84.8737 124.547C83.6334 124.547 82.7135 123.628 82.7135 122.4C82.7135 121.172 83.6334 120.253 84.8737 120.253C86.108 120.253 87.0338 121.166 87.0338 122.4C87.0338 123.634 86.108 124.547 84.8737 124.547ZM84.8737 124.263C85.93 124.263 86.7252 123.47 86.7252 122.4C86.7252 121.33 85.93 120.537 84.8737 120.537C83.8114 120.537 83.0162 121.33 83.0162 122.4C83.0162 123.47 83.8114 124.263 84.8737 124.263Z" fill="white"/>
<path d="M89.8381 119.963C89.2921 119.963 88.9242 119.691 88.9123 119.225H89.1556C89.1675 119.564 89.4405 119.769 89.8381 119.769C90.2298 119.769 90.5027 119.564 90.5146 119.225H90.7579C90.7461 119.691 90.3781 119.963 89.8381 119.963ZM88.1527 124.517V120.284H88.4554V123.997L91.2861 120.284H91.5532V124.517H91.2505V120.81L88.4198 124.517H88.1527Z" fill="white"/>
<path d="M97.4582 124.517L95.8736 122.509H94.8766V124.517H94.574V120.284H94.8766V122.231H95.8796L97.3691 120.284H97.7074L96.117 122.346L97.8142 124.517H97.4582Z" fill="white"/>
<path d="M100.33 124.547C99.0897 124.547 98.1698 123.628 98.1698 122.4C98.1698 121.172 99.0897 120.253 100.33 120.253C101.564 120.253 102.49 121.166 102.49 122.4C102.49 123.634 101.564 124.547 100.33 124.547ZM100.33 124.263C101.386 124.263 102.182 123.47 102.182 122.4C102.182 121.33 101.386 120.537 100.33 120.537C99.2677 120.537 98.4725 121.33 98.4725 122.4C98.4725 123.47 99.2677 124.263 100.33 124.263Z" fill="white"/>
<path d="M107.834 124.517H107.538L107.532 120.894L105.793 123.954H105.645L103.906 120.906V124.517H103.609V120.284H103.864L105.722 123.555L107.579 120.284H107.828L107.834 124.517Z" fill="white"/>
<path d="M109.329 120.284H112.747V124.517H112.445V120.562H109.632V124.517H109.329V120.284Z" fill="white"/>
<path d="M114.584 120.284H117.308V124.517H117.005V120.562H114.857L114.803 122.116C114.738 123.821 114.471 124.553 113.771 124.553C113.676 124.553 113.587 124.547 113.474 124.517L113.51 124.232C113.587 124.251 113.64 124.257 113.705 124.257C114.245 124.257 114.465 123.646 114.524 122.122L114.584 120.284Z" fill="white"/>
<path d="M119.107 124.238H121.671V124.517H118.805V120.284H121.582V120.562H119.107V122.231H121.321V122.503H119.107V124.238Z" fill="white"/>
<path d="M125.566 124.517L123.981 122.509H122.984V124.517H122.682V120.284H122.984V122.231H123.987L125.477 120.284H125.815L124.225 122.346L125.922 124.517H125.566Z" fill="white"/>
<path d="M128.438 124.547C127.203 124.547 126.283 123.634 126.283 122.4C126.283 121.166 127.203 120.253 128.438 120.253C129.025 120.253 129.553 120.447 129.915 120.84L129.725 121.039C129.369 120.683 128.936 120.537 128.45 120.537C127.387 120.537 126.586 121.336 126.586 122.4C126.586 123.464 127.387 124.263 128.45 124.263C128.936 124.263 129.369 124.111 129.725 123.755L129.915 123.954C129.553 124.347 129.025 124.547 128.438 124.547Z" fill="white"/>
<path d="M64.2051 125.629V119.273H64.5078V125.629H64.2051Z" fill="white"/>
<path d="M41.0934 0.214844C34.1879 0.214844 28.5898 5.81289 28.5898 12.7184V60.4456C28.5898 65.9371 31.6395 71.1262 37.0526 72.2818C38.6704 72.6272 40.3109 71.8224 42.0022 70.9926C43.5788 70.219 45.1997 69.4238 46.8878 69.5183C48.3476 69.6 49.7166 70.4059 51.0938 71.2167C52.634 72.1234 54.1845 73.0362 55.8843 72.9491C60.3825 72.7187 62.1799 67.5537 62.5173 62.7725V55.4899C57.4091 62.3516 50.9286 63.3427 48.4126 63.2665C48.3364 61.2842 48.2601 58.7428 48.2601 57.7009C58.2477 57.7009 62.6698 48.2469 62.6698 45.8834V42.91C61.1195 45.0702 56.5399 49.3905 50.6236 49.3905C50.6236 48.0842 50.5981 46.5445 50.5765 45.2477C50.5609 44.3042 50.5474 43.4893 50.5474 42.9863C58.4002 42.9863 62.8222 36.277 62.8222 32.6937V31.0164C61.6024 32.6429 57.9123 35.8958 52.9109 35.8958C52.8817 35.0222 52.8526 34.2375 52.8277 33.5673C52.7875 32.483 52.7584 31.6983 52.7584 31.3213C60.23 31.3213 63.051 23.8497 63.051 22.0961V20.1901C61.8819 21.4608 58.6594 24.0022 55.1219 24.0022C55.1219 21.7454 55.0202 19.2498 54.9694 18.2841C62.0598 18.2841 63.1272 11.6511 63.1272 10.2787H64.8808H66.5581C66.5581 11.6511 67.6254 18.2841 74.7159 18.2841C74.6651 19.2498 74.5634 21.7454 74.5634 24.0022C71.0258 24.0022 67.8033 21.4608 66.6343 20.1901V22.0961C66.6343 23.8497 69.4552 31.3213 76.9269 31.3213C76.9269 31.6983 76.8978 32.483 76.8575 33.5673C76.8327 34.2375 76.8035 35.0222 76.7744 35.8958C71.773 35.8958 68.0829 32.6429 66.863 31.0164V32.6937C66.863 36.277 71.285 42.9863 79.1379 42.9863C79.1379 43.4893 79.1244 44.3042 79.1087 45.2477C79.0872 46.5445 79.0617 48.0842 79.0617 49.3905C73.1453 49.3905 68.5657 45.0702 67.0155 42.91V45.8834C67.0155 48.2469 71.4375 57.7009 81.4251 57.7009C81.4251 58.7428 81.3489 61.2842 81.2727 63.2665C78.7567 63.3427 72.2762 62.3516 67.168 55.4899C67.168 57.9296 67.2442 60.1771 67.2442 62.809C68.0879 72.7139 71.8004 72.9491 74.1822 72.9491C75.7833 72.9491 77.1223 72.1073 78.6727 71.2484C80.3196 70.336 82.0013 69.4043 83.6361 69.442C85.0234 69.4741 86.3759 70.1961 87.7314 70.9197C89.364 71.7913 91.001 72.6652 92.7089 72.3392C98.8844 71.1604 101.324 66.1336 101.324 60.4456V12.7184C101.324 5.81289 95.7261 0.214844 88.8206 0.214844H41.0934Z" fill="white"/>
</svg>
