<svg width="23" height="16" viewBox="0 0 23 16" fill="none" xmlns="http://www.w3.org/2000/svg">
<path d="M1.12207 7.32227C0.569786 7.32227 0.12207 7.76998 0.12207 8.32227C0.12207 8.87455 0.569786 9.32227 1.12207 9.32227V7.32227ZM21.8292 9.02937C22.2197 8.63885 22.2197 8.00568 21.8292 7.61516L15.4652 1.2512C15.0747 0.860673 14.4415 0.860673 14.051 1.2512C13.6605 1.64172 13.6605 2.27489 14.051 2.66541L19.7079 8.32227L14.051 13.9791C13.6605 14.3696 13.6605 15.0028 14.051 15.3933C14.4415 15.7839 15.0747 15.7839 15.4652 15.3933L21.8292 9.02937ZM1.12207 9.32227L21.1221 9.32227V7.32227L1.12207 7.32227V9.32227Z" fill="white"/>
</svg>
