<svg width="130" height="127" viewBox="0 0 130 127" fill="none" xmlns="http://www.w3.org/2000/svg">
<path d="M2.85714 110.486L3.88614 108.122C4.38594 108.18 4.44474 108.18 5.15033 108.326C2.21034 107.041 0.152344 103.334 0.152344 99.3348C0.152344 93.3505 4.76814 88.5338 10.5011 88.5338C16.2341 88.5338 20.8499 93.3505 20.8499 99.364C20.8499 105.086 16.4399 109.99 11.2949 109.99C10.9421 109.99 10.7069 109.99 10.3247 109.931V110.077C13.8233 111.449 15.9695 112.062 18.5567 112.471L17.6159 115.595C14.8523 115.215 13.1177 114.602 9.82493 112.88C6.70853 111.304 4.88574 110.69 2.85714 110.486ZM10.5011 91.9493C6.76733 91.9493 3.91554 95.102 3.91554 99.2473C3.91554 103.626 6.67913 106.779 10.5011 106.779C14.2643 106.779 17.1455 103.538 17.1455 99.364C17.1455 95.1604 14.2643 91.9493 10.5011 91.9493Z" fill="black"/>
<path d="M25.149 109.698H21.4446L31.9109 88.3003L41.8481 109.698H37.9967L36.3209 106.02H26.8542L25.149 109.698ZM28.2066 103.071H35.0273L31.6463 95.3647L28.2066 103.071Z" fill="black"/>
<path d="M57.3141 109.698V100.298L49.4349 89.0301H53.7273L59.2545 97.2038L64.8993 89.0301H69.1917L60.9891 100.24V109.698H57.3141Z" fill="black"/>
<path d="M71.102 109.698V88.3003L84.8318 102.079V89.0301H88.448V110.486L74.7182 96.6784V109.698H71.102Z" fill="black"/>
<path d="M93.6113 109.698V89.0301H98.6387C106.371 89.0301 111.104 92.9418 111.104 99.3348C111.104 103.188 109.311 106.282 105.959 108.151C103.96 109.26 101.902 109.698 98.6387 109.698H93.6113ZM97.2275 106.399H99.1091C104.284 106.399 107.371 103.772 107.371 99.364C107.371 94.956 104.284 92.3288 99.1091 92.3288H97.2275V106.399Z" fill="black"/>
<path d="M118.038 109.698V100.298L110.158 89.0301H114.451L119.978 97.2038L125.623 89.0301H129.915L121.713 100.24V109.698H118.038Z" fill="black"/>
<path fill-rule="evenodd" clip-rule="evenodd" d="M43.9128 95.162V109.698H47.529V95.162H43.9128ZM47.529 92.7223V89.0301H43.9128V92.7223H47.529Z" fill="black"/>
<path d="M3.29364 120.924V121.202H1.79815V125.157H1.49549V121.202H0V120.924H3.29364Z" fill="black"/>
<path d="M7.05768 120.924L5.46724 123.567H6.46423V123.796H5.38415V125.157H5.0815V123.796H3.98955V123.567H4.99841L3.40797 120.924H3.7403L5.24173 123.416L6.74315 120.924H7.05768Z" fill="black"/>
<path d="M9.26572 120.924C10.3102 120.924 10.9392 121.456 10.9392 122.351C10.9392 123.24 10.3102 123.772 9.26572 123.772H8.07883V125.157H7.77617V120.924H9.26572ZM9.26572 123.494C10.1559 123.494 10.6307 123.077 10.6307 122.351C10.6307 121.619 10.1559 121.202 9.26572 121.202H8.07883V123.494H9.26572Z" fill="black"/>
<path d="M14.6664 121.202H12.3995V123.059H14.2273V123.307H12.3995V125.157H12.0968V123.307H11.4559V123.059H12.0968V120.924H14.6664V121.202Z" fill="black"/>
<path d="M17.1922 122.472C18.1714 122.472 18.6936 122.92 18.6936 123.79C18.6936 124.685 18.1358 125.157 17.1151 125.157H15.5246V120.924H15.8273V122.472H17.1922ZM19.4592 125.157V120.924H19.7618V125.157H19.4592ZM17.121 124.897C17.9518 124.897 18.385 124.522 18.385 123.796C18.385 123.077 17.9578 122.732 17.121 122.732H15.8273V124.897H17.121Z" fill="black"/>
<path d="M24.3363 120.924H24.6389V125.157H24.3363V123.143H21.5589V125.157H21.2563V120.924H21.5589V122.871H24.3363V120.924Z" fill="black"/>
<path d="M30.6333 120.924L28.9598 123.7V125.157H28.6572V123.7L26.9836 120.924H27.316L28.8174 123.416L30.3188 120.924H30.6333Z" fill="black"/>
<path d="M33.0372 120.603C32.4913 120.603 32.1233 120.331 32.1115 119.866H32.3548C32.3666 120.204 32.6396 120.41 33.0372 120.41C33.4289 120.41 33.7019 120.204 33.7138 119.866H33.9571C33.9452 120.331 33.5773 120.603 33.0372 120.603ZM31.3518 125.157V120.924H31.6545V124.637L34.4852 120.924H34.7523V125.157H34.4496V121.45L31.6189 125.157H31.3518Z" fill="black"/>
<path d="M40.6573 125.157L39.0728 123.149H38.0758V125.157H37.7731V120.924H38.0758V122.871H39.0787L40.5683 120.924H40.9065L39.3161 122.986L41.0134 125.157H40.6573Z" fill="black"/>
<path d="M42.0572 124.879H44.6209V125.157H41.7546V120.924H44.5319V121.202H42.0572V122.871H44.2708V123.143H42.0572V124.879Z" fill="black"/>
<path d="M50.3199 120.924H50.6226V125.157H45.6317V120.924H45.9344V124.879H47.9758V120.924H48.2785V124.879H50.3199V120.924Z" fill="black"/>
<path d="M52.4194 124.879H54.9831V125.157H52.1167V120.924H54.8941V121.202H52.4194V122.871H54.633V123.143H52.4194V124.879Z" fill="black"/>
<path d="M59.0739 120.924H59.3765V125.157H59.0739V123.143H56.2965V125.157H55.9939V120.924H56.2965V122.871H59.0739V120.924Z" fill="black"/>
<path d="M60.8736 125.157V120.924H61.1762V125.157H60.8736Z" fill="black"/>
<path d="M72.5096 125.157L71.1387 123.149H70.2248V125.157H69.9281V123.149H69.0142L67.6433 125.157H67.2813L68.7649 122.98L67.3941 120.924H67.7383L69.0082 122.871H69.9281V120.924H70.2248V122.871H71.1387L72.4146 120.924H72.7529L71.388 122.98L72.8716 125.157H72.5096Z" fill="black"/>
<path d="M73.6352 125.157V120.924H73.9379V124.637L76.7686 120.924H77.0357V125.157H76.733V121.45L73.9023 125.157H73.6352Z" fill="black"/>
<path d="M78.8724 120.924H81.5963V125.157H81.2937V121.202H79.1454L79.092 122.756C79.0267 124.462 78.7597 125.193 78.0594 125.193C77.9644 125.193 77.8754 125.187 77.7627 125.157L77.7983 124.873C77.8754 124.891 77.9288 124.897 77.9941 124.897C78.5341 124.897 78.7537 124.286 78.8131 122.762L78.8724 120.924Z" fill="black"/>
<path d="M84.8737 125.187C83.6334 125.187 82.7135 124.268 82.7135 123.041C82.7135 121.813 83.6334 120.894 84.8737 120.894C86.108 120.894 87.0338 121.807 87.0338 123.041C87.0338 124.274 86.108 125.187 84.8737 125.187ZM84.8737 124.903C85.93 124.903 86.7252 124.111 86.7252 123.041C86.7252 121.97 85.93 121.178 84.8737 121.178C83.8114 121.178 83.0162 121.97 83.0162 123.041C83.0162 124.111 83.8114 124.903 84.8737 124.903Z" fill="black"/>
<path d="M89.8381 120.603C89.2921 120.603 88.9242 120.331 88.9123 119.866H89.1556C89.1675 120.204 89.4405 120.41 89.8381 120.41C90.2298 120.41 90.5027 120.204 90.5146 119.866H90.7579C90.7461 120.331 90.3781 120.603 89.8381 120.603ZM88.1527 125.157V120.924H88.4554V124.637L91.2861 120.924H91.5532V125.157H91.2505V121.45L88.4198 125.157H88.1527Z" fill="black"/>
<path d="M97.4582 125.157L95.8736 123.149H94.8766V125.157H94.574V120.924H94.8766V122.871H95.8796L97.3691 120.924H97.7074L96.117 122.986L97.8142 125.157H97.4582Z" fill="black"/>
<path d="M100.33 125.187C99.0897 125.187 98.1698 124.268 98.1698 123.041C98.1698 121.813 99.0897 120.894 100.33 120.894C101.564 120.894 102.49 121.807 102.49 123.041C102.49 124.274 101.564 125.187 100.33 125.187ZM100.33 124.903C101.386 124.903 102.182 124.111 102.182 123.041C102.182 121.97 101.386 121.178 100.33 121.178C99.2677 121.178 98.4725 121.97 98.4725 123.041C98.4725 124.111 99.2677 124.903 100.33 124.903Z" fill="black"/>
<path d="M107.834 125.157H107.538L107.532 121.535L105.793 124.595H105.645L103.906 121.547V125.157H103.609V120.924H103.864L105.722 124.196L107.579 120.924H107.828L107.834 125.157Z" fill="black"/>
<path d="M109.329 120.924H112.747V125.157H112.445V121.202H109.632V125.157H109.329V120.924Z" fill="black"/>
<path d="M114.584 120.924H117.308V125.157H117.005V121.202H114.857L114.803 122.756C114.738 124.462 114.471 125.193 113.771 125.193C113.676 125.193 113.587 125.187 113.474 125.157L113.51 124.873C113.587 124.891 113.64 124.897 113.705 124.897C114.245 124.897 114.465 124.286 114.524 122.762L114.584 120.924Z" fill="black"/>
<path d="M119.107 124.879H121.671V125.157H118.805V120.924H121.582V121.202H119.107V122.871H121.321V123.143H119.107V124.879Z" fill="black"/>
<path d="M125.566 125.157L123.981 123.149H122.984V125.157H122.682V120.924H122.984V122.871H123.987L125.477 120.924H125.815L124.225 122.986L125.922 125.157H125.566Z" fill="black"/>
<path d="M128.438 125.187C127.203 125.187 126.283 124.274 126.283 123.041C126.283 121.807 127.203 120.894 128.438 120.894C129.025 120.894 129.553 121.087 129.915 121.48L129.725 121.68C129.369 121.323 128.936 121.178 128.45 121.178C127.387 121.178 126.586 121.976 126.586 123.041C126.586 124.105 127.387 124.903 128.45 124.903C128.936 124.903 129.369 124.752 129.725 124.395L129.915 124.595C129.553 124.988 129.025 125.187 128.438 125.187Z" fill="black"/>
<path d="M64.2051 126.27V119.913H64.5078V126.27H64.2051Z" fill="black"/>
<path d="M41.0934 0.855469C34.1879 0.855469 28.5898 6.45352 28.5898 13.3591V61.0862C28.5898 66.5777 31.6395 71.7668 37.0526 72.9224C38.6704 73.2678 40.3109 72.463 42.0022 71.6332C43.5788 70.8596 45.1997 70.0644 46.8878 70.1589C48.3476 70.2406 49.7166 71.0465 51.0938 71.8573C52.634 72.764 54.1845 73.6768 55.8843 73.5898C60.3825 73.3593 62.1799 68.1943 62.5173 63.4131V56.1305C57.4091 62.9922 50.9286 63.9834 48.4126 63.9071C48.3364 61.9248 48.2601 59.3834 48.2601 58.3415C58.2477 58.3415 62.6698 48.8876 62.6698 46.5241V43.5507C61.1195 45.7108 56.5399 50.0312 50.6236 50.0312C50.6236 48.7248 50.5981 47.1851 50.5765 45.8883C50.5609 44.9448 50.5474 44.1299 50.5474 43.6269C58.4002 43.6269 62.8222 36.9177 62.8222 33.3343V31.657C61.6024 33.2835 57.9123 36.5364 52.9109 36.5364C52.8817 35.6628 52.8526 34.8781 52.8277 34.208C52.7875 33.1236 52.7584 32.3389 52.7584 31.962C60.23 31.962 63.051 24.4903 63.051 22.7368V20.8307C61.8819 22.1014 58.6594 24.6428 55.1219 24.6428C55.1219 22.386 55.0202 19.8904 54.9694 18.9247C62.0598 18.9247 63.1272 12.2917 63.1272 10.9193H64.8808H66.5581C66.5581 12.2917 67.6254 18.9247 74.7159 18.9247C74.6651 19.8904 74.5634 22.386 74.5634 24.6428C71.0258 24.6428 67.8033 22.1014 66.6343 20.8307V22.7368C66.6343 24.4903 69.4552 31.962 76.9269 31.962C76.9269 32.3389 76.8978 33.1236 76.8575 34.208C76.8327 34.8781 76.8035 35.6628 76.7744 36.5364C71.773 36.5364 68.0829 33.2835 66.863 31.657V33.3343C66.863 36.9177 71.285 43.6269 79.1379 43.6269C79.1379 44.1299 79.1244 44.9448 79.1087 45.8883C79.0872 47.1851 79.0617 48.7248 79.0617 50.0312C73.1453 50.0312 68.5657 45.7108 67.0155 43.5507V46.5241C67.0155 48.8876 71.4375 58.3415 81.4251 58.3415C81.4251 59.3834 81.3489 61.9248 81.2727 63.9071C78.7567 63.9834 72.2762 62.9922 67.168 56.1305C67.168 58.5702 67.2442 60.8177 67.2442 63.4497C68.0879 73.3546 71.8004 73.5898 74.1822 73.5898C75.7833 73.5898 77.1223 72.7479 78.6727 71.889C80.3196 70.9766 82.0013 70.0449 83.6361 70.0827C85.0234 70.1147 86.3759 70.8367 87.7314 71.5604C89.364 72.4319 91.001 73.3058 92.7089 72.9798C98.8844 71.8011 101.324 66.7742 101.324 61.0862V13.3591C101.324 6.45352 95.7261 0.855469 88.8206 0.855469H41.0934Z" fill="#344532"/>
</svg>
