<svg width="349" height="82" viewBox="0 0 349 82" fill="none" xmlns="http://www.w3.org/2000/svg">
<g filter="url(#filter0_d_56_4871)">
<path d="M12.2729 63.6759L14.9521 57.5193C16.2534 57.6714 16.4065 57.6714 18.2436 58.0514C10.5888 54.7071 5.23047 45.0543 5.23047 34.6415C5.23047 19.0602 17.2485 6.51918 32.1753 6.51918C47.1022 6.51918 59.1202 19.0602 59.1202 34.7175C59.1202 49.6147 47.638 62.3838 34.2421 62.3838C33.3236 62.3838 32.7112 62.3837 31.716 62.2317V62.6118C40.8252 66.1841 46.4132 67.7802 53.1495 68.8443L50.6999 76.9769C43.5044 75.9889 38.9881 74.3927 30.4147 69.9084C22.3007 65.804 17.5547 64.2079 12.2729 63.6759ZM32.1753 15.4119C22.4538 15.4119 15.0286 23.6206 15.0286 34.4135C15.0286 45.8144 22.2241 54.0231 32.1753 54.0231C41.9735 54.0231 49.4752 45.5864 49.4752 34.7175C49.4752 23.7726 41.9735 15.4119 32.1753 15.4119Z" fill="white"/>
<path d="M70.3135 61.6237H60.6685L87.9196 5.91113L113.793 61.6237H103.765L99.4017 52.0469H74.7533L70.3135 61.6237ZM78.2745 44.3703H96.0336L87.2306 24.3046L78.2745 44.3703Z" fill="white"/>
<path d="M154.061 61.6237V37.1497L133.546 7.81129H144.722L159.113 29.093L173.811 7.81129H184.986L163.63 36.9977V61.6237H154.061Z" fill="white"/>
<path d="M189.96 61.6237V5.91113L225.708 41.7861V7.81129H235.124V63.6759L199.376 27.7249V61.6237H189.96Z" fill="white"/>
<path d="M248.567 61.6237V7.81129H261.657C281.789 7.81129 294.113 17.9961 294.113 34.6415C294.113 44.6743 289.444 52.731 280.717 57.5954C275.512 60.4836 270.154 61.6237 261.657 61.6237H248.567ZM257.983 53.035H262.882C276.354 53.035 284.392 46.1944 284.392 34.7175C284.392 23.2406 276.354 16.4 262.882 16.4H257.983V53.035Z" fill="white"/>
<path d="M312.165 61.6237V37.1497L291.651 7.81129H302.827L317.218 29.093L331.915 7.81129H343.091L321.734 36.9977V61.6237H312.165Z" fill="white"/>
<path fill-rule="evenodd" clip-rule="evenodd" d="M119.168 23.7768V61.6237H128.584V23.7768H119.168ZM128.584 17.4246V7.81129H119.168V17.4246H128.584Z" fill="white"/>
</g>
<defs>
<filter id="filter0_d_56_4871" x="0.230469" y="0.911133" width="347.86" height="81.0659" filterUnits="userSpaceOnUse" color-interpolation-filters="sRGB">
<feFlood flood-opacity="0" result="BackgroundImageFix"/>
<feColorMatrix in="SourceAlpha" type="matrix" values="0 0 0 0 0 0 0 0 0 0 0 0 0 0 0 0 0 0 127 0" result="hardAlpha"/>
<feOffset/>
<feGaussianBlur stdDeviation="2.5"/>
<feComposite in2="hardAlpha" operator="out"/>
<feColorMatrix type="matrix" values="0 0 0 0 0 0 0 0 0 0 0 0 0 0 0 0 0 0 0.24 0"/>
<feBlend mode="normal" in2="BackgroundImageFix" result="effect1_dropShadow_56_4871"/>
<feBlend mode="normal" in="SourceGraphic" in2="effect1_dropShadow_56_4871" result="shape"/>
</filter>
</defs>
</svg>
