<svg width="20" height="20" viewBox="0 0 20 20" fill="none" xmlns="http://www.w3.org/2000/svg">
<path fill-rule="evenodd" clip-rule="evenodd" d="M9.60417 0.880839L3.77083 2.30667C3.40831 2.39531 3.08602 2.60306 2.8556 2.89663C2.62518 3.19021 2.49996 3.55263 2.5 3.92584V11.0108C2.49994 12.3856 2.88584 13.7328 3.61377 14.899C4.34171 16.0652 5.38244 17.0037 6.6175 17.6075L9.63417 19.0825C9.74809 19.1382 9.87321 19.1671 10 19.1671C10.1268 19.1671 10.2519 19.1382 10.3658 19.0825L13.3825 17.6075C14.6176 17.0037 15.6583 16.0652 16.3862 14.899C17.1142 13.7328 17.5001 12.3856 17.5 11.0108V3.92584C17.5 3.55263 17.3748 3.19021 17.1444 2.89663C16.914 2.60306 16.5917 2.39531 16.2292 2.30667L10.3958 0.881672C10.1358 0.818089 9.86422 0.817255 9.60417 0.880839ZM13.9225 8.08917C14.0743 7.932 14.1583 7.7215 14.1564 7.503C14.1545 7.28451 14.0669 7.0755 13.9123 6.92099C13.7578 6.76648 13.5488 6.67884 13.3303 6.67694C13.1118 6.67505 12.9013 6.75904 12.7442 6.91084L9.16667 10.4883L7.25583 8.57751C7.17896 8.49791 7.08701 8.43443 6.98534 8.39075C6.88367 8.34708 6.77432 8.32409 6.66367 8.32313C6.55302 8.32217 6.44329 8.34325 6.34087 8.38515C6.23846 8.42705 6.14541 8.48893 6.06717 8.56718C5.98893 8.64542 5.92705 8.73846 5.88515 8.84088C5.84325 8.94329 5.82216 9.05302 5.82312 9.16367C5.82409 9.27432 5.84707 9.38367 5.89075 9.48534C5.93442 9.58701 5.99791 9.67897 6.0775 9.75584L8.5775 12.2558C8.73377 12.4121 8.9457 12.4998 9.16667 12.4998C9.38764 12.4998 9.59956 12.4121 9.75583 12.2558L13.9225 8.08917Z" fill="#0E6131"/>
</svg>
