<svg width="32" height="33" viewBox="0 0 32 33" fill="none" xmlns="http://www.w3.org/2000/svg">
<path d="M29.9652 0.921869H1.5156C0.815531 0.896106 0.0608738 1.55867 0.0743979 2.36301V12.4833C0.0743979 12.7367 0.27983 12.9422 0.533361 12.9422C0.786892 12.9422 0.992324 12.7367 0.992324 12.4833V2.39771L15.2814 15.0049V26.8031C15.2814 27.0566 15.4868 27.2621 15.7403 27.2621C15.9939 27.2621 16.1993 27.0566 16.1993 26.8031V15.2568H30.4883V30.8126C30.4883 31.1011 30.2537 31.3358 29.9651 31.3358H16.1993V28.9782C16.1993 28.7247 15.9939 28.5192 15.7403 28.5192C15.4868 28.5192 15.2814 28.7247 15.2814 28.9782V31.3358H1.51554C1.22701 31.3358 0.992324 31.1011 0.992324 30.8126V14.7978C0.992324 14.5444 0.786892 14.3389 0.533361 14.3389C0.27983 14.3389 0.0743979 14.5444 0.0743979 14.7978V30.8126C0.0743979 31.6073 0.720862 32.2537 1.51554 32.2537H29.9651C30.7597 32.2537 31.4063 31.6073 31.4063 30.8126V2.36301C31.4063 1.56833 30.7598 0.921869 29.9652 0.921869ZM30.4883 2.36301V13.2831L26.9806 8.02588C26.8398 7.815 26.5548 7.75815 26.3441 7.89884C26.1333 8.03953 26.0764 8.32451 26.2171 8.53533L27.1348 9.91075H22.4524L19.5347 6.36401H24.7683L25.0288 6.75443C25.1695 6.96531 25.4545 7.02216 25.6653 6.88147C25.8761 6.74078 25.933 6.4558 25.7923 6.24498L22.853 1.83973H29.9651C30.2537 1.8398 30.4883 2.07448 30.4883 2.36301ZM21.0024 14.3389L17.5694 10.8287H22.0189L24.9065 14.3389H21.0024ZM16.6717 9.91075L13.2029 6.36401H18.3461L21.2637 9.91075H16.6717ZM6.87519 6.36407H11.9189L15.3876 9.91081H10.8951L6.87519 6.36407ZM14.6243 1.8398L17.591 5.44614H12.3051L8.77811 1.8398H14.6243ZM24.1558 5.44614H18.7796L15.8129 1.8398H21.7496L24.1558 5.44614ZM7.49411 1.8398L11.0212 5.44614H5.83487L1.74741 1.8398H7.49411ZM15.9139 14.3389L11.9354 10.8287H16.2854L19.7184 14.3389H15.9139ZM26.0951 14.3389L23.2075 10.8287H27.7472L30.0893 14.3389H26.0951Z" fill="white"/>
</svg>
