<svg width="23" height="39" viewBox="0 0 23 39" fill="none" xmlns="http://www.w3.org/2000/svg">
<path d="M0.9 19.4999C0.899766 19.7345 0.947755 19.9667 1.04111 20.1832C1.13445 20.3997 1.27125 20.596 1.44346 20.7611L0.9 19.4999ZM0.9 19.4999C0.899766 19.2653 0.947755 19.0331 1.04111 18.8166C1.13445 18.6002 1.27125 18.4038 1.44346 18.2388L0.9 19.4999ZM18.9434 37.5792L1.44356 20.7612L1.44356 18.2387L18.9433 1.42064C18.9434 1.42063 18.9434 1.42062 18.9434 1.42062C19.6655 0.726204 20.834 0.726723 21.5564 1.42059C22.2812 2.11671 22.2812 3.2464 21.5564 3.94291L5.36879 19.4999L21.5564 35.0569C21.5564 35.0569 21.5564 35.0569 21.5564 35.0569C22.2812 35.7531 22.2807 36.8827 21.5565 37.5792C20.8344 38.2736 19.6659 38.2736 18.9434 37.5792Z" fill="white" stroke="#A5A5A5" stroke-width="0.2"/>
</svg>
