<svg width="43" height="43" viewBox="0 0 43 43" fill="none" xmlns="http://www.w3.org/2000/svg">
<path d="M20.8435 21.0427H21.0384V20.8478V14.7939C21.0384 14.4258 21.3404 14.1239 21.7084 14.1239C22.0764 14.1239 22.3783 14.4258 22.3783 14.7939V26.0369C22.3783 26.4049 22.0764 26.7069 21.7084 26.7069C21.3404 26.7069 21.0384 26.4049 21.0384 26.0369V22.5775V22.3826H20.8435H13.9248C13.5567 22.3826 13.2548 22.0807 13.2548 21.7127C13.2548 21.3446 13.5567 21.0427 13.9248 21.0427H20.8435ZM35.546 2.4911H35.3511V2.686V6.14539C35.3511 6.51342 35.0491 6.81534 34.6811 6.81534C34.3131 6.81534 34.0112 6.51342 34.0112 6.14539V1.82115C34.0112 1.45312 34.3131 1.1512 34.6811 1.1512H39.8789C41.1974 1.1512 42.2699 2.23064 42.2699 3.55084V39.8745C42.2699 41.1938 41.1896 42.2741 39.8702 42.2741H3.54657C2.22721 42.2741 1.14692 41.1938 1.14692 39.8745V3.55084C1.14692 2.23148 2.22721 1.1512 3.54657 1.1512H28.6272C28.9952 1.1512 29.2971 1.45312 29.2971 1.82115V6.14539C29.2971 6.51342 28.9952 6.81534 28.6272 6.81534C28.2591 6.81534 27.9572 6.51342 27.9572 6.14539V2.686V2.4911H27.7623H22.5732H22.3783V2.686V10.4696C22.3783 10.8377 22.0764 11.1396 21.7084 11.1396C21.3404 11.1396 21.0384 10.8377 21.0384 10.4696V2.686V2.4911H20.8435H3.54657C2.96327 2.4911 2.48683 2.96754 2.48683 3.55084V20.8478V21.0427H2.68172H10.4394C10.8074 21.0427 11.1094 21.3446 11.1094 21.7127C11.1094 22.0807 10.8074 22.3826 10.4394 22.3826H2.68172H2.48683V22.5775V39.8745C2.48683 40.4578 2.96327 40.9342 3.54657 40.9342H20.8435H21.0384V40.7393V31.226C21.0384 30.858 21.3404 30.556 21.7084 30.556C22.0764 30.556 22.3783 30.858 22.3783 31.226V40.7393V40.9342H22.5732H39.8702C40.4535 40.9342 40.93 40.4578 40.93 39.8745V26.9018V26.7069H40.7351H27.7623C27.3943 26.7069 27.0924 26.4049 27.0924 26.0369C27.0924 25.6689 27.3943 25.367 27.7623 25.367H40.7351H40.93V25.1721V20.8478V20.6529H40.7351H32.0866C31.7185 20.6529 31.4166 20.351 31.4166 19.983C31.4166 19.6149 31.7185 19.313 32.0866 19.313H40.7351H40.93V19.1181V3.55084C40.93 2.96881 40.4548 2.4911 39.8789 2.4911H35.546Z" fill="#1D365B" stroke="white" stroke-width="0.389794"/>
</svg>
