<svg width="12" height="19" viewBox="0 0 12 19" fill="none" xmlns="http://www.w3.org/2000/svg">
<path d="M0.9 9.49996C0.899888 9.61568 0.924436 9.73008 0.972005 9.83651C1.01958 9.94296 1.08913 10.0391 1.17627 10.1197L9.50946 17.8469C9.87343 18.1844 10.46 18.1844 10.8238 17.8468C11.1918 17.5054 11.1921 16.949 10.8238 16.6076C10.8238 16.6076 10.8238 16.6076 10.8238 16.6076L3.15873 9.49996L10.8238 2.39235C11.1921 2.05085 11.1921 1.49438 10.8238 1.15304C10.4598 0.815788 9.87325 0.815508 9.50944 1.15308L1.17627 8.88023L0.9 9.49996ZM0.9 9.49996C0.899888 9.38425 0.924436 9.26985 0.972004 9.16341C1.01956 9.05701 1.08908 8.96088 1.17617 8.88032L0.9 9.49996Z" fill="#075126" stroke="#A5A5A5" stroke-width="0.2"/>
</svg>
