<svg width="17" height="28" viewBox="0 0 17 28" fill="none" xmlns="http://www.w3.org/2000/svg">
<path d="M16.1 13.9999C16.1002 14.1691 16.065 14.3365 15.9966 14.4924C15.9283 14.6483 15.8282 14.7896 15.7024 14.9082L15.7025 14.9082L15.6338 14.8355L15.7024 14.9082L3.20252 26.7263C2.67555 27.2245 1.82429 27.2246 1.2976 26.7263C0.767831 26.2251 0.767406 25.4109 1.29762 24.9099C1.29763 24.9099 1.29764 24.9099 1.29765 24.9099L12.837 13.9999L1.29762 3.08999C0.767471 2.58875 0.767436 1.77452 1.29765 1.27355C1.82459 0.775669 2.67582 0.775282 3.20254 1.27359L15.7024 13.0916C15.7024 13.0917 15.7024 13.0917 15.7024 13.0917C15.8282 13.2103 15.9283 13.3516 15.9966 13.5075C16.065 13.6634 16.1002 13.8308 16.1 13.9999ZM16.1 13.9999C16.1 14 16.1 14 16.1 14.0001L16 13.9999L16.1 13.9998C16.1 13.9999 16.1 13.9999 16.1 13.9999ZM12.9825 13.9999L12.9097 13.9311L12.9097 14.0688L12.9825 13.9999Z" fill="white" stroke="#0E6131" stroke-width="0.2"/>
</svg>
