<svg width="20" height="20" viewBox="0 0 20 20" fill="none" xmlns="http://www.w3.org/2000/svg">
<g clip-path="url(#clip0_992_382)">
<path d="M1.24976 1.36083C-0.321907 2.99333 -0.000240855 4.7275 -0.000240855 9.99583C-0.000240855 14.3708 -0.763574 18.7567 3.23143 19.7892C4.47893 20.11 15.5323 20.11 16.7781 19.7875C18.4414 19.3583 19.7948 18.0092 19.9798 15.6567C20.0056 15.3283 20.0056 4.66917 19.9789 4.33417C19.7823 1.82833 18.2398 0.384165 16.2073 0.0916646C15.7414 0.0241646 15.6481 0.00416464 13.2581 -2.02656e-06C4.78059 0.00416464 2.92226 -0.373335 1.24976 1.36083Z" fill="#CECECE"/>
<path d="M9.99785 2.61577C6.97202 2.61577 4.09869 2.3466 3.00119 5.16327C2.54785 6.3266 2.61369 7.83744 2.61369 10.0008C2.61369 11.8991 2.55285 13.6833 3.00119 14.8374C4.09619 17.6558 6.99285 17.3858 9.99619 17.3858C12.8937 17.3858 15.8812 17.6874 16.992 14.8374C17.4462 13.6624 17.3795 12.1741 17.3795 10.0008C17.3795 7.11577 17.5387 5.25327 16.1395 3.85494C14.7229 2.43827 12.807 2.61577 9.99452 2.61577H9.99785ZM9.33619 3.9466C15.6479 3.9366 16.4512 3.23494 16.0079 12.9824C15.8504 16.4299 13.2254 16.0516 9.99869 16.0516C4.11535 16.0516 3.94619 15.8833 3.94619 9.99744C3.94619 4.04327 4.41285 3.94994 9.33619 3.94494V3.9466ZM13.9395 5.17244C13.7046 5.17244 13.4793 5.26576 13.3131 5.43189C13.147 5.59802 13.0537 5.82333 13.0537 6.05827C13.0537 6.29321 13.147 6.51852 13.3131 6.68465C13.4793 6.85077 13.7046 6.9441 13.9395 6.9441C14.1745 6.9441 14.3998 6.85077 14.5659 6.68465C14.732 6.51852 14.8254 6.29321 14.8254 6.05827C14.8254 5.82333 14.732 5.59802 14.5659 5.43189C14.3998 5.26576 14.1745 5.17244 13.9395 5.17244ZM9.99785 6.20827C9.49987 6.20832 9.00677 6.30646 8.54672 6.49708C8.08666 6.68771 7.66866 6.96707 7.31657 7.31924C6.60549 8.03047 6.20608 8.99505 6.20619 10.0008C6.2063 11.0065 6.60592 11.971 7.31716 12.6821C8.02839 13.3931 8.99296 13.7925 9.99869 13.7924C11.0044 13.7923 11.9689 13.3927 12.68 12.6815C13.391 11.9702 13.7905 11.0057 13.7904 9.99994C13.7902 8.99421 13.3906 8.02973 12.6794 7.31865C11.9682 6.60758 11.0036 6.20816 9.99785 6.20827ZM9.99785 7.5391C13.252 7.5391 13.2562 12.4624 9.99785 12.4624C6.74452 12.4624 6.73952 7.5391 9.99785 7.5391Z" fill="white"/>
</g>
<defs>
<clipPath id="clip0_992_382">
<rect width="20" height="20" fill="white"/>
</clipPath>
</defs>
</svg>
