<svg width="20" height="20" viewBox="0 0 20 20" fill="none" xmlns="http://www.w3.org/2000/svg">
<g clip-path="url(#clip0_992_372)">
<path d="M9.77037 0H9.76548C4.37969 0 0 4.38091 0 9.76792C0 11.9047 0.688639 13.8851 1.85957 15.4931L0.642241 19.1219L4.39679 17.9217C5.94134 18.9449 7.78381 19.5358 9.77037 19.5358C15.1562 19.5358 19.5358 15.1537 19.5358 9.76792C19.5358 4.38214 15.1562 0 9.77037 0Z" fill="#CECECE"/>
<path d="M15.4531 13.7937C15.2175 14.4591 14.2822 15.011 13.5362 15.1722C13.0258 15.2809 12.3591 15.3676 10.1149 14.4372C7.24439 13.2479 5.39581 10.331 5.25174 10.1417C5.11377 9.95246 4.0918 8.59716 4.0918 7.19547C4.0918 5.79377 4.80363 5.11124 5.09057 4.8182C5.32622 4.57766 5.71571 4.46777 6.08934 4.46777C6.21022 4.46777 6.31888 4.47388 6.41656 4.47876C6.7035 4.49097 6.84757 4.50807 7.03683 4.96105C7.27248 5.52881 7.84634 6.93051 7.91472 7.07459C7.98431 7.21867 8.05391 7.41402 7.95623 7.60328C7.86466 7.79864 7.78407 7.88533 7.63999 8.05138C7.49592 8.21744 7.35917 8.34442 7.21509 8.52268C7.08322 8.67775 6.93426 8.8438 7.10032 9.13074C7.26637 9.41156 7.84024 10.3481 8.68516 11.1002C9.77551 12.0709 10.6595 12.381 10.9757 12.5129C11.2114 12.6106 11.4922 12.5874 11.6644 12.4042C11.8829 12.1686 12.1528 11.7778 12.4275 11.3932C12.6229 11.1173 12.8695 11.0831 13.1283 11.1808C13.3921 11.2724 14.7877 11.9622 15.0746 12.1051C15.3615 12.2491 15.5508 12.3175 15.6204 12.4384C15.6888 12.5593 15.6888 13.127 15.4531 13.7937Z" fill="white"/>
</g>
<defs>
<clipPath id="clip0_992_372">
<rect width="20" height="20" fill="white"/>
</clipPath>
</defs>
</svg>
