<svg width="1073" height="153" viewBox="0 0 1073 153" fill="none" xmlns="http://www.w3.org/2000/svg">
<path d="M68.1688 33.625C67.6385 28.6628 65.4036 24.7992 61.4642 22.034C57.5627 19.2689 52.487 17.8863 46.237 17.8863C41.843 17.8863 38.0741 18.5492 34.9301 19.875C31.7862 21.2007 29.3809 23 27.7142 25.2727C26.0476 27.5454 25.1953 30.1401 25.1574 33.0568C25.1574 35.481 25.7066 37.5833 26.8051 39.3636C27.9415 41.1439 29.4756 42.659 31.4074 43.909C33.3392 45.1212 35.4794 46.1439 37.8279 46.9772C40.1763 47.8106 42.5438 48.5113 44.9301 49.0795L55.8392 51.8068C60.2332 52.8295 64.4566 54.2121 68.5097 55.9545C72.6006 57.6969 76.2559 59.8939 79.4756 62.5454C82.7332 65.1969 85.3089 68.3977 87.2029 72.1477C89.0968 75.8977 90.0438 80.2916 90.0438 85.3295C90.0438 92.1477 88.3013 98.1515 84.8165 103.341C81.3316 108.492 76.2938 112.526 69.7029 115.443C63.1498 118.322 55.2142 119.761 45.896 119.761C36.843 119.761 28.9832 118.36 22.3165 115.557C15.6877 112.754 10.4983 108.663 6.74831 103.284C3.03619 97.9053 1.02862 91.3522 0.725586 83.625H21.4642C21.7673 87.678 23.0173 91.0492 25.2142 93.7386C27.4112 96.428 30.271 98.4356 33.7938 99.7613C37.3544 101.087 41.3316 101.75 45.7256 101.75C50.3089 101.75 54.3241 101.068 57.771 99.7045C61.2559 98.303 63.9832 96.3712 65.9529 93.909C67.9226 91.409 68.9263 88.4924 68.9642 85.159C68.9263 82.1287 68.0362 79.6287 66.2938 77.659C64.5513 75.6515 62.1082 73.9848 58.9642 72.659C55.8582 71.2954 52.2218 70.0833 48.0551 69.0227L34.8165 65.6136C25.2332 63.1515 17.6574 59.4204 12.0892 54.4204C6.55892 49.3825 3.79377 42.6969 3.79377 34.3636C3.79377 27.5075 5.64983 21.5037 9.36195 16.3522C13.112 11.2007 18.2066 7.2045 24.646 4.36359C31.0854 1.4848 38.3771 0.0454102 46.521 0.0454102C54.7786 0.0454102 62.0135 1.4848 68.2256 4.36359C74.4756 7.2045 79.3809 11.1628 82.9415 16.2386C86.5021 21.2765 88.3392 27.0719 88.4529 33.625H68.1688Z" fill="#0E6131"/>
<path d="M185.882 30.7272L154.802 118H132.075L100.995 30.7272H122.927L142.984 95.5568H143.893L164.007 30.7272H185.882Z" fill="#0E6131"/>
<path d="M235.214 119.705C226.691 119.705 219.305 117.83 213.055 114.08C206.805 110.33 201.957 105.083 198.51 98.3409C195.101 91.5984 193.396 83.7197 193.396 74.7045C193.396 65.6894 195.101 57.7916 198.51 51.0113C201.957 44.231 206.805 38.9659 213.055 35.2159C219.305 31.4659 226.691 29.5909 235.214 29.5909C243.737 29.5909 251.123 31.4659 257.373 35.2159C263.623 38.9659 268.453 44.231 271.862 51.0113C275.309 57.7916 277.032 65.6894 277.032 74.7045C277.032 83.7197 275.309 91.5984 271.862 98.3409C268.453 105.083 263.623 110.33 257.373 114.08C251.123 117.83 243.737 119.705 235.214 119.705ZM235.328 103.227C239.949 103.227 243.813 101.958 246.919 99.4204C250.025 96.8447 252.335 93.3977 253.851 89.0795C255.404 84.7613 256.18 79.9507 256.18 74.6477C256.18 69.3068 255.404 64.4772 253.851 60.159C252.335 55.803 250.025 52.3371 246.919 49.7613C243.813 47.1856 239.949 45.8977 235.328 45.8977C230.593 45.8977 226.654 47.1856 223.51 49.7613C220.404 52.3371 218.074 55.803 216.521 60.159C215.006 64.4772 214.248 69.3068 214.248 74.6477C214.248 79.9507 215.006 84.7613 216.521 89.0795C218.074 93.3977 220.404 96.8447 223.51 99.4204C226.654 101.958 230.593 103.227 235.328 103.227Z" fill="#0E6131"/>
<path d="M304.305 150.727C301.502 150.727 298.907 150.5 296.521 150.045C294.173 149.629 292.298 149.136 290.896 148.568L295.669 132.545C298.661 133.417 301.332 133.833 303.68 133.795C306.029 133.758 308.093 133.019 309.873 131.58C311.691 130.178 313.226 127.83 314.476 124.534L316.237 119.818L284.589 30.7272H306.407L326.521 96.6363H327.43L347.601 30.7272H369.476L334.532 128.568C332.904 133.189 330.745 137.148 328.055 140.443C325.366 143.776 322.07 146.314 318.169 148.057C314.305 149.837 309.684 150.727 304.305 150.727Z" fill="#0E6131"/>
<path d="M497.657 1.63632H518.737V77.659C518.737 85.9924 516.767 93.3219 512.828 99.6477C508.926 105.973 503.434 110.917 496.351 114.477C489.267 118 480.991 119.761 471.521 119.761C462.013 119.761 453.718 118 446.635 114.477C439.551 110.917 434.059 105.973 430.157 99.6477C426.256 93.3219 424.305 85.9924 424.305 77.659V1.63632H445.385V75.8977C445.385 80.7462 446.445 85.0644 448.566 88.8522C450.726 92.6401 453.756 95.6136 457.657 97.7727C461.559 99.8939 466.18 100.955 471.521 100.955C476.862 100.955 481.483 99.8939 485.385 97.7727C489.324 95.6136 492.354 92.6401 494.476 88.8522C496.597 85.0644 497.657 80.7462 497.657 75.8977V1.63632Z" fill="#0E6131"/>
<path d="M540.74 150.727V30.7272H560.967V45.159H562.16C563.221 43.0378 564.717 40.784 566.649 38.3977C568.581 35.9734 571.194 33.909 574.49 32.2045C577.785 30.4621 581.99 29.5909 587.103 29.5909C593.846 29.5909 599.925 31.3144 605.342 34.7613C610.797 38.1704 615.115 43.2272 618.297 49.9318C621.516 56.5984 623.126 64.7803 623.126 74.4772C623.126 84.0606 621.554 92.2045 618.41 98.909C615.266 105.614 610.986 110.727 605.569 114.25C600.153 117.773 594.016 119.534 587.16 119.534C582.16 119.534 578.013 118.701 574.717 117.034C571.422 115.367 568.77 113.36 566.763 111.011C564.793 108.625 563.259 106.371 562.16 104.25H561.308V150.727H540.74ZM560.91 74.3636C560.91 80.0075 561.706 84.9507 563.297 89.1931C564.925 93.4356 567.255 96.75 570.285 99.1363C573.353 101.485 577.066 102.659 581.422 102.659C585.967 102.659 589.774 101.447 592.842 99.0227C595.91 96.5606 598.221 93.2083 599.774 88.9659C601.365 84.6856 602.16 79.8181 602.16 74.3636C602.16 68.9469 601.384 64.1363 599.831 59.9318C598.278 55.7272 595.967 52.4318 592.899 50.0454C589.831 47.659 586.005 46.4659 581.422 46.4659C577.028 46.4659 573.297 47.6212 570.228 49.9318C567.16 52.2424 564.831 55.481 563.24 59.6477C561.687 63.8144 560.91 68.7197 560.91 74.3636Z" fill="#0E6131"/>
<path d="M678.694 152.545C671.308 152.545 664.963 151.542 659.66 149.534C654.357 147.564 650.096 144.913 646.876 141.579C643.656 138.246 641.422 134.553 640.172 130.5L658.694 126.011C659.528 127.716 660.74 129.401 662.331 131.068C663.922 132.773 666.062 134.174 668.751 135.273C671.478 136.409 674.906 136.977 679.035 136.977C684.869 136.977 689.698 135.557 693.524 132.716C697.35 129.913 699.263 125.292 699.263 118.852V102.318H698.24C697.179 104.439 695.626 106.617 693.581 108.852C691.573 111.087 688.903 112.962 685.569 114.477C682.274 115.992 678.126 116.75 673.126 116.75C666.422 116.75 660.342 115.178 654.888 112.034C649.471 108.852 645.153 104.117 641.933 97.8295C638.751 91.5037 637.16 83.5871 637.16 74.0795C637.16 64.4962 638.751 56.409 641.933 49.8181C645.153 43.1894 649.49 38.1704 654.944 34.7613C660.399 31.3144 666.478 29.5909 673.183 29.5909C678.297 29.5909 682.501 30.4621 685.797 32.2045C689.13 33.909 691.781 35.9734 693.751 38.3977C695.721 40.784 697.217 43.0378 698.24 45.159H699.376V30.7272H719.66V119.42C719.66 126.883 717.88 133.057 714.319 137.943C710.759 142.83 705.891 146.485 699.717 148.909C693.543 151.333 686.535 152.545 678.694 152.545ZM678.865 100.614C683.221 100.614 686.933 99.553 690.001 97.4318C693.069 95.3106 695.399 92.2613 696.99 88.284C698.581 84.3068 699.376 79.534 699.376 73.9659C699.376 68.4734 698.581 63.6628 696.99 59.534C695.437 55.4053 693.126 52.2045 690.058 49.9318C687.028 47.6212 683.297 46.4659 678.865 46.4659C674.281 46.4659 670.456 47.659 667.388 50.0454C664.319 52.4318 662.009 55.7083 660.456 59.875C658.903 64.0037 658.126 68.7007 658.126 73.9659C658.126 79.3068 658.903 83.9848 660.456 88C662.047 91.9772 664.376 95.0833 667.444 97.3181C670.55 99.5151 674.357 100.614 678.865 100.614Z" fill="#0E6131"/>
<path d="M740.74 118V30.7272H760.683V45.2727H761.592C763.183 40.2348 765.91 36.3522 769.774 33.625C773.675 30.8598 778.126 29.4772 783.126 29.4772C784.263 29.4772 785.531 29.534 786.933 29.6477C788.372 29.7234 789.566 29.856 790.513 30.0454V48.9659C789.641 48.6628 788.259 48.3977 786.365 48.1704C784.509 47.9053 782.709 47.7727 780.967 47.7727C777.217 47.7727 773.846 48.5871 770.853 50.2159C767.899 51.8068 765.569 54.0227 763.865 56.8636C762.16 59.7045 761.308 62.981 761.308 66.6931V118H740.74Z" fill="#0E6131"/>
<path d="M827.728 119.761C822.198 119.761 817.217 118.776 812.785 116.807C808.391 114.799 804.906 111.845 802.331 107.943C799.793 104.042 798.524 99.231 798.524 93.5113C798.524 88.5871 799.433 84.5151 801.251 81.2954C803.069 78.0757 805.55 75.5 808.694 73.5681C811.838 71.6363 815.38 70.178 819.319 69.1931C823.297 68.1704 827.406 67.4318 831.649 66.9772C836.763 66.4469 840.91 65.9734 844.092 65.5568C847.274 65.1022 849.584 64.4204 851.024 63.5113C852.501 62.5644 853.24 61.106 853.24 59.1363V58.7954C853.24 54.5151 851.971 51.2007 849.433 48.8522C846.895 46.5037 843.24 45.3295 838.467 45.3295C833.429 45.3295 829.433 46.428 826.478 48.625C823.562 50.8219 821.592 53.4166 820.569 56.409L801.365 53.6818C802.88 48.3787 805.38 43.9469 808.865 40.3863C812.35 36.7878 816.611 34.0984 821.649 32.3181C826.687 30.5 832.255 29.5909 838.353 29.5909C842.558 29.5909 846.744 30.0833 850.91 31.0681C855.077 32.053 858.884 33.6818 862.331 35.9545C865.778 38.1893 868.543 41.2386 870.626 45.1022C872.747 48.9659 873.808 53.7954 873.808 59.5909V118H854.035V106.011H853.353C852.103 108.436 850.342 110.708 848.069 112.83C845.834 114.913 843.013 116.598 839.603 117.886C836.232 119.136 832.274 119.761 827.728 119.761ZM833.069 104.648C837.198 104.648 840.778 103.833 843.808 102.205C846.838 100.538 849.168 98.3409 850.797 95.6136C852.463 92.8863 853.297 89.9128 853.297 86.6931V76.409C852.653 76.9394 851.554 77.4318 850.001 77.8863C848.486 78.3409 846.781 78.7386 844.888 79.0795C842.994 79.4204 841.119 79.7234 839.263 79.9886C837.406 80.2537 835.797 80.481 834.433 80.6704C831.365 81.0871 828.619 81.7689 826.194 82.7159C823.77 83.6628 821.857 84.9886 820.456 86.6931C819.054 88.3598 818.353 90.5189 818.353 93.1704C818.353 96.9583 819.736 99.8181 822.501 101.75C825.266 103.682 828.789 104.648 833.069 104.648Z" fill="#0E6131"/>
<path d="M926.876 119.534C920.02 119.534 913.884 117.773 908.467 114.25C903.05 110.727 898.77 105.614 895.626 98.909C892.482 92.2045 890.91 84.0606 890.91 74.4772C890.91 64.7803 892.501 56.5984 895.683 49.9318C898.903 43.2272 903.24 38.1704 908.694 34.7613C914.149 31.3144 920.228 29.5909 926.933 29.5909C932.047 29.5909 936.251 30.4621 939.547 32.2045C942.842 33.909 945.456 35.9734 947.388 38.3977C949.319 40.784 950.816 43.0378 951.876 45.159H952.728V1.63632H973.353V118H953.126V104.25H951.876C950.816 106.371 949.281 108.625 947.274 111.011C945.266 113.36 942.615 115.367 939.319 117.034C936.024 118.701 931.876 119.534 926.876 119.534ZM932.615 102.659C936.971 102.659 940.683 101.485 943.751 99.1363C946.819 96.75 949.149 93.4356 950.74 89.1931C952.331 84.9507 953.126 80.0075 953.126 74.3636C953.126 68.7197 952.331 63.8144 950.74 59.6477C949.187 55.481 946.876 52.2424 943.808 49.9318C940.778 47.6212 937.047 46.4659 932.615 46.4659C928.031 46.4659 924.206 47.659 921.138 50.0454C918.069 52.4318 915.759 55.7272 914.206 59.9318C912.653 64.1363 911.876 68.9469 911.876 74.3636C911.876 79.8181 912.653 84.6856 914.206 88.9659C915.797 93.2083 918.126 96.5606 921.194 99.0227C924.3 101.447 928.107 102.659 932.615 102.659Z" fill="#0E6131"/>
<path d="M1033.91 119.705C1025.16 119.705 1017.6 117.886 1011.24 114.25C1004.91 110.576 1000.04 105.386 996.635 98.6818C993.226 91.9394 991.521 84.0037 991.521 74.875C991.521 65.8977 993.226 58.0189 996.635 51.2386C1000.08 44.4204 1004.89 39.1174 1011.07 35.3295C1017.24 31.5037 1024.49 29.5909 1032.83 29.5909C1038.21 29.5909 1043.28 30.4621 1048.06 32.2045C1052.87 33.909 1057.11 36.5606 1060.78 40.159C1064.49 43.7575 1067.41 48.3409 1069.53 53.909C1071.65 59.4394 1072.71 66.0303 1072.71 73.6818V79.9886H1001.18V66.125H1053C1052.96 62.1856 1052.11 58.6818 1050.44 55.6136C1048.77 52.5075 1046.45 50.0644 1043.45 48.284C1040.5 46.5037 1037.05 45.6136 1033.11 45.6136C1028.91 45.6136 1025.21 46.6363 1022.03 48.6818C1018.85 50.6894 1016.37 53.3409 1014.59 56.6363C1012.85 59.8939 1011.96 63.4734 1011.92 67.375V79.4772C1011.92 84.553 1012.85 88.909 1014.7 92.5454C1016.56 96.1439 1019.15 98.909 1022.49 100.841C1025.82 102.735 1029.72 103.682 1034.19 103.682C1037.18 103.682 1039.89 103.265 1042.32 102.432C1044.74 101.561 1046.84 100.292 1048.62 98.625C1050.4 96.9583 1051.75 94.8939 1052.66 92.4318L1071.86 94.5909C1070.65 99.6666 1068.34 104.098 1064.93 107.886C1061.56 111.636 1057.24 114.553 1051.98 116.636C1046.71 118.682 1040.69 119.705 1033.91 119.705Z" fill="#0E6131"/>
</svg>
