<svg width="16" height="9" viewBox="0 0 16 9" fill="none" xmlns="http://www.w3.org/2000/svg">
<path d="M7.99997 6.99385e-07C8.09548 -0.000101352 8.19008 0.0192601 8.27832 0.0569722C8.36656 0.0946834 8.4467 0.150001 8.51415 0.219749L15.7869 7.71971C16.071 8.01277 16.071 8.48733 15.7869 8.7802C15.5027 9.07308 15.0425 9.07327 14.7585 8.7802L7.99997 1.81049L1.24143 8.78021C0.957251 9.07327 0.497068 9.07327 0.213069 8.78021C-0.0709305 8.48714 -0.0711137 8.01259 0.213069 7.71971L7.48578 0.219749C7.55323 0.150001 7.63338 0.0946834 7.72162 0.0569723C7.80986 0.0192602 7.90445 -0.000101335 7.99997 6.99385e-07Z" fill="#7D7D7D"/>
</svg>
