<svg width="24" height="34" viewBox="0 0 24 34" fill="none" xmlns="http://www.w3.org/2000/svg">
<path fill-rule="evenodd" clip-rule="evenodd" d="M16.5244 32.8767C16.7829 33.2945 17.1963 33.593 17.6741 33.7071C18.152 33.8211 18.6556 33.7413 19.0748 33.4852C19.4941 33.2291 19.795 32.8175 19.9117 32.3403C20.0284 31.8631 19.9516 31.359 19.6979 30.9383L15.439 24.0286L14.5452 20.412C14.5024 20.462 14.4604 20.5124 14.4187 20.5634L11.5302 23.6701L11.8841 25.1002C11.9248 25.3271 12.0075 25.5444 12.1278 25.741L16.5244 32.8767ZM2.3181 31.2269L5.08573 23.8962C5.18291 23.6372 5.33632 23.4029 5.53491 23.2103L9.85969 18.4225V10.5675C9.86085 9.97171 10.098 9.4007 10.5193 8.97945C10.9405 8.55819 11.5115 8.32102 12.1073 8.31986C12.713 8.31986 12.9698 8.4874 13.462 8.73388L22.8094 14.1306C22.9976 14.2396 23.1625 14.3846 23.2946 14.5573C23.4268 14.7301 23.5236 14.9271 23.5796 15.1373C23.6356 15.3475 23.6497 15.5666 23.621 15.7822C23.5923 15.9978 23.5215 16.2056 23.4124 16.3938C23.3034 16.582 23.1584 16.7469 22.9857 16.8791C22.813 17.0112 22.6159 17.1081 22.4057 17.1641C22.1956 17.2201 21.9764 17.2341 21.7609 17.2055C21.5453 17.1768 21.3374 17.1059 21.1492 16.9969L14.3548 13.0741V18.3446C14.3548 19.3139 14.2305 19.2771 13.6951 19.9325L8.47831 25.5435L5.83327 32.5503C5.65774 33.0164 5.30426 33.3937 4.85057 33.5991C4.39689 33.8046 3.88017 33.8214 3.41408 33.6459C2.948 33.4703 2.57073 33.1169 2.36527 32.6632C2.15981 32.2095 2.14299 31.6928 2.31851 31.2267L2.3181 31.2269ZM11.237 0.875366C10.6944 0.875366 10.164 1.03627 9.71282 1.33773C9.26165 1.63919 8.91001 2.06767 8.70236 2.56898C8.49471 3.07029 8.44038 3.62192 8.54624 4.15411C8.65209 4.6863 8.91339 5.17515 9.29708 5.55883C9.68076 5.94252 10.1696 6.20382 10.7018 6.30967C11.234 6.41553 11.7856 6.3612 12.2869 6.15355C12.7882 5.9459 13.2167 5.59426 13.5182 5.14309C13.8196 4.69192 13.9805 4.16149 13.9805 3.61888C13.9805 2.89125 13.6915 2.19343 13.177 1.67892C12.6625 1.16441 11.9647 0.875366 11.237 0.875366ZM8.90035 15.4478V10.6413L6.72484 12.874L2.17735 14.1562C1.75575 14.2731 1.39755 14.5522 1.18099 14.9323C0.964422 15.3125 0.907088 15.7629 1.02151 16.1852C1.13592 16.6075 1.41279 16.9674 1.79165 17.1863C2.17051 17.4051 2.62058 17.4652 3.04357 17.3533L8.19914 15.9576C8.37405 15.9124 8.53316 15.82 8.65901 15.6903L8.90035 15.4478Z" fill="white"/>
</svg>
