<svg width="41" height="27" viewBox="0 0 41 27" fill="none" xmlns="http://www.w3.org/2000/svg">
<path d="M40.112 7.97746C40.0165 7.69838 39.678 7.48133 39.3953 7.48133C38.1714 7.48133 36.9476 7.48133 35.7237 7.48133C35.4411 7.48133 35.1025 7.69838 35.0069 7.97746C34.9134 8.25061 34.8436 8.49433 34.7972 8.72354L32.3446 1.91355C31.9401 0.790595 30.8687 0.0361328 29.6791 0.0361328H10.921C9.73126 0.0361328 8.66014 0.790595 8.25541 1.91376L5.80274 8.72436C5.75621 8.49494 5.68636 8.25091 5.59279 7.97746C5.49729 7.69838 5.15864 7.48133 4.8761 7.48133C3.65226 7.48133 2.42841 7.48133 1.20447 7.48133C0.921922 7.48133 0.583278 7.69838 0.487773 7.97746C0.115936 9.06403 0.11614 9.68606 0.487875 10.7727C0.583379 11.0518 0.922024 11.2689 1.20457 11.2689C2.42851 11.2689 3.65236 11.2689 4.8762 11.2689C4.87966 11.2689 4.88333 11.2679 4.88689 11.2678L4.8315 11.4218C4.08284 11.6715 3.54229 12.3788 3.54229 13.2141V18.9168V19.3868V25.6972C3.54229 26.1988 3.94732 26.6053 4.44714 26.6053H9.00113C9.50084 26.6053 9.90598 26.1988 9.90598 25.6972V21.2762H30.694V25.6972C30.694 26.1988 31.0991 26.6053 31.5989 26.6053H36.1528C36.6527 26.6053 37.0577 26.1988 37.0577 25.6972V19.3868V18.9168V13.2141C37.0577 12.379 36.5174 11.6718 35.769 11.4219L35.7135 11.2678C35.7169 11.2679 35.7204 11.2688 35.7238 11.2688C36.9477 11.2688 38.1715 11.2688 39.3954 11.2688C39.6781 11.2688 40.0166 11.0517 40.1121 10.7726C40.4839 9.68606 40.4837 9.06403 40.112 7.97746ZM11.2675 3.37813H29.3301L32.192 11.3246H8.4057L11.2675 3.37813ZM11.7713 16.9226H7.96147C7.14408 16.9226 6.48155 16.2576 6.48155 15.4373C6.48155 14.617 7.14398 13.9519 7.96147 13.9519H11.7713C12.5886 13.9519 13.2512 14.6169 13.2512 15.4373C13.2513 16.2576 12.5886 16.9226 11.7713 16.9226ZM32.6382 16.9226H28.8284C28.0111 16.9226 27.3485 16.2576 27.3485 15.4373C27.3485 14.617 28.0111 13.9519 28.8284 13.9519H32.6382C33.4556 13.9519 34.1181 14.6169 34.1181 15.4373C34.1181 16.2576 33.4556 16.9226 32.6382 16.9226Z" fill="white"/>
</svg>
