<svg width="27" height="33" viewBox="0 0 27 33" fill="none" xmlns="http://www.w3.org/2000/svg">
<path d="M23.2509 15.4916H3.34834V7.19887H23.2509M20.763 25.4429C20.1032 25.4429 19.4704 25.1807 19.0039 24.7142C18.5373 24.2476 18.2752 23.6148 18.2752 22.955C18.2752 22.2952 18.5373 21.6624 19.0039 21.1959C19.4704 20.7293 20.1032 20.4672 20.763 20.4672C21.4229 20.4672 22.0556 20.7293 22.5222 21.1959C22.9888 21.6624 23.2509 22.2952 23.2509 22.955C23.2509 23.6148 22.9888 24.2476 22.5222 24.7142C22.0556 25.1807 21.4229 25.4429 20.763 25.4429ZM5.83615 25.4429C5.17634 25.4429 4.54356 25.1807 4.077 24.7142C3.61045 24.2476 3.34834 23.6148 3.34834 22.955C3.34834 22.2952 3.61045 21.6624 4.077 21.1959C4.54356 20.7293 5.17634 20.4672 5.83615 20.4672C6.49596 20.4672 7.12875 20.7293 7.5953 21.1959C8.06186 21.6624 8.32397 22.2952 8.32397 22.955C8.32397 23.6148 8.06186 24.2476 7.5953 24.7142C7.12875 25.1807 6.49596 25.4429 5.83615 25.4429ZM0.03125 23.7843C0.03125 25.2438 0.678082 26.5541 1.68979 27.4663V30.4185C1.68979 30.8584 1.86453 31.2802 2.17557 31.5913C2.48661 31.9023 2.90846 32.077 3.34834 32.077H5.00688C5.44675 32.077 5.86861 31.9023 6.17965 31.5913C6.49068 31.2802 6.66542 30.8584 6.66542 30.4185V28.7599H19.9338V30.4185C19.9338 30.8584 20.1085 31.2802 20.4195 31.5913C20.7306 31.9023 21.1524 32.077 21.5923 32.077H23.2509C23.6907 32.077 24.1126 31.9023 24.4236 31.5913C24.7347 31.2802 24.9094 30.8584 24.9094 30.4185V27.4663C25.9211 26.5541 26.5679 25.2438 26.5679 23.7843V7.19887C26.5679 1.39397 20.6304 0.564697 13.2996 0.564697C5.96884 0.564697 0.03125 1.39397 0.03125 7.19887V23.7843Z" fill="white"/>
</svg>
